<?xml version="1.0" encoding="UTF-8"?>
<svg id="Layer_2" data-name="Layer 2" xmlns="http://www.w3.org/2000/svg" viewBox="0 0 489.08 492.43">
  <defs>
    <style>
      .cls-1 {
        fill: #deeacc;
      }

      .cls-2 {
        fill: #5e8d3e;
      }

      .cls-3 {
        fill: #fff;
      }

      .cls-4 {
        fill: #94be47;
      }

      .cls-5 {
        fill: none;
        stroke: #000;
        stroke-miterlimit: 10;
        stroke-width: 10px;
      }

      .cls-6 {
        fill: #fefefe;
      }

      .cls-7 {
        fill: #d1aa67;
      }
    </style>
  </defs>
  <g id="Layer_1-2" data-name="Layer 1">
    <circle class="cls-5" cx="246.56" cy="245.21" r="181.78"/>
    <g>
      <path class="cls-4" d="M418.06,31.84c-3.45-.79-10.86,2.97-12.08,2.12-.42-.29-3.21-7.8-4.08-9.39-4.37-8.04-10.89-14.79-20.31-16.34-1.52-.25-3.47.32-4.81-.29-.83-.38-2.91-3.06-3.97-3.92-5.77-4.7-11.41-4.6-18.42-3.13-27.29,5.71-42.11,40.53-48.24,64.72l-27.52,8.43c-2.2.68-4,1.93-4.54,4.28-8.14,52.86-12.95,106.3-20.77,159.21-.19,1.26-1.5,2.01-.11,2.49l151.86,28.39c.46.5,1.35.75,1.39,0l.96-.54c4.03-78.69,7.78-157.31,11.26-235.85l-.61-.18ZM317.38,61.99c-.15-2.03.76-3.92,1.38-5.81,5.2-15.85,16.52-38.63,32.96-44.98,4.54-1.75,9.77-2.54,14.37-.7-2.88,2.18-6.1,3.83-8.82,6.25-10.74,9.53-16.29,24.89-19.13,38.63l-20.77,6.6ZM348.93,52.25c2.55-10.58,7.81-22.26,16.48-29.21.94-.75,5.22-3.59,6.11-3.67.84-.08.85.52,1.11,1.07,3.12,6.7,2.45,16.16,3.15,23.39l-26.84,8.41ZM384.66,41.12c.33-8.03-.59-15.95-2.79-23.65,9.11,1.52,12.82,11.66,15.76,19.22l-12.97,4.44Z"/>
      <path class="cls-2" d="M418.06,31.84c.51.12,1.16-.09,1.63.44l16,16.02c3.62.38,7.28.84,10.9,1.16,2.49.22,10.81.01,12.29,1.17.37.29.68.58.81,1.04l28.82,192.91.56,5.91-82.15,17.91c-.14.25-.29.25-.46,0l11.6-236.56Z"/>
      <path class="cls-1" d="M406.46,268.41h.46c-.54,1.25-1.35,1.2-1.86,0h1.39Z"/>
      <path class="cls-6" d="M378.16,95.86l-10.22,30.61c-9.71-5.53-35.76-9.32-37.07,6.79-.68,8.36,13.88,16.19,19.67,21.06,12.49,10.5,17.74,20.53,16.48,37.32-1.12,14.9-10.48,29.59-24.95,34.43-17.11,5.72-41.07-.49-52.53-14.48l6.5-22.95c7.33,6.13,29.04,19.2,35.35,6.36,6.51-13.24-12.71-22.54-19.82-30.47-16.41-18.3-8.17-48.48,10.29-62.08,15.29-11.26,38.77-13.44,56.3-6.56Z"/>
    </g>
    <g>
      <path class="cls-7" d="M285.33,349.77c0,78.79-63.87,142.67-142.67,142.67S0,428.56,0,349.77s63.87-142.67,142.66-142.67,142.67,63.87,142.67,142.67Z"/>
      <g>
        <path class="cls-3" d="M218.19,282.91c-.33-.19-.85-.1-1.29-.1-9.36,0-18.71,0-28.07,0-4.28,0-4.26,0-5.69,3.91-5.61,15.27-11.24,30.54-16.87,45.81-4.76,12.93-9.53,25.86-14.3,38.79h0c-1.12,3.04-2.24,6.08-3.36,9.12-1.15,3.11-2.31,6.22-3.6,9.7-.47-.91-.79-1.45-1.02-2.02-2.43-6-4.83-12.01-7.27-18-6.09-14.94-12.19-29.88-18.28-44.81h0c-.22-.53-.44-1.07-.65-1.6-5.33-13.07-10.67-26.13-15.96-39.21-.48-1.19-1.03-1.7-2.46-1.69-10.35.07-20.69.04-31.04.04h-1.69v1.78c.77.04,1.48.01,2.18.12,2.39.37,4.8.66,7.18,1.04h0s.25.03.64.1c1.24.21,2.46.44,3.67.75.62.16,1.2.36,1.76.59.43.16.8.32,1.05.48,0,0,.01,0,.02,0,.19.1.35.22.54.33,1.52.92,3.09,1.76,4.77,3.92,0,14.84,0,83.14-.02,90.82,0,3.86-.14,7.73-.55,11.57-.6,5.64-3.16,10.25-9.09,12.09-3.14.97-6.56,1.15-9.85,1.68-.66.11-1.5-.16-1.52.95-.02,1.14.82.93,1.49.93,15.08,0,30.16,0,45.24,0,.66,0,1.51.23,1.52-.91,0-1.09-.82-.89-1.5-.97-3.16-.33-6.37-.47-9.48-1.06-6.32-1.19-11.2-4.28-12.66-10.71-.75-3.33-1.12-6.81-1.14-10.22-.05-8.17-.08-69.56-.12-90.35.16.32.32.65.48,1,.05.1.08.19.12.29,2.11,4.4,3.95,8.8,5.74,13.21,6.72,16.51,13.42,33.02,20.13,49.53.4.97.8,1.95,1.19,2.92h0c6.18,15.19,12.37,30.38,18.58,45.56.34.83.55,1.8,1.96,1.75,1.36-.05,1.43-1,1.71-1.79,2.42-6.62,4.79-13.26,7.21-19.88,5.68-15.51,11.37-31.02,17.06-46.52v-.02c.26-.72.53-1.43.79-2.15,5.24-14.28,10.5-28.56,15.75-42.84,1.02-2.76,2.06-5.52,3.09-8.28.17.04.34.07.51.11v1.69c0,26.99,0,8.33-.02,35.32h.1v60.77c0,43.71-5.25,52.69-16.26,63.87-1.52,1.52-3.9,3.56-5.93,4.74-1.52,1.02-2.37,1.53-2.37,2.54,0,.68.68,1.02,1.19,1.02s.84-.17,1.19-.34c1.69-.85,4.4-2.71,6.61-4.24,13.72-9.49,21.17-17.45,24.73-25.92,5.08-12.03,5.08-22.53,5.08-49.98v-52.47h0c0-1.97,0-3.59,0-4.93,0-6.6,0-8.95,0-13.23h-.01c0-1.25,0-2.72,0-4.48,0-2.96.17-5.93.46-8.88.52-5.23,3.05-7.8,8.45-8.59,3.04-.44,6.12-.58,9.17-.92.42-.05.92-.39,1.14-.73.12-.19-.19-.83-.47-.99Z"/>
        <path class="cls-3" d="M161.82,459.96c-1.22,0-2.54-.91-2.54-2.37,0-1.69,1.21-2.5,2.75-3.52l.23-.15c2.06-1.2,4.36-3.21,5.72-4.57,10.13-10.29,15.87-18.28,15.87-62.91v-59.42l-.1-1.36v-17.34c.01-1.97.02-3.43.02-13.65-.33.87-.65,1.74-.97,2.62-5.25,14.28-10.51,28.56-15.75,42.84l-.78,2.16c-5.69,15.51-11.39,31.01-17.06,46.53-1.19,3.26-2.37,6.53-3.55,9.8-1.21,3.36-2.43,6.72-3.66,10.08l-.1.29c-.23.75-.72,2.31-2.85,2.38h0c-2.26,0-2.87-1.59-3.16-2.36l-.09-.23c-6.21-15.18-12.39-30.37-18.58-45.56l-21.33-52.45c-1.3-3.21-2.5-6.07-3.72-8.83,0,7.62.02,17.82.03,28.51.02,23.66.05,50.47.08,55.64.02,3.4.39,6.74,1.11,9.93,1.19,5.27,4.98,8.44,11.58,9.68,2.1.39,4.31.59,6.46.77.97.08,1.95.17,2.92.27.09,0,.18.01.27.01,2.02.07,2.45,1.29,2.45,2.3,0,1.41-.88,2.28-2.28,2.28l-.6-.02h-22.62s-22.62,0-22.62,0l-.56.02c-.27,0-1.08,0-1.69-.62-.41-.42-.61-.99-.6-1.7.02-.99.45-2.17,2.39-2.25.09,0,.18,0,.27-.02,1.01-.16,2.03-.29,3.05-.42,2.33-.29,4.53-.57,6.61-1.21,4.85-1.5,7.51-5.08,8.14-10.94.36-3.36.53-6.99.54-11.42,0-5.4.01-40.79.01-66.47v-23.86c-1.27-1.52-2.46-2.24-3.71-2.99l-.64-.39c-.07-.05-.15-.1-.23-.14-.18-.11-.38-.23-.89-.41-.63-.25-1.14-.43-1.64-.55-1.24-.32-2.5-.54-3.57-.73l-.62-.1c-1.3-.21-2.61-.39-3.93-.57-1.09-.15-2.17-.3-3.25-.47-.41-.06-.84-.07-1.28-.08-.25,0-.5-.01-.76-.02l-1.29-.07v-4.43h17.98c5.37,0,10.73,0,16.1-.04,2.38,0,3.22,1.28,3.72,2.54,4.36,10.79,8.76,21.56,13.15,32.33l9.79,24c3.98,9.77,7.97,19.53,11.95,29.3,1.37,3.37,2.73,6.75,4.09,10.13.93,2.3,1.86,4.61,2.79,6.92l.1-.28c.82-2.21,1.6-4.3,2.37-6.4l20.62-55.98c4.64-12.58,9.27-25.16,13.9-37.74,1.63-4.44,2.15-4.79,6.96-4.79h28.33c.47-.03,1.03-.1,1.69.28.59.34.98,1.04,1.12,1.58.15.61,0,1.05-.17,1.31-.44.71-1.33,1.27-2.14,1.36-1.23.14-2.46.24-3.69.35-1.79.15-3.65.31-5.44.57-4.79.69-6.83,2.76-7.29,7.38-.3,3-.45,5.95-.46,8.75v3.12h0v1.36c0,4.28,0,6.63,0,13.22v6.29s0,0,0,0v51.12c0,27.81,0,38.22-5.19,50.5-3.72,8.84-11.49,17.02-25.21,26.5-2.49,1.72-5.06,3.47-6.77,4.33-.41.2-.97.48-1.79.48ZM186.46,324.31l.1,1.34v60.77c0,43.38-5.07,53.06-16.65,64.82-1.56,1.56-4,3.68-6.21,4.96l-.16.11c-.31.21-.61.41-.87.59,1.71-.91,4.49-2.83,6.18-4.01,13.27-9.17,20.75-16.98,24.26-25.33,4.97-11.78,4.97-22.04,4.97-49.45v-57.4c0-5.88,0-8.39,0-11.89v-1.34s0-4.48,0-4.48c0-2.89.17-5.92.47-9.01.58-5.82,3.63-8.93,9.6-9.79.12-.02.24-.03.37-.05h-19.68q-3.31,0-4.39,2.94s0,0,0,0l2.04.44v2.78c0,14.19,0,15.76,0,17.98v15.99ZM138.68,408.64s.06.02.22.02c.2,0,.26-.03.26-.03,0-.03.09-.28.14-.45.04-.14.09-.28.14-.42,1.23-3.36,2.44-6.71,3.65-10.07.59-1.64,1.18-3.27,1.78-4.91l-1.47-2.85c-.27-.51-.48-.9-.65-1.32-1.06-2.63-2.12-5.25-3.18-7.88-1.36-3.37-2.72-6.75-4.09-10.11-3.98-9.77-7.96-19.53-11.95-29.3l-9.79-24c-4.4-10.77-8.79-21.55-13.15-32.33-.31-.76-.42-.84-1.17-.84-5.4.04-10.77.05-16.14.05h-8.63c.08,0,.15.02.23.03v-.02s2.03.34,2.03.34c1.09.19,2.42.43,3.75.77.62.15,1.25.37,1.94.65.53.19.96.39,1.28.6.07.03.22.13.36.22l.55.34c1.4.84,2.99,1.8,4.64,3.87v-1.04l2.58,5.22c.17.33.33.68.49,1.04l.08.18c2.05,4.27,3.8,8.42,5.81,13.36l21.33,52.45c6.18,15.19,12.37,30.38,18.58,45.55l.11.28c.08.2.21.53.28.6h0ZM75.16,408.62h16.39s14.36,0,14.36,0c-.49-.07-.98-.15-1.47-.24-7.67-1.44-12.29-5.39-13.73-11.75-.55-2.43-.91-4.94-1.07-7.5-.09,1.89-.23,3.65-.41,5.35-.74,6.95-4.12,11.41-10.03,13.24-1.32.41-2.68.68-4.05.9Z"/>
      </g>
    </g>
  </g>
</svg>