<?xml version="1.0" encoding="UTF-8"?>
<svg id="Layer_2" data-name="Layer 2" xmlns="http://www.w3.org/2000/svg" viewBox="0 0 256.12 240.59">
  <defs>
    <style>
      .cls-1 {
        fill: #005e87;
      }
    </style>
  </defs>
  <g id="Layer_1-2" data-name="Layer 1">
    <g>
      <g>
        <path class="cls-1" d="M60.07,193.45c7.46-3.59,12.11-11.22,11.88-19.5v-.29c.15-5.76-2.09-11.32-6.18-15.38-6.52-5.7-15.03-8.57-23.67-8H.05l-.05,90.3h43.11c20.46,0,33.87-8.29,33.87-24.86,0-12.17-6.47-18.25-16.91-22.28ZM19.45,167.73h19.83c8.29,0,13.08,3.59,13.08,9.58,0,6.71-5.6,9.58-14.37,9.58h-18.54v-19.16ZM57.34,213.77c0,6.47-5.27,9.58-14.08,9.58l-23.81.48v-19.93h23.19c10.2,0,14.71,3.55,14.71,9.58v.29Z"/>
        <path class="cls-1" d="M149.56,193.45c7.46-3.59,12.11-11.22,11.88-19.5v-.29c.16-5.75-2.06-11.32-6.13-15.38-6.52-5.7-15.03-8.57-23.67-8h-42.06v90.3h43.02c20.46,0,33.92-8.29,33.92-24.86,0-12.17-6.47-18.25-16.96-22.28ZM108.74,167.73h19.98c8.24,0,13.03,3.59,13.03,9.58,0,6.71-5.6,9.58-14.37,9.58h-18.64v-19.16ZM146.73,213.77c0,6.47-5.27,9.58-14.08,9.58l-23.9.48v-19.93h23.28c10.2,0,14.71,3.55,14.71,9.58v.29Z"/>
        <path class="cls-1" d="M239.16,193.45c7.46-3.59,12.11-11.22,11.88-19.5v-.29c.15-5.76-2.09-11.32-6.18-15.38-6.52-5.7-15.03-8.57-23.67-8h-42.06l-.05,90.3h43.11c20.46,0,33.92-8.29,33.92-24.86,0-12.17-6.47-18.25-16.96-22.28ZM198.53,167.73h19.74c8.24,0,13.03,3.59,13.03,9.58,0,6.71-5.6,9.58-14.37,9.58h-18.4v-19.16ZM236.33,213.77c0,6.47-5.32,9.58-14.13,9.58l-23.67.48v-19.93h23.04c10.2,0,14.75,3.55,14.75,9.58v.29Z"/>
      </g>
      <g>
        <path class="cls-1" d="M106.88,93.09l17.23,12.51c1.91,1.38,2.34,4.05.94,5.95l2.58,1.86,9.1-12.54c2.11-2.89,3.25-6.37,3.26-9.95,0-.91-.08-1.82-.22-2.72-.69-4.45-3.11-8.44-6.74-11.1l-17.21-12.49c-.96-.64-1.61-1.65-1.8-2.79-.02-.22-.02-.45,0-.67,0-.89.29-1.77.81-2.49l-2.58-1.89-9.14,12.56c-5.51,7.6-3.82,18.23,3.77,23.75Z"/>
        <path class="cls-1" d="M118.97,53.5l21.66,15.73c2.84,2.05,4.74,5.15,5.28,8.61.12.7.18,1.4.18,2.11-.01,2.77-.9,5.46-2.54,7.68l2.09,1.51,17.05-23.57c7.96-11.04,5.5-26.44-5.5-34.44l-26.13-18.99c-1.63-1.18-2.73-2.97-3.03-4.97-.33-1.99.15-4.03,1.35-5.66l-2.07-1.51-13.82,19.05c-3.05,4.19-4.7,9.24-4.7,14.42,0,1.32.1,2.63.31,3.93,1,6.47,4.56,12.26,9.86,16.09Z"/>
        <polygon class="cls-1" points="163.32 117.64 91.36 117.64 88.75 126.25 107.94 126.25 111.58 138.11 143.1 138.11 146.76 126.25 165.93 126.25 163.32 117.64"/>
      </g>
    </g>
  </g>
</svg>