<?xml version="1.0" encoding="UTF-8"?>
<svg id="Layer_1" xmlns="http://www.w3.org/2000/svg" version="1.1" xmlns:xlink="http://www.w3.org/1999/xlink" viewBox="0 0 420 419.8">
  <!-- Generator: Adobe Illustrator 29.0.1, SVG Export Plug-In . SVG Version: 2.1.0 Build 192)  -->
  <defs>
    <style>
      .st0 {
        fill: url(#linear-gradient2);
      }

      .st1 {
        fill: url(#linear-gradient1);
      }

      .st2 {
        fill: url(#linear-gradient8);
      }

      .st3 {
        fill: url(#linear-gradient7);
      }

      .st4 {
        fill: url(#linear-gradient4);
      }

      .st5 {
        fill: url(#linear-gradient5);
      }

      .st6 {
        fill: url(#linear-gradient3);
      }

      .st7 {
        fill: url(#linear-gradient6);
      }

      .st8 {
        fill: url(#linear-gradient);
      }
    </style>
    <linearGradient id="linear-gradient" x1="18" y1="209.5" x2="50.1" y2="209.5" gradientUnits="userSpaceOnUse">
      <stop offset="0" stop-color="#b19673"/>
      <stop offset=".5" stop-color="#d7c098"/>
      <stop offset=".9" stop-color="#b39a77"/>
    </linearGradient>
    <linearGradient id="linear-gradient1" x1="369.9" y1="209.5" x2="402" y2="209.5" xlink:href="#linear-gradient"/>
    <linearGradient id="linear-gradient2" x1="203" y1="33.9" x2="217.1" y2="33.9" xlink:href="#linear-gradient"/>
    <linearGradient id="linear-gradient3" x1="69.1" y1="222.2" x2="350.9" y2="222.2" xlink:href="#linear-gradient"/>
    <linearGradient id="linear-gradient4" x1="203" y1="385.2" x2="217" y2="385.2" xlink:href="#linear-gradient"/>
    <linearGradient id="linear-gradient5" x1="321.3" y1="85" x2="347.7" y2="85" xlink:href="#linear-gradient"/>
    <linearGradient id="linear-gradient6" x1="72" y1="85.2" x2="98.7" y2="85.2" xlink:href="#linear-gradient"/>
    <linearGradient id="linear-gradient7" x1="72.2" y1="333.7" x2="98.2" y2="333.7" xlink:href="#linear-gradient"/>
    <linearGradient id="linear-gradient8" x1="321.5" y1="333.5" x2="347.4" y2="333.5" xlink:href="#linear-gradient"/>
  </defs>
  <path class="st8" d="M18,211.8v-4.5c1.6-2.4,3.6-3.8,6.6-4.3,4.2-.7,20.4-.9,23.4,1.7s2.8,7.3,0,9.7-19.2,2.4-23.4,1.7-4.9-1.9-6.6-4.3Z"/>
  <path class="st1" d="M402,207.3v4.5c-1.6,2.4-3.6,3.8-6.6,4.3-4.2.7-20.4.9-23.4-1.7s-2.8-7.3,0-9.7,19.2-2.4,23.4-1.7,4.9,1.9,6.6,4.3Z"/>
  <path class="st0" d="M212.2,17.9c6.7,2.5,5.4,26.6,2.6,29.9s-7.3,2.7-9.7,0-2.4-19.2-1.7-23.4,2-4.9,4.3-6.5h4.5Z"/>
  <path class="st6" d="M121.3,94.4l174.6-.2c7.9.6,7.8,1.7,11.9,7.6,15,21.6,28.1,45.5,42.7,67.4l.4,3-136.4,176c-3.3,2.6-6.1,2.4-9.3-.4L69.3,172.8l-.2-2.4,47.6-74.6,4.6-1.4ZM198,107h-65.2l31.9,51.7,33.4-51.7ZM287.2,107h-65.2l33.4,51.7,31.9-51.7ZM153,164.6l-32.6-51.6-32.6,51.6h65.2ZM332.2,164.6l-32.6-51.6-32.6,51.6h65.2ZM243,164.6l-33.4-50.9-32.6,50.9h66ZM160.5,177.3h-71.2l108.7,140-37.5-140ZM246,177.3h-72l36.4,134.7,20.5-73.1c3.3-6,12.6-3.6,12,3.7l-20.1,73.9,108-139.2h-71.2l-8.6,34.4c-1.8,5.9-10.9,5.7-12.2.2s6-24,7.1-31.5.3-2.1.2-3.2Z"/>
  <path class="st4" d="M209.1,369.1c1.8-.3,4.6.8,5.8,2.1,2.6,3,2.4,19.8,1.6,24-1.8,8.8-12.1,8-13.2-1.9s-.6-19.1,1.9-22.1,3-2,3.9-2.1Z"/>
  <path class="st5" d="M340.3,71.9c6.1-1,9.4,5.4,6.1,10.6-1.5,2.4-12.3,13-14.8,14.5-7.1,4.2-13-2.3-9-9s11.2-11.9,13.4-13.6,3-2.2,4.3-2.5Z"/>
  <path class="st7" d="M77.8,71.9c1-.1,1.5,0,2.4.2,3.2.8,17.4,15.2,18.3,18.6s-2.8,8.1-6.5,7.8-19.3-15.5-19.9-19.1,2.2-7.1,5.7-7.5Z"/>
  <path class="st3" d="M92,320.5c5.1-.3,7.5,5.4,5.6,9.9s-12.4,13.6-14.4,14.9c-7.3,4.9-14.2-1.9-9.3-9.3s14.7-15.4,18.1-15.6Z"/>
  <path class="st2" d="M327.5,320.5c3.6-.2,17.7,13.3,19.1,16.6,3,6.8-2.5,11.7-9.2,8.4s-13.3-12.3-14.6-14.6c-2.7-4.6-1-10.1,4.7-10.4Z"/>
</svg>