<?xml version="1.0" encoding="UTF-8"?>
<svg id="Layer_1" xmlns="http://www.w3.org/2000/svg" version="1.1" xmlns:xlink="http://www.w3.org/1999/xlink" viewBox="0 0 420 419.8">
  <!-- Generator: Adobe Illustrator 29.0.1, SVG Export Plug-In . SVG Version: 2.1.0 Build 192)  -->
  <defs>
    <style>
      .st0 {
        fill: url(#linear-gradient25);
      }

      .st0, .st1, .st2, .st3, .st4, .st5, .st6, .st7, .st8, .st9, .st10, .st11, .st12, .st13, .st14, .st15, .st16, .st17, .st18, .st19, .st20, .st21, .st22, .st23, .st24, .st25, .st26, .st27, .st28, .st29, .st30, .st31, .st32, .st33, .st34, .st35, .st36, .st37, .st38, .st39, .st40, .st41, .st42, .st43, .st44, .st45, .st46, .st47, .st48 {
        fill-rule: evenodd;
      }

      .st1 {
        fill: url(#linear-gradient32);
      }

      .st2 {
        fill: url(#linear-gradient14);
      }

      .st3 {
        fill: url(#linear-gradient9);
      }

      .st4 {
        fill: url(#linear-gradient10);
      }

      .st5 {
        fill: url(#linear-gradient13);
      }

      .st6 {
        fill: url(#linear-gradient47);
      }

      .st49 {
        mask: url(#mask-1);
      }

      .st7 {
        fill: url(#linear-gradient24);
      }

      .st8 {
        fill: url(#linear-gradient40);
      }

      .st9 {
        fill: url(#linear-gradient41);
      }

      .st50 {
        mask: url(#mask);
      }

      .st10 {
        fill: #fff;
      }

      .st11 {
        fill: url(#linear-gradient6);
      }

      .st12 {
        fill: url(#linear-gradient42);
      }

      .st13 {
        fill: url(#linear-gradient34);
      }

      .st14 {
        fill: url(#linear-gradient36);
      }

      .st15 {
        fill: url(#linear-gradient17);
      }

      .st16 {
        fill: url(#linear-gradient21);
      }

      .st17 {
        fill: url(#linear-gradient18);
      }

      .st18 {
        fill: url(#linear-gradient45);
      }

      .st19 {
        fill: url(#linear-gradient27);
      }

      .st20 {
        fill: url(#linear-gradient31);
      }

      .st21 {
        fill: url(#linear-gradient38);
      }

      .st22 {
        fill: url(#linear-gradient8);
      }

      .st23 {
        fill: url(#linear-gradient28);
      }

      .st24 {
        fill: url(#linear-gradient15);
      }

      .st25 {
        fill: url(#linear-gradient5);
      }

      .st26 {
        fill: url(#linear-gradient1);
      }

      .st27 {
        fill: url(#linear-gradient20);
      }

      .st28 {
        fill: url(#linear-gradient11);
      }

      .st29 {
        fill: url(#linear-gradient35);
      }

      .st30 {
        fill: url(#linear-gradient7);
      }

      .st31 {
        fill: url(#linear-gradient30);
      }

      .st32 {
        fill: url(#linear-gradient29);
      }

      .st33 {
        fill: url(#linear-gradient16);
      }

      .st34 {
        fill: url(#linear-gradient26);
      }

      .st35 {
        fill: url(#linear-gradient33);
      }

      .st36 {
        fill: url(#linear-gradient4);
      }

      .st37 {
        fill: url(#linear-gradient23);
      }

      .st38 {
        fill: url(#linear-gradient46);
      }

      .st39 {
        fill: url(#linear-gradient12);
      }

      .st40 {
        fill: url(#linear-gradient44);
      }

      .st41 {
        fill: url(#linear-gradient19);
      }

      .st42 {
        fill: url(#linear-gradient3);
      }

      .st43 {
        fill: url(#linear-gradient);
      }

      .st44 {
        fill: url(#linear-gradient39);
      }

      .st45 {
        fill: url(#linear-gradient43);
      }

      .st46 {
        fill: url(#linear-gradient37);
      }

      .st47 {
        fill: url(#linear-gradient22);
      }

      .st48 {
        fill: url(#linear-gradient2);
      }
    </style>
    <mask id="mask" x="322.9" y="162.5" width="97.1" height="91.8" maskUnits="userSpaceOnUse">
      <g id="gia-logo-b">
        <polygon id="gia-logo-a" class="st10" points="420 162.5 420 254.3 322.9 254.3 322.9 162.5 420 162.5"/>
      </g>
    </mask>
    <linearGradient id="linear-gradient" x1="322.9" y1="208.4" x2="420" y2="208.4" gradientUnits="userSpaceOnUse">
      <stop offset="0" stop-color="#b19673"/>
      <stop offset=".5" stop-color="#d7c098"/>
      <stop offset=".9" stop-color="#b39a77"/>
    </linearGradient>
    <linearGradient id="linear-gradient1" x1="163.6" y1="209.9" x2="312.5" y2="209.9" xlink:href="#linear-gradient"/>
    <linearGradient id="linear-gradient2" x1="91.4" y1="174.5" x2="97" y2="174.5" xlink:href="#linear-gradient"/>
    <linearGradient id="linear-gradient3" x1="74.1" y1="168.1" x2="78.8" y2="168.1" xlink:href="#linear-gradient"/>
    <linearGradient id="linear-gradient4" x1="98.3" y1="180.4" x2="101.3" y2="180.4" xlink:href="#linear-gradient"/>
    <linearGradient id="linear-gradient5" x1="23.8" y1="208.4" x2="29.6" y2="208.4" xlink:href="#linear-gradient"/>
    <linearGradient id="linear-gradient6" x1="73.3" y1="231.6" x2="81.9" y2="231.6" xlink:href="#linear-gradient"/>
    <linearGradient id="linear-gradient7" x1="85.7" y1="171.2" x2="90.5" y2="171.2" xlink:href="#linear-gradient"/>
    <linearGradient id="linear-gradient8" x1="92.6" y1="242.9" x2="99.2" y2="242.9" xlink:href="#linear-gradient"/>
    <linearGradient id="linear-gradient9" x1="104.7" y1="193.4" x2="111.9" y2="193.4" xlink:href="#linear-gradient"/>
    <linearGradient id="linear-gradient10" x1="41.1" y1="217.5" x2="113.4" y2="217.5" xlink:href="#linear-gradient"/>
    <linearGradient id="linear-gradient11" x1="101.7" y1="187.2" x2="108.6" y2="187.2" xlink:href="#linear-gradient"/>
    <linearGradient id="linear-gradient12" x1="86.4" y1="249" x2="89.9" y2="249" xlink:href="#linear-gradient"/>
    <linearGradient id="linear-gradient13" x1="80.8" y1="169.5" x2="83.7" y2="169.5" xlink:href="#linear-gradient"/>
    <linearGradient id="linear-gradient14" x1="36.7" y1="180.3" x2="39.5" y2="180.3" xlink:href="#linear-gradient"/>
    <linearGradient id="linear-gradient15" x1="41.6" y1="175.8" x2="45.9" y2="175.8" xlink:href="#linear-gradient"/>
    <linearGradient id="linear-gradient16" x1="45.6" y1="172.6" x2="52.2" y2="172.6" xlink:href="#linear-gradient"/>
    <linearGradient id="linear-gradient17" x1="29.4" y1="187.9" x2="36.3" y2="187.9" xlink:href="#linear-gradient"/>
    <mask id="mask-1" x="0" y="140.7" width="138.4" height="138.4" maskUnits="userSpaceOnUse">
      <g id="gia-logo-d">
        <polygon id="gia-logo-c" class="st10" points="0 279.1 0 209.9 0 140.7 138.4 140.7 138.4 279.1 0 279.1"/>
      </g>
    </mask>
    <linearGradient id="linear-gradient18" x1="0" y1="209.9" x2="138.4" y2="209.9" xlink:href="#linear-gradient"/>
    <linearGradient id="linear-gradient19" x1="52.7" y1="169.4" x2="57" y2="169.4" xlink:href="#linear-gradient"/>
    <linearGradient id="linear-gradient20" x1="26.7" y1="186.8" x2="81.9" y2="186.8" xlink:href="#linear-gradient"/>
    <linearGradient id="linear-gradient21" x1="60" y1="168" x2="64.6" y2="168" xlink:href="#linear-gradient"/>
    <linearGradient id="linear-gradient22" x1="24.3" y1="184.2" x2="71.3" y2="184.2" xlink:href="#linear-gradient"/>
    <linearGradient id="linear-gradient23" x1="107.3" y1="219.2" x2="113.8" y2="219.2" xlink:href="#linear-gradient"/>
    <linearGradient id="linear-gradient24" x1="24.3" y1="215.1" x2="30.1" y2="215.1" xlink:href="#linear-gradient"/>
    <linearGradient id="linear-gradient25" x1="29.4" y1="230.8" x2="35" y2="230.8" xlink:href="#linear-gradient"/>
    <linearGradient id="linear-gradient26" x1="25" y1="224" x2="32.2" y2="224" xlink:href="#linear-gradient"/>
    <linearGradient id="linear-gradient27" x1="105.1" y1="226" x2="111.9" y2="226" xlink:href="#linear-gradient"/>
    <linearGradient id="linear-gradient28" x1="101.7" y1="232.3" x2="108.9" y2="232.3" xlink:href="#linear-gradient"/>
    <linearGradient id="linear-gradient29" x1="32.9" y1="237" x2="40.1" y2="237" xlink:href="#linear-gradient"/>
    <linearGradient id="linear-gradient30" x1="71" y1="252.3" x2="74.8" y2="252.3" xlink:href="#linear-gradient"/>
    <linearGradient id="linear-gradient31" x1="77.8" y1="251.1" x2="81.1" y2="251.1" xlink:href="#linear-gradient"/>
    <linearGradient id="linear-gradient32" x1="38.2" y1="242.3" x2="45.3" y2="242.3" xlink:href="#linear-gradient"/>
    <linearGradient id="linear-gradient33" x1="64.2" y1="252.3" x2="67.8" y2="252.3" xlink:href="#linear-gradient"/>
    <linearGradient id="linear-gradient34" x1="58.2" y1="251.4" x2="60.9" y2="251.4" xlink:href="#linear-gradient"/>
    <linearGradient id="linear-gradient35" x1="49" y1="249" x2="52.5" y2="249" xlink:href="#linear-gradient"/>
    <linearGradient id="linear-gradient36" x1="108.5" y1="213.1" x2="114.5" y2="213.1" xlink:href="#linear-gradient"/>
    <linearGradient id="linear-gradient37" x1="80.1" y1="219.9" x2="83.4" y2="219.9" xlink:href="#linear-gradient"/>
    <linearGradient id="linear-gradient38" x1="108.5" y1="206.5" x2="114.6" y2="206.5" xlink:href="#linear-gradient"/>
    <linearGradient id="linear-gradient39" x1="51.5" y1="226" x2="80.2" y2="226" xlink:href="#linear-gradient"/>
    <linearGradient id="linear-gradient40" x1="74.1" y1="225.1" x2="82.4" y2="225.1" xlink:href="#linear-gradient"/>
    <linearGradient id="linear-gradient41" x1="51.5" y1="222.2" x2="57.1" y2="222.2" xlink:href="#linear-gradient"/>
    <linearGradient id="linear-gradient42" x1="60" y1="222.3" x2="65.6" y2="222.3" xlink:href="#linear-gradient"/>
    <linearGradient id="linear-gradient43" x1="54.7" y1="227.5" x2="58" y2="227.5" xlink:href="#linear-gradient"/>
    <linearGradient id="linear-gradient44" x1="60.2" y1="227.1" x2="65.6" y2="227.1" xlink:href="#linear-gradient"/>
    <linearGradient id="linear-gradient45" x1="58.8" y1="227.6" x2="62.5" y2="227.6" xlink:href="#linear-gradient"/>
    <linearGradient id="linear-gradient46" x1="73.4" y1="227.9" x2="76.6" y2="227.9" xlink:href="#linear-gradient"/>
    <linearGradient id="linear-gradient47" x1="55.1" y1="222" x2="62.3" y2="222" xlink:href="#linear-gradient"/>
  </defs>
  <g>
    <g class="st50">
      <path class="st43" d="M392.5,252.5c-.5-1.3-1-3.2-1-3.2l-9.4-25c-.2-.6-.6-.8-1.2-.8h-26.3c-.5,0-.8.3-1.1.9l-6.4,16.9c-1.2,2.9-1.8,5.3-1.8,7.2s.4,2.1,1.1,2.7c.7.6,1.9.9,3.7.9h1.8c1.2,0,1.8.3,1.8.9s-.7,1.2-2,1.2-3.6,0-6.4-.1c-3.1-.2-5.1-.2-6.1-.2s-1.1,0-2.6.1c-1.2,0-2.9,0-5,.1-2.2,0-4.3.1-6.3.1s-2.2-.4-2.2-1.2.5-.9,1.4-.9,2.4,0,3.7-.2c2.5-.3,4.5-1.3,5.9-3,1.4-1.7,2.8-4.2,4.1-7.6l29.6-74.1c.7-1.8,1.3-3,1.8-3.7.5-.7,1-1,1.5-1,.9,0,1.9,1.3,3,3.8.5,1.2,1.7,4,3.5,8.6l7.1,17.8,11.3,28,3.1,7.8,4.2,10.3c2,4.7,3.8,7.9,5.4,9.7,1.7,1.7,3.3,2.8,5,3.2,1.6.3,3.2.5,5,.5s1.5.3,1.5.9-.4.8-1.1.9c-.7.2-2.2.2-4.4.2l-11.3-.3c-3.3,0-6.7.3-9.2.3s-1.1-.5-1.6-1.8M356.9,217.6h21.7c.4,0,.6-.2.6-.7l-10.6-29.1h0c-.2-.7-.4-1.1-.6-1.1s-.5.4-.7,1.1l-10.9,29c0,.6.2.8.5.8"/>
    </g>
    <path class="st26" d="M248,209.5c0,.3,0,8.3,0,8.3,0,2.4-.1,8.7-.1,15.8v12.9c0,1.6,0,2.6-.2,3-.2.4-.6.8-1.3,1.2-3.5,1.8-7.8,3.1-12.9,4-5.1.9-10.2,1.3-15.4,1.3-7.5,0-14.4-.9-20.9-2.7-6.5-1.8-12.3-4.6-17.3-8.4-5-3.8-9-8.6-11.8-14.5-2.9-5.9-4.3-12.8-4.3-20.6s1.9-16.5,5.8-23.2c3.9-6.7,8.8-11.8,14.6-15.3,5.1-3.1,10.2-5.1,15.2-6.1,5-1,10.5-1.5,16.5-1.5s4,0,6,.2c2,.1,4.2.3,6.4.5,2.2.2,4,.5,5.4.6,1.4.2,2.4.4,3.1.5,1.6.3,3.2.6,4.9.8,1.7.2,3.2.4,4.4.5,1.1,0,1.6.5,1.6,1.4s0,.7-.1,1.3c-.2,1.7-.3,3.9-.5,6.5s-.2,6.5-.2,11.5-.4,2.5-1.3,2.5-1-.5-1.2-1.5c-.2-1.9-.6-3.6-1.2-5.2-.6-1.6-1.5-3.1-2.8-4.5-2.1-2.3-5.5-4.4-10.2-6.3-4.7-1.9-10-2.9-16.1-2.9s-8.4.5-12.1,1.4c-3.8.9-7.5,2.9-11.2,5.9-3.4,2.9-6.1,6.7-8,11.4-1.9,4.7-2.8,10.5-2.8,17.5s1,12.1,2.9,17.5c1.9,5.4,4.7,10.1,8.3,14.1,3.6,4,7.9,7.1,13,9.3,5.1,2.2,10.7,3.3,16.8,3.3s4.1,0,5.7-.2c1.6-.2,3-.5,4.3-1.1,1.5-.7,2.2-2.2,2.2-4.4v-11.1c0-6.9,0-13.2-.1-15.6,0-2-.5-3.6-1.2-4.6-.7-1-2-1.7-3.9-2.1-.9-.2-2.5-.4-4.6-.4s-1.8-.3-1.8-.9.8-1.2,2.5-1.2,5.7,0,10.7.2c3.5,0,5.6.1,6.4.1s3,0,6.2-.2c.7,0,.8.5.8.7M284.9,220.2v-38.8c0-2.6,0-4.9-.2-6.8-.2-3.8-1.6-6-4-6.6-1.2-.3-2.6-.5-4.2-.5s-1.9-.4-1.9-1.2.9-.9,2.8-.9,4.4,0,8.6.2c3.3,0,5.5.1,6.7.1s2.9,0,5.8-.1c4.1-.2,6.9-.2,8.6-.2s2.5.3,2.5.9-.6,1.2-1.9,1.2-2.1.1-3.5.4c-1.6.3-2.6,1-3.2,2-.6,1-1,2.6-1.1,4.7-.2,2-.2,4.2-.2,6.8v38.8c0,7.3,0,12.8,0,16.7,0,3.8.2,6.8.4,9.1.2,1.8.7,3.2,1.3,4.1.6.9,1.8,1.5,3.4,1.7.9,0,1.8.2,2.9.3,1.1.1,2.1.2,3.1.2s1.9.3,1.9.9-.7,1.2-2.2,1.2c-3.3,0-7.6,0-12.9-.2-2.5,0-4.3-.1-5.4-.1s-2.5,0-5.5.1c-4.5.2-7.6.2-9.3.2s-2.4-.4-2.4-1.2.6-.9,1.9-.9,2.8-.2,4.2-.5c1.9-.4,3-2.4,3.4-5.9.2-2.3.4-5.3.5-9.1,0-3.8.1-9.3.1-16.5"/>
  </g>
  <polygon class="st48" points="93.6 175.8 97 174 96 173.3 93.8 174.6 94.3 172.1 93.2 171.4 92.7 175.1 91.4 177.1 92.3 177.7 93.6 175.8"/>
  <path class="st42" d="M75.6,168.5h.8c0,.1.7,2.6.7,2.6l1.3.2-.8-2.7c.1,0,.3,0,.4-.1.1,0,.3-.2.4-.3.1-.1.2-.2.3-.4,0-.2.1-.3.2-.5,0-.2,0-.5,0-.7,0-.2-.1-.4-.3-.6-.1-.2-.3-.3-.5-.5-.2-.1-.5-.2-.7-.3l-2.2-.4-1,5.7,1.1.2.4-2.3ZM76,166l1,.2c.2,0,.4.1.5.3.1.2.2.4.1.6,0,.2-.1.4-.3.5-.2.1-.4.1-.6.1l-1-.2.3-1.5Z"/>
  <polygon class="st36" points="101.3 179.1 98.5 178.9 98.3 181.7 101.1 181.8 101.3 179.1"/>
  <polygon class="st25" points="29.6 206.6 28.6 206.6 28.6 209.2 27.2 209.2 27.2 206.9 26.2 206.9 26.2 209.2 24.8 209.1 24.9 206.4 23.9 206.4 23.8 210.2 29.5 210.4 29.6 206.6"/>
  <polygon class="st11" points="73.8 230.9 73.3 232.3 81.9 232.3 81.6 230.9 73.8 230.9"/>
  <polygon class="st30" points="86.7 174.3 88.7 170.1 90.1 170.7 90.5 169.8 86.8 168 86.4 168.9 87.7 169.6 85.7 173.9 86.7 174.3"/>
  <polygon class="st22" points="92.6 241.9 93.3 242.7 95.3 241 96.2 242.1 94.5 243.5 95.1 244.3 96.9 242.9 97.7 243.9 95.6 245.6 96.3 246.4 99.2 244 95.6 239.5 92.6 241.9"/>
  <polygon class="st3" points="104.7 192.2 105.2 193.4 107.5 193.7 106.1 195.5 106.6 196.7 108.6 193.9 111.9 194.3 111.4 193.1 109.3 192.9 110.6 191.3 110.1 190.1 108.2 192.7 104.7 192.2"/>
  <path class="st4" d="M96.5,189.8v-.2h-54.7v.3c0,.1-1.9,10.7.6,22.8,2.3,11.2,8.7,25.9,26.7,32.8h.1s.1,0,.1,0c18.2-7.1,24.6-21.8,26.8-32.9,2.4-12,.4-22.5.4-22.6ZM75.5,211.1c.1,0,.2,0,.3.2,0,.1.2.3.2.4,0,0,.1.1,0,.2,0,0-.2.2-.3.2,0,0-.1,0-.3,0-.1,0-.5,0-.5,0,0,0-.3.1-.4.2,0-.4-.2-.8-.3-1.3.4,0,.8,0,1.1-.1,0,0,0,.1,0,.2ZM55.8,211.6c0,.4-.8.6-.4.9.3.3,0,.5-.2.8h-1.5c0-.4,0-.9,0-1.3.7-.3,1.4-.6,2.2-.9,0,.1,0,.4,0,.5ZM86.8,211.9c0,.2.2.3.2.5,0,.3,0,.7,0,.8,0,0,0,0,0,0h-2.6c0-.3-.1-.6-.2-.9,0-.4-.2-.7-.3-1.1.2,0,.5.1.6.2,0,0,0,.2,0,.3,0,0,.2.1.3.2,0,0,0,.2,0,.2.2,0,.1,0,.3,0,.3.2.4-.3.4-.4.2-.1.4.1.6.1.1,0,.4-.3.5-.5,0,0,.1,0,.2,0,0,0,0,.2,0,.3ZM60.7,212.2c-.2-.1-.5,0-.7,0,0,0-.4-.2-.5-.3,0,0,0,0,0,0,0,0,.1,0,.1,0,0,0,0-.2-.1-.2,0,0,0-.1-.1-.2,0,0-.1-.2-.1-.2-.1-.2,0-.4-.3-.4,0,0-.4.6-.7.6,0-.3,0-.7,0-1,2-.7,2.6-.8,4.3-1.3.2,1.2.4,2.4.7,3.7-.6.2-1.3.4-1.9.5,0-.1.1-.3.1-.3,0-.1-.4-.6-.5-.7ZM51.4,209.9s-.1,0-.2,0,0,0,0,0c0,0,0,.1,0,.2,0,0-.3.6-.4.6,0,0-.2,0-.4,0,0-.4.2-.8.3-1.2.2-.1.4-.2.5-.3.3.2.2.5.2.5ZM50.9,208.8c.2-.6.4-1.1.6-1.7.1.2.4.3.3.6,0,.2-.2.3-.3.5,0,.1,0,.2-.2.4-.2,0-.4.2-.5.3ZM53.5,205.6c-.2.1,0,.2-.3.3,0,0-.4.5-.3.6,0,.1-.2.7,0,.8.2,0,0,.3,0,.3,0,0-.4,0-.4-.1-.2-.3,0-.6,0-.7,0-.2-.3-.4-.5-.4,0-.1.1-.3.2-.4.6-.4,1.3-.7,2-1,0,.2-.1.4-.2.6,0,0-.1,0-.3,0ZM54.8,204.6c.8-.3,1.6-.7,2.6-1,0,0,.2,0,.3,0-.2.8-.3,1.6-.3,2.5-.1,0-.2,0-.4.1-.1-.1-.1-.3-.2-.4,0-.1-.3,0-.3,0,0,0,0-.2-.2-.2s-.4-.1-.6-.2c-.1,0-.6-.4-.7-.4-.1,0-.2,0-.3,0,0-.1,0-.3.2-.4ZM54.8,210.8c0,0-.2,0-.3.1,0-.3,0-.2.1-.4,0,0-.3-.2-.4-.2-.4-.3-.2-.7-.1-.8s.8-.7.6-.8c-.4-.2.3-1,.6-.9.2.1.5-.5.8-.4.3,0,.2.1.3.3,0,.1,0,.3,0,.4,0,.1-.3.2-.2.4,0,.2-.6,1-.7,1-.1,0-.1.6.2.4.3-.1.4.2.4.3-.4.2-.9.3-1.3.5ZM59.6,203.2c0,.1,0,.2.1.3,0,0,.1.2.2.2,0,0,0,0,.1,0,.2,0,.2,0,.3,0,0,0,.1,0,.2,0,0,0,0,.2,0,.3,0,0-.1.1-.2.1-.4,0-.7-.1-.6.5,0,.1,0,.3.2.4-.6.2-1.1.4-1.9.6,0-.9.2-1.8.3-2.5.6-.2,1-.3,1.4-.5-.1.2-.2.4-.2.5ZM85.9,209.8c-.3,0-.5,0-.7.3-.4,0-.8,0-1.3,0,0,0,0,0,0,0,.2-.4,0-.9.2-1.3,0-.1.3-.3.4-.3,0,0,.1.2.2.2,0,0,0,.1.1.2,0,0,.1,0,.2,0,.1,0,.3.2.4.1.2-.1.4-.3.5-.3,0,0,0,0,0,0,.2.4.3.8.5,1.2-.2,0-.4,0-.5,0ZM81.3,211.9s.1,0,.2,0c0,0,0-.2,0-.2-.1,0-.5-.1-.7-.2,0,0,0-.1,0-.1-.3,0-.5-.1-.6-.2-.2-.2-.1-.4.1-.4.2,0,.6.2.9.3,0,0,.5,0,.5,0,0,0,0,.5.2.5.2,0,.2.3.4.4,0,0,.2,0,.3.1.2.2.3.4.4.6.2.2.4.2.6.1,0,.2,0,.4.1.6h-2.4c0,0,0-.2,0-.3,0,0,0,0,.1-.1,0-.1.2-.3.2-.4,0-.1-.2-.4-.2-.6ZM77.1,206.8c.3.5.3.4-.1.7-.2,0-.6.3-.6.6,0,.2.2.3,0,.4-.1,0-.5.4-.6.2,0-.2,0-.4,0-.6,0,0-.2,0-.3,0,0,0,0,0,0,0-.2-.4-1-.7-1.3-.9,0,0,0-.2,0-.3,1.2-.1,1.9-.2,3.1-.3,0,0,0,0,0,0,0,.1-.1.2,0,.3ZM67.4,207.8c.3,1.1.6,2.4.8,3.6-1.5.3-3.1.7-4.6,1.1-.3-1.3-.5-2.5-.7-3.7,1.5-.4,2.9-.7,4.4-1ZM66.6,199.6s0-.2,0-.2c0-.1-.2-.3-.2-.4,0,0-.1,0-.2-.1.7-.1,1.4-.2,2-.3.3.4.7.8,1,1.4-.9.1-1.9.3-2.8.5,0-.2-.1-.5,0-.8ZM77.9,202.2c0-.2.2-.3.1-.6,0,0,0-.1.1-.2.2.3.5.5.7.8h0c-.3,0-.5,0-.7,0s-.2,0-.3,0ZM75.4,203.5c0,.1-.3.2-.3.5-.2.5.4,1,.4,1,0,0,0,0,0,0,0,0,.1.3.2.4,0,0,.2.1.3.1,0,0,0,0,0,0,0,0,0,0,0,0,0,0,.1,0,.2,0,0,0,.2-.1.2-.2,0,.2.2.4.2.5-1.5.1-2.1.2-3.2.3,0,0-.1-.2-.2-.3,0,0-.4.2-.6.3-.3-1-.7-2-1.1-2.8,1.2-.2,2.5-.3,3.6-.4,0,0,0,.1.1.2-.2.2,0,.2,0,.4ZM62.8,207.8c.3,0,.3.1.5-.3.1-.2,0-.3,0-.6,0-.2.3-1,.1-1.2-.2-.2.5-.6.6-.6.1,0,.2,0,.2-.2,0,0,0-.3,0-.4.7-.2,1.3-.3,2-.4.2.9.5,1.9.7,3-2,.4-2.6.6-4.3,1,0-.1,0-.2,0-.4,0,0,0,0,0,0ZM66.8,201.6s0-.2,0-.3c0,0-.2-.2-.2-.3,1-.2,2-.4,3-.5.4.7.8,1.4,1.1,2.2-1.3.2-2.6.4-3.8.6-.1-.4-.2-.8-.3-1.2.2-.2.3-.4.2-.6ZM75,202.3c-1.5.1-2.1.2-3.5.4-.4-.8-.7-1.5-1.1-2.2,1.1-.1,2.1-.2,3.1-.3.5.6,1.1,1.3,1.6,2.1ZM73.7,199.5c-.5-.5-.9-.9-1.4-1.3.6,0,1.2,0,1.8,0,.7.3,1.4.8,2,1.3-.8,0-1.5,0-2.4,0ZM72.9,199.6c-.9,0-1.9.2-2.9.3-.3-.5-.7-1-1-1.4,1-.1,1.3-.1,2.3-.2.5.4,1.1.8,1.6,1.3ZM66.3,203.5c-.5,0-.9.2-1.4.3,0,0,0,0,0,0,.3-.9.9-.9,1.1-1.1,0,.3.1.5.2.8ZM68.4,203.8c-.1.1-.3.3-.4.4,0,0-.3.5-.2.6,0,.1.2.3.3.4,0,0,.5-.3.4-.1,0,.3.4-.1.5-.1.3-.3.6-.7.9-.9,0,0-.1-.3-.4-.4.5,0,.9-.1,1.6-.2.4.9.8,1.9,1.1,2.9-1.4.2-2.8.4-4.3.7-.3-1-.5-2-.8-3,.5,0,.9-.2,1.2-.2ZM78.6,205c.1-.2-.1-.4-.2-.5,0-.1.4-.6.2-.8,0,0-.6-.3-.6-.4,0,0,0-.4,0-.6.4,0,.7,0,1.1,0,0,0,0,.2,0,.3,0,.3.5.3.5.3,0,0,0,0,.2,0,.1.2.3.4.4.7-.2,0-.4.7-.4.9,0,.7.2.3.3.5,0,0,0,.2-.1.3-.6,0-1.2,0-1.8,0,0-.4.6-.2.6-.5,0,0-.3,0-.2-.2ZM81.3,202.9s0,0,0,0c0,0,.4.7.3.9,0,.2-.6,0-.9.1-.2-.3-.3-.5-.5-.8,0,0,0,0,0,0,.1,0,.3-.2.5-.2.2,0,.3,0,.5,0ZM79.3,201.8c-.3-.3-.5-.6-.8-.9.2-.2.8-.5.9-.3.2.2-.1.9-.1,1.2ZM76.4,200.4s0,.3,0,.3c.2.4,0,.1-.2.6,0,.5.2.2-.2.6,0,0-.1.2-.2.3,0,0-.1,0-.2,0-.5-.8-1-1.5-1.5-2.1,1,0,1.5,0,2.3,0,0,.1,0,.2-.1.3ZM71.5,197.6c-.3-.2-.5-.3-.8-.4.1,0,.2,0,.3,0,.5,0,1,.2,1.6.4-.3,0-.7,0-1.1,0ZM68.5,197.9c-.3-.3-.5-.4-.6-.5.4,0,.8,0,1.2-.1.4,0,.9.2,1.3.4-.6,0-1.2.1-1.9.2ZM72.4,206.9c0,.3.2.6.3.9,0,0-.1,0-.2,0-.1,0,0,.5,0,.5,0,.1,0,.2,0,.4,0,.1.2,0,.2,0,.1.2-.3.7,0,.7,0,0,.2,0,.4-.1.1.4.2.8.3,1.1-1.5.2-3,.5-4.5.8-.3-1.4-.6-2.6-.9-3.6,1.4-.3,2.9-.5,4.3-.7ZM74.1,210.4c-.2-.6-.3-1.3-.5-1.9.7-.2.4.5.7.3,0,0,.4.2,0,.3-.2,0,0,.3.1.3.2.2.5-.9,1.1-.4,0,0,0,.1,0,.2,0,0,0,.1-.1.2-.1,0-.2.1-.3.1,0,0,0,.3,0,.3,0,.1-.3.4-.5.5-.2,0-.4,0-.6,0ZM79.7,212.5c0-.4-.2-.7-.3-1.1.2.2.4.4.6.4.1,0,.2,0,.3,0,.1,0,.2.2.4.2.1,0,.3.3.3.4,0,0,0,.4,0,.4-.1,0-.4,0-.5,0s-.2,0-.2.2c0,0,0,0,0,0h-.4c0-.3-.1-.5-.2-.8ZM86.7,208.7c.4,0,1.4,0,1.8.8.3.7-.9.3-1.4.3-.1-.4-.3-.7-.4-1ZM77.4,199s-.3-.1-.4,0c0,0,0,.2,0,.2,0,0,0,0-.1,0-.6-.5-1-.7-1.4-1,.3,0,.7,0,.9.1.3.1.7.3,1,.5,0,0,0,.1,0,.1ZM66.9,197.5c.3.1.5.3.8.5-.5,0-1,.2-1.5.2,0,0,0,0,0,0,0,0,0,0-.1,0-.1,0-.3,0-.4,0-.1,0,0,0,0-.1,0-.1.3,0,.4-.3,0,0,0,0,0,0,.3,0,.6,0,.9-.1ZM62.2,208.3c-2,.6-2.6.7-4.2,1.3,0-.2,0-.3,0-.4.4,0,.4-.5.4-.5,0-.1.1-.5.1-.5.3,0,.2-.7.3-.9.2-.1,0-.5-.2-.4-.1,0-.2.1-.3.2s-.2,0-.2,0c0,0,0-.2-.2-.3,0-.1,0-.2,0-.3,1.2-.4,1.8-.6,2.6-.8-.1.2-.1.5,0,.7,0,.1.2,0,.2.2,0,0,0,.3,0,.4,0,.1.2.3.3.3.1.2.2.5.4.5,0,0,.2,0,.2.1,0,0,.2,0,.3,0,0,.1.2.1.2.1,0,0,0,.2,0,.3ZM60.2,201.9s0,0,0,0c-.6.2-1,.3-1.7.6,0-.2.1-.4.2-.6,1-.6,1.4,0,1.6,0ZM56.7,202.1c.2,0,.5.3.6.3.1,0,.4-.3.7-.3,0,.2-.1.4-.2.7h-.1c-.2,0-.3.2-.5.2-.7.3-1.4.5-2,.8.3-.7.7-1.4,1.2-1.9,0,0,0,0,.1,0,0,.2,0,.3.2.3ZM54.1,202.9c.4-.2.8-.4,1.2-.6-.2.4-.5.8-.7,1.2,0,0-.3-.2-.3-.2,0,0-.2,0-.4-.1,0,0,.1-.1.2-.2ZM53.4,203.9s.8-.1.9,0c0,0,0,0,.1,0,0,0,0,0,0,.1-.6.3-1.2.6-1.7.9.2-.3.4-.7.7-1,0,0,.1,0,.1,0ZM50,207.4c.5-.4.7-.5,1-.8-.4.8-.7,1.7-.9,2.6-.2.1-.4.3-.6.4,0,0,0-.2,0-.3,0,0-.2-.3-.2-.5.2-.3.4-.8.7-1.4ZM52.9,212.3c0,.3,0,.6,0,1h-1.1c0,0,0-.3-.1-.4.4-.2.8-.4,1.2-.6ZM63.8,213.3s0,0,0-.1c1.5-.4,3.1-.8,4.6-1.1,0,.4.2.8.3,1.2h-4.8ZM69.4,213.3c0-.3-.2-.7-.2-1v-.3c2.1-.4,2.7-.5,4.5-.8.1.6.3,1.2.4,1.9,0,0,0,.1,0,.2h-4.7ZM76.8,213.1c.2-.1.1-.3.2-.5,0-.1.4-.3.4-.4,0,0-.1-.2-.1-.4,0-.1.1-.2.2-.3.2-.1.5,0,.6,0,.2-.2.3-.5.5-.7.1.6.3,1.1.4,1.7,0,.2,0,.4.1.7h-2.4s0,0,0-.1ZM67.5,241.1c-11.2-5.1-17.9-12.8-21-24.4h21v24.4ZM70.9,241.1v-24.4h20.8c-2.8,9.3-8.8,18.7-20.8,24.4ZM92.6,213.3h0c-3-10-12.4-17.4-23.4-17.4s-20.4,7.3-23.4,17.4h0s0,0,0,0c-1.7-8.5-1.3-16.3-.9-20.3h48.9c.5,4.8.8,12.4-1,20.4ZM111.2,197.4c-.2,0-.4,0-.6,0-.2,0-.4.1-.7.2-.2,0-.5.1-.7.2-.2,0-.4.1-.6.2-.2,0-.3.2-.5.3s-.3.3-.4.4c-.2.2-.2.5-.3.8,0,.3,0,.6,0,.9,0,.3.2.5.3.7.1.2.3.4.5.5.2.1.4.2.7.3.3,0,.5,0,.8,0l-.3-1.1c-.2,0-.5,0-.6-.2-.2-.1-.3-.3-.4-.6,0-.2,0-.3,0-.4,0-.1,0-.2.1-.3,0,0,0-.1.2-.2,0,0,.1-.1.3-.2.1,0,.3-.1.4-.2.2,0,.4-.1.7-.2.3,0,.5-.1.7-.2.2,0,.3,0,.4,0,.1,0,.2,0,.3,0,0,0,.2,0,.2,0,.1,0,.2.1.3.2,0,.1.1.2.2.4,0,.3,0,.5,0,.7-.1.2-.3.3-.5.4l.3,1.1c.3-.1.5-.3.7-.4.2-.2.3-.4.4-.6.1-.2.2-.4.2-.7,0-.2,0-.5,0-.8,0-.3-.2-.6-.4-.8-.2-.2-.4-.4-.6-.6-.2-.1-.4-.2-.5-.2-.2,0-.4,0-.6,0M103.5,238c0-.2-.2-.3-.3-.5-.1-.1-.3-.3-.4-.4-.2-.1-.3-.3-.5-.5-.2-.2-.4-.3-.5-.5-.2-.1-.3-.3-.5-.4-.2,0-.3-.2-.5-.2-.2,0-.4,0-.6,0-.3,0-.6,0-.8.2-.2.1-.5.3-.7.5-.2.2-.3.4-.4.6,0,.2-.2.5-.2.7,0,.2,0,.5.1.7,0,.2.2.5.4.7l.8-.9c-.1-.2-.2-.4-.2-.6,0-.2,0-.4.3-.6.1-.1.2-.2.3-.3.1,0,.2,0,.4,0,0,0,.2,0,.2,0,0,0,.2,0,.3.1.1,0,.2.2.4.3.1.1.3.3.5.4.2.2.4.3.5.5.1.1.2.2.3.3,0,0,.1.2.2.3,0,0,0,.2,0,.2,0,.1,0,.2,0,.4,0,.1-.1.2-.2.4-.2.2-.4.3-.6.3-.2,0-.4,0-.6-.2l-.8.9c.3.2.5.3.8.3.3,0,.5,0,.7,0,.2,0,.5-.1.7-.2.2-.1.4-.3.6-.5.2-.2.4-.5.4-.7,0-.3.1-.5.1-.8,0-.2,0-.4-.1-.6"/>
  <polygon class="st28" points="104.6 189.8 103.1 187.6 104.3 186.8 105.5 188.8 106.4 188.2 105.2 186.3 106.3 185.6 107.7 187.8 108.6 187.3 106.5 184.1 101.7 187.2 103.7 190.4 104.6 189.8"/>
  <polygon class="st39" points="86.4 250 89.1 250.8 89.9 248.1 87.2 247.3 86.4 250"/>
  <polygon class="st5" points="83.7 166.9 82.6 166.5 80.8 172 81.9 172.4 83.7 166.9"/>
  <polygon class="st2" points="39.5 181.7 39.4 178.9 36.7 179 36.7 181.7 39.5 181.7"/>
  <polygon class="st24" points="45.9 177.8 42.5 173.2 41.6 173.9 45 178.5 45.9 177.8"/>
  <polygon class="st33" points="49.3 175.6 47.6 172.5 51.3 174.5 52.2 174 49.5 169 48.5 169.5 50.2 172.6 46.5 170.6 45.6 171.1 48.3 176.1 49.3 175.6"/>
  <polygon class="st15" points="36.3 187.7 35.4 187.2 34 189.5 32.8 188.8 34 186.8 33.2 186.3 32 188.3 30.8 187.6 32.2 185.3 31.4 184.8 29.4 188 34.3 191 36.3 187.7"/>
  <g class="st49">
    <path class="st17" d="M129,214.8c2.9-.9,9.4-3,9.4-3l-9.2-3.6s6.2-2.8,9-4l-9.5-2.5c2.6-1.6,8.5-4.9,8.5-4.9l-9.7-1.6,7.8-5.9-9.7-.4,7.2-6.7-9.8.7c2-2.3,4.3-5.2,6.4-7.4l-9.7,1.7,5.5-8.1-9.4,2.8c1.3-2.7,4.5-8.7,4.5-8.7l-8.6,3.4,3.1-8.7-8.5,4.7c.8-2.9,1.9-6.5,2.6-9.4l-8,5.7s1-6.8,1.5-9.7l-7.3,6.5.5-9.8-.5.6c-2,2.2-4,4.7-6.1,6.7l-.6-9.7-5.7,7.9c-.5-3-1.2-6.5-1.6-9.6l-4.9,8.4-2.7-9.3-3.8,8.9-3.8-8.9-2.8,9.3-4.7-8.5-1.8,9.6-5.6-7.9-.8,9.7-6.5-7.3.3,9.8-7.3-6.5,1.4,9.6-7.9-5.7,2.4,9.5s-5.8-3.3-8.4-4.8l3.5,9.2-9-3.8,4.4,8.6-9.3-2.8,5.4,8.1-9.6-1.8,6.2,7.6-9.7-.8,7,6.9-9.7.2,7.8,6.1-9.7,1.3,8.4,5.1c-2.9.9-6.6,1.6-9.5,2.5l8.8,4c-2.8,1.2-9.1,3.6-9.1,3.6,0,0,6.6,2,9.3,3.1l-8.7,4.5s6.7,1.4,9.6,2c-2.5,1.7-8.2,5.4-8.2,5.4l9.8,1c-2.3,2-7.6,6.3-7.6,6.3h9.9c0,0-6.8,7-6.8,7l9.8-1.2c-1.8,2.4-6,7.8-6,7.8l9.6-2.2-5.1,8.4,9.4-3.3-4.2,8.9s6.2-3.1,8.9-4.2l-3.2,9.4,8.3-5.3-2,9.6,7.6-6-.9,9.7,7.1-7.1v9.9c0,0,4.3-5.5,6.2-7.7.4,3,1.2,9.8,1.2,9.8l5.2-8.4,2.1,9.6.4-.8,4.1-8.2,3.3,9.5,3.4-9.1,4.3,8.7,2.3-9.7s3.7,5.8,5.2,8.4l1.2-9.9s4.2,5.4,6.1,7.8l.3-9.6,6.8,6.7-.8-9.6,7.5,6.1c-.6-2.8-2-9.7-2-9.7,2.5,1.7,5.8,3.7,8.3,5.4l-3-9.4,8.8,4.4s-3-6.3-4.1-9c2.7,1,6.5,2.3,9.2,3.4.3.2-4.8-8.5-4.8-8.5l9.4,2.3-5.8-7.9,9.6,1.3-6.8-7.2,9.9.2-7.5-6.4,9.8-.9-8.2-5.6,9.6-1.9-8.7-4.6ZM135.9,211.4l-12.8-.5,5.8-2.3c2.4.9,4.7,1.8,7.1,2.8ZM120.7,223.7l4.8,3.7-6.1.4s.9-2.7,1.3-4.1ZM118.4,189.1h6c-1.5,1.5-2.9,2.9-4.6,4.1l-1.5-4.1ZM120.3,194.5l6,.9c-1.7,1.2-3.1,2.4-4.9,3.4l-1-4.3ZM121.9,217.9l5.3,3.3-6.1,1,.9-4.3ZM121.6,200.4l5.8,1.5-5.1,2.8-.7-4.3ZM122.4,212.1l5.7,2.6c-1.9.6-4,1.1-6,1.6l.3-4.3ZM122.4,206.2l5.9,2c-1.8.8-3.8,1.6-5.7,2.4v-4.4ZM135.6,204.1l-12.8,1,5.5-2.9,7.3,1.9ZM134.5,196.9l-12.5,2.3,5-3.6,7.5,1.3ZM132.8,189.7l-12.2,3.7,4.7-4.1,7.5.3ZM130.2,182.8l-11.8,5.1,4.2-4.7s5.1-.3,7.6-.5ZM117.8,187.7l-2-3.9c2.1-.2,6-.6,6-.6,0,0-2.6,2.9-4,4.5ZM126.7,176.3l-11.3,6.5,3.6-5.1c2.5-.4,5.2-.9,7.7-1.3ZM114.9,182.5l-2.4-3.8,5.7-.9-3.3,4.7ZM122.8,170.1l-10.3,7.5,3.2-5.4c2.4-.7,4.8-1.4,7.2-2.1ZM111.8,177.6h-.1l-2.7-3.3,5.9-2-3.1,5.4ZM118.1,164.4l-9.4,8.6,2.6-6,6.8-2.7ZM108,173.2l-3.2-3c1.8-1,3.8-1.9,5.7-2.7l-2.6,5.7ZM106.3,163.1l6.6-3.8-8.5,9.7,1.9-5.9ZM103.7,169.1l-3.5-2.6,5.3-3.3c-.4,1.9-1.2,3.9-1.8,5.9ZM101,159.2l6.1-4.3-7.3,10.5,1.2-6.2ZM99.1,165.6c-1.2-.6-2.5-1.6-3.8-2.2l4.9-3.9c-.4,2-.8,4.1-1.2,6.1ZM95.2,156.1l5.6-5.1-6.1,11.3.5-6.2ZM89.2,153.5l5-5.6-4.9,11.9c0-1.9-.2-4.1-.1-6.3ZM94.5,156.4l-.5,6.3-4-1.8,4.5-4.4ZM88.5,153.9v6.3c.1,0-4-1.4-4-1.4v-.2l4-4.7ZM87.2,145.6l-3.6,12.3-.8-6.3,4.4-6ZM82.3,152.1l.9,6.3-4.4-.9,3.5-5.4ZM80,144.2l-2.2,12.3-1.5-5.9,3.6-6.4ZM75.8,151l1.6,6.1-4.4-.5,2.8-5.7ZM72.8,143.1l-.8,12.8-2.2-5.7,3-7.1ZM69.3,150.9s1.5,3.6,2.2,5.7h-4.4c0,0,2.2-5.7,2.2-5.7ZM65.4,143.2l.7,12.8-2.8-5.5,2.1-7.2ZM62.8,151l2.8,5.7-4.4.5,1.6-6.1ZM58.1,144s1.4,8.4,2,12.7l-3.3-5.2,1.3-7.4ZM56.4,152l3.4,5.3-4.3,1,.9-6.3ZM50.9,145.6l3.4,12.2-3.9-4.6.5-7.6ZM50.3,154.1l3.9,4.5c-1.3.5-2.8,1-4.1,1.5l.3-6ZM48.7,159.8l-4.5-4.1-.3-7.8,4.7,11.9ZM48.7,160.7l-4,1.8-.4-6,4.4,4.2ZM16.1,210.3c-1.9-.7-3.9-1.6-5.9-2.3,1.9-.8,4-1.4,6-2.1-.2,1.4,0,3-.1,4.4ZM16.4,216.2l-6.1-1.8s3.8-1.8,5.7-2.6l.3,4.4ZM10.7,201.5l6.1-1.4-.5,4.3-5.6-3ZM16.6,217.6l.9,4.4-6.2-1.1,5.4-3.3ZM12,195.1c2.1-.3,4.2-.4,6.3-.7l-1.1,4.3-5.2-3.6ZM17.7,223.4c.5,1.3.9,2.8,1.4,4.2l-6.3-.3,4.9-3.8ZM18.6,193.2l-4.2-4,5.9-.3-1.7,4.3ZM38.5,159.5l5,3.7-4,2.4-1-6ZM38.5,166.3l-3.6,2.8-1.7-5.7,5.3,2.9ZM37.3,151.2l6.1,11.3-5-3.7-1.1-7.6ZM31.1,155l7.2,10.5-5.3-3-2-7.5ZM25.3,159.5l8.4,9.8-5.6-2.5-2.8-7.3ZM33.9,169.9l-3.3,3.2-2.3-5.5,5.6,2.4ZM20.1,164.7c3.1,3,6.3,5.8,9.4,8.8l-5.8-1.8-3.6-7ZM29.7,174.1c-.9,1.2-1.9,2.3-2.8,3.4l-2.8-5.1,5.7,1.7ZM15.4,170.3c3.4,2.6,6.9,5.1,10.3,7.7l-6-1.3-4.3-6.4ZM26,178.7l-2.4,3.7h0c0,.1-3.6-5-3.6-5l6,1.3ZM11.4,176.5l11.1,6.5-6-.4-5-6ZM22.8,183.6l-2,4-4-4.4,6,.4ZM8.2,183.1c3.9,1.7,7.6,3.5,11.6,5.1l-6,.3-5.5-5.4ZM5.5,189.9l12.2,3.9-6.2.7-6-4.6ZM3.7,197.1l12.6,2.5-6.2,1.3-6.4-3.8ZM2.7,204.4l12.8,1.1-5.9,2-6.8-3.1ZM2.5,211.7l12.8-.2-5.6,2.6-7.2-2.3ZM3.2,219l12.6-1.7-5.2,3.2-7.4-1.5ZM4.6,226.3l12.4-3.1-4.9,3.8-7.5-.7ZM6.8,233.2l12-4.4-4.4,4.3h-7.6ZM19.5,229l1.8,4.1-6.3.2,4.5-4.3ZM9.8,240l11.4-5.7-3.9,4.7-7.5,1ZM21.9,234.4c.8,1.2,1.5,2.5,2.3,3.8l-6.2,1,4-4.8ZM13.5,246.3l10.6-6.9-3.4,5.2-7.2,1.7ZM24.9,239.4l2.6,3.5-6,1.6,3.3-5.1ZM17.8,252.2l10-8.1-2.8,5.5-7.2,2.6ZM28.5,244.1l3,3.2-5.6,2.2,2.6-5.4ZM29.6,254.2l-6.8,3.2,8.9-9-2.2,5.7ZM32.5,248.4l3.3,2.8-5.4,2.7,2.1-5.5ZM34.7,258.4l-6.3,4,7.9-10.1-1.6,6.1ZM37,252.1l3.5,2.5-5.1,3.4,1.5-5.9ZM40.4,261.9l-6,4.7,6.8-11-.8,6.2ZM41.8,255.5l3.8,2.1-4.7,4.1.8-6.1ZM40.9,270.1l5.5-11.5v6c0,0-5.5,5.5-5.5,5.5ZM47.5,272.9l4.4-12.2c.2,2.1.7,6,.7,6l-5.1,6.1ZM47,264.1v-5.9c0,0,4,1.6,4,1.6l-4,4.3ZM53.1,266.1l-.7-5.7,4.1,1.2-3.5,4.6ZM54.7,274.9l2.9-12.6,1.2,5.9-4.2,6.7ZM59.3,267.5l-1.2-5.6,4.2.7-3,4.9ZM61.9,276.1l1.5-12.8,1.8,5.9-3.3,6.9ZM65.8,268.6l-1.9-5.8,4.4.2-2.6,5.6ZM69.4,276.4v-12.8c0,0,2.5,5.9,2.5,5.9l-2.5,7ZM72.4,268.8s-1.6-3.8-2.5-5.7c1.5,0,4.4-.2,4.4-.2l-1.8,5.9ZM76.7,276l-1.4-12.7,3.1,5.4-1.7,7.4ZM78.8,268l-3.1-5.3,4.3-.7-1.2,6.1ZM84,274.8l-2.8-12.6,3.7,5.1-.9,7.5ZM85.2,266.6l-3.7-5,4.1-1.2-.4,6.2ZM91,272.7l-4.1-12.1,4.3,4.7-.2,7.5ZM87.2,260l4-1.6v6c0,0-4-4.4-4-4.4ZM69.2,259.7c-27.5,0-49.9-22.3-49.9-49.9s22.3-49.9,49.9-49.9,49.9,22.3,49.9,49.9-22.3,49.9-49.9,49.9ZM123.1,233.4l-6-.3,1.7-3.9,4.2,4.2ZM120.2,239.2l-5.9-.8c.9-1.5,2.1-3.8,2.1-3.8l3.8,4.6ZM116.7,244.6l-5.9-1.5,2.6-3.5,3.4,5ZM112.6,249.8l-5.7-2.3,2.8-3.2,2.8,5.5ZM105.7,248.6l2.3,5.8-5.4-3,3.2-2.8ZM101.2,252.3l1.6,6-5.1-3.5,3.5-2.5ZM97.2,261.7l-4.6-4,3.8-2,.8,6.1ZM97.9,270.2l-5.5-11.9,4.8,4.3.7,7.6ZM104.2,266.4l-6.6-11,5,3.5,1.6,7.5ZM110.3,262.3l-7.9-10.2,5.5,3,2.4,7.2ZM115.9,257.4l-8.9-9.2,5.7,2.4,3.2,6.9ZM120.9,252l-10-8.2,6.1,1.6,3.9,6.7ZM125.1,246.1l-10.7-7.1,6.1.8,4.6,6.2ZM128.8,239.7l-11.4-5.8,6,.3,5.4,5.6ZM131.7,233l-12-4.5,6.1-.5,5.9,5ZM134,226l-12.6-3.3,6.3-1,6.3,4.3ZM122.6,216.9l6-1.7,6.7,3.5-12.7-1.8Z"/>
  </g>
  <polygon class="st41" points="54.4 168 56 172.5 57 172.2 55.5 167.7 56.9 167.2 56.6 166.3 52.7 167.6 53 168.5 54.4 168"/>
  <path class="st27" d="M27.2,195.4c.1.1.3.2.4.3.2,0,.3.2.5.3.2,0,.4.2.6.3.2,0,.4.2.6.2.2,0,.4.1.6.2.2,0,.4,0,.6,0,.2,0,.4,0,.6-.1.3-.1.5-.3.7-.5.2-.2.3-.4.5-.7.1-.3.2-.6.2-.9,0-.3,0-.6-.2-.9-.1-.3-.3-.5-.5-.7-.2-.2-.5-.3-.9-.5l-.8-.3-.8,2,.9.3.4-1h.2c.1.1.3.2.4.3.1,0,.2.2.3.3,0,.1,0,.3,0,.4,0,.1,0,.3,0,.5,0,.1-.1.3-.2.4,0,0-.2.2-.3.2,0,0-.2,0-.2,0,0,0-.2,0-.3,0-.1,0-.3,0-.4-.1-.2,0-.4-.1-.6-.2-.3,0-.5-.2-.6-.3-.2,0-.3-.1-.4-.2-.1,0-.2-.1-.2-.2,0,0,0-.1-.1-.2,0-.1,0-.2,0-.4,0-.1,0-.3,0-.4.1-.3.3-.5.5-.6.2-.1.4-.1.7,0l.4-1.1c-.2,0-.5,0-.7,0s-.5,0-.7.2c-.2.1-.4.3-.6.5-.2.2-.3.5-.5.8-.1.3-.2.6-.2.9,0,.3,0,.5.2.8,0,.2.2.3.3.5M57.1,183.5c.3.6.7,1.1,1.2,1.4.5.4,1.1.7,1.7.8.6.2,1.3.3,2.1.3s1,0,1.5-.1c.5,0,.9-.2,1.3-.4,0,0,.1-.1.2-.2,0,0,0-.1,0-.3v-1.3c0-.7,0-1.3,0-1.5v-.8c0,0,0-.2-.2-.2h0c-.3,0-.5,0-.6,0s-.3,0-.6,0c-.5,0-.8,0-1,0s-.3.1-.3.2,0,.2.2.2.3,0,.4,0c.2,0,.3,0,.3.2,0,0,0,.2.1.4,0,.2,0,.8,0,1.5v1.1c0,.2,0,.3-.2.4-.1,0-.2,0-.4,0-.2,0-.3,0-.5,0-.6,0-1.1-.1-1.6-.3-.5-.2-.9-.5-1.2-.9-.3-.4-.6-.8-.8-1.4-.2-.5-.3-1.1-.3-1.7s0-1.2.3-1.7c.2-.4.4-.8.8-1.1.4-.3.7-.5,1.1-.6.9-.2,1.9-.2,2.7.1.4.2.8.4,1,.6.1.1.2.3.3.4,0,.1,0,.3.1.5,0,.2.1.2.2.2s.2,0,.2-.3c0-.5,0-.9,0-1.1s0-.5,0-.6c0,0,0-.1,0-.1,0,0,0-.2-.2-.2-.1,0-.3,0-.4,0-.2,0-.3,0-.5,0,0,0-.2,0-.3,0-.1,0-.3,0-.5,0-.2,0-.4,0-.6,0-.8,0-1.6,0-2.2.1-.5,0-1,.3-1.5.6-.6.4-1.1.9-1.5,1.5-.4.7-.6,1.4-.6,2.3s.1,1.5.4,2M70.8,185.5h-.3c-.1,0-.2,0-.3-.2,0,0,0-.2-.1-.4,0-.2,0-.5,0-.9,0-.4,0-.9,0-1.6v-3.8c0-.2,0-.5,0-.7,0-.2,0-.3,0-.4,0,0,.1-.1.3-.2.1,0,.2,0,.3,0,.2,0,.3-.1.3-.2,0-.2-.2-.2-.3-.2-.2,0-.4,0-.8,0-.3,0-.5,0-.6,0s-.3,0-.7,0c-.4,0-.7,0-.8,0s-.4,0-.4.2,0,.2.3.2.3,0,.4,0c.2,0,.3.2.3.6,0,.2,0,.4,0,.7v3.8c0,.7,0,1.2,0,1.6,0,.4,0,.7,0,.9,0,.3-.1.5-.3.5-.1,0-.3,0-.4,0-.2,0-.3.1-.3.2s0,.2.3.2.5,0,.9,0c.3,0,.5,0,.5,0,.1,0,.3,0,.5,0,.5,0,.9,0,1.3,0s.3-.1.3-.2,0-.2-.3-.2-.2,0-.3,0M72.5,185.9c.2,0,.4,0,.6,0,.2,0,.4,0,.5,0,.1,0,.2,0,.2,0,.1,0,.3,0,.6,0,.3,0,.5,0,.6,0,.2,0,.3-.1.3-.2s0-.2-.3-.2h-.2c-.1,0-.3,0-.3,0,0,0,0-.1,0-.2,0-.2,0-.4.2-.7l.7-1.7h2.6s.9,2.5.9,2.5c0,0,0,.2.1.3,0,.1,0,.2.2.2s.3,0,.4,0c.2,0,.3,0,.5,0h1.1c.2,0,.4,0,.4,0,.2,0,.2-.1.2-.2s0-.2-.2-.2-.3,0-.5,0c-.1,0-.3-.1-.4-.3-.2-.2-.3-.5-.5-.9l-2.5-6.2c-.2-.4-.3-.7-.3-.8-.1-.3-.2-.4-.4-.4s-.1,0-.2.1c0,0-.1.2-.2.4l-2.9,7.2c-.1.3-.3.6-.4.7-.1.1-.3.2-.5.3-.1,0-.2,0-.3,0-.2,0-.2.1-.2.2,0,0,0,.2.3.2ZM76.7,179.3l1,2.8h-2.1s1-2.8,1-2.8Z"/>
  <polygon class="st16" points="64.6 170.5 64.5 169.5 61.8 169.9 61.6 168.6 63.9 168.2 63.7 167.2 61.5 167.6 61.2 166.2 63.9 165.8 63.7 164.8 60 165.4 60.9 171.1 64.6 170.5"/>
  <path class="st47" d="M30.4,201.9c0-.3,0-.6,0-.9,0-.3-.1-.5-.3-.7-.1-.2-.3-.3-.4-.5-.2-.1-.3-.2-.5-.3-.2,0-.4-.1-.6-.2h-.6c0-.1-.6-.3-.6-.3-.2,0-.4,0-.6,0-.2,0-.4,0-.6,0-.2,0-.4.1-.6.3-.2.1-.4.3-.5.6-.1.2-.2.5-.3.8l-.4,2,5.6,1.1.4-2ZM29.4,201.8l-.2.8-3.7-.7.2-.8c0-.2,0-.3.2-.5,0-.1.2-.2.3-.3,0,0,.2,0,.2,0,0,0,.2,0,.3,0,.1,0,.3,0,.4,0,.2,0,.3,0,.6.1.4,0,.8.2,1,.2.2,0,.4.2.5.3,0,.1.2.2.2.4,0,.1,0,.3,0,.5ZM67.1,168.1c0,.2,0,.4,0,.6,0,.2,0,.4.2.5s.2.3.3.5c.2.2.4.4.7.5.3.1.5.2.9.2.3,0,.6,0,.9-.2.3,0,.5-.3.7-.5.2-.2.3-.5.4-.7,0-.3.1-.6.1-1v-.8s-2.2,0-2.2,0v.9s1.1,0,1.1,0v.2c0,.2,0,.3,0,.4,0,.1-.1.2-.2.4,0,.1-.2.2-.3.2-.1,0-.3,0-.5,0-.2,0-.3,0-.4,0-.1,0-.2-.1-.3-.2,0,0-.1-.1-.1-.2,0,0,0-.2,0-.3,0-.1,0-.3,0-.5s0-.4,0-.7c0-.3,0-.5,0-.7,0-.2,0-.3,0-.4,0-.1,0-.2,0-.3,0,0,0-.1.1-.2,0,0,.2-.2.3-.2.1,0,.3,0,.4,0,.3,0,.5,0,.7.2.2.1.3.3.4.6h1.1c0-.3-.1-.5-.2-.7-.1-.2-.2-.4-.4-.6-.2-.2-.4-.3-.6-.4-.3,0-.5-.1-.9-.1-.3,0-.6,0-.9.2-.3.1-.5.3-.7.5-.1.1-.3.3-.3.5,0,.2-.1.3-.2.5,0,.2,0,.4,0,.6,0,.2,0,.4,0,.7,0,.2,0,.5,0,.7"/>
  <polygon class="st37" points="107.3 220.9 108.3 221.1 108.9 218.6 113.5 219.7 113.8 218.6 108.2 217.3 107.3 220.9"/>
  <polygon class="st7" points="29.6 212.9 28.6 213 29 215.6 24.3 216.2 24.4 217.3 30.1 216.6 29.6 212.9"/>
  <path class="st0" d="M33.8,232.3c.2-.1.4-.2.5-.3.1-.1.3-.3.4-.4.1-.1.2-.3.2-.5,0-.3.1-.6,0-.8,0-.3-.1-.6-.3-.8-.2-.3-.4-.5-.6-.7-.2-.2-.5-.3-.7-.4-.2,0-.4,0-.6,0-.2,0-.4,0-.5.1-.2,0-.4.1-.6.2-.2.1-.4.2-.6.3-.2.1-.4.2-.6.3-.2.1-.4.2-.5.4-.1.1-.3.3-.4.4-.1.1-.2.3-.2.5,0,.3,0,.6,0,.8,0,.3.1.5.3.8.2.3.4.5.6.7.2.2.5.3.7.4.2,0,.4,0,.6,0,.2,0,.4,0,.5-.1.2,0,.4-.1.6-.3.2,0,.4-.2.6-.3.2-.1.4-.2.6-.3M32.1,232c-.2,0-.3.1-.4.2-.1,0-.2,0-.3,0,0,0-.2,0-.2,0-.1,0-.2,0-.3-.2-.1,0-.2-.2-.3-.3,0-.1-.1-.3-.1-.4,0-.1,0-.3,0-.4,0,0,0-.2.1-.2,0,0,.1-.1.2-.2,0,0,.2-.2.4-.3.2,0,.3-.2.6-.3.2-.1.4-.2.6-.3.2,0,.3-.1.4-.2.1,0,.2,0,.3,0,0,0,.2,0,.2,0,.1,0,.2,0,.3.2.1,0,.2.2.3.3,0,.1.1.3.1.4,0,.1,0,.3,0,.4,0,0,0,.1-.1.2,0,0-.1.1-.2.2,0,0-.2.2-.4.3-.2,0-.3.2-.6.3-.2.1-.4.2-.6.3"/>
  <polygon class="st34" points="31.9 223.4 28.2 223.5 31.2 221.4 30.9 220.5 25 220.8 25.4 221.9 29.1 221.6 26 223.8 26.2 224.6 30 224.4 26.8 226.4 27.2 227.5 32.2 224.3 31.9 223.4"/>
  <polygon class="st19" points="105.1 226.7 106.1 227.1 107.1 224.6 108.4 225.1 107.5 227.2 108.4 227.6 109.3 225.5 110.5 226 109.5 228.5 110.5 228.8 111.9 225.3 106.6 223.2 105.1 226.7"/>
  <polygon class="st23" points="103.4 229.9 106.4 231.7 102.2 231.8 101.7 232.6 106.6 235.7 107.2 234.7 104.2 232.9 108.4 232.8 108.9 231.9 104 228.9 103.4 229.9"/>
  <polygon class="st32" points="39.4 236 36.7 238.3 37.9 234.3 37.3 233.5 32.9 237.2 33.6 238.1 36.3 235.8 35 239.8 35.7 240.6 40.1 236.9 39.4 236"/>
  <path class="st31" d="M74.5,252.5c-.2-.2-.3-.3-.6-.4.2-.1.3-.3.4-.5.1-.2.2-.5.1-.8,0-.2,0-.5-.2-.7-.1-.2-.2-.4-.4-.5-.2-.1-.4-.2-.6-.3-.2,0-.5,0-.7,0-.2,0-.5,0-.7.2-.2,0-.4.2-.5.4-.1.2-.3.3-.3.5,0,.2-.1.4,0,.7h1c0-.3,0-.5.2-.6.1-.1.3-.2.5-.2.2,0,.4,0,.5.1.2.1.2.3.3.5,0,.2,0,.4-.1.5-.1.1-.3.2-.5.3h-.2s0,.9,0,.9h.2c.3,0,.5,0,.6.1.1.1.2.3.3.6,0,.3,0,.5-.2.6-.1.1-.3.2-.5.3-.1,0-.2,0-.3,0,0,0-.2,0-.3-.1,0,0-.1-.1-.2-.2s0-.2,0-.3h-1c0,.4.1.6.2.8.1.2.3.4.5.5.2.1.4.2.6.3.2,0,.5,0,.7,0,.2,0,.5,0,.7-.2.2,0,.4-.2.5-.4.2-.2.3-.3.3-.6,0-.2.1-.5,0-.8,0-.3-.1-.6-.3-.8"/>
  <polygon class="st20" points="78.7 248.4 77.8 249.7 78.1 250.8 79 249.5 80.1 254 81.1 253.7 79.7 248.2 78.7 248.4"/>
  <polygon class="st1" points="43.4 242.2 42.2 242.4 42.8 239.5 41.8 238.6 41.1 242.6 38.2 243.1 39.2 244 42.4 243.4 40.8 245.3 41.7 246 45.3 241.6 44.5 240.9 43.4 242.2"/>
  <path class="st35" d="M67.3,249.9c-.2-.2-.3-.3-.5-.4-.2,0-.4-.2-.7-.2-.3,0-.5,0-.7,0-.2,0-.4.2-.6.3-.2.1-.3.3-.4.5-.1.2-.2.5-.2.7,0,.3,0,.5,0,.7,0,.2.2.4.3.6.1.2.3.3.5.4.2,0,.4.1.6.2,0,0,.1,0,.2,0,0,0,.1,0,.2,0l-1.4,2.3h1.1c0,0,1.4-2.3,1.4-2.3.1-.3.3-.5.4-.7.1-.2.2-.5.2-.8,0-.3,0-.5,0-.8,0-.2-.2-.4-.3-.6M66.7,251.2c0,.3-.1.5-.3.6-.1.1-.3.2-.5.2-.2,0-.4-.1-.5-.3-.1-.2-.2-.4-.2-.6,0-.3.1-.5.3-.6.1-.1.3-.2.5-.2.2,0,.4,0,.5.3.1.2.2.4.2.6"/>
  <polygon class="st13" points="58.5 249.2 58.2 250.3 59.6 249.6 58.6 254.1 59.6 254.3 60.9 248.7 59.9 248.5 58.5 249.2"/>
  <polygon class="st29" points="49 248.2 49.9 250.8 52.5 249.9 51.6 247.3 49 248.2"/>
  <polygon class="st14" points="108.5 214.9 109.5 215 109.7 212.4 114.5 212.7 114.5 211.6 108.8 211.2 108.5 214.9"/>
  <path class="st46" d="M82.1,221.6l.6-.7-.4-.4,1.1-1.4-1.2-1-1.1,1.4-.4-.4-.5.6s0,0,0,0c.6.5,1.4,1,2,1.8"/>
  <polygon class="st21" points="108.8 208.7 109.8 208.6 109.6 205.9 111 205.8 111.2 208.1 112.2 208 112 205.7 113.4 205.6 113.6 208.3 114.6 208.2 114.3 204.4 108.5 204.9 108.8 208.7"/>
  <g>
    <path class="st44" d="M56.7,230.1l-2.9-6h-2.2v.3s3.2,3.6,5.1,5.7M78,225.4l1.2-1.4.6.5.4-.5c-.2-.7-.8-1.2-1.7-1.9,0,0-.1,0-.2-.1l-.6.7.5.5-1.2,1.4,1,.8Z"/>
    <path class="st8" d="M77.6,228.6h0s0,0,0,0l-.7,1.8h3.5l-.3-1.6c1.2-.6,2.1-2,2.2-3.9,0-.2,0-.3,0-.4,0,0,0-.1,0-.2,0,0,0-.2,0-.2,0,0,0-.2,0-.2,0,0,0,0,0-.1,0,0,0-.2,0-.3,0,0,0,0,0,0,0,0,0-.2,0-.3,0,0,0,0,0,0,0,0,0-.2-.1-.3,0,0,0,0,0,0,0,0,0-.2-.2-.3,0,0,0,0,0,0,0,0-.1-.2-.2-.3-.5-.8-1.3-1.3-1.9-1.8,0,0,0,0,0,0-.2-.1-.3-.2-.5-.4l-1,1.2c.1.1.3.2.5.3,0,0,0,0,.1,0,.7.5,1.4,1.1,1.8,1.8,0,0,0,0,0,0,0,.1.1.3.2.5,0,0,0,.2,0,.2,0,0,0,.1,0,.2,0,.2,0,.3,0,.5-.2,1.5-1.1,2.9-2.5,2.7l-3.5-2.9-.8,1,3.6,3h0Z"/>
  </g>
  <polygon class="st9" points="51.5 223 51.5 223.2 57.1 223.2 54 221.2 51.5 223"/>
  <polygon class="st12" points="60 223.2 65.6 223.2 65.6 223 63.3 221.3 60 223.2"/>
  <polygon class="st45" points="58 231 58 224.1 54.7 224.1 58 231"/>
  <polygon class="st40" points="60.2 230.2 65.6 224.3 65.6 224.1 63.4 224.1 60.2 230.2"/>
  <polygon class="st18" points="58.8 224.1 58.8 231.2 62.5 224.1 58.8 224.1"/>
  <polygon class="st38" points="76.6 228.6 74.1 226.4 73.4 227.9 75.3 229.4 76.6 228.6"/>
  <polygon class="st6" points="55.1 220.9 58.5 223.1 62.3 220.9 55.1 220.9"/>
</svg>