<?xml version="1.0" encoding="UTF-8"?>
<svg id="Layer_2" data-name="Layer 2" xmlns="http://www.w3.org/2000/svg" viewBox="0 0 222.84 255.46">
  <defs>
    <style>
      .cls-1 {
        fill: #231f20;
      }

      .cls-2, .cls-3 {
        fill: #a6976e;
      }

      .cls-4, .cls-3 {
        fill-rule: evenodd;
      }
    </style>
  </defs>
  <g id="Layer_1-2" data-name="Layer 1">
    <g>
      <g>
        <g>
          <path class="cls-1" d="M8.84,255.46c-7.76,0-8.84-5.47-8.84-8.84,0-5.99,3.32-9.28,9.01-9.28,3.17,0,4.44.72,4.44.72,0,0-.05.57-.05,1.7s.05,1.85.05,1.85c-1.07-1.55-1.97-2.45-4.34-2.45-2.7,0-6.04,1.4-6.04,7.36,0,3.99,1.32,7.11,5.94,7.11,2.45,0,3.37-.95,4.44-2.5,0,0-.05.82-.05,1.97,0,1.05.05,1.62.05,1.62,0,0-1.7.72-4.62.72Z"/>
          <path class="cls-1" d="M25.85,254.61l-.05.67h-7.89c-1.15,0-1.65.03-1.65.03l.17-.35c.45-.8.57-.95.57-7.21s-.1-6.14-.57-6.99l-.17-.35s.47.03,1.62.03h7.69s-.03.37-.03,1.22c0,.92.08,1.42.08,1.42,0,0-.15-.2-.8-.57-.52-.3-1.35-.45-2.37-.45h-2.7v4.97h2.17c1.02,0,1.87-.1,2.37-.38.55-.3.75-.52.8-.55,0,.03-.05.6-.05,1.77,0,1.07.05,1.7.05,1.75-.03-.03-.2-.23-.8-.57-.5-.3-1.35-.4-2.37-.4h-2.17v5.04h2.45c2.72,0,3.07-.6,3.87-1.75,0,0-.1.77-.22,2.67Z"/>
          <path class="cls-1" d="M40.51,255.38c-1.62,0-2.25-.57-3.3-2.2l-1.4-2.22c-1.25-1.87-1.47-2.32-2.52-2.32-.22,0-.37.03-.37.03,0,5.22.1,5.47.55,6.29l.2.35s-.6-.05-2.07-.05-2.07.05-2.07.05l.17-.35c.42-.77.55-.95.55-7.21s-.08-6.14-.55-6.99l-.17-.35s.7.05,1.67.05c.7,0,2.02-.05,2.79-.05,2.84,0,6.17.18,6.17,3.79,0,2.17-1.5,3.97-4.67,3.99,1.77.23,2.45,1.07,3.49,2.82l1.12,1.87c.7,1.15,1.2,1.9,2.05,2.27,0,0-.32.23-1.65.23ZM33.92,241.88c-.57,0-1,.05-1,.05v5.27s.4.03,1.15.03c.3,0,.9-.03,1.27-.1,1.05-.2,1.9-1,1.9-2.62,0-2.29-1.4-2.62-3.32-2.62Z"/>
          <path class="cls-1" d="M53.71,242.53c-.5-.3-1.37-.5-2.37-.5h-1.32v5.94c0,6.06.08,6.16.52,6.99l.23.35s-.65-.05-2.15-.05-2.12.05-2.12.05l.17-.35c.45-.8.55-.95.55-7.21v-5.72h-1.35c-1,0-1.85.2-2.37.5-.62.35-.8.55-.8.55,0,0,.1-.5.1-1.42,0-.85-.05-1.22-.05-1.22h11.71s-.03.37-.03,1.22c0,.92.08,1.42.08,1.42,0,0-.15-.2-.8-.55Z"/>
          <path class="cls-1" d="M59.11,255.26c-1.5,0-2.12.05-2.12.05l.2-.35c.43-.8.55-.95.55-7.21s-.1-6.14-.55-6.99l-.2-.35s.6.05,2.1.05c1.57,0,2.17-.05,2.17-.05l-.23.35c-.42.8-.52.95-.52,7.21s.08,6.16.52,6.99l.23.35s-.62-.05-2.15-.05Z"/>
          <path class="cls-1" d="M73.61,242.5c-.52-.3-1.35-.45-2.39-.45h-2.67v5.12h2.15c1.02,0,1.87-.1,2.39-.37.55-.3.75-.52.77-.55,0,.03-.05.6-.05,1.77,0,1.1.05,1.72.05,1.72,0,0-.15-.2-.77-.55-.52-.3-1.37-.4-2.39-.4h-2.15c0,5.09.1,5.34.57,6.17l.2.35s-.62-.05-2.15-.05-2.15.05-2.15.05l.2-.35c.42-.8.55-.95.55-7.21s-.1-6.14-.55-6.99l-.2-.35s.5.03,1.65.03h7.69s-.03.37-.03,1.22c0,.92.08,1.42.08,1.42,0,0-.15-.2-.8-.57Z"/>
          <path class="cls-1" d="M79.29,255.26c-1.5,0-2.12.05-2.12.05l.2-.35c.43-.8.55-.95.55-7.21s-.1-6.14-.55-6.99l-.2-.35s.6.05,2.1.05c1.57,0,2.17-.05,2.17-.05l-.23.35c-.42.8-.52.95-.52,7.21s.08,6.16.52,6.99l.23.35s-.62-.05-2.15-.05Z"/>
          <path class="cls-1" d="M94.79,254.61l-.05.67h-7.89c-1.15,0-1.65.03-1.65.03l.18-.35c.45-.8.57-.95.57-7.21s-.1-6.14-.57-6.99l-.18-.35s.47.03,1.62.03h7.69s-.03.37-.03,1.22c0,.92.08,1.42.08,1.42,0,0-.15-.2-.8-.57-.52-.3-1.35-.45-2.37-.45h-2.7v4.97h2.17c1.02,0,1.87-.1,2.37-.38.55-.3.75-.52.8-.55,0,.03-.05.6-.05,1.77,0,1.07.05,1.7.05,1.75-.03-.03-.2-.23-.8-.57-.5-.3-1.35-.4-2.37-.4h-2.17v5.04h2.45c2.72,0,3.07-.6,3.87-1.75,0,0-.1.77-.23,2.67Z"/>
          <path class="cls-1" d="M103.21,255.33c-.87,0-2.02-.08-2.84-.08-1.25,0-1.9.05-1.9.05l.2-.35c.42-.77.55-.95.55-7.21s-.1-6.14-.55-6.99l-.2-.35s.62.05,1.9.05c.85,0,2.17-.08,3.09-.08,2.72,0,8.49.18,8.49,7.16,0,7.64-5.69,7.79-8.74,7.79ZM103.39,241.98c-.8,0-1.37.05-1.37.05v11.68s.62.03,1.32.03c2.99,0,5.62-1,5.62-5.94s-2.45-5.82-5.57-5.82Z"/>
          <path class="cls-1" d="M133.27,255.41c-1.77,0-2.45-.75-3.64-2.65l-1.7-2.7c-1.47-2.32-1.75-2.82-2.99-2.82-.25,0-.42.03-.42.03,0,6.29.1,6.64.62,7.61l.23.42s-.65-.05-2.22-.05-2.25.05-2.25.05l.23-.42c.5-.93.62-1.12.62-8.61s-.1-7.36-.62-8.36l-.23-.43s.77.05,1.87.05c.75,0,2.12-.05,2.99-.05,3.09,0,6.89.23,6.89,4.52,0,2.32-1.4,4.77-5.41,4.74,2.07.28,2.84,1.35,4.12,3.47l1.22,2.12c.82,1.42,1.45,2.37,2.45,2.82,0,0-.37.25-1.75.25ZM125.68,239.13c-.65,0-1.17.05-1.17.05v6.44s.45.03,1.37.03c.32,0,1.05-.05,1.47-.1,1.25-.22,2.27-1.25,2.27-3.22,0-2.84-1.7-3.19-3.94-3.19Z"/>
          <path class="cls-1" d="M146.04,254.61l-.05.67h-7.89c-1.15,0-1.65.03-1.65.03l.18-.35c.45-.8.57-.95.57-7.21s-.1-6.14-.57-6.99l-.18-.35s.47.03,1.62.03h7.69s-.03.37-.03,1.22c0,.92.08,1.42.08,1.42,0,0-.15-.2-.8-.57-.52-.3-1.35-.45-2.37-.45h-2.7v4.97h2.17c1.02,0,1.87-.1,2.37-.38.55-.3.75-.52.8-.55,0,.03-.05.6-.05,1.77,0,1.07.05,1.7.05,1.75-.03-.03-.2-.23-.8-.57-.5-.3-1.35-.4-2.37-.4h-2.17v5.04h2.45c2.72,0,3.07-.6,3.87-1.75,0,0-.1.77-.23,2.67Z"/>
          <path class="cls-1" d="M159.41,242.53c-.5-.3-1.37-.5-2.37-.5h-1.32v5.94c0,6.06.08,6.16.52,6.99l.23.35s-.65-.05-2.15-.05-2.12.05-2.12.05l.18-.35c.45-.8.55-.95.55-7.21v-5.72h-1.35c-1,0-1.85.2-2.37.5-.62.35-.8.55-.8.55,0,0,.1-.5.1-1.42,0-.85-.05-1.22-.05-1.22h11.71s-.03.37-.03,1.22c0,.92.08,1.42.08,1.42,0,0-.15-.2-.8-.55Z"/>
          <path class="cls-1" d="M172.43,255.26c-1.32,0-2.39.05-2.39.05.3-.2.7-.55.7-1.3s-.35-1.9-.75-3.27l-.35-1.17h-4.67l-.35,1.17c-.4,1.37-.77,2.55-.77,3.27s.43,1.1.72,1.3c0,0-.87-.05-2.17-.05s-2.05.05-2.05.05c.82-.75,1.2-2.05,2.15-4.94l2.75-8.71c.08-.25.15-.5.15-.77s-.1-.4-.15-.42h5.02s-.17.13-.17.42c0,.28.08.52.15.77l2.57,8.71c.85,2.9,1.22,4.19,2.05,4.94,0,0-.95-.05-2.42-.05ZM167.71,242.83c-.22-.85-.35-1.35-.37-1.52-.03.15-.15.6-.42,1.52l-1.47,5.09h3.77l-1.5-5.09Z"/>
          <path class="cls-1" d="M179.23,255.26c-1.5,0-2.12.05-2.12.05l.2-.35c.43-.8.55-.95.55-7.21s-.1-6.14-.55-6.99l-.2-.35s.6.05,2.1.05c1.57,0,2.17-.05,2.17-.05l-.23.35c-.42.8-.52.95-.52,7.21s.08,6.16.52,6.99l.23.35s-.62-.05-2.15-.05Z"/>
          <path class="cls-1" d="M193.88,254.61l-.03.67h-7.06c-1.17,0-1.65.03-1.65.03l.2-.35c.42-.8.55-.95.55-7.21s-.1-6.14-.55-6.99l-.2-.35s.57.05,2.12.05,2.17-.05,2.17-.05l-.2.35c-.47.82-.57,1.1-.57,6.64v6.29h1.62c2.7,0,3.04-.6,3.84-1.75,0,0-.13.77-.25,2.67Z"/>
          <path class="cls-1" d="M206.52,254.61l-.05.67h-7.89c-1.15,0-1.65.03-1.65.03l.18-.35c.45-.8.57-.95.57-7.21s-.1-6.14-.57-6.99l-.18-.35s.48.03,1.62.03h7.69s-.03.37-.03,1.22c0,.92.08,1.42.08,1.42,0,0-.15-.2-.8-.57-.52-.3-1.35-.45-2.37-.45h-2.7v4.97h2.17c1.02,0,1.87-.1,2.37-.38.55-.3.75-.52.8-.55,0,.03-.05.6-.05,1.77,0,1.07.05,1.7.05,1.75-.03-.03-.2-.23-.8-.57-.5-.3-1.35-.4-2.37-.4h-2.17v5.04h2.45c2.72,0,3.07-.6,3.87-1.75,0,0-.1.77-.23,2.67Z"/>
          <path class="cls-1" d="M221.19,255.38c-1.62,0-2.25-.57-3.3-2.2l-1.4-2.22c-1.25-1.87-1.47-2.32-2.52-2.32-.22,0-.37.03-.37.03,0,5.22.1,5.47.55,6.29l.2.35s-.6-.05-2.07-.05-2.07.05-2.07.05l.18-.35c.42-.77.55-.95.55-7.21s-.08-6.14-.55-6.99l-.18-.35s.7.05,1.67.05c.7,0,2.02-.05,2.8-.05,2.85,0,6.16.18,6.16,3.79,0,2.17-1.5,3.97-4.67,3.99,1.77.23,2.45,1.07,3.5,2.82l1.12,1.87c.7,1.15,1.2,1.9,2.05,2.27,0,0-.33.23-1.65.23ZM214.6,241.88c-.57,0-1,.05-1,.05v5.27s.4.03,1.15.03c.3,0,.9-.03,1.27-.1,1.05-.2,1.9-1,1.9-2.62,0-2.29-1.4-2.62-3.32-2.62Z"/>
        </g>
        <g>
          <path class="cls-4" d="M167.92,183.68h18.84c.34,0,.51-.21.51-.62l-9.22-25.29v-.1c-.13-.55-.3-.82-.51-.82-.27,0-.48.31-.62.92l-9.42,25.19c0,.48.14.72.41.72M198.82,213.96c-.42-1.17-.9-2.74-.9-2.74l-8.19-21.71c-.2-.48-.55-.72-1.02-.72h-22.83c-.41,0-.72.27-.92.82l-5.53,14.65c-1.03,2.53-1.54,4.61-1.54,6.25,0,1.02.31,1.8.92,2.35.62.55,1.67.82,3.18.82h1.53c1.02,0,1.54.28,1.54.82,0,.68-.58,1.03-1.74,1.03-1.3,0-3.14-.04-5.53-.1-2.67-.14-4.44-.21-5.33-.21-.2,0-.95.03-2.25.1-1.02,0-2.47.03-4.35.1-1.87.07-3.7.1-5.48.1-1.3,0-1.94-.34-1.94-1.03,0-.55.41-.82,1.22-.82,1.03,0,2.09-.06,3.18-.2,2.18-.27,3.89-1.14,5.12-2.61,1.23-1.47,2.42-3.67,3.58-6.6l25.7-64.31c.62-1.57,1.13-2.65,1.54-3.23.41-.58.85-.87,1.33-.87.76,0,1.61,1.09,2.56,3.28.48,1.02,1.5,3.52,3.07,7.47l6.14,15.46,9.78,24.32,2.72,6.76,3.68,8.96c1.71,4.09,3.28,6.9,4.71,8.4,1.44,1.5,2.87,2.42,4.3,2.76,1.37.27,2.8.41,4.3.41.89,0,1.33.28,1.33.82,0,.41-.31.68-.92.82-.62.14-1.88.21-3.79.21l-9.77-.22c-2.9,0-5.81.22-8.03.22-.62,0-.96-.39-1.38-1.56"/>
          <path class="cls-4" d="M105.41,185.92v-33.71c0-2.25-.07-4.22-.2-5.92-.21-3.33-1.37-5.24-3.48-5.72-1.02-.27-2.25-.41-3.68-.41-1.09,0-1.63-.34-1.63-1.02,0-.55.82-.82,2.45-.82,1.29,0,3.78.07,7.45.2,2.86.07,4.8.1,5.82.1.81,0,2.48-.03,5-.1,3.54-.14,6.02-.2,7.46-.2s2.14.27,2.14.82c0,.68-.54,1.02-1.63,1.02-.82,0-1.84.1-3.06.31-1.36.27-2.3.85-2.81,1.74-.51.88-.83,2.25-.97,4.08-.14,1.71-.21,3.68-.21,5.92v33.71c0,6.33.02,11.15.06,14.45.03,3.3.15,5.93.36,7.91.2,1.56.58,2.74,1.12,3.52.54.78,1.53,1.28,2.96,1.48.75.07,1.6.15,2.55.26.95.1,1.84.16,2.65.16,1.09,0,1.64.27,1.64.81,0,.68-.65,1.02-1.94,1.02-2.86,0-6.61-.07-11.23-.21-2.18-.06-3.75-.1-4.7-.1-.54,0-2.15.03-4.8.1-3.95.14-6.64.21-8.07.21s-2.04-.34-2.04-1.02c0-.55.54-.81,1.63-.81,1.22,0,2.45-.14,3.68-.41,1.63-.34,2.62-2.04,2.96-5.1.2-1.97.34-4.62.41-7.91.07-3.3.1-8.09.1-14.35M73.42,176.57c0,.25-.05,7.19-.05,7.19-.07,2.05-.1,7.58-.1,13.7v11.24c0,1.36-.07,2.23-.2,2.6-.14.37-.51.73-1.12,1.07-3.07,1.56-6.81,2.72-11.23,3.47-4.43.75-8.89,1.12-13.38,1.12-6.47,0-12.53-.78-18.18-2.35-5.65-1.56-10.65-3.99-15.01-7.25-4.36-3.27-7.78-7.46-10.27-12.56-2.49-5.11-3.73-11.07-3.73-17.87,0-7.63,1.69-14.33,5.06-20.12,3.37-5.79,7.61-10.21,12.71-13.28,4.43-2.65,8.82-4.43,13.18-5.31,4.36-.88,9.12-1.33,14.3-1.33,1.7,0,3.44.05,5.21.15,1.77.1,3.61.25,5.52.46,1.9.2,3.47.39,4.7.56,1.23.17,2.11.32,2.65.46,1.36.27,2.79.51,4.29.71,1.5.2,2.76.34,3.78.41.95.07,1.43.48,1.43,1.23,0,.2-.03.58-.1,1.12-.14,1.5-.27,3.39-.41,5.67-.14,2.28-.2,5.6-.2,9.96,0,1.43-.37,2.15-1.13,2.15-.54,0-.88-.44-1.02-1.33-.21-1.64-.55-3.15-1.02-4.55-.48-1.4-1.3-2.71-2.45-3.93-1.83-1.97-4.78-3.8-8.83-5.46-4.05-1.67-8.7-2.5-13.94-2.5-3.75,0-7.25.39-10.52,1.17-3.27.78-6.5,2.5-9.7,5.15-2.99,2.52-5.31,5.81-6.94,9.86-1.63,4.05-2.45,9.11-2.45,15.17,0,5.45.84,10.52,2.5,15.22,1.67,4.7,4.07,8.78,7.2,12.26,3.13,3.47,6.89,6.16,11.28,8.07,4.39,1.91,9.24,2.86,14.55,2.86,1.91,0,3.56-.07,4.95-.2,1.4-.14,2.64-.44,3.73-.92,1.29-.61,1.94-1.87,1.94-3.78v-9.6c0-5.99-.03-11.45-.1-13.5-.07-1.77-.41-3.1-1.02-3.98-.62-.89-1.74-1.5-3.37-1.84-.81-.21-2.15-.31-3.98-.31-1.02,0-1.53-.27-1.53-.81,0-.68.72-1.02,2.15-1.02,1.84,0,4.93.07,9.29.2,3,.07,4.84.1,5.51.1.77,0,2.58-.06,5.35-.18.6,0,.73.4.73.65"/>
        </g>
      </g>
      <g>
        <polygon class="cls-3" points="132.53 30.29 135.43 28.74 134.56 28.14 132.67 29.26 133.06 27.09 132.19 26.48 131.74 29.74 130.58 31.41 131.37 31.96 132.53 30.29"/>
        <path class="cls-3" d="M117.28,21.88l.9.16c.21.04.37.12.48.26.11.14.14.31.11.5-.03.19-.12.34-.27.44-.15.1-.33.13-.54.09l-.9-.16.23-1.29ZM116.92,23.97l.69.12.62,2.12,1.11.19-.73-2.3c.13-.02.25-.06.37-.12.12-.06.23-.13.33-.23.1-.09.19-.2.26-.33.07-.13.12-.28.15-.45.03-.21.03-.41,0-.6-.04-.19-.12-.37-.23-.53-.11-.16-.26-.29-.45-.41-.18-.11-.4-.19-.65-.24l-1.92-.33-.84,4.89.95.16.34-1.95Z"/>
        <rect class="cls-2" x="136.65" y="33.07" width="2.39" height="2.39" transform="translate(95.97 169.99) rotate(-86.81)"/>
        <polygon class="cls-3" points="77.26 56.91 76.4 56.88 76.32 59.18 75.12 59.14 75.18 57.18 74.32 57.16 74.26 59.11 73.1 59.08 73.17 56.78 72.3 56.75 72.2 60.02 77.16 60.17 77.26 56.91"/>
        <polygon class="cls-3" points="115.41 77.92 114.97 79.1 122.39 79.1 122.14 77.92 115.41 77.92"/>
        <polygon class="cls-3" points="126.54 29.05 128.3 25.35 129.47 25.91 129.84 25.13 126.62 23.6 126.25 24.38 127.42 24.94 125.66 28.64 126.54 29.05"/>
        <polygon class="cls-3" points="131.67 87.4 132.22 88.06 134 86.61 134.76 87.54 133.24 88.78 133.79 89.46 135.31 88.22 136.04 89.12 134.26 90.57 134.8 91.24 137.33 89.18 134.2 85.33 131.67 87.4"/>
        <polygon class="cls-3" points="142.12 44.51 142.55 45.53 144.52 45.74 143.3 47.3 143.73 48.32 145.47 45.9 148.26 46.28 147.83 45.28 146.02 45.1 147.16 43.68 146.73 42.66 145.06 44.94 142.12 44.51"/>
        <path class="cls-3" d="M141.06,84.02c-.06-.14-.14-.28-.25-.41-.1-.13-.22-.26-.36-.38-.13-.13-.28-.26-.44-.4-.16-.14-.31-.27-.45-.39-.14-.12-.28-.22-.42-.31-.14-.09-.28-.15-.43-.2-.15-.04-.31-.06-.49-.05-.25.01-.48.07-.7.18-.22.11-.41.26-.59.46-.15.17-.27.35-.36.55-.09.2-.13.4-.14.6,0,.21.03.42.1.63.07.21.19.42.36.62l.65-.73c-.12-.17-.18-.35-.2-.54-.01-.19.06-.37.22-.55.09-.1.19-.17.29-.22.11-.05.21-.07.31-.07.07,0,.14,0,.21.02.07.02.15.05.23.11.09.05.2.13.32.23.12.1.27.23.45.39.18.16.32.29.43.4.12.11.2.21.27.29.06.08.11.16.13.22.03.07.04.13.05.2.01.1,0,.21-.03.32-.03.11-.09.21-.18.31-.16.18-.34.28-.53.29-.19,0-.37-.04-.55-.13l-.65.73c.22.14.44.24.66.28.22.05.43.06.63.02.21-.03.4-.1.58-.21.18-.11.35-.25.51-.42.18-.2.31-.42.39-.64.08-.23.11-.46.09-.71,0-.18-.05-.34-.11-.48M147.72,49.01c-.17.01-.34.04-.52.08-.18.04-.38.09-.58.14-.21.05-.4.1-.58.15-.18.05-.35.11-.5.17-.15.07-.29.15-.41.25-.12.1-.23.23-.32.38-.13.21-.21.44-.25.67-.04.24-.02.49.04.75.05.22.14.42.25.61.11.18.25.34.42.46.17.12.36.22.57.27.22.06.46.08.72.06l-.23-.95c-.21,0-.39-.05-.55-.14-.16-.09-.27-.26-.33-.5-.03-.13-.04-.25-.02-.37.02-.11.06-.21.12-.3.04-.06.08-.11.14-.16.05-.05.13-.09.22-.13.09-.04.22-.09.37-.13.15-.05.34-.1.57-.15.23-.06.42-.1.58-.13.15-.03.28-.05.39-.06.1,0,.19,0,.26.02.07.02.13.04.19.07.09.05.18.12.24.21.07.09.12.2.16.33.06.24.04.44-.06.6-.1.16-.24.29-.42.38l.24.96c.24-.1.44-.23.61-.39.17-.15.29-.32.38-.51.09-.19.14-.39.16-.6.02-.21,0-.43-.06-.65-.06-.27-.17-.5-.31-.69-.14-.19-.32-.35-.53-.48-.15-.09-.31-.15-.46-.19-.15-.03-.31-.04-.48-.03M131.61,62.69h-.06c-2.63-8.67-10.69-15-20.21-15s-17.58,6.33-20.22,15h-.03s-.01-.06-.02-.09c-1.45-7.32-1.15-14.04-.82-17.54h42.2c.45,4.16.7,10.73-.85,17.63ZM112.88,86.72v-21.07h17.96c-2.42,8.07-7.58,16.18-17.96,21.07ZM109.92,86.74c-9.71-4.39-15.42-11.01-18.12-21.09h18.12v21.09ZM118.02,62.56c.14-.11.11-.26.21-.42.08-.13.31-.25.31-.34,0-.06-.12-.21-.13-.33,0-.1.1-.18.16-.22.17-.11.43.05.53-.04.17-.15.26-.46.43-.56.13.48.24.97.35,1.47.04.19.08.38.12.57h-2.06s.03-.08.08-.12ZM111.55,62.69c-.07-.3-.13-.59-.2-.88l-.06-.28c1.84-.35,2.38-.43,3.91-.65.13.51.25,1.06.38,1.67.01.05.02.1.03.14h-4.07ZM106.75,62.69s-.02-.07-.02-.11c1.3-.34,2.64-.66,3.97-.93.07.34.15.69.23,1.04h-4.18ZM97.36,61.84c0,.28.01.56.03.84h-.96c-.05-.08-.08-.22-.09-.35.33-.17.67-.33,1.03-.49ZM94.88,57.56c.42-.34.58-.47.9-.68-.33.72-.6,1.48-.82,2.28-.19.12-.35.22-.48.31.02-.09.04-.2-.01-.29-.03-.05-.14-.22-.21-.42.14-.3.34-.68.62-1.19ZM97.75,54.6s.71-.1.76-.02c.02.03.07.06.12.07-.02.04-.03.08-.05.11-.53.24-1.04.49-1.5.74.18-.29.37-.57.57-.84.05-.02.09-.04.11-.06ZM98.37,53.75c.31-.19.65-.37,1.02-.55-.21.32-.4.67-.57,1.03-.08-.09-.22-.17-.29-.18-.03,0-.18-.06-.31-.13.05-.06.1-.12.15-.18ZM100.59,52.99c.19,0,.41.29.51.29.12,0,.38-.24.62-.27-.06.18-.11.37-.16.56l-.11.04c-.13.05-.26.09-.4.14-.64.24-1.22.47-1.76.69.29-.62.63-1.18,1-1.67.04-.02.08-.03.12-.05.03.13.07.27.18.27ZM103.69,52.88s0,0,0,0c-.51.15-.9.28-1.5.48.05-.17.1-.34.15-.5.85-.48,1.25.03,1.35.02ZM105.37,58.39c-1.74.49-2.22.65-3.63,1.11,0-.13-.02-.26-.02-.39.38-.08.3-.46.3-.47,0-.11.12-.44.12-.44.28-.04.13-.64.29-.75.16-.11-.02-.42-.15-.37-.1.04-.19.12-.23.2-.04.09-.21.05-.2,0,0-.05-.06-.2-.16-.24,0-.09,0-.19,0-.28,1.04-.34,1.59-.52,2.24-.71-.09.2-.1.47-.06.6.03.1.15.06.21.16.05.07,0,.29.04.34.07.1.21.27.22.28.13.14.21.41.33.43.07,0,.17.03.21.1.03.05.2.05.23.08.08.09.14.12.21.12.01.08.02.17.04.25ZM109.46,49.05c.23.1.46.26.7.46-.42.06-.84.13-1.26.21-.02,0-.04-.02-.05-.04,0,0-.06-.06-.13-.06-.12,0-.29.03-.37.02-.09-.02-.06-.05-.04-.1.04-.1.29,0,.33-.28,0-.03,0-.06.01-.09.27-.05.54-.09.81-.12ZM118.5,50.36s-.3-.1-.37-.03c0,.04-.05.17-.03.19.02.02-.02.02-.1.07-.53-.41-.85-.64-1.23-.87.29.03.56.06.82.11.3.13.6.26.89.41.04.05.06.1.03.12ZM126.51,58.73c.38.07,1.24.01,1.52.67.24.57-.75.25-1.18.23-.11-.3-.22-.6-.34-.89ZM120.46,62.01c-.07-.32-.15-.64-.22-.95.15.16.31.31.55.33.1,0,.2.02.29.04.11.02.2.14.31.18.12.05.26.24.3.35.02.04.06.31-.06.37-.12.06-.31.07-.45.07-.08,0-.2.08-.19.21,0,.04,0,.06,0,.08h-.37c-.05-.23-.09-.46-.14-.68ZM115.66,60.21c-.14-.55-.29-1.09-.44-1.62.57-.2.36.46.6.26.04-.03.32.15,0,.27-.2.08.06.24.12.29.2.13.44-.77.94-.35.05.04,0,.09-.04.15-.05.06-.02.09-.11.14-.1.06-.13.09-.22.12-.05.01.03.24.04.25.04.12-.25.31-.42.43-.16.02-.32.04-.49.06ZM114.16,57.18c.08.26.17.52.25.79-.06.02-.12.05-.15.06-.11.02-.06.4-.06.41-.04.09,0,.21.03.32.03.11.17.02.2.08.1.16-.25.59.05.6.06,0,.19-.05.31-.12.09.33.18.65.26.99-1.3.18-2.6.4-3.89.65-.28-1.24-.52-2.25-.74-3.15,1.24-.24,2.49-.45,3.73-.63ZM110.83,49.42c-.24-.22-.4-.36-.55-.47.36-.04.71-.07,1.05-.09.37.08.75.21,1.12.38-.52.04-1.06.1-1.62.18ZM113.39,49.18c-.22-.13-.44-.25-.66-.35.09,0,.19,0,.27,0,.45.07.9.17,1.34.31-.28,0-.57.02-.96.04ZM117.65,51.52s0,.23.04.29c.14.32-.07.12-.15.53-.08.41.2.19-.15.54-.05.05-.09.13-.14.23-.05,0-.1,0-.16,0-.42-.67-.86-1.29-1.32-1.84.9-.04,1.26-.04,1.99-.03.06.11-.08.16-.11.26ZM120.18,52.77c-.22-.28-.46-.55-.7-.8.21-.19.67-.4.81-.22.15.2-.12.8-.11,1.02ZM121.89,53.73s.03.01.05.02c.03.02.31.64.28.76-.04.14-.5.06-.74.09-.15-.24-.3-.47-.45-.7.02-.02.04-.03.07-.05.11-.07.25-.13.4-.15.14,0,.27.02.4.04ZM119.53,55.49c.13-.15-.11-.31-.14-.41-.03-.09.34-.52.19-.66-.05-.04-.51-.27-.51-.3,0,0-.04-.36-.09-.5.35,0,.62,0,.98,0,0,.07-.02.15-.04.24-.06.26.42.28.45.28.03,0,.08-.01.14-.02.13.19.25.38.37.57-.19.06-.33.6-.32.75,0,.63.21.22.23.43,0,.07-.05.15-.1.22-.51,0-1.03.02-1.56.04.05-.33.52-.17.55-.47,0-.04-.24-.06-.15-.17ZM110.69,54.46c-.11.12-.28.28-.37.33-.04.03-.25.42-.16.55.08.12.15.27.27.34-.06.07.4-.25.37-.11-.06.28.38-.11.4-.12.26-.23.54-.57.79-.79.09-.07-.12-.25-.33-.36.4-.06.8-.12,1.36-.21.33.78.65,1.63.95,2.53-1.21.17-2.44.38-3.68.62-.22-.9-.44-1.77-.65-2.58.42-.08.75-.14,1.05-.2ZM108.92,54.23c-.39.08-.79.17-1.18.26,0,0,0-.01,0-.02.29-.75.73-.79.98-.95.06.23.12.46.19.71ZM114.61,50.83c-.81.06-1.65.15-2.48.26-.28-.45-.57-.86-.86-1.2.83-.1,1.15-.13,1.98-.19.46.31.92.68,1.36,1.13ZM115.32,50.78c-.4-.43-.82-.81-1.24-1.13.53-.02,1.04-.02,1.52,0,.6.29,1.19.66,1.75,1.08-.65,0-1.33.01-2.04.05ZM116.45,53.17c-1.32.1-1.79.15-3.06.31-.32-.7-.64-1.33-.96-1.9.93-.12,1.82-.2,2.65-.25.47.53.93,1.15,1.37,1.84ZM109.38,52.55s.06-.19,0-.23c-.04-.03-.14-.13-.2-.22.88-.17,1.77-.31,2.63-.44.33.56.65,1.2.97,1.9-1.1.16-2.21.34-3.3.56-.09-.35-.19-.7-.28-1.04.15-.17.28-.35.17-.53ZM105.93,57.91c.23-.04.25.11.46-.27.09-.16,0-.29.04-.52.02-.16.3-.86.12-.99-.2-.16.4-.5.55-.48.12.02.13-.08.16-.15,0-.01.04-.23.07-.35.57-.13,1.14-.26,1.71-.37.2.78.42,1.65.65,2.59-1.75.37-2.25.49-3.74.88-.02-.11-.03-.21-.05-.32,0,0,.01,0,.02,0ZM116.82,54.23c-.02.09-.23.21-.29.39-.14.41.36.85.32.87,0,0-.01.04,0,.05.04.08.11.23.21.32.08.08.18.11.24.11.02,0,.05-.01.07-.02.01,0,.05,0,.08,0,.04,0,.09,0,.17-.05.07-.04.14-.1.2-.17.07.15.14.31.21.47-1.26.09-1.83.15-2.8.27-.03-.08-.12-.19-.19-.26-.04-.04-.36.14-.48.27-.3-.87-.61-1.7-.93-2.46,1.08-.14,2.14-.24,3.15-.3.03.06.07.12.1.17-.14.19-.01.19-.06.35ZM118.9,53.07c.07-.17.15-.27.12-.56,0-.02.06-.09.11-.15.21.23.41.46.61.71h0c-.22,0-.41,0-.58,0-.09,0-.17,0-.25,0ZM109.18,50.87s.04-.14.05-.2c.02-.1-.16-.24-.19-.31-.02-.03-.09-.08-.17-.12.59-.11,1.18-.2,1.75-.28.3.33.6.73.9,1.2-.79.11-1.6.25-2.42.41-.05-.17-.12-.43.08-.69ZM109.83,57.92c.24.99.48,2.05.73,3.15-1.33.27-2.65.58-3.95.93-.22-1.13-.41-2.2-.57-3.19,1.26-.33,2.53-.63,3.79-.89ZM118.22,57.04c.28.39.26.38-.11.58-.14.07-.52.3-.51.5,0,.17.19.27-.05.35-.1.03-.45.35-.54.15-.06-.14.07-.34-.01-.48-.04-.06-.17-.07-.24-.04-.03.02-.06-.02-.07-.07-.13-.33-.88-.6-1.09-.79-.08-.07-.07-.16-.04-.25,1.07-.12,1.6-.16,2.71-.25,0,.02.01.03.02.05.02.1-.11.16-.06.24ZM121.87,61.51s.1.03.21,0c.05-.02.06-.15.06-.15-.1-.07-.39-.12-.62-.21-.05-.02-.03-.11-.08-.13-.24-.08-.47-.1-.55-.19-.13-.15-.1-.38.1-.39.16.01.53.13.8.22-.02,0,.43-.01.43,0,.06.07.04.43.15.45.19.05.21.22.32.36.05.07.17.04.25.13.14.13.26.38.33.49.16.21.38.14.5.09.04.17.07.34.1.51h-2.04c-.03-.08-.06-.18-.04-.24.01-.03.07-.05.09-.09.04-.11.14-.22.16-.37.01-.11-.2-.38-.18-.48ZM125.8,59.63c-.3-.06-.46.09-.62.23-.35-.03-.72-.06-1.1-.08,0,0,0-.02,0-.03.14-.35,0-.76.15-1.13.04-.09.22-.27.36-.24.06.01.09.15.19.2.04.02.07.11.1.19,0,.04.12-.02.19.01.11.05.27.15.34.09.14-.11.31-.24.41-.28,0,0,.02,0,.03,0,.14.33.27.66.39,1-.14,0-.34.07-.45.05ZM103.13,54.01c.02.1.09.21.1.28,0,.08.11.15.13.14.04-.02.07-.03.1-.04.13-.05.16.05.3.04.03,0,.1.03.17.06.09.04.06.18,0,.24-.05.06-.09.12-.14.13-.31.06-.61-.12-.51.45.02.12.07.24.14.3-.54.16-.99.31-1.68.54.06-.79.16-1.52.3-2.19.52-.17.9-.3,1.23-.4-.09.14-.17.33-.14.44ZM98.97,60.53c-.07.03-.15.06-.22.09,0-.29.06-.18.1-.38.01-.05-.25-.13-.32-.18-.32-.25-.19-.62-.1-.71.08-.1.66-.61.48-.69-.35-.16.29-.84.5-.75.21.09.47-.42.72-.34.25.08.16.1.22.29.04.12-.04.26-.06.37-.02.12-.22.16-.17.35.05.19-.51.87-.57.91-.12.07-.13.5.14.37.22-.1.33.2.37.26-.37.14-.74.28-1.1.43ZM98.99,55.15c.67-.3,1.41-.59,2.2-.88.08-.03.15-.05.23-.08-.13.67-.23,1.4-.28,2.17-.11.04-.21.08-.32.12-.1-.09-.12-.28-.17-.33-.08-.1-.23-.04-.29-.07-.07-.03-.07-.15-.16-.15-.05,0-.34-.09-.48-.17-.1-.06-.54-.31-.64-.31-.09,0-.17.04-.24.08.04-.11.09-.24.14-.37ZM97.89,56.03c-.14.1-.05.16-.29.28-.03.01-.35.43-.29.54.06.12-.16.61-.02.68.13.07-.08.25-.08.28,0,.03-.31,0-.38-.12-.17-.27.07-.55.03-.64-.06-.15-.3-.31-.46-.33.06-.12.11-.23.17-.35.51-.3,1.09-.6,1.71-.9-.06.18-.13.36-.18.55-.06-.02-.13-.05-.22.02ZM95.61,58.78c.15-.5.33-.98.53-1.45.12.14.33.27.29.48-.04.17-.18.26-.23.42-.03.12-.07.19-.13.31-.15.08-.31.16-.45.25ZM96.06,59.72s-.12.02-.16.02-.07.02-.08.05c0,.03-.01.13,0,.2.01.07-.26.48-.31.51-.03.02-.19.03-.32,0,.06-.34.14-.67.22-.99.15-.09.31-.17.46-.26.29.14.19.44.19.46ZM104.05,61.76c-.16-.09-.47,0-.65-.03-.01,0-.35-.17-.47-.25-.03-.02,0-.05.02-.06.05-.02.1-.06.12-.07.03,0-.06-.17-.11-.2-.05-.03-.08-.1-.12-.17-.05-.07-.11-.17-.12-.17-.1-.2,0-.32-.28-.35-.06,0-.37.49-.59.5-.03-.3-.06-.59-.08-.88,1.7-.56,2.22-.72,3.68-1.13.16,1.03.35,2.1.56,3.18-.55.15-1.09.31-1.63.47.05-.09.1-.25.1-.28,0-.13-.39-.54-.44-.57ZM126.64,61.46c.02.13.16.27.19.44.05.3-.04.63-.08.72-.01.02-.02.04-.02.06h-2.26c-.05-.25-.1-.5-.15-.74-.07-.31-.14-.62-.22-.93.16.03.44.11.49.21.04.08-.06.21,0,.25.07.04.15.09.23.13.08.05,0,.16.09.2.13.06.13,0,.25.09.27.19.32-.27.38-.31.18-.1.31.11.51.11.13,0,.31-.3.47-.43.06-.05.11-.07.16-.06.04,0-.07.15-.04.27ZM99.84,61.22c-.02.36-.68.53-.38.78.27.23.07.43-.16.68h-1.33c-.02-.37-.03-.74-.04-1.1.59-.26,1.21-.52,1.86-.77.02.12.05.34.05.4ZM116.85,60.81c.09.06.21.06.22.16.02.1.16.24.21.37.04.08.11.12.08.17-.02.04-.17.19-.24.21-.04,0-.11-.07-.25-.03-.12.03-.41,0-.47.08-.05.05-.23.11-.34.13-.08-.36-.17-.73-.26-1.11.33-.04.65-.08.97-.12.02.05.04.11.07.13ZM134.96,42.44l-.04-.22h-47.16l-.04.22c-.02.09-1.57,9.24.55,19.67,1.96,9.64,7.55,22.38,23.05,28.29l.09.04.1-.04c15.72-6.14,21.25-18.86,23.13-28.46,2.03-10.37.33-19.42.31-19.51Z"/>
        <polygon class="cls-3" points="141.96 42.43 140.73 40.49 141.75 39.84 142.8 41.49 143.53 41.03 142.48 39.38 143.46 38.76 144.69 40.7 145.42 40.23 143.67 37.47 139.48 40.13 141.23 42.89 141.96 42.43"/>
        <rect class="cls-2" x="126.59" y="92.37" width="2.39" height="2.39" transform="translate(3.07 191.19) rotate(-74.26)"/>
        <rect class="cls-2" x="120.21" y="24.35" width="4.96" height=".97" transform="translate(61.44 134) rotate(-72.15)"/>
        <rect class="cls-2" x="83.34" y="33.03" width="2.39" height="2.39" transform="translate(-.64 1.63) rotate(-1.1)"/>
        <rect class="cls-2" x="88.98" y="27.85" width=".97" height="4.96" transform="translate(-.4 59.47) rotate(-36.69)"/>
        <polygon class="cls-3" points="94.26 30.13 92.8 27.45 95.98 29.19 96.74 28.78 94.37 24.42 93.52 24.88 94.97 27.55 91.79 25.82 91.03 26.23 93.4 30.59 94.26 30.13"/>
        <polygon class="cls-3" points="82.98 40.62 82.24 40.17 81.06 42.14 80.02 41.52 81.04 39.85 80.3 39.4 79.29 41.07 78.29 40.47 79.47 38.5 78.73 38.06 77.05 40.86 81.29 43.42 82.98 40.62"/>
        <path class="cls-3" d="M157.5,65.81l5.2-1.45,5.8,3.03-11-1.59ZM167.41,73.69l-10.89-2.84,5.41-.85,5.48,3.69ZM165.42,79.67l-10.36-3.91,5.27-.44,5.09,4.35ZM162.86,85.48l-9.84-5.05,5.2.22,4.64,4.82ZM159.73,91.01l-9.27-6.09,5.3.72,3.96,5.37ZM156.06,96.13l-8.61-7.11,5.26,1.36,3.35,5.75ZM151.73,100.81l-7.7-7.98,4.93,2.04,2.77,5.94ZM146.93,104.99l-6.78-8.82,4.74,2.63,2.04,6.19ZM141.69,108.59l-5.74-9.46,4.32,3.01,1.42,6.45ZM136.21,111.86l-4.76-10.28,4.17,3.7.59,6.58ZM135.6,104.49l-3.98-3.48,3.25-1.75.73,5.24ZM139.08,96.41l1.35,5.17-4.36-3.01,3.01-2.16ZM142.95,93.16l1.94,5-4.67-2.56,2.73-2.44ZM148.92,94.25l-4.88-1.99,2.44-2.8,2.44,4.79ZM152.45,89.76l-5.12-1.31,2.21-3.01,2.91,4.32ZM155.46,85.04l-5.12-.7c.79-1.3,1.83-3.25,1.83-3.25l3.3,3.95ZM157.99,80.09l-5.16-.26,1.49-3.38,3.67,3.64ZM111.42,102.8c-23.78,0-43.06-19.28-43.06-43.06s19.28-43.06,43.06-43.06,43.06,19.28,43.06,43.06-19.28,43.06-43.06,43.06ZM126.97,103l3.41-1.42.08,5.19-3.49-3.77ZM130.26,114l-3.53-10.48,3.7,4.04-.16,6.44ZM125.26,108.76l-3.2-4.34,3.58-1.02-.38,5.36ZM124.17,115.8l-2.39-10.86,3.2,4.39-.81,6.47ZM119.74,109.95l-2.68-4.6,3.7-.64-1.02,5.24ZM117.91,116.84l-1.19-11,2.66,4.62-1.47,6.38ZM114.17,110.58s-1.35-3.32-2.18-4.91c1.26-.07,3.77-.21,3.77-.21l-1.59,5.12ZM111.61,117.22l.05-11.09,2.15,5.08-2.2,6.01ZM108.47,110.5l-1.61-5.03,3.82.21-2.21,4.82ZM105.16,116.89l1.33-11.05,1.51,5.12-2.84,5.93ZM102.9,109.52l-1.04-4.86,3.65.61-2.61,4.25ZM98.87,115.89l2.54-10.9,1.08,5.09-3.62,5.81ZM97.56,108.31l-.58-4.95,3.58,1.02-3,3.94ZM92.26,106.6l.05-5.12,3.41,1.42-3.46,3.69ZM92.65,114.14l3.81-10.5c.22,1.8.61,5.2.61,5.2l-4.41,5.31ZM86.96,111.72l4.74-9.95.07,5.16-4.81,4.79ZM87.76,99.14l3.3,1.78-4.03,3.51.73-5.29ZM86.54,104.69l-5.21,4.07,5.86-9.46-.65,5.39ZM83.61,96.24l3.06,2.16-4.37,2.94,1.3-5.1ZM81.62,101.65l-5.48,3.46,6.83-8.7-1.35,5.24ZM79.75,93l2.85,2.44-4.67,2.35,1.83-4.79ZM77.25,98l-5.87,2.8,7.73-7.77-1.86,4.96ZM76.26,89.3l2.56,2.73-4.84,1.91,2.28-4.63ZM67.04,96.29l8.6-6.99-2.38,4.78-6.23,2.21ZM73.2,85.27l2.28,3.01-5.15,1.36,2.87-4.37ZM63.34,91.17l9.17-5.97-2.92,4.51-6.26,1.47ZM70.57,80.89c.66,1.02,1.3,2.16,1.94,3.24l-5.36.9,3.41-4.14ZM60.12,85.72l9.84-4.96-3.37,4.1-6.47.86ZM68.53,76.21l1.54,3.53-5.41.21,3.86-3.74ZM57.56,79.91l10.34-3.82-3.79,3.7-6.54.12ZM55.66,73.89l10.72-2.68-4.22,3.25-6.5-.56ZM54.43,67.63l10.91-1.49-4.48,2.8-6.43-1.3ZM53.86,61.3l11.1-.21-4.84,2.21-6.26-1.99ZM54.03,55l11.02.97-5.12,1.71-5.9-2.68ZM54.88,48.67l10.86,2.18-5.33,1.14-5.52-3.32ZM56.42,42.53l10.57,3.37-5.36.57-5.22-3.93ZM58.76,36.61c3.39,1.47,6.59,3,9.98,4.44l-5.22.22-4.76-4.67ZM71.38,37.07l-1.71,3.41-3.46-3.79,5.16.38ZM61.54,30.94l9.56,5.57-5.21-.38-4.35-5.19ZM74.1,32.81l-2.04,3.18-.05.1-3.07-4.38,5.16,1.1ZM64.96,25.58c2.96,2.23,5.97,4.39,8.91,6.66l-5.19-1.13-3.72-5.54ZM77.28,28.87c-.8.99-1.63,1.99-2.44,2.97l-2.46-4.43,4.9,1.46ZM68.99,20.69c2.68,2.59,5.45,4.98,8.13,7.56l-5-1.56-3.13-6.01ZM80.97,25.25l-2.84,2.73-2.02-4.77,4.86,2.05ZM73.54,16.24l7.23,8.44-4.8-2.16-2.43-6.28ZM78.54,12.37l6.26,9.1-4.56-2.6-1.7-6.5ZM83.89,9.03l5.24,9.72-4.28-3.16-.96-6.55ZM84.95,22.08l-3.11,2.41-1.48-4.93,4.59,2.52ZM84.92,16.27l4.32,3.17-3.42,2.03-.9-5.2ZM67.7,45.34l-3.64-3.48,5.09-.23-1.45,3.71ZM66.94,71.43c.4,1.14.76,2.42,1.19,3.6l-5.41-.28,4.22-3.32ZM61.99,46.96c1.78-.26,3.63-.38,5.45-.57l-.97,3.7-4.48-3.13ZM65.97,66.42l.73,3.77-5.36-.93,4.62-2.84ZM60.9,52.49l5.29-1.19-.45,3.74-4.83-2.56ZM65.81,65.24l-5.24-1.54s3.3-1.54,4.96-2.28l.28,3.81ZM65.52,60.12c-1.68-.57-3.39-1.35-5.07-1.99,1.66-.66,3.44-1.2,5.17-1.78-.21,1.18-.07,2.58-.1,3.77ZM93.69,17.28l-3.49,1.59-.35-5.19,3.84,3.61ZM93.73,16.52l-3.85-3.55-.25-6.69,4.1,10.24ZM95.06,11.59l3.34,3.91c-1.14.45-2.42.83-3.58,1.3l.24-5.22ZM95.6,4.24l2.96,10.57-3.39-3.97.42-6.6ZM100.39,9.77l2.96,4.6-3.7.85.73-5.45ZM101.82,2.82s1.19,7.28,1.75,10.93l-2.89-4.5,1.14-6.42ZM105.92,8.91l2.44,4.88-3.82.4,1.37-5.29ZM108.12,2.13l.57,11.05-2.39-4.79,1.83-6.26ZM111.52,8.85s1.32,3.15,1.89,4.9l-3.8-.07,1.91-4.83ZM114.5,2.09l-.69,11.09-1.94-4.94,2.62-6.15ZM117.11,8.91l1.38,5.29-3.82-.4,2.44-4.88ZM120.77,3.02l-1.89,10.66-1.25-5.12,3.14-5.54ZM122.7,9.81l.74,5.41-3.77-.78,3.03-4.62ZM126.97,4.2l-3.08,10.62-.69-5.41,3.77-5.22ZM128.11,11.36l.09,5.45-3.51-1.19v-.17l3.41-4.1ZM133.27,13.51l-.45,5.41-3.41-1.59,3.86-3.81ZM128.68,11.02l4.31-4.84-4.22,10.24c-.02-1.64-.14-3.58-.09-5.41ZM133.84,13.3l4.84-4.39-5.29,9.72.45-5.33ZM137.21,21.48c-1.07-.54-2.13-1.35-3.25-1.92l4.27-3.37c-.36,1.75-.68,3.53-1.02,5.29ZM138.85,15.95l5.24-3.74-6.3,9.1,1.07-5.36ZM141.24,24.56l-3.01-2.27,4.55-2.84c-.38,1.63-1.07,3.39-1.54,5.12ZM143.47,19.32l5.68-3.25-7.35,8.37,1.66-5.12ZM144.89,28.09l-2.75-2.63c1.59-.83,3.27-1.61,4.96-2.32l-2.2,4.95ZM153.63,20.51l-8.08,7.47,2.24-5.16,5.84-2.31ZM148.18,31.89h-.12l-2.32-2.89,5.12-1.75-2.68,4.65ZM157.74,25.41l-8.94,6.47,2.72-4.65c2.09-.62,4.17-1.19,6.22-1.83ZM150.91,36.1l-2.11-3.3,4.96-.75-2.85,4.06ZM161.08,30.76l-9.72,5.6,3.11-4.44c2.16-.38,4.48-.75,6.61-1.16ZM153.35,40.61l-1.75-3.37c1.78-.19,5.2-.5,5.2-.5,0,0-2.29,2.51-3.45,3.86ZM164.12,36.34l-10.19,4.43,3.65-4.03s4.38-.26,6.55-.4ZM166.32,42.32l-10.52,3.22,4.05-3.51,6.47.29ZM167.84,48.49l-10.83,2,4.36-3.08,6.47,1.08ZM168.78,54.71l-11.04.85,4.72-2.51,6.33,1.66ZM157.33,56.54l5.07,1.75c-1.59.69-3.3,1.37-4.96,2.04l-.12-3.79ZM157.4,61.66l4.89,2.27c-1.68.55-3.46.95-5.17,1.42l.28-3.7ZM156.72,51.51l4.97,1.29-4.4,2.41-.57-3.69ZM156.93,66.66l4.55,2.85-5.29.85.74-3.7ZM155.53,46.46l5.16.77c-1.49,1.02-2.71,2.05-4.25,2.98l-.91-3.75ZM153.87,41.79l5.21.08c-1.31,1.19-2.53,2.39-3.95,3.46l-1.25-3.53ZM155.86,71.66l4.11,3.16-5.24.37s.81-2.34,1.14-3.53ZM169,61.09l-11.1-.4,5-1.99c2.03.78,4.05,1.59,6.09,2.39ZM163.09,63.98c2.49-.81,8.09-2.57,8.09-2.57l-7.92-3.12s5.33-2.4,7.75-3.49l-8.2-2.2c2.23-1.42,7.32-4.26,7.32-4.26l-8.41-1.38,6.71-5.09-8.42-.36,6.18-5.81-8.46.57c1.7-1.97,3.75-4.46,5.5-6.41l-8.35,1.45,4.72-7.02-8.09,2.42c1.16-2.35,3.9-7.53,3.9-7.53l-7.45,2.92,2.71-7.48-7.34,4.08c.66-2.54,1.6-5.58,2.23-8.14l-6.93,4.92s.89-5.86,1.29-8.37l-6.34,5.62.43-8.46-.43.5c-1.75,1.92-3.46,4.05-5.28,5.78l-.5-8.35-4.96,6.84c-.45-2.59-1.03-5.64-1.39-8.27l-4.26,7.3L114.86.02l-3.32,7.69-3.24-7.71-2.45,8.06-4.09-7.36-1.53,8.26-4.86-6.86-.66,8.4-5.58-6.28.29,8.44-6.3-5.59,1.23,8.32-6.79-4.95,2.07,8.2s-5-2.88-7.27-4.18l3,7.92-7.76-3.29,3.83,7.47-8.04-2.44,4.7,6.99-8.31-1.53,5.39,6.53-8.36-.68,6.04,5.92-8.4.22,6.7,5.24-8.34,1.16,7.25,4.41c-2.49.76-5.7,1.42-8.18,2.16l7.63,3.48c-2.45,1.02-7.84,3.13-7.84,3.13,0,0,5.69,1.71,8.06,2.68l-7.55,3.86s5.77,1.21,8.33,1.76c-2.16,1.44-7.1,4.69-7.1,4.69l8.48.83c-1.95,1.71-6.54,5.48-6.54,5.48l8.53-.08-5.9,6.13,8.46-1.06c-1.59,2.09-5.2,6.75-5.2,6.75l8.33-1.91-4.43,7.25,8.09-2.81-3.63,7.64s5.35-2.71,7.7-3.66l-2.72,8.08,7.14-4.54-1.72,8.32,6.6-5.21-.82,8.37,6.09-6.12-.06,8.59s3.75-4.76,5.41-6.63c.36,2.6,1.04,8.48,1.04,8.48l4.52-7.26,1.83,8.33.37-.66,3.53-7.11,2.82,8.16,2.95-7.89,3.67,7.54,1.99-8.34s3.17,5.02,4.5,7.27l1.07-8.53s3.61,4.7,5.29,6.74l.23-8.31,5.84,5.79-.68-8.3,6.48,5.24c-.52-2.4-1.74-8.42-1.74-8.42,2.18,1.49,4.99,3.21,7.19,4.64l-2.63-8.12,7.64,3.76s-2.56-5.4-3.56-7.75c2.35.85,5.66,2.01,7.98,2.96.28.21-4.18-7.34-4.18-7.34l8.12,2.01-5.01-6.81,8.31,1.11-5.88-6.22,8.54.2-6.49-5.53,8.47-.77-7.04-4.8,8.3-1.63-7.54-4.01Z"/>
        <polygon class="cls-3" points="98.67 23.61 99.98 27.49 100.9 27.18 99.59 23.3 100.82 22.88 100.54 22.06 97.17 23.2 97.44 24.02 98.67 23.61"/>
        <path class="cls-3" d="M117.92,33.37l.9,2.41-1.8.02.91-2.43ZM114.31,38.99c.18,0,.35,0,.54-.01.18,0,.32,0,.44,0,.11,0,.17,0,.19,0,.09,0,.26,0,.52.02.23,0,.41.01.54.01.21,0,.24-.1.24-.17,0-.05-.03-.15-.22-.15h-.15c-.13,0-.22-.02-.27-.06-.04-.04-.07-.1-.07-.18,0-.15.05-.34.14-.58l.56-1.46,2.25.03.79,2.1s.05.15.09.27c.04.1.08.2.2.2.1,0,.22,0,.34-.01.14,0,.29,0,.43,0l.95.02c.19,0,.32,0,.38-.02.13-.03.14-.11.14-.15s-.01-.15-.19-.15c-.14,0-.28-.01-.4-.04-.12-.03-.25-.11-.38-.25-.13-.14-.28-.4-.44-.79l-2.17-5.38c-.15-.39-.25-.63-.3-.73-.11-.25-.2-.36-.31-.36-.05,0-.12.02-.18.11-.05.06-.09.16-.16.33l-2.49,6.24c-.11.28-.23.49-.34.62-.11.13-.26.21-.45.23-.1.01-.21.02-.3.02-.17,0-.19.11-.19.15,0,.06.03.17.25.17ZM112.84,38.68l-.25-.02c-.12-.02-.2-.06-.24-.12-.05-.07-.08-.17-.1-.31-.02-.19-.03-.44-.03-.76,0-.32,0-.79,0-1.4v-3.28c0-.22,0-.41.02-.57.01-.17.04-.29.08-.37.04-.07.12-.12.23-.14.11-.02.21-.03.29-.03.2,0,.22-.12.22-.17,0-.15-.21-.15-.27-.15-.14,0-.38,0-.72.02-.25,0-.41,0-.49,0-.1,0-.29,0-.56,0-.36-.01-.6-.02-.73-.02-.08,0-.31,0-.31.15,0,.05.02.17.23.17.13,0,.25.01.34.04.18.04.27.2.29.5.01.16.02.35.02.57v3.28c0,.61,0,1.07-.01,1.39,0,.32-.02.57-.04.76-.03.27-.11.41-.23.44-.12.03-.23.04-.34.04-.2,0-.23.09-.23.15,0,.07.05.16.27.16.14,0,.4,0,.79-.02.26,0,.41,0,.47,0,.09,0,.24,0,.45,0,.45.01.81.02,1.09.02.21,0,.25-.09.25-.16,0-.06-.03-.15-.22-.15-.08,0-.16,0-.25-.02M100.98,36.95c.25.5.59.92,1.02,1.25.43.32.93.56,1.48.71.55.15,1.15.23,1.78.23.44,0,.88-.04,1.31-.11.43-.07.81-.19,1.12-.35.07-.04.12-.09.14-.14.02-.04.02-.12.02-.28v-1.09c0-.59,0-1.13,0-1.33v-.7c0-.06-.04-.13-.13-.13h0c-.27.01-.44.02-.52.02-.07,0-.24,0-.54,0-.43-.01-.72-.02-.9-.02-.23,0-.28.09-.28.17,0,.04.02.15.21.15.17,0,.3,0,.37.03.14.03.24.08.28.15.05.08.08.2.09.35,0,.2.01.73.01,1.31v.93c0,.16-.05.26-.15.31-.1.04-.21.07-.34.09-.13.01-.29.02-.47.02-.5,0-.97-.09-1.39-.27-.42-.18-.78-.44-1.08-.77-.29-.33-.53-.72-.69-1.17-.16-.45-.24-.94-.24-1.46,0-.58.08-1.07.23-1.45.16-.38.37-.69.66-.93.3-.25.61-.41.92-.49.74-.18,1.68-.15,2.34.13.38.16.67.33.84.51.11.11.18.23.22.36.04.13.08.27.1.43.02.15.1.18.17.18.08,0,.17-.05.17-.28,0-.42,0-.74.02-.96.01-.22.03-.4.04-.55,0-.06,0-.1,0-.12,0-.05-.02-.17-.2-.19-.1,0-.22-.02-.36-.04-.14-.02-.28-.04-.41-.07-.05-.01-.14-.03-.27-.05-.12-.02-.27-.04-.46-.06-.19-.02-.37-.03-.54-.04-.69-.04-1.34,0-1.92.12-.43.09-.87.26-1.3.52-.51.3-.93.75-1.26,1.31-.33.57-.5,1.24-.5,1.99,0,.67.12,1.26.37,1.77M75.17,47.27c.11.12.23.22.37.3.14.08.3.16.47.24.17.07.36.15.56.22.2.08.38.15.56.21.17.06.34.11.5.15.16.03.32.05.48.03.16,0,.31-.05.48-.12.23-.1.43-.24.59-.41.17-.17.3-.38.4-.64.1-.25.15-.49.16-.74,0-.25-.05-.5-.17-.77-.1-.23-.25-.42-.45-.57-.19-.15-.45-.3-.79-.42l-.67-.27-.69,1.74.75.3.33-.85.18.07c.12.05.23.11.32.18.09.07.16.16.22.27.05.11.08.22.08.35,0,.13-.02.26-.08.4-.05.13-.12.23-.2.31-.08.08-.17.14-.27.17-.06.03-.13.04-.2.04-.07,0-.16,0-.26-.02-.1-.02-.23-.06-.38-.11-.15-.05-.33-.12-.55-.21-.22-.09-.4-.16-.55-.22-.14-.06-.26-.12-.35-.18-.09-.06-.16-.11-.2-.16-.05-.05-.09-.11-.12-.17-.05-.09-.08-.2-.08-.31,0-.12.01-.24.06-.36.09-.23.22-.39.39-.48.17-.09.37-.11.61-.08l.36-.91c-.21-.05-.42-.06-.63-.05-.21.01-.41.07-.6.16-.2.09-.37.22-.53.39-.16.17-.3.39-.4.66-.1.26-.15.51-.14.74,0,.23.06.47.16.7.07.16.16.3.27.41"/>
        <polygon class="cls-3" points="107.48 25.72 107.34 24.87 105.07 25.24 104.87 24.06 106.81 23.73 106.66 22.88 104.73 23.2 104.54 22.05 106.81 21.68 106.67 20.82 103.44 21.36 104.25 26.25 107.48 25.72"/>
        <path class="cls-3" d="M109.59,23.68c0,.19.02.36.06.52.03.16.08.31.15.45.07.14.17.27.29.39.18.18.38.31.6.4.22.09.47.14.75.13.26,0,.51-.05.75-.14.23-.09.45-.24.65-.45.17-.18.29-.39.36-.63.07-.24.1-.53.1-.89v-.73s-1.88.02-1.88.02v.81s.92-.01.92-.01v.19c0,.13,0,.25-.05.36-.03.11-.09.21-.17.31-.08.09-.17.16-.29.21-.11.05-.25.08-.4.08-.13,0-.25-.02-.36-.07-.1-.04-.19-.11-.26-.19-.05-.05-.09-.11-.12-.17-.03-.06-.06-.15-.08-.25-.02-.1-.03-.23-.04-.39,0-.16-.02-.36-.02-.59,0-.24,0-.43,0-.59,0-.16.02-.29.03-.39.02-.1.04-.19.07-.25.03-.06.07-.12.11-.17.07-.08.16-.15.26-.19.1-.05.22-.08.36-.08.25,0,.45.06.59.18.14.12.25.3.31.53h.98c-.04-.22-.1-.42-.19-.61-.09-.19-.21-.36-.37-.5-.16-.14-.34-.26-.56-.35-.22-.09-.48-.13-.76-.12-.28,0-.53.05-.74.15-.22.1-.41.23-.59.41-.12.13-.22.26-.29.4-.07.14-.11.3-.14.46-.03.16-.04.34-.04.52,0,.19,0,.39,0,.6,0,.21,0,.41.01.6M77.01,52.77l-.15.72-3.17-.64.15-.72c.03-.16.08-.3.16-.4.07-.1.17-.19.29-.25.06-.03.13-.06.21-.07.08-.01.16-.02.27-.01.1,0,.22.02.36.04.14.02.3.05.48.09.37.07.65.14.84.21.19.06.33.15.43.26.08.1.14.22.17.34.03.13.02.27-.01.43ZM77.88,52.86c.05-.26.06-.5.03-.74-.03-.24-.11-.45-.24-.64-.11-.16-.23-.3-.37-.4-.14-.1-.29-.18-.46-.24-.16-.06-.33-.11-.51-.15l-.55-.11-.53-.11c-.18-.04-.35-.06-.52-.06-.17,0-.34,0-.5.05-.17.04-.33.11-.49.22-.19.13-.35.29-.47.5-.12.21-.21.44-.26.69l-.36,1.76,4.87.98.35-1.76Z"/>
        <polygon class="cls-3" points="144.34 69.26 145.18 69.45 145.69 67.26 149.68 68.19 149.9 67.24 145.07 66.12 144.34 69.26"/>
        <polygon class="cls-3" points="77.24 62.37 76.38 62.47 76.66 64.71 72.6 65.22 72.72 66.18 77.65 65.56 77.24 62.37"/>
        <path class="cls-3" d="M79.37,78.88c-.14.07-.26.12-.36.16-.1.04-.18.05-.25.06-.07,0-.14,0-.2-.01-.1-.02-.2-.07-.3-.14-.1-.07-.18-.16-.24-.28-.07-.12-.1-.23-.11-.35,0-.12,0-.22.04-.32.02-.07.05-.13.09-.19.04-.06.1-.12.18-.19.08-.07.19-.14.32-.22.13-.08.3-.18.5-.3.21-.12.38-.21.52-.28.14-.07.26-.12.35-.16.1-.03.18-.05.25-.05.07,0,.14,0,.21.02.1.02.2.07.3.13.09.07.17.16.24.28.07.12.1.23.12.35,0,.12,0,.22-.04.33-.02.06-.05.13-.09.18-.04.06-.1.12-.18.19-.08.07-.19.14-.32.22-.13.08-.3.18-.5.3-.21.12-.38.21-.52.28M80.88,79.14c.16-.1.3-.2.43-.3.13-.11.24-.22.33-.35.09-.13.16-.28.2-.45.07-.24.09-.48.06-.71-.03-.24-.11-.48-.25-.72-.14-.25-.3-.44-.49-.58-.19-.14-.4-.25-.64-.31-.17-.05-.33-.06-.49-.05-.16,0-.31.04-.47.1-.16.06-.32.13-.48.21-.16.09-.34.18-.52.29-.19.1-.36.21-.52.3-.16.1-.31.2-.43.3-.13.11-.24.22-.33.35-.09.13-.16.28-.21.45-.07.24-.09.48-.06.71.03.23.11.47.25.72.14.25.3.44.49.58.19.14.4.25.64.32.17.05.33.07.49.05.16-.01.31-.04.47-.1.15-.06.31-.13.48-.22.16-.09.34-.18.53-.29.19-.1.36-.21.52-.3"/>
        <polygon class="cls-3" points="79.2 71.39 76.05 71.47 78.63 69.65 78.37 68.88 73.24 69.18 73.56 70.14 76.77 69.89 74.09 71.73 74.31 72.42 77.57 72.3 74.84 74.01 75.15 74.97 79.45 72.16 79.2 71.39"/>
        <polygon class="cls-3" points="142.47 74.25 143.27 74.57 144.14 72.44 145.25 72.89 144.51 74.71 145.31 75.03 146.05 73.22 147.13 73.66 146.26 75.79 147.06 76.12 148.29 73.09 143.7 71.22 142.47 74.25"/>
        <polygon class="cls-3" points="140.99 77 143.57 78.61 139.95 78.67 139.49 79.4 143.71 82.02 144.22 81.2 141.64 79.6 145.26 79.53 145.72 78.8 141.5 76.18 140.99 77"/>
        <polygon class="cls-3" points="85.66 82.33 83.32 84.28 84.4 80.82 83.85 80.15 80.04 83.32 80.65 84.07 82.99 82.13 81.91 85.58 82.46 86.25 86.28 83.07 85.66 82.33"/>
        <path class="cls-3" d="M116.01,96.55c-.14-.17-.3-.29-.49-.37.16-.1.28-.24.37-.4.1-.17.13-.39.11-.66-.02-.21-.07-.4-.16-.56-.09-.17-.21-.31-.35-.42-.14-.11-.31-.2-.5-.25-.19-.05-.4-.07-.61-.05-.21.02-.4.07-.58.15-.18.08-.33.19-.45.32-.12.13-.22.29-.29.47-.07.18-.09.38-.08.61l.9-.08c0-.19.04-.34.15-.46.1-.11.24-.18.41-.19.16-.01.31.03.44.12.13.1.2.25.22.45.01.18-.02.33-.11.46-.09.13-.24.2-.46.22h-.13s.07.8.07.8h.13c.22-.03.4.02.53.13.13.11.2.27.22.48.02.22-.03.4-.14.53-.12.13-.27.2-.46.22-.09,0-.17,0-.26-.02-.08-.02-.16-.05-.22-.1-.07-.05-.12-.11-.17-.19-.04-.08-.07-.17-.09-.28l-.9.08c.03.26.09.48.2.65.1.18.23.32.39.42.16.11.33.18.52.22.19.04.39.05.59.03.21-.02.41-.07.6-.14.18-.08.34-.18.48-.32.13-.14.23-.3.3-.49.07-.19.09-.41.07-.66-.03-.3-.11-.54-.25-.7"/>
        <polygon class="cls-3" points="119.64 93.01 118.87 94.11 119.11 95.06 119.87 93.96 120.84 97.83 121.71 97.62 120.52 92.8 119.64 93.01"/>
        <polygon class="cls-3" points="89.12 87.68 88.13 87.86 88.6 85.31 87.73 84.58 87.17 88.01 84.64 88.47 85.55 89.22 88.28 88.68 86.89 90.34 87.63 90.97 90.82 87.15 90.07 86.53 89.12 87.68"/>
        <path class="cls-3" d="M109.28,95.45c-.02.23-.09.41-.22.52-.13.12-.29.17-.47.15-.19-.02-.34-.09-.45-.23-.11-.14-.15-.32-.13-.55.02-.23.09-.4.22-.52.13-.12.28-.17.47-.15.19.01.33.09.44.22.11.13.16.31.14.55M109.82,94.35c-.13-.14-.29-.25-.47-.33-.18-.08-.38-.13-.6-.15-.22-.01-.42,0-.62.06-.19.05-.36.14-.51.26-.15.12-.27.28-.36.46-.09.19-.15.4-.17.64-.02.23,0,.44.07.63.06.19.15.35.26.48.11.14.24.24.39.32.15.08.31.12.48.14.06,0,.12,0,.19,0,.06,0,.13-.02.19-.04l-1.18,1.97.98.07,1.2-2.06c.13-.22.24-.43.34-.64.1-.21.15-.42.17-.65.02-.24,0-.47-.07-.66-.06-.2-.16-.36-.29-.5"/>
        <polygon class="cls-3" points="102.17 93.71 101.95 94.67 103.13 94.03 102.24 97.92 103.12 98.13 104.23 93.29 103.35 93.08 102.17 93.71"/>
        <rect class="cls-2" x="94.28" y="92.37" width="2.39" height="2.39" transform="translate(-24.49 34.58) rotate(-18.24)"/>
        <polygon class="cls-3" points="145.4 64.08 146.26 64.14 146.43 61.9 150.51 62.2 150.58 61.23 145.64 60.87 145.4 64.08"/>
        <path class="cls-3" d="M122.57,69.87l.5-.6-.38-.31.99-1.18-1.04-.87-.99,1.18-.37-.32-.44.52s0,0,.02.01c.53.39,1.19.88,1.71,1.56"/>
        <polygon class="cls-3" points="145.65 58.69 146.51 58.62 146.33 56.33 147.53 56.23 147.69 58.18 148.55 58.11 148.39 56.16 149.55 56.06 149.74 58.36 150.6 58.29 150.33 55.03 145.39 55.43 145.65 58.69"/>
        <path class="cls-3" d="M119.03,73.12l1.04-1.24.48.4.34-.41c-.17-.61-.69-1.03-1.47-1.6-.05-.04-.09-.07-.14-.11l-.52.62.47.4-1.04,1.24.83.7ZM100.62,77.19l-2.51-5.19h-1.94v.24s2.8,3.12,4.44,4.96"/>
        <path class="cls-3" d="M118.72,75.91h0s0,0,0,0l-.57,1.52h2.99l-.26-1.37c1.01-.5,1.78-1.75,1.94-3.33.01-.13.02-.26.02-.38,0-.05,0-.11,0-.17,0-.06,0-.13,0-.19,0-.07-.02-.14-.03-.21,0-.04,0-.09-.02-.13-.01-.08-.03-.15-.05-.23,0-.03,0-.06-.02-.08-.02-.08-.05-.16-.08-.24,0-.02-.01-.03-.02-.05-.03-.08-.07-.17-.1-.24,0,0,0-.02-.01-.03-.04-.09-.08-.16-.13-.24,0,0,0,0,0-.01-.05-.08-.1-.16-.15-.24-.47-.67-1.12-1.15-1.67-1.56-.02-.01-.03-.02-.04-.03-.15-.11-.29-.21-.42-.32l-.84,1.06c.12.1.26.2.39.3.04.03.07.06.11.09.63.46,1.23.92,1.54,1.57,0,0,0,0,0,.02.06.12.1.26.13.4.01.07.03.13.04.2,0,.05,0,.1.01.15.01.13.01.27,0,.42-.14,1.33-.92,2.48-2.13,2.37l-2.98-2.5-.72.85,3.07,2.58h0Z"/>
        <polygon class="cls-3" points="96.17 71.07 96.17 71.25 100.95 71.25 98.26 69.51 96.17 71.07"/>
        <polygon class="cls-3" points="103.45 71.25 108.31 71.25 108.31 71.07 106.3 69.62 103.45 71.25"/>
        <polygon class="cls-3" points="101.76 77.98 101.76 71.99 98.87 71.99 101.76 77.98"/>
        <polygon class="cls-3" points="103.66 77.27 108.31 72.23 108.31 71.99 106.45 71.99 103.66 77.27"/>
        <polygon class="cls-3" points="102.43 71.99 102.43 78.12 105.67 71.99 102.43 71.99"/>
        <polygon class="cls-3" points="117.83 75.87 115.65 74.04 115.07 75.3 116.67 76.64 117.83 75.87"/>
        <polygon class="cls-3" points="99.2 69.27 102.14 71.16 105.45 69.27 99.2 69.27"/>
      </g>
    </g>
  </g>
</svg>