<?xml version="1.0" encoding="UTF-8"?>
<svg id="Layer_2" data-name="Layer 2" xmlns="http://www.w3.org/2000/svg" viewBox="0 0 257.48 118.12">
  <defs>
    <style>
      .cls-1 {
        fill: #0e7453;
      }
    </style>
  </defs>
  <g id="Layer_1-2" data-name="Layer 1">
    <g>
      <g id="JBT">
        <g>
          <path d="M185.02,51.17c1.74.81,3.39,1.45,4.91,2.31,5.47,3.09,9.68,7.32,11.4,13.53,2.71,9.76-2.33,19.97-11.84,24.28-4.43,2.01-9.11,2.76-13.91,2.52-7.1-.36-14.19-.63-21.3-.31-.43.02-.89.05-1.29-.06-.28-.08-.48-.42-.72-.64.25-.2.47-.52.75-.58.74-.15,1.5-.2,2.25-.28,1.65-.17,2.71-1.1,2.99-2.67.41-2.23.86-4.49.88-6.74.12-18.08.14-36.16.18-54.24,0-.94-.1-1.87-.16-2.81-.19-3.55-1.85-5.22-5.42-5.46-.76-.05-1.52-.07-2.26-.19-.26-.04-.47-.33-.71-.5.22-.24.4-.6.67-.71.35-.13.78-.09,1.18-.08,2.96.07,5.91.22,8.87.21,3.64,0,7.28-.11,10.92-.21,3.88-.1,7.72.11,11.41,1.44,8.54,3.08,12.27,10.82,9.39,19.45-1.31,3.94-3.87,7.05-6.63,10.02-.51.55-1.02,1.1-1.59,1.7ZM170.74,53.56s0,.04,0,.06c-.65,0-1.3,0-1.95,0-1.39-.03-1.46.03-1.46,1.45,0,7.79-.03,15.59.02,23.38.01,2.3.22,4.61.41,6.9.15,1.72,1.09,2.95,2.68,3.64,4.42,1.93,9.01,2.29,13.63,1,5.11-1.43,8.33-4.84,9.13-10.14,1.02-6.82-.46-13.14-4.65-18.67-3.06-4.04-7.05-6.68-12.2-7.25-1.86-.2-3.74-.26-5.61-.38ZM167.33,36.2c0,4.33.02,8.65-.01,12.98,0,.92.28,1.48,1.25,1.49,3.49.05,6.97.15,10.46.09,1.44-.03,2.74-.76,3.63-1.91.95-1.21,1.91-2.47,2.56-3.85,2.12-4.52,1.8-9.2.41-13.82-1.59-5.29-4.78-9.1-10.6-9.73-2.15-.23-4.37.17-6.55.36-.83.07-1.18.62-1.17,1.51.03,4.29.02,8.58.01,12.87Z"/>
          <path d="M233.19,23.21c0,.52,0,.95,0,1.38,0,15.23-.06,30.46.03,45.69.03,5.69.35,11.39.62,17.08.04.94.4,1.9.77,2.79.53,1.24,1.65,1.78,2.93,1.95,1.36.18,2.73.24,4.09.44.42.06.81.38,1.21.57-.43.24-.86.69-1.29.69-3.25.01-6.49-.1-9.74-.1-3.39,0-6.77.08-10.16.12-.97.01-1.95.06-2.92-.04-.32-.03-.61-.44-.91-.67.29-.2.56-.49.88-.57.63-.15,1.28-.19,1.93-.24,1.96-.16,3.06-1.34,3.29-3.16.4-3.1.84-6.23.86-9.35.12-18.47.13-36.95.17-55.42,0-.38-.03-.77-.05-1.08-4.01,0-7.9-.03-11.79.01-1.62.02-3.24.17-4.86.26-3.47.18-5.77,1.98-7.12,5.11-.19.43-.34.89-.61,1.26-.18.26-.53.39-.81.58-.16-.32-.48-.66-.44-.96.15-1.18.38-2.34.64-3.5.55-2.42,1.09-4.85,1.73-7.25.39-1.45.55-1.35,1.99-.94,1.68.48,3.43.81,5.17.99,2.22.22,4.46.29,6.7.3,10.9.03,21.8.06,32.7-.02,2.58-.02,5.16-.45,7.72-.79,1.43-.19,1.61-.15,1.58,1.29-.07,3.53-.17,7.07-.27,10.6,0,.28-.06.58-.18.83-.1.2-.36.49-.5.46-.23-.04-.53-.27-.59-.48-.15-.51-.21-1.06-.24-1.6-.14-2.45-1.41-4.12-3.7-4.8-1.92-.57-3.92-1.04-5.91-1.16-4.1-.25-8.22-.23-12.33-.32-.14,0-.28.03-.57.07Z"/>
          <path d="M123.54,18.36c5.7,0,11.39,0,17.09,0,.5,0,1.03-.04,1.51.08.29.07.51.41.76.63-.25.2-.47.52-.75.59-.77.18-1.57.23-2.34.37-2.19.4-3.25,1.37-3.56,3.59-.27,1.96-.41,3.95-.42,5.93-.05,16.82-.04,33.63-.1,50.45-.02,5.15-.14,10.31-1.3,15.38-1.42,6.2-4.82,11.16-9.7,15.09-3.09,2.48-6.37,4.72-9.59,7.03-.54.39-1.37,1.06-1.89.25-.54-.84.47-1.22,1.03-1.59,6.79-4.63,10.67-11.04,11.9-19.15.93-6.12,1.25-12.26,1.26-18.44.01-15.77.01-31.54,0-47.32,0-2.02-.09-4.04-.21-6.05-.22-3.51-1.88-5.12-5.41-5.34-.72-.05-1.44-.06-2.15-.19-.29-.05-.53-.34-.79-.52.26-.24.51-.68.79-.7,1.29-.07,2.59-.03,3.89-.03,0-.02,0-.03,0-.05Z"/>
        </g>
        <g>
          <path class="cls-1" d="M64.17,66.23c5.33,5.35,10.72,10.76,16.19,16.26-2.48,2.24-5.55,3.47-9,3.7-1.57.1-3.19,0-4.75-.26-2.17-.35-2.15-.45-3.14,1.73,3.25,3.02,12.03,1.63,19.31-3.14.89,1.11,1.82,2.25,2.66,3.3-9.1,9.09-18.46,18.43-27.74,27.69-9.11-9.12-18.44-18.47-27.83-27.87.92-.87,1.99-1.88,3.1-2.93,6.87,5.35,14.36,6.12,21.93,1.76,7.77-4.47,10.39-11.65,9.27-20.24Z"/>
          <path class="cls-1" d="M66.44,51.25c5.37-5.37,10.64-10.63,16-15.99,1.83,1.92,2.85,4.3,3.38,6.9.53,2.57.51,5.14-.21,7.69-.3,1.07.07,1.44,2.27,2.32,2.54-7.06,1.11-13.35-3.38-19.25,1.12-1.05,2.21-2.06,3.21-2.99,9.26,9.28,18.56,18.6,27.8,27.85-9.07,9.04-18.3,18.24-27.63,27.55-.76-.91-1.73-2.08-2.8-3.36,4.93-6.56,5.61-13.96,1.27-21.4-4.37-7.49-11.29-10.24-19.9-9.32Z"/>
          <path class="cls-1" d="M28.01,29.72c.97.98,1.97,2,3.04,3.08-5.48,6.9-6.37,14.34-2.1,21.99,4.27,7.65,11.21,10.42,19.43,9.64-5.08,5.12-10.33,10.4-15.65,15.76-2.7-3.5-3.85-7.49-3.48-11.94.04-.54.14-1.09.23-1.63q.39-2.33-2.17-3c-2.11,6.87-.93,13.08,3.38,18.79-1.07,1.02-2.14,2.03-3.12,2.96-9.12-9.14-18.39-18.43-27.58-27.64,9.17-9.17,18.52-18.52,28.01-28.01Z"/>
          <path class="cls-1" d="M85.48,27.81c.04-.1.03-.04,0,0-.96.94-1.8,2.41-2.91,2.66-.92.2-2.18-1.02-3.26-1.64-10.76-6.24-25.44.42-27.85,12.71-.43,2.21-.41,4.5-.63,7.21-5.22-5.32-10.32-10.51-15.51-15.79,2.64-2.2,5.54-3.35,8.72-3.54,1.96-.12,3.97.14,5.91.48,1.55.28,1.44-.96,1.8-1.66.48-.93-.43-1.03-1.03-1.17-5.87-1.38-11.35-.57-16.36,2.89-.29.2-.57.41-.85.61-.04.03-.09.04-.27.13-.98-1.08-1.99-2.21-2.94-3.26C39.4,18.33,48.62,9.12,57.76,0c9.09,9.12,18.35,18.41,27.72,27.81Z"/>
          <path class="cls-1" d="M33.29,34.98c7.46,7.59,15.07,14.88,22.32,22.5-4.67,4.96-14.37,5.93-21-.08-6.47-5.86-7.15-16.48-1.32-22.42Z"/>
          <path class="cls-1" d="M57.72,60.1c5.49,5.93,4.94,15.64-1.23,21.65-5.8,5.64-15.99,6.01-21.21.87,7.46-7.49,14.92-14.97,22.43-22.52Z"/>
          <path class="cls-1" d="M79.92,32.86c-7.44,7.47-14.8,14.86-22.17,22.26-5.18-3.64-5.24-13.95.14-20.13,5.66-6.5,15.84-7.73,22.03-2.14Z"/>
          <path class="cls-1" d="M82.7,79.91c-7.42-7.43-14.84-14.86-22.42-22.45,3.13-2.5,6.79-3.94,10.98-3.42,7.01.87,11.85,4.61,14.08,11.42,1.72,5.27.55,11.35-2.64,14.44Z"/>
        </g>
      </g>
      <g id="JBT_SUB" data-name="JBT SUB">
        <path d="M214.05,103.95v6.17h-1.02v-7.49c.53,0,1.04-.02,1.55.02.12.01.26.23.32.38.65,1.69,1.28,3.39,1.92,5.08.07.2.15.39.28.72.32-.86.6-1.58.87-2.31.43-1.17.87-2.34,1.29-3.52.1-.27.23-.4.54-.38.43.03.87,0,1.36,0,0,.19.02.36.02.52,0,2.11,0,4.22,0,6.33q0,.68-.69.66c-.11,0-.21-.02-.37-.04v-6.13s-.08-.02-.11-.04c-.06.12-.12.24-.17.37-.69,1.81-1.4,3.61-2.07,5.43-.13.36-.33.42-.66.41-.32-.01-.57,0-.72-.4-.65-1.79-1.35-3.56-2.03-5.34-.06-.16-.13-.32-.19-.47-.04,0-.08,0-.13.01Z"/>
        <path d="M154.97,106.11c1.34,1.4,2.56,2.66,3.84,4-.85.05-1.54.19-2.13-.57-.8-1.03-1.75-1.95-2.71-3.02v3.49c-.1.08-.12.12-.15.12q-.96.11-.96-.85c0-2,0-4,0-6,0-.19,0-.37,0-.6h1.07v3.14c.69-.67,1.35-1.3,2-1.94.34-.34.65-.72,1.01-1.04.13-.12.35-.18.53-.2.32-.03.64,0,1.09,0-1.25,1.2-2.4,2.31-3.6,3.47Z"/>
        <path d="M237.65,102.13h1v7.98h-.91c-.03-.18-.05-.36-.08-.53-.4.21-.76.48-1.18.6-1.27.36-2.35-.23-2.79-1.48-.29-.83-.32-1.69-.06-2.53.51-1.69,2.55-2.21,3.83-.99.03.03.07.05.18.12v-3.17ZM234.47,107.44c.13.4.22.91.46,1.32.52.91,1.66.94,2.29.1.59-.78.59-2.12,0-2.9-.69-.92-2.02-.77-2.46.29-.14.34-.18.72-.29,1.18Z"/>
        <path d="M164.83,107.14c0,.82,0,1.57,0,2.31q0,.71-.71.7c-.11,0-.22-.01-.36-.02v-7.56c1.08.08,2.16.08,3.2.27,1.05.19,1.54.97,1.54,2.05,0,1.09-.54,1.85-1.55,2.12-.33.09-.68.11-1.02.13-.34.02-.68,0-1.11,0ZM164.84,103.55c0,.89,0,1.65.01,2.41,0,.08.16.22.26.23.39.02.78.03,1.16-.03.63-.09,1.07-.57,1.11-1.15.04-.58-.27-1.09-.9-1.25-.5-.13-1.03-.13-1.64-.2Z"/>
        <path d="M149.16,108.45h-3.44c-.09-.45-.1-.84.15-1.23.89-1.41,1.77-2.84,2.63-4.26.15-.25.32-.35.6-.33.35.02.71,0,1.13,0v4.83c.35.08.68.09.91.24.11.07.02.43.02.67-.05.03-.09.06-.14.06q-.78.06-.78.87c0,.96-.01.97-1.08.79v-1.64ZM146.83,107.51h2.28v-3.84c-.11.15-.16.2-.2.27-.68,1.17-1.36,2.34-2.08,3.57Z"/>
        <path d="M141.56,109.27h3.19v.84c-.13.01-.25.04-.36.04-1.3,0-2.59-.01-3.89,0-.38,0-.46-.12-.48-.48-.03-.5.15-.83.52-1.16.71-.61,1.39-1.26,2.02-1.95.34-.37.62-.83.82-1.29.44-1.07-.25-1.98-1.41-1.85-.52.06-1.03.23-1.55.35-.29-.71-.24-.89.52-1.03.66-.13,1.37-.21,2.02-.11,1.39.22,2.12,1.55,1.51,2.83-.37.77-.97,1.44-1.5,2.12-.47.6-.98,1.17-1.42,1.69Z"/>
        <path d="M180.77,110.12h-.89c-.02-.19-.04-.35-.06-.63-.65.74-1.42.85-2.26.73-.78-.11-1.25-.55-1.39-1.3-.14-.76.13-1.43.84-1.75.47-.21,1.01-.3,1.52-.38.38-.06.77-.01,1.15-.01.15-.95-.46-1.54-1.44-1.4-.47.06-.92.25-1.38.38-.21-.62-.17-.73.45-.98.67-.27,1.37-.31,2.07-.15.78.18,1.26.71,1.33,1.61.07,1.03.05,2.06.06,3.09,0,.25,0,.49,0,.79ZM179.08,107.43c-.46.12-.94.21-1.38.38-.34.13-.57.47-.46.83.09.28.32.59.57.71.79.38,1.76-.19,1.92-1.07.12-.66.03-.77-.64-.85Z"/>
        <path d="M200.29,110.26c-1.62,0-2.78-1.23-2.77-2.9.01-1.67,1.2-2.85,2.84-2.83,1.6.02,2.75,1.22,2.75,2.87,0,1.65-1.19,2.86-2.82,2.85ZM202.07,107.41c-.09-.34-.14-.71-.28-1.03-.5-1.13-1.85-1.36-2.65-.47-.72.8-.72,2.28.02,3.06.39.41.88.57,1.45.46.86-.17,1.41-.96,1.46-2.02Z"/>
        <path d="M174.7,107.63h-3.84c-.03.83.45,1.51,1.2,1.74.77.24,1.46-.08,2.15-.37.2.86.15,1.02-.65,1.15-.61.1-1.25.12-1.85.03-1.13-.18-1.84-1.06-1.95-2.32-.04-.46-.02-.94.08-1.39.36-1.6,2.15-2.42,3.62-1.67.96.49,1.14,1.42,1.23,2.37.01.13,0,.27,0,.47ZM173.59,106.86c.03-.92-.55-1.53-1.35-1.5-.79.03-1.41.72-1.32,1.5h2.67Z"/>
        <path d="M192.72,107.64h-3.87c-.07.78.44,1.49,1.2,1.73.78.25,1.46-.09,2.16-.36.19.86.14,1.02-.67,1.14-.59.09-1.22.12-1.81.03-.92-.14-1.54-.72-1.83-1.62-.23-.73-.25-1.48-.05-2.22.32-1.17,1.38-1.9,2.58-1.81,1.28.1,2.02.82,2.19,2.14.04.29.06.58.09.96ZM188.85,106.85h2.72c.06-.83-.46-1.44-1.23-1.49-.78-.05-1.5.61-1.49,1.49Z"/>
        <path d="M230.69,110.15c0-.95,0-1.84,0-2.73,0-.33-.03-.66-.08-.98-.07-.47-.25-.87-.77-1.02-.53-.15-.99-.02-1.38.35-.45.43-.57.99-.58,1.58-.01.9,0,1.81,0,2.75h-.98v-5.35c.75-.22.86-.16.97.6.1-.07.18-.12.25-.19.68-.65,1.49-.77,2.35-.49.82.27,1.16.93,1.19,1.73.05,1.14.03,2.28.05,3.42,0,.24-.09.34-.33.33-.2-.01-.4,0-.68,0Z"/>
        <path d="M208,102.07v.72c-.19,0-.37,0-.55,0-.53.02-.8.27-.88.79q-.16,1.09.92,1.1c.28,0,.51-.03.51.39,0,.4-.21.41-.5.41-.98,0-.98,0-.98.99,0,1.02,0,2.03,0,3.05q0,.66-.68.63c-.08,0-.15-.01-.28-.03,0-.17-.02-.33-.02-.5,0-1.23-.01-2.47,0-3.7,0-.35-.1-.5-.45-.45-.14.02-.28,0-.42,0-.31.03-.44-.07-.45-.41,0-.37.18-.39.46-.39.83,0,.83,0,.85-.84.04-1.49.94-2.15,2.46-1.77Z"/>
        <path d="M186.45,105.61c-1.07-.34-1.93-.39-2.55.51-.53.77-.51,1.91.02,2.65.49.68,1.1.8,2.45.48.22.83.15.94-.7,1.01-1.41.12-2.46-.44-2.97-1.56-.51-1.14-.29-2.59.56-3.39.84-.8,1.86-.9,2.92-.6.52.15.07.55.25.92Z"/>
        <path d="M224.54,104.71c.01.16.03.31.03.46,0,1.5-.01,3,.01,4.49,0,.4-.13.49-.51.5-.39,0-.5-.13-.5-.51.02-1.44,0-2.87,0-4.31q0-.69.69-.67c.08,0,.15.02.27.03Z"/>
        <path d="M240.78,108.96h1.29c-.03.4.05.85-.13,1.11-.12.17-.8.19-.94.02-.21-.24-.15-.7-.22-1.13Z"/>
        <path d="M224.62,102.35v1.09h-1.08v-1.09h1.08Z"/>
      </g>
    </g>
  </g>
</svg>