<?xml version="1.0" encoding="UTF-8"?>
<svg id="Layer_2" data-name="Layer 2" xmlns="http://www.w3.org/2000/svg" viewBox="0 0 247.41 254.96">
  <g id="Layer_1-2" data-name="Layer 1">
    <g id="TKP">
      <g>
        <g id="Earth">
          <path d="M162,88.51c1.93-3.53,1.96-3.6,5.76-1.95,1.97.86,3.84,1.12,5.96.62,3.28-.77,4.24.27,3.71,3.89-.64-.61-1.19-1.13-1.73-1.65-.15.08-.31.16-.46.24.84,1.64,1.79,3.23,2.49,4.92.98,2.35,1.46,4.96,2.73,7.11,1.74,2.92,2.54,6.44,5.37,8.72.74.6,1.39,1.53,1.67,2.44.51,1.7,1.61,2.06,3.07,1.7,1.62-.4,3.21-.97,5-1.52.42,5.13-2.05,9.08-4.87,12.77-2.3,3.01-5.73,5.18-6.73,9.16-.62,2.47-.95,4.88.3,7.32.37.73.15,1.79.16,2.7.01,1.42.19,2.88-.09,4.25-.19.93-.94,1.84-1.64,2.56-1.36,1.39-2.92,2.59-4.25,4-.3.32-.15,1.27.07,1.83.78,1.99.76,3.61-1.17,5.09-.79.6-1.29,1.93-1.41,2.99-.41,3.84-5.57,9.02-9.45,9.29-1.39.1-3.1.78-4.08.2-.91-.54-.95-2.44-1.53-3.67-1.85-3.95-3.34-7.98-4.06-12.32-.27-1.64-1.4-3.13-1.7-4.77-.26-1.42-.33-3.18.29-4.4,2.92-5.74.89-10.74-2.12-15.52-1.22-1.94-1.67-3.6-.95-5.78,1.07-3.23.44-4.1-2.88-4.99-.61-.16-1.28-.79-1.55-1.37-.75-1.62-1.83-1.52-3.1-.85-.85.45-1.62,1.15-2.53,1.41-1.02.3-2.15.2-3.22.33-.97.12-1.92.45-2.88.44-1.01,0-2.31.03-2.95-.55-1.36-1.21-2.41-2.78-3.51-4.25-.97-1.3-1.83-2.68-2.74-4.02-1.26-1.84-1.92-3.64-.83-5.94.59-1.25.72-2.93.51-4.33-.65-4.24,1.86-9.88,5.43-12.12.84-.53,1.72-1.71,1.78-2.63.18-3.05,2.55-4.56,4.15-6.6.23-.29.9-.57,1.18-.45,2.05.89,3.48-.61,5.16-1.18,1.52-.51,3.12-.78,4.7-1.07.87-.16,1.8-.03,2.65-.22,2.02-.44,2.37-.14,1.88,1.93-.29,1.26-.4,2.63,1.2,2.83,2.25.28,3.96,1.42,5.67,2.71.44.33,1.03.47,1.53.69Z"/>
          <path d="M100.36,169.9c.48.38.8.56,1.02.82.43.52,1.2,1.2,1.09,1.61-.18.66-.89,1.51-1.51,1.64-1.79.38-2.25,1.19-1.26,2.93-.82.18-1.48.32-2.25.48,1.35,1.76,2.2,3.49.1,5.42.76.66,1.4,1.21,2.04,1.76-.1.17-.2.34-.3.51-2.47-1.55-4.89-3.2-7.42-4.63-2.79-1.58-2.85-4.29-3.23-6.92-.14-.95-.22-1.91-.44-2.83-1.04-4.42-2.02-8.86-3.22-13.24-.63-2.32-2.13-4.15-4.68-4.54-3-.46-4.68-2.57-6.4-4.68-1.12-1.38-2.15-2.84-3.39-4.1-1.3-1.32-2.51-2.51-.64-4.28-2.1-1.65-1.61-3.3-.41-4.99.88-1.23,1.37-2.45.73-4.07-1.4-3.49-.56-5.6,2.7-7.44.42-.24.83-.49,1.11-.66.1.96.21,1.96.32,2.97.19,0,.38,0,.57,0,.26-.93.52-1.86.83-2.96,2.19,1.13,4.19,1.73,6.7,1.42,1.53-.19,3.28,1.84,5.02,2.71,1.39.69,2.87,1.48,4.36,1.62,3.19.29,4.55,1.86,4.32,5.18-.05.74.8,1.62,1.43,2.26.15.16,1.29-.24,1.53-.64.91-1.55,2.16-.84,2.72-.13.84,1.05,1.66.55,2.57.72,2.32.44,4.62,1.27,6.73,2.33.51.26.68,2.12.35,3-1.22,3.15-1.92,6.12-.89,9.62.36,1.23-1.39,3.51-2.73,4.71-1.62,1.46-2.4,2.51-2.12,4.97.27,2.44-.74,5.15-1.7,7.54-.35.88-2.17,1.17-3.63,1.88Z"/>
          <path d="M169.85,78.59c-1.33.39-2.06.61-3.03.9.59.72,1.04,1.26,1.49,1.8-.42.25-.84.5-1.28.76-2.78-3.19-5.08-7.17-9.87-8.4.56,2.38.68,2.5,5.34,4.93-.3.47-.59.93-.87,1.37-.19-.03-.36,0-.44-.07-1.85-1.59-3.67-3.22-5.55-4.77-1.36-1.12-4.97.03-6.38.84-2.13,1.22-2.07,4.86-5.27,4.56-1.47-.14-2.92-.51-4.6-.82v-5.5h6.41c.77-2.07.19-3.29-2.16-3.55,2.31-1.06,4.41-2.02,6.51-2.97.46-.21.93-.55,1.39-.55,2,.03,2.13-.88.89-2.79.87.2,1.48.16,1.62.39,1.02,1.73,2.71,2.5,4.67,2.14.83-.15,1.71-.03,2.34-.03,1.77-1.33,3.47-2.61,5.05-3.79-1.09-.24-2.78-.61-4.47-.99,0-.23,0-.45,0-.68.76-.45,1.53-.9,2.59-1.52-2.58-1.35-3.82,1.29-6.21,1,.77.92,1.16,1.39,1.55,1.86q-2.54,2.7-3.99,2.83c.17-2.17-1.04-3.31-2.93-2.63-1.18.43-2.18.41-2.39-.91-.07-.48.83-1.29,1.46-1.67,1.66-.98,3.32-2.16,5.14-2.58,1.93-.45,4.16-.55,6.06-.04,4.34,1.15,7.47,4.31,10.76,7.23,5.32,4.71,9.95,9.96,13.64,16,2.22,3.63,4.11,7.45,6.29,11.45-.99-.2-1.59-.33-2.89-.59,1.84,2.88,3.73,5.13,4.81,7.71,1.15,2.74,1.53,5.8,2.23,8.65-1.3.67-2.3,1.14-3.25,1.69-1.85,1.05-3.05.34-4.02-1.32-2-3.44-4-6.87-6.07-10.26-.57-.93-1.29-1.85-2.13-2.54-3.18-2.58-4.23-5.95-3.65-9.83.23-1.57-.25-1.96-1.68-2.1-1.75-.16-3.55-.36-5.19-.93-1.56-.55-3.12-1.5-1.92-4.26ZM176.48,76.59c-1.12-.7-1.89-1.33-2.78-1.7-.58-.24-1.76-.33-1.91-.05-.47.83-.76,1.88-.73,2.83.02.51,1,1.49,1.29,1.4,2.67-.78,5.03.31,7.49.95.76.2,1.65-.1,2.48-.16.07-.21.14-.42.22-.63-.88-.69-1.79-1.35-2.64-2.06-.76-.64-1.47-1.33-2.2-2,.1-.21.2-.43.3-.64-1.13-.15-2.28-.31-1.51,2.07Z"/>
          <path d="M67.56,102.49c-1.27,1.79-2.53,3.59-3.82,5.36-.95,1.3-.59,2.15.93,2.28,2.23.19,1.83,1.38,1.29,2.79-.66,1.7-1.38,3.4-1.85,5.16-.96,3.59-.62,4.03,3.11,4.32.08.9.16,1.82.24,2.75-.15.02-.29.03-.44.05-.2-.78-.39-1.56-.59-2.34-.21-.02-.42-.04-.63-.06-.58.93-1.15,1.87-1.99,3.22-.31-1.42-.56-2.44-.76-3.47-.07-.36.13-.84-.04-1.11-1.51-2.37-.41-4.97-.71-7.44-.04-.32-.24-.76-.49-.89-1.66-.85-1.91-2.31-1.93-3.95,0-.83-.12-1.82-1.41-1.03-.56-1.02-1.77-2.18-1.58-3.04,1.81-8.67,4.99-16.82,9.75-24.32,3.48-5.49,7.71-10.36,12.48-14.75,1.66-1.53,3.47-2.9,5.3-4.23.37-.27,1.14.04,1.73.05.86.02,1.71,0,2.68,0-.2.41-.51,1.05-1.06,2.18,1.79-.24,3.24-.43,5.17-.69-.65-.87-1-1.34-1.46-1.95,2.2-.31,3.47,3.64,6.07,1.2-.81-.42-1.54-.8-2.27-1.18,4.19-.79,8.06-.09,11.4,1.61-.8.95-1.49,2.54-2.4,2.68-1.4.22-2.95-.57-4.05-.83.58-.24,1.59-.64,2.63-1.06-.77-1.95-1.99-2.27-3.48-1.15-1.14.85-3.16.52-3.47,2.57-.02.16-1.06.16-2,.29.41-.56.59-.81,1.18-1.64-1.75.59-3.01.92-4.18,1.44-1.54.69-3.05,1.47-4.48,2.36-.24.15-.23,1.36.05,1.58,1.19.93,3.06,1.01,3.45,2.94.02.11.65.09,1,.13-.03-2.01,3.19-1.65,2.86-4.03-.14-.99,2.59-2.09,3.72-1.87,1.74.35,3.54.43,5.28.77.62.12,1.27.59,1.68,1.08.86,1.02,1.57,2.16,2.34,3.25.18-.12.35-.23.53-.35-.5.98-.99,1.97-1.48,2.93.75.53,1.41,1,2.07,1.48-.12.21-.24.42-.35.63-1.49-.18-2.98-.36-4.67-.57,1.16-1.01,2.12-1.84,3.58-3.1-2.07.56-3.56.96-5.13,1.39.06,1.04-2,2.75,1.13,3.63-1.49.41-2.53.69-3.58.97-.13-.16-.25-.32-.38-.48.46-.15.91-.29,1.37-.44-.17-.28-.35-.56-.52-.84-2.01.97-4.02,1.96-6.04,2.92-.96.45-2.05.7-2.88,1.31-1.8,1.32-3.85,2.26-4.98,4.53-.6,1.2-2.28,2.03-3.64,2.65-2.69,1.23-4.52,2.89-4.85,6.05-.13,1.24-1.01,2.4-1.55,3.6l-.77-.29c.42-1.73.83-3.46,1.32-5.45-1.71-.64-3.39-2.03-5.15.09-2.04-.89-4.92-.21-6.08,1.79-1.65,2.85-3.06,5.84-4.4,8.85-.3.67.11,1.66.2,2.5.82-.09,1.71-.02,2.43-.33.71-.3,1.24-1,1.87-1.5.7-.56,1.42-1.09,2.12-1.64.21.21.41.42.62.63Z"/>
          <path d="M155.45,183.42c-2.05,1.19-3.7,2.15-5.35,3.11.17.33.35.67.52,1,3.92-1.66,7.83-3.31,11.75-4.97-16.61,9.64-34.28,12.65-52.63,8.58.16-1.06.11-2.08.5-2.89.29-.59,1.22-1.33,1.77-1.25,6.76.87,13.53.09,20.29.38.07,0,.16.02.22-.01,2.03-.93,4.16-.87,6.33-1.05,2.5-.2,4.91-1.6,7.37-2.44,1.61-.55,3.07-1.5,4.98-.29.87.55,2.47-.06,4.23-.17Z"/>
          <path d="M128.41,57.27c-1.14,1.32-2.4,2.91-3.82,4.35-.55.55-1.44,1.03-2.2,1.06-2.96.12-5.67.72-7.92,2.83-.31.29-1.4.18-1.76-.15-.55-.49-1.15-1.38-1.07-2.03.31-2.77-.04-3.27-3.25-3.81.73-.48,1.42-1.29,2.19-1.37,5.33-.55,10.63-2.01,16.06-.61.7.18,1.57-.24,1.78-.28Z"/>
          <path d="M143.18,68.51c.17-.88.35-1.78.61-3.14-.21-.19-.9-.74-1.47-1.39-.18-.2-.02-.7-.01-1.06.31.1.71.12.93.32,1.35,1.22,2.68,2.46,3.95,3.76.11.12-.24,1.03-.48,1.08-1.14.24-2.32.3-3.53.43Z"/>
          <path d="M70.05,102.05c3.2-1.86,6.46.87,6.63,5.05-1.55.01-2.39-.48-2.44-2.23-.06-1.95-1.7-3.1-4.19-2.82Z"/>
          <path d="M99.22,58.03c1.94.21,3.39.36,5.33.56-.58-.68-.83-.98-1.14-1.34,2.55-.18,5.03-.35,7.52-.53-3.75.91-7.27,4.09-11.7,1.3Z"/>
          <path d="M79.2,107.43q1.92.14,2.73,2.63c-1.08.28-2.17.56-3.32.85-.51-.35-1.18-.81-1.73-1.18.48-.48,1.19-1.18,2.32-2.3Z"/>
          <path d="M141.78,65.52c-.88.71-1.75,1.41-2.63,2.12-.23-.26-.47-.53-.7-.79.77-.81,1.53-1.63,2.3-2.44.34.37.69.74,1.03,1.11Z"/>
          <path d="M130.95,63.56c-1.39-.14-2.77-.28-4.16-.42,0-.15,0-.29,0-.44h4.14c0,.29.02.58.03.86Z"/>
        </g>
        <g id="Kimberly">
          <path d="M38.49,216.53c-2.34-2.73-4.59-5.36-6.91-8.07,3.05-2.57,6.12-5.17,9.67-8.17-5.47-.18-10.29-.28-15.1-.56-.98-.06-2.19-.54-2.84-1.25-2.4-2.62-4.61-5.41-6.87-8.15-.26-.31-.32-.78-.5-1.26,5.06.44,10,.84,14.94,1.31,1.77.17,2.74-.26,3.34-2.21,2.17-7.06,4.61-14.05,7.08-21.49,1.99,2.37,3.55,4.63,5.5,6.46,2.84,2.66,2.56,5.21.87,8.36-1.62,3.02-2.7,6.33-3.94,9.34,5.79,2.62,9.88-.08,13.45-4.62,2.49,2.93,4.77,5.62,7.02,8.27-8.6,7.37-17.08,14.63-25.71,22.03Z"/>
          <path d="M30.26,108.43c.25,2.86.56,5.65.68,8.44.02.38-.86,1.12-1.38,1.16-4.06.39-8.13.66-12.2.95-2.43.18-3.94,1.51-3.85,3.43.08,1.85,1.74,3.4,4.02,3.29,4.52-.22,9.03-.65,13.99-1.04.31,3.09.62,6.18.95,9.41-4.55.37-8.81.8-13.09,1.05-2.79.16-4.54,1.25-4.51,3.19.02,1.99,2.31,3.76,4.82,3.57,4.42-.35,8.83-.79,13.4-1.21.24,3.26.47,6.34.71,9.55-8.28.61-16.33,1.2-24.57,1.81-.25-3.1-.48-5.85-.72-8.7,1.18-.06,2.05-.11,3.34-.17-2.41-2.32-4.44-4.48-4.63-7.77-.19-3.23.25-6.11,3.21-8-1.2-1.52-2.53-2.8-3.35-4.34-2.75-5.2-1.34-12.48,6.41-13.05,4.72-.34,9.43-.87,14.15-1.31.73-.07,1.46-.14,2.63-.25Z"/>
          <path d="M190.46,7c2.3,1.62,4.52,3.15,6.71,4.73,2.99,2.15,6.01,4.25,8.91,6.51,6.3,4.89,5.29,10.8.36,15.86-3.68,3.78-7.65,3.89-12.06,1.54-2-1.07-3.85-2.45-5.71-3.76-1.26-.88-2.1-1.26-3.12.49-1.48,2.53-3.31,4.87-5.1,7.2-.36.47-1.46.97-1.77.77-2.59-1.69-5.07-3.54-7.77-5.47,6.52-9.28,12.93-18.41,19.56-27.87ZM190.82,25c5.46,3.59,7.27,3.83,8.88,1.34,1.53-2.38.16-4.62-4.65-7.47-1.39,2.02-2.79,4.04-4.23,6.13Z"/>
          <path d="M32.03,94.13c1.11.48,2.04.88,3.02,1.3-.93,2.79-1.84,5.5-2.75,8.23-10.82-3.52-21.48-6.99-32.3-10.51.98-3.05,1.94-6.04,2.91-9.06,3.59,1.15,7.14,2.29,10.46,3.36,0-2.2-.19-4.45.04-6.65.45-4.2,4.51-7.68,9.23-7.7,4.89-.01,9.17,1.44,12.93,4.8,5.08,4.55,3.21,13.53-2.44,15.53-.34.12-.62.39-1.1.7ZM23.61,82.15c-1.91.41-3.52.57-4.17,2.51-.68,2.04-.07,4.02,1.9,5.06,1.58.84,3.4,1.74,5.08,1.69,1.37-.04,3.18-1.15,3.92-2.33.83-1.32.51-3.37-1.1-4.34-1.76-1.06-3.75-1.74-5.64-2.59Z"/>
          <path d="M140.23,17.21c1.6-3.82,3.26-7.61,4.78-11.46,1.4-3.54,1.33-3.55,5.12-3.04,1.67.22,3.35.35,5.17.53-1.56,3.28-3.01,6.42-4.54,9.52-2.61,5.28-5.45,10.46-7.87,15.82-3.15,6.96-7.44,7.77-14.33,6.24-1.14-.25-2.27-.55-3.47-.84v-6.06c2.12.15,4.14.47,6.13.39,2.15-.09,3.26-1.88,2.65-3.99-2.2-7.69-4.43-15.36-6.65-23.04-.08-.28-.08-.58-.17-1.26,3.31.33,6.48.65,9.74.98,1.01,5.42,2.01,10.75,3.01,16.08.15.05.29.1.44.15Z"/>
          <path d="M120.71,14.63c-6.13,1.23-12.27,2.47-18.43,3.71.53,2.59,2.03,3.85,4.03,4.02,1.81.16,3.62-.35,4.7-2.23.32-.55,1.15-1.06,1.79-1.13,2.57-.28,5.17-.38,7.9-.55-1.18,4.47-4.21,7.05-8.23,8.33-2.7.86-5.59,1.18-8.42,1.49-6.5.7-11.72-6.21-12.05-11.92-.56-9.55,6.51-13.23,13.39-14.14,2.74-.36,5.3-.23,7.78.78,4.39,1.79,6.27,5.5,7.17,9.88.12.57.24,1.13.38,1.76ZM101.46,13.77c3.06-.56,5.97-1.09,8.9-1.63-.89-2.98-2.9-4.68-4.94-4.31-3.14.56-4.16,2.01-3.96,5.94Z"/>
          <path d="M39.89,61.56c3.86,2.06,7.92.47,7.83-4.63-.02-.84.86-1.77,1.48-2.53,1.3-1.6,2.7-3.11,4.17-4.79,2.33,3.9,1.75,7.62-.13,10.92-1.61,2.83-3.86,5.39-6.2,7.69-4.05,3.98-11.57,2.65-15.63-1.06-5.59-5.11-5.36-11.16-2.3-16.16,2.64-4.31,5.85-7.81,11.19-8.52,3.08-.41,5.74.82,8.29,2.31.82.48,1.56,1.09,2.63,1.84-3.73,4.91-7.47,9.85-11.33,14.93ZM36.27,58.86c1.89-2.45,3.66-4.75,5.44-7.06-3.28-2.13-4.57-1.97-6.89.75-1.35,1.59-.86,3.91,1.45,6.31Z"/>
          <path d="M226.85,65.54c5.1.2,8.81,2.64,11.15,7.13,2.75,5.3,4,10.7-.01,15.95-4.88,6.4-15.36,7.72-20.78-.28-2.57-3.79-4.28-8.02-3.13-12.93,1.47-6.24,7.18-9.98,12.76-9.87ZM228.34,74.01c-2.1,1.14-4.38,2.05-6.23,3.49-1.46,1.13-1.68,3.04-.85,4.87.85,1.86,2.4,2.84,4.29,2.43,2.04-.44,4.14-1.15,5.86-2.28,1.48-.98,2.66-2.71,1.79-4.79-.83-1.97-2.26-3.27-4.85-3.73Z"/>
          <path d="M222.38,159.81c-2.75-3.16-4.78-6.34-3.74-10.65.48-2,.77-4.05,1.35-6.01,2.07-6.98,8.09-9.96,15.1-8.29,6.03,1.44,9.25,5.42,9.95,11.79.56,5.06-3.82,12.75-8.42,14.7-3.52,1.49-7.06.86-10.86-.12,1.65-5.95,3.24-11.69,4.83-17.44-5.19-.45-6.95,2.12-5.58,7.1.43,1.55-.72,3.58-1.25,5.35-.33,1.11-.84,2.18-1.38,3.56ZM235,144.96c-.75,2.76-1.47,5.4-2.19,8.06,3.51.22,5.66-.78,6.04-2.76.44-2.31-.91-4.26-3.85-5.3Z"/>
          <path d="M217.02,192.46c1.23-2.55,2.31-4.94,3.56-7.24.23-.42,1.11-.56,1.72-.68,2.02-.4,3.67-2.24,3.54-4.17-.03-.53-.29-1.34-.65-1.48-.51-.2-1.41-.1-1.79.26-1.35,1.25-2.58,2.64-3.8,4.02-1.81,2.05-3.63,3.98-6.34,5-4.06,1.53-8.75-2.16-9.01-6.51-.31-5.24,2.37-9.13,5.33-12.96,2.15-2.79,4.65-5.02,8.49-4.79.86.05,1.72.32,2.74.52-1.11,2.24-2.15,4.41-3.27,6.54-.63,1.2-1.39,2.02-3.08,1.97-1.9-.06-3.98,2.52-3.85,4.48.05.7.49,1.7,1.04,1.96.51.24,1.6-.1,2.1-.55,2.23-2.07,4.31-4.31,6.51-6.42,3.78-3.62,9.36-2.77,11.48,1.82,1.34,2.91.51,5.81-.92,8.42-1.37,2.5-2.96,4.93-4.74,7.15-2.21,2.77-5.39,3.11-9.07,2.67Z"/>
          <path d="M203.75,190.51c-2.16,2.05-4.13,3.98-6.17,5.82-.32.29-1.03.36-1.48.23-2.26-.65-5.22.61-5.93,2.84-.24.76.05,1.88.5,2.57.22.34,1.5.29,2.1,0,3.44-1.63,6.75-3.57,10.26-5.03,2.42-1,4.68.15,6.39,1.98,1.56,1.67,2.4,3.6,1.65,6.02-2.05,6.61-7.05,10.13-13.16,12.19-1.63.55-3.79-.46-5.7-.75-.09-.29-.17-.57-.26-.86,1.92-1.92,3.81-3.88,5.8-5.74.31-.29,1.09-.16,1.63-.1,1.81.23,3.28-.44,4.21-1.91.38-.6.51-1.99.14-2.29-.54-.45-1.8-.6-2.44-.27-2.35,1.21-4.53,2.75-6.85,4.03-5.13,2.82-10.38.93-11.44-3.54-.59-2.5-.56-5.04.84-7.05,2.98-4.29,6.67-7.93,11.76-9.73,2.75-.97,5.45-.45,8.13,1.58Z"/>
          <path d="M240.37,127.26c-.31-1.51-.53-2.89-.87-4.23-.59-2.28-1.2-4.33,1.2-6.27,1.78-1.44,1.01-4.08-.38-5.86-2.22-2.84-9.95-2.49-11.38,1.27-.97,2.54-.3,5.18,2.14,6.44,1.16.6,1.57,1.33,1.51,2.61-.1,2.35-.03,4.71-.03,7.24-6.81-1.84-10.34-6.45-10.29-12.91.02-3.23-.44-6.51,1.3-9.57,2.24-3.93,5.54-6.17,10-6.23,2.45-.03,5.06.29,7.35,1.13,4.2,1.55,5.13,5.58,5.97,9.42.99,4.53.65,8.92-1.69,13.1-1.02,1.82-1.71,2.66-4.83,3.85Z"/>
          <path d="M90.29,32.74c-2.95,1.39-5.66,2.67-8.58,4.05-4.9-10.21-9.79-20.41-14.74-30.73,2.52-1.19,4.99-2.3,7.4-3.52,1.42-.71,1.6.35,2,1.19,4.6,9.6,9.21,19.2,13.92,29.01Z"/>
          <path d="M62.6,50.18c-4.98-6.62-9.84-13.09-14.71-19.57,2.32-1.89,4.41-3.59,6.63-5.4.55.65,1.13,1.34,1.59,1.88.62-1.77.87-3.8,1.95-5.15,1.06-1.33,2.97-1.97,5.02-3.23.79,2.85,1.43,5.17,2.06,7.46-4.32,2.27-4.9,4.1-2.24,8.27,2.13,3.35,4.63,6.46,7.11,9.88-2.27,1.79-4.62,3.65-7.41,5.85Z"/>
          <path d="M220.15,48.8c1.82.71,4.03,1.13,5.64,2.34,1.25.94,1.75,2.88,2.76,4.69-2.83.62-5.09,1.12-7.32,1.61-2.36-4.04-3.72-4.53-7.66-2.14-2.89,1.75-5.53,3.92-8.29,5.9-.64.46-1.3.9-2.03,1.39-1.95-2.34-3.79-4.55-5.85-7.04,6.31-5.04,12.61-10.08,19.13-15.3,1.86,2.25,3.67,4.44,5.6,6.77-.77.69-1.55,1.4-1.97,1.77Z"/>
          <path d="M37.72,154.26c1.24,2.87,2.42,5.6,3.76,8.68-7.45,3.29-14.86,6.56-22.51,9.95-1.27-2.84-2.5-5.62-3.87-8.68,7.53-3.31,14.92-6.56,22.63-9.95Z"/>
          <path d="M6.55,167.93c2.19-.94,4-1.73,5.88-2.54,1.21,2.77,2.43,5.57,3.75,8.61-1.85.83-3.74,1.68-5.86,2.63-1.28-2.95-2.49-5.73-3.78-8.7Z"/>
        </g>
      </g>
      <g>
        <path d="M125.62,254.52c-2.61,0-5.22.04-7.83-.01-2.84-.05-5.52-.78-7.62-2.74-4.04-3.77-9.04-5.74-14.06-7.61-3.62-1.35-4.04-4.77-5.31-7.56-.31-.68,1.09-2.26,1.88-3.29,3.97-5.12,7.83-10.35,12.09-15.23,2.21-2.54,5-4.67,7.81-6.56,4.07-2.75,8.41-5.1,12.6-7.68,1.09-.67,1.82-.54,2.73.31,3,2.8,6.16,5.44,9.05,8.34.8.8.83,2.34,1.29,3.51.34.86.61,2.11,1.26,2.42,4.24,1.98,8.16,4.22,10.76,8.37,1.31,2.09,3.29,3.77,4.6,5.86.88,1.4,1.33,3.16,1.62,4.83.66,3.83-.52,6.19-3.98,8.05-3.14,1.69-6.39,3.17-9.54,4.84-1.17.62-2.23,1.47-3.31,2.27-4.3,3.21-9.23,2.3-14.04,1.89ZM126.53,204.89c-1.08,1.56-2.35,3.03-3.19,4.71-.62,1.25-1.28,2.86.65,3.89.29.16.4.73.53,1.12.65,1.96,1.09,4.01,1.98,5.86.76,1.58,1.39,2.73-1.48,2.92.68.53,1.13.72,1.31,1.06.61,1.13,1.41,2.27,1.59,3.49.18,1.22-.39,2.54-.47,3.82-.21,3.14-.33,6.29-.47,9.21-2.48-.49-4.5-1.25-6.49-1.2-2.62.07-3.32-.89-2.69-3.5.86.5,1.64.95,2.5,1.45.37-.23.86-.79,1.23-.72,3.26.66,2.73-1.76,3-3.56.14-.95.09-2.05.57-2.82,1.18-1.91.44-3.57-.34-5.26-.31-.66-1.16-1.27-1.13-1.87.15-3.15-2.41-5.28-2.57-8.48-1.24.51-2.14.85-3.01,1.25-2.38,1.09-4.75,2.03-6.99,3.58-1.86,1.29-3.98,2.41-5.38,4.11-2.08,2.53-3.64,5.5-5.64,8.62,2.28,1.53,4.49,2.78,6.4,4.38,1.49,1.25,2.78,1.72,4.8,1.45,1.7-.23,3.55.64,5.33,1.03-.04.23-.08.46-.11.69h-6.92c0,.18,0,.37,0,.55,5.86.52,11.52,2.92,17.6,1.57.52-.11,1.34.96,1.96,1.55.77.74,1.33,1.93,2.22,2.24,1.11.39,2.46.09,3.92.09,3.12-2.11.43-5.05.43-8.02.64.84,1.11,1.45,1.57,2.07.25-.07.49-.13.74-.2-.26-1.42-.3-2.94-.83-4.25-1.13-2.77-2.52-5.44-3.78-8.16-.07-.15.07-.4.12-.66.46.09.86.18,1.2.25-.16-2.9-.33-5.73-.51-8.94-3.07,3.41-3.25,3.44-5.17.96,1.61-1.01,1.24-1.98.03-3.15-1.11-1.08-2.08-2.38.24-3.4.31-.14.47-.87.5-1.34.07-1.1.02-2.21.02-2.96-1.22-1.29-2.25-2.38-3.28-3.46ZM140.21,238.53c-.21.13-.42.26-.63.38.77,0,1.59.17,2.3-.05.74-.23,1.35-.87,2.06-1.25.76-.4,1.56-.71,2.35-1.06-.36-.71-.72-1.42-1.07-2.14,2.65.34,4.22-1.11,3.5-3.26-.74-2.19-1.49-4.38-2.33-6.53-.19-.49-.8-.81-1.21-1.2-.14.51-.4,1.03-.39,1.54.03,1.54.17,3.08.27,4.62-.18.04-.36.08-.54.12-1.9-3.53-3.8-7.06-5.9-10.95-.6,1.21-1.36,2.02-1.31,2.78.2,3.06.52,6.13,1.04,9.15.45,2.64,1.23,5.23,1.87,7.84ZM139.87,249.22c.05.14.09.28.14.42.89-.29,1.86-.44,2.64-.91.86-.51,1.5-1.38,2.32-1.97,1.73-1.26,3.53-2.42,5.26-3.68.31-.23.6-.73.6-1.1-.02-1.32-.07-2.66-.31-3.95-.1-.54-.66-1.14-1.17-1.4-.39-.2-1.17-.08-1.54.21-1.47,1.16-2.85,2.44-4.44,3.83.08.15.34.62.85,1.57-2.29,1.31-4.51,2.59-7.41,4.25,1.28.19,1.98.34,2.68.39.77.05,1.55.01,2.33.01.06.22.11.43.17.65-.71.56-1.42,1.12-2.13,1.68ZM133.4,253.05c.25.14.51.28.76.43,1.55-.89,3.11-1.78,5.13-2.93-2.18-.91-3.76-1.8-5.11-.22-.56.65-.54,1.8-.78,2.72Z"/>
        <path d="M112.69,225.44q.69-3.22,4.72-2.88c-1.52.93-3.04,1.85-4.72,2.88Z"/>
        <path d="M116.07,229.56c-1.77,1.26-3,2.13-4.48,3.17.08-.95-.21-2.7.34-3.03.9-.54,2.35-.14,4.14-.14Z"/>
        <path d="M108.51,226.2v4.2c-.3-.04-.6-.07-.89-.11.26-1.36.52-2.72.79-4.07,0-.04.2-.04.1-.02Z"/>
      </g>
    </g>
  </g>
</svg>