<?xml version="1.0" encoding="UTF-8"?>
<svg id="Layer_1" data-name="Layer 1" xmlns="http://www.w3.org/2000/svg" xmlns:xlink="http://www.w3.org/1999/xlink" viewBox="0 0 265 265">
  <defs>
    <style>
      .cls-1 {
        fill: url(#New_Gradient_Swatch_copy);
      }

      .cls-2 {
        fill: url(#linear-gradient-2);
      }

      .cls-3, .cls-4 {
        fill: #fff;
      }

      .cls-5 {
        fill: #595a5c;
      }

      .cls-6 {
        fill: url(#radial-gradient-3);
        opacity: .25;
      }

      .cls-7 {
        fill: url(#New_Gradient_Swatch_copy_2);
      }

      .cls-8 {
        fill: url(#radial-gradient);
      }

      .cls-9 {
        filter: url(#drop-shadow-1);
      }

      .cls-10 {
        fill: url(#radial-gradient-2);
      }

      .cls-4 {
        stroke: #58595b;
        stroke-miterlimit: 10;
      }

      .cls-11 {
        fill: #ed1f36;
      }

      .cls-12 {
        fill: url(#linear-gradient);
      }
    </style>
    <radialGradient id="radial-gradient" cx="132.5" cy="132.5" fx="132.5" fy="132.5" r="109.33" gradientUnits="userSpaceOnUse">
      <stop offset=".52" stop-color="#2184b7"/>
      <stop offset="1" stop-color="#223a73"/>
    </radialGradient>
    <radialGradient id="radial-gradient-2" cx="132.5" cy="132.5" fx="132.5" fy="132.5" r="109.04" gradientUnits="userSpaceOnUse">
      <stop offset="0" stop-color="#2b6a9f"/>
      <stop offset="1" stop-color="#1f78aa"/>
    </radialGradient>
    <linearGradient id="New_Gradient_Swatch_copy_2" data-name="New Gradient Swatch copy 2" x1="116.97" y1="41.35" x2="148.03" y2="41.35" gradientUnits="userSpaceOnUse">
      <stop offset="0" stop-color="#b22a30"/>
      <stop offset="1" stop-color="#ec1b34"/>
    </linearGradient>
    <linearGradient id="New_Gradient_Swatch_copy" data-name="New Gradient Swatch copy" x1="132.5" y1="15.98" x2="132.5" y2="249.02" gradientUnits="userSpaceOnUse">
      <stop offset="0" stop-color="#fefefe"/>
      <stop offset="1" stop-color="#929497"/>
    </linearGradient>
    <linearGradient id="linear-gradient" x1="132.51" y1="136.07" x2="132.51" y2="1.83" gradientUnits="userSpaceOnUse">
      <stop offset="0" stop-color="#fefefe"/>
      <stop offset=".72" stop-color="#cacbcd"/>
    </linearGradient>
    <linearGradient id="linear-gradient-2" x1="132.5" y1="263.17" x2="132.5" y2="130.1" gradientUnits="userSpaceOnUse">
      <stop offset="0" stop-color="#f0f0f1"/>
      <stop offset=".7" stop-color="#414142"/>
    </linearGradient>
    <radialGradient id="radial-gradient-3" cx="131.78" cy="132.01" fx="131.78" fy="132.01" r="108.89" gradientUnits="userSpaceOnUse">
      <stop offset=".9" stop-color="#000" stop-opacity="0"/>
      <stop offset="1" stop-color="#000" stop-opacity=".5"/>
    </radialGradient>
    <filter id="drop-shadow-1" x="45.17" y="75.5" width="178" height="120" filterUnits="userSpaceOnUse">
      <feOffset dx="2" dy="2"/>
      <feGaussianBlur result="blur" stdDeviation="2"/>
      <feFlood flood-color="#000" flood-opacity=".75"/>
      <feComposite in2="blur" operator="in"/>
      <feComposite in="SourceGraphic"/>
    </filter>
  </defs>
  <g id="GA_-_2023" data-name="GA - 2023">
    <g id="Circles">
      <circle class="cls-8" cx="132.5" cy="132.5" r="109.33"/>
      <polygon class="cls-10" points="132.5 23.46 136.06 96.33 153.77 25.56 143.05 97.72 174.22 31.76 149.63 100.44 193.08 41.84 155.56 104.4 209.6 55.4 160.6 109.44 223.16 71.92 164.56 115.37 233.24 90.78 167.28 121.95 239.44 111.23 168.67 128.94 241.54 132.5 168.67 136.06 239.44 153.77 167.28 143.05 233.24 174.22 164.56 149.63 223.16 193.08 160.6 155.56 209.6 209.6 155.56 160.6 193.08 223.16 149.63 164.56 174.22 233.24 143.05 167.28 153.77 239.44 136.06 168.67 132.5 241.54 128.94 168.67 111.23 239.44 121.95 167.28 90.78 233.24 115.37 164.56 71.92 223.16 109.44 160.6 55.4 209.6 104.4 155.56 41.84 193.08 100.44 149.63 31.76 174.22 97.72 143.05 25.56 153.77 96.33 136.06 23.46 132.5 96.33 128.94 25.56 111.23 97.72 121.95 31.76 90.78 100.44 115.37 41.84 71.92 104.4 109.44 55.4 55.4 109.44 104.4 71.92 41.84 115.37 100.44 90.78 31.76 121.95 97.72 111.23 25.56 128.94 96.33 132.5 23.46"/>
      <g>
        <path class="cls-4" d="M171.18,210.66c0-3.71-3.01-6.72-6.72-6.72h-55.33c-3.71,0-6.72,3.01-6.72,6.72s3.01,6.72,6.72,6.72h52.03c.79.47,2.32,2.14,1.47,4.9,0,0,2.64-1.7,2.21-4.92,3.53-.2,6.34-3.12,6.34-6.7Z"/>
        <g>
          <path class="cls-5" d="M108.24,206.21l-.25,2.03h1.13l.26-2.03h1.13l-.26,2.03h.85v1.31h-1l-.19,1.42h.85v1.31h-1l-.26,2.03h-1.13l.26-2.03h-1.14l-.25,2.03h-1.13l.26-2.03h-.86v-1.31h1.02l.19-1.42h-.85v-1.31h1l.26-2.03h1.12ZM107.84,209.54l-.18,1.42h1.13l.19-1.42h-1.14Z"/>
          <path class="cls-11" d="M113.38,205.97v6.96h2.98v1.38h-4.66v-8.33h1.68Z"/>
          <path class="cls-11" d="M119.29,214.47c-1.54,0-2.44-.61-2.44-3.3,0-2.51.91-3.3,2.49-3.3,1.7,0,2.46.79,2.46,3.29,0,2.71-1.05,3.32-2.51,3.32ZM119.32,208.96c-.82,0-.86.97-.86,2.21,0,1.37.11,2.21.86,2.21.64,0,.86-.61.86-2.21s-.22-2.21-.86-2.21Z"/>
          <path class="cls-11" d="M123.98,208.03l.9,4.49h.02l.85-4.49h1.61l-1.58,6.28h-1.87l-1.62-6.28h1.68Z"/>
          <path class="cls-11" d="M132.53,211.05v.36h-3.19v.46c0,.63.13,1.52.79,1.51.6-.01.77-.46.85-1.18h1.45c-.06,1.41-.69,2.28-2.28,2.28-2.22,0-2.43-1.58-2.43-3.35s.4-3.26,2.5-3.26c1.74,0,2.3,1.03,2.3,3.19ZM130.99,210.45c-.01-1.21-.32-1.49-.82-1.49-.72,0-.83.83-.83,1.25v.25h1.65Z"/>
          <path class="cls-5" d="M138.73,208.45h-1.61c-.01-.63-.26-1.4-.96-1.4s-1.14.57-1.14,2.93c0,2.52.37,3.26,1.16,3.26.41,0,1.04-.42,1.04-1.34v-.84h-1.11v-1.24h2.72v4.49h-1.24v-.77h-.02c-.4.67-.98.93-1.75.93-1.91,0-2.47-1.25-2.47-4.41,0-2.66.56-4.25,2.8-4.25,1.75,0,2.59.86,2.59,2.64Z"/>
          <path class="cls-5" d="M144.43,211.05v.36h-3.19v.46c0,.63.13,1.52.79,1.51.6-.01.77-.46.85-1.18h1.45c-.06,1.41-.69,2.28-2.28,2.28-2.22,0-2.43-1.58-2.43-3.35s.4-3.26,2.5-3.26c1.74,0,2.3,1.03,2.3,3.19ZM142.88,210.45c-.01-1.21-.32-1.49-.82-1.49-.72,0-.83.83-.83,1.25v.25h1.65Z"/>
          <path class="cls-5" d="M147.5,214.47c-1.54,0-2.44-.61-2.44-3.3,0-2.51.91-3.3,2.49-3.3,1.7,0,2.46.79,2.46,3.29,0,2.71-1.05,3.32-2.51,3.32ZM147.53,208.96c-.82,0-.86.97-.86,2.21,0,1.37.11,2.21.86,2.21.64,0,.86-.61.86-2.21s-.22-2.21-.86-2.21Z"/>
          <path class="cls-5" d="M154.17,207.89v1.54c-.13-.01-.3-.02-.48-.02-.75,0-1.21.43-1.21,1.11v3.79h-1.61v-6.28h1.54v.84h.02c.36-.67.84-1,1.45-1,.09,0,.2.01.29.02Z"/>
          <path class="cls-5" d="M157.9,208.73h.02v-.7h1.54v6.01c0,1.77-.92,2.42-2.6,2.42-1.07,0-2.15-.39-2.15-1.68h1.54c0,.42.41.65.78.65.67,0,.89-.5.89-1.1v-.86h-.02c-.3.43-.79.77-1.34.77-1.45,0-1.93-1.18-1.93-3.18,0-1.4.19-3.2,1.97-3.2.6,0,1.05.34,1.3.86ZM157.05,213c.68,0,.88-.7.88-1.82,0-1.51-.2-2.08-.85-2.08-.69,0-.83.57-.83,2.24,0,.97.14,1.66.81,1.66Z"/>
          <path class="cls-5" d="M162.26,205.88v1.38h-1.61v-1.38h1.61ZM162.26,208.03v6.28h-1.61v-6.28h1.61Z"/>
          <path class="cls-5" d="M167.87,209.73v3.46c0,.49.05.76.2,1.12h-1.54c-.07-.12-.13-.34-.2-.65h-.02c-.35.58-.71.82-1.59.82-1.27,0-1.53-1.16-1.53-1.81,0-1.12.42-1.63,1.68-1.97l.74-.2c.53-.14.72-.32.72-.76,0-.53-.25-.77-.75-.77-.46,0-.75.27-.75.83v.16h-1.45v-.12c0-1.31.76-1.97,2.21-1.97,1.59,0,2.28.51,2.28,1.87ZM165.33,213.37c.49,0,.99-.33.99-.95v-1.28c-.17.13-.26.19-.55.29l-.35.13c-.5.19-.7.43-.7.93,0,.56.22.88.61.88Z"/>
        </g>
      </g>
      <g>
        <polygon class="cls-7" points="148.03 55.09 148.03 55.09 148.03 55.09 148.03 13.49 116.97 13.49 116.97 55.09 116.97 55.09 132.5 69.2 148.03 55.09 148.03 55.09 148.03 55.09"/>
        <path class="cls-3" d="M132.72,40.01l.02-.28.35-.63-4.14.06-3.04.12,1.02,7.18,1.09,2.19-.7,2.29.17,1.82-.08.67.44.77,8.08.31.31.5.24-.02.38-1.29,1.66.2-.02-.13-.25-.42s0-.58,0-.64.31-.33.31-.33c0,0,.03-1.31.09-1.34s.43-.17.43-.17l.19-.88.45-.23.27-.42v-.37s-.47-.19-.47-.19l-.52.2-.29-.26.13-1.18-.21-.45-5.91-7.08Z"/>
      </g>
      <path class="cls-1" d="M132.5,15.98c-64.35,0-116.52,52.17-116.52,116.52s52.17,116.52,116.52,116.52,116.52-52.17,116.52-116.52S196.85,15.98,132.5,15.98ZM132.5,241.83c-60.38,0-109.33-48.95-109.33-109.33S72.12,23.17,132.5,23.17s109.33,48.95,109.33,109.33-48.95,109.33-109.33,109.33Z"/>
      <g>
        <path class="cls-12" d="M16.65,132.5c0-63.98,51.87-115.85,115.85-115.85s115.85,51.87,115.85,115.85c0,1.2-.02,2.38-.06,3.57l14.85-5.93s0-.23,0-.27C261.74,58.91,203.78,1.83,132.5,1.83S3.39,59.26,1.87,130.1l14.84,5.96c-.04-1.18-.06-2.37-.06-3.56Z"/>
        <path class="cls-2" d="M263.14,130.12l-14.85,5.95c-1.89,62.33-53,112.28-115.79,112.28S18.59,198.4,16.71,136.06l-14.84-5.96c-.02.95-.04,1.44-.04,2.4,0,72.17,58.5,130.67,130.67,130.67s130.67-58.5,130.67-130.67c0-.83,0-1.55-.02-2.38Z"/>
      </g>
    </g>
    <circle class="cls-6" cx="131.78" cy="132.01" r="108.89"/>
    <g id="Best_Of_GA_2022" data-name="Best Of GA 2022" class="cls-9">
      <g>
        <path class="cls-3" d="M91.07,80.48c3.84,0,5.94,1.77,5.94,5.4,0,2.34-1.05,4.08-3.24,4.71v.06c2.52.36,3.9,2.25,3.9,4.98,0,4.05-2.37,6.27-6.54,6.27h-7.44v-21.41h7.38ZM88.01,89.27h.57c2.22,0,4.11-.09,4.11-2.82,0-2.01-.9-2.79-3.06-2.79h-1.62v5.61ZM88.01,98.71h1.71c2.76,0,3.45-1.47,3.45-3.24,0-2.16-1.05-3.21-3.21-3.21h-1.95v6.45Z"/>
        <path class="cls-3" d="M112.33,80.48v3.54h-7.65v5.04h7.2v3.54h-7.2v5.76h7.95v3.54h-12.26v-21.41h11.96Z"/>
        <path class="cls-3" d="M127.51,85.91v.51h-4.14c0-2.16-.75-3.18-2.34-3.18s-2.46.9-2.46,2.49.6,2.22,2.22,2.91l3.3,1.44c2.85,1.23,4.11,2.67,4.11,5.67,0,4.38-2.58,6.57-7.44,6.57-4.47,0-6.81-1.77-6.81-6.45v-.66h4.32v.57c0,2.67,1.05,3.36,2.85,3.36,1.53,0,2.58-.99,2.58-2.64,0-1.32-.3-2.22-1.83-2.82l-2.61-1.05c-2.94-1.17-5.01-2.49-5.01-6.27,0-4.05,2.4-6.3,6.63-6.3s6.63,1.95,6.63,5.85Z"/>
        <path class="cls-3" d="M142.89,80.48v3.54h-4.68v17.87h-4.32v-17.87h-4.68v-3.54h13.67Z"/>
        <path class="cls-3" d="M166.07,91.18c0,6.36-.72,11.12-7.29,11.12s-7.29-4.77-7.29-11.12.69-11.12,7.29-11.12,7.29,4.83,7.29,11.12ZM158.79,99.13c2.7,0,2.97-2.52,2.97-7.95s-.27-7.95-2.97-7.95-2.97,2.61-2.97,7.95.3,7.95,2.97,7.95Z"/>
        <path class="cls-3" d="M180.59,80.48v3.54h-7.65v5.04h7.2v3.54h-7.2v9.29h-4.32v-21.41h11.96Z"/>
      </g>
      <g>
        <path class="cls-3" d="M72.03,119.7h-6.55c-.05-2.56-1.04-5.7-3.89-5.7s-4.65,2.33-4.65,11.92c0,10.26,1.52,13.25,4.7,13.25,1.66,0,4.23-1.71,4.23-5.46v-3.42h-4.51v-5.03h11.06v18.28h-5.03v-3.13h-.09c-1.61,2.71-3.99,3.8-7.12,3.8-7.79,0-10.07-5.08-10.07-17.95,0-10.83,2.28-17.28,11.4-17.28,7.12,0,10.54,3.51,10.54,10.73Z"/>
        <path class="cls-3" d="M95.77,109.63v5.6h-12.11v7.98h11.4v5.6h-11.4v9.12h12.58v5.6h-19.42v-33.9h18.95Z"/>
        <path class="cls-3" d="M122.03,126.59c0,10.07-1.14,17.62-11.54,17.62s-11.54-7.55-11.54-17.62,1.09-17.62,11.54-17.62,11.54,7.65,11.54,17.62ZM110.49,139.17c4.27,0,4.7-3.99,4.7-12.58s-.43-12.58-4.7-12.58-4.7,4.13-4.7,12.58.47,12.58,4.7,12.58Z"/>
        <path class="cls-3" d="M138.84,109.63c5.46,0,8.88,2.94,8.88,8.74,0,4.84-2.04,7.6-5.65,8.36v.09c4.89.67,5.27,3.42,5.46,10.35.05,1.8-.09,5.27,1.52,6.08v.29h-7.41c-.52-.71-.85-2.28-.9-4.65l-.14-5.46c-.1-2.8-1.47-4.23-3.94-4.23h-3.75v14.34h-6.84v-33.9h12.77ZM135.9,124.45c3.23,0,4.99-1.57,4.99-5.08,0-3.23-1.71-4.7-4.61-4.7h-3.37v9.78h2.99Z"/>
        <path class="cls-3" d="M174.08,119.7h-6.55c-.05-2.56-1.04-5.7-3.89-5.7s-4.65,2.33-4.65,11.92c0,10.26,1.52,13.25,4.7,13.25,1.66,0,4.23-1.71,4.23-5.46v-3.42h-4.51v-5.03h11.06v18.28h-5.03v-3.13h-.09c-1.61,2.71-3.99,3.8-7.12,3.8-7.79,0-10.07-5.08-10.07-17.95,0-10.83,2.28-17.28,11.4-17.28,7.12,0,10.54,3.51,10.54,10.73Z"/>
        <path class="cls-3" d="M186.05,109.63v33.9h-6.84v-33.9h6.84Z"/>
        <path class="cls-3" d="M206.18,109.63l8.97,33.9h-7.12l-1.57-7.17h-9.02l-1.57,7.17h-7.12l8.97-33.9h8.45ZM201.91,115.52l-3.28,15.24h6.65l-3.28-15.24h-.09Z"/>
      </g>
      <g>
        <path class="cls-3" d="M105.22,159.51c0,5.23-2.12,8.33-5.69,11.64l-3.98,3.67c-2.22,2.07-3.42,3.73-3.93,5.54h13.82v5.79h-22.56c0-3.05.62-5.79,1.81-8.23,1.24-2.48,3.05-4.86,6.26-7.81l2.79-2.59c3.16-2.9,4.04-4.29,4.04-8.54,0-3.16-1.19-4.6-3.62-4.6-2.85,0-4.14,1.71-4.14,7.14h-7.14v-1.19c0-7.71,4.14-10.81,11.38-10.81s10.97,3.47,10.97,9.99Z"/>
        <path class="cls-3" d="M130.67,167.42c0,12.06-1.55,19.46-11.49,19.46-9.26,0-11.49-5.33-11.49-17.9,0-11.59,1.29-19.46,11.49-19.46,8.95,0,11.49,4.81,11.49,17.9ZM115.15,170.73c0,7.81.36,11.28,4.04,11.28,3.31,0,4.04-3.1,4.04-11.64v-5.02c0-8.64-.83-10.97-4.04-10.97-2.95,0-4.04,2.33-4.04,11.64v4.71Z"/>
        <path class="cls-3" d="M154.89,159.51c0,5.23-2.12,8.33-5.69,11.64l-3.98,3.67c-2.22,2.07-3.42,3.73-3.93,5.54h13.82v5.79h-22.56c0-3.05.62-5.79,1.81-8.23,1.24-2.48,3.05-4.86,6.26-7.81l2.79-2.59c3.16-2.9,4.04-4.29,4.04-8.54,0-3.16-1.19-4.6-3.62-4.6-2.85,0-4.14,1.71-4.14,7.14h-7.14v-1.19c0-7.71,4.14-10.81,11.38-10.81s10.97,3.47,10.97,9.99Z"/>
        <path class="cls-3" d="M179.31,158.94c0,4.35-2.07,7.3-5.59,8.07v.1c4.19.72,6.52,3.26,6.52,8.64,0,7.19-4.14,11.12-12.11,11.12-6.52,0-10.66-3.52-10.66-11.44h7.14c0,4.66,1.09,6.57,4.09,6.57,2.43,0,4.09-1.03,4.09-5.85,0-4.5-1.55-6.31-4.81-6.31h-2.48v-4.86h2.48c3.41,0,4.19-3.42,4.19-5.8,0-3.1-.88-4.81-3.57-4.81s-3.78,1.6-3.78,5.64v.31h-6.83c0-7.09,3.67-10.81,10.76-10.81s10.56,3.16,10.56,9.42Z"/>
      </g>
    </g>
    <g>
      <g>
        <path class="cls-5" d="M90.48,241.77l2.7,1.08c.74.29,1.23.57,1.47.82.25.25.4.59.47,1.01s.02.85-.15,1.28c-.16.4-.39.72-.69.97-.3.25-.63.39-.97.44.34.3.56.67.65,1.1.09.43.03.9-.16,1.39-.24.6-.58,1.05-1.04,1.35-.45.3-.9.42-1.33.36-.3-.04-.95-.26-1.94-.66l-2.29-.92,3.28-8.22ZM89.98,246.95l-.88,2.19,1.26.5c.55.22.92.33,1.1.34.18,0,.36-.06.53-.18.17-.13.31-.32.42-.58.11-.27.14-.51.09-.73-.04-.22-.15-.4-.31-.54-.16-.14-.54-.33-1.12-.56l-1.1-.44ZM91.29,243.68l-.76,1.9.9.36c.54.21.87.34,1.01.37.25.06.47.03.66-.08.19-.11.35-.3.46-.57.1-.24.12-.46.08-.66-.05-.19-.14-.34-.27-.44-.14-.1-.56-.29-1.28-.58l-.79-.31Z"/>
        <path class="cls-5" d="M94.34,252.78l2.77-8.41,5.12,1.69-.47,1.42-3.73-1.23-.61,1.86,3.46,1.14-.47,1.42-3.46-1.14-.75,2.28,3.85,1.27-.47,1.42-5.24-1.73Z"/>
        <path class="cls-5" d="M101.46,252.06l1.43.2c-.13,1.13.23,1.82,1.1,2.04.43.11.79.09,1.1-.07.3-.16.5-.4.59-.74.05-.19.05-.37,0-.53-.05-.16-.15-.3-.3-.44-.15-.13-.54-.39-1.16-.78-.56-.34-.94-.66-1.17-.95-.22-.29-.37-.63-.45-1.02-.07-.39-.06-.79.05-1.19.12-.47.34-.86.65-1.18.31-.32.68-.52,1.1-.61.42-.09.91-.06,1.46.08.82.22,1.41.61,1.75,1.18.34.57.42,1.28.23,2.12l-1.44-.3c.06-.48,0-.83-.15-1.07-.16-.24-.43-.41-.81-.51-.38-.1-.7-.1-.94,0-.25.11-.4.28-.47.51-.06.23-.02.45.13.66.15.21.53.5,1.15.87.66.4,1.11.75,1.37,1.06.26.31.42.67.49,1.07.07.4.04.86-.1,1.38-.2.74-.59,1.31-1.18,1.69-.59.38-1.37.45-2.35.19-1.72-.46-2.42-1.69-2.09-3.7Z"/>
        <path class="cls-5" d="M109.55,257.02l1.47-7.21-2.11-.43.3-1.47,5.65,1.16-.3,1.47-2.11-.43-1.47,7.21-1.43-.29Z"/>
        <path class="cls-5" d="M113.73,254.51c.1-.62.31-1.17.63-1.64.33-.47.71-.8,1.15-1,.44-.19.9-.25,1.4-.17.84.13,1.44.56,1.82,1.29s.5,1.53.36,2.41c-.1.65-.32,1.22-.65,1.71-.33.49-.72.83-1.16,1.03-.44.2-.91.27-1.39.19-.77-.12-1.37-.51-1.78-1.18s-.54-1.55-.37-2.64ZM115.13,254.82c-.1.64-.05,1.15.15,1.52.2.37.48.58.83.63.35.05.67-.06.97-.36.3-.29.5-.76.6-1.41.1-.63.05-1.13-.15-1.5s-.47-.58-.83-.64c-.35-.05-.67.07-.97.36-.3.29-.5.76-.6,1.4Z"/>
        <path class="cls-5" d="M120.03,252.3l.77.09.05-.48c.07-.58.17-.99.31-1.24.14-.25.34-.43.6-.55.26-.12.58-.16.94-.12.39.04.77.16,1.13.35l-.31,1.15c-.22-.09-.43-.15-.63-.17-.2-.02-.35.02-.45.12-.1.1-.17.32-.21.65l-.05.45,1.03.12-.15,1.33-1.03-.12-.57,5.05-1.39-.16.57-5.05-.77-.09.15-1.33Z"/>
        <path class="cls-5" d="M127.11,256.14l.1-1.5,3.15.2-.22,3.52c-.34.35-.81.65-1.41.88-.6.23-1.19.33-1.78.29-.72-.05-1.33-.26-1.86-.65s-.92-.94-1.2-1.66-.38-1.56-.32-2.5c.06-.97.28-1.79.64-2.46.37-.67.82-1.16,1.36-1.47.54-.31,1.17-.44,1.89-.39.86.05,1.54.32,2.03.79.49.47.79,1.14.88,2l-1.47.24c-.08-.46-.26-.82-.53-1.08-.27-.26-.61-.4-1.01-.43-.62-.04-1.14.17-1.56.63-.42.46-.66,1.19-.72,2.18-.07,1.06.09,1.89.47,2.47.33.5.8.77,1.41.81.29.02.59-.03.9-.15.32-.11.6-.28.86-.5l.07-1.12-1.68-.11Z"/>
        <path class="cls-5" d="M131.78,259.61v-8.85s5.38,0,5.38,0v1.5s-3.92,0-3.92,0v1.96s3.65,0,3.65,0v1.49s-3.65,0-3.65,0v2.4s4.06,0,4.06,0v1.5s-5.52,0-5.52,0Z"/>
        <path class="cls-5" d="M138.32,255.22c-.07-1.05.03-1.93.3-2.63.27-.7.64-1.23,1.12-1.6.48-.37,1.08-.57,1.79-.62,1.04-.07,1.91.28,2.61,1.03.7.75,1.1,1.85,1.2,3.32.1,1.48-.18,2.66-.81,3.53-.56.78-1.36,1.2-2.4,1.26-1.05.07-1.9-.24-2.55-.93-.74-.79-1.16-1.91-1.26-3.36ZM139.82,255.07c.07,1.02.31,1.77.73,2.25.42.48.91.71,1.49.67.58-.04,1.04-.32,1.38-.85.35-.53.49-1.31.42-2.36-.07-1.02-.3-1.77-.7-2.24-.4-.47-.9-.68-1.49-.64-.6.04-1.06.32-1.41.83-.34.52-.48,1.3-.41,2.33Z"/>
        <path class="cls-5" d="M147.13,258.97l-1.15-8.78,3.06-.4c.78-.1,1.35-.1,1.71.02.36.11.67.35.93.71.27.36.44.81.51,1.36.09.69,0,1.26-.28,1.72-.27.46-.71.79-1.3.97.34.18.63.39.87.63.24.24.58.68,1.02,1.32l1.1,1.6-1.73.23-1.3-1.77c-.47-.64-.78-1.04-.94-1.2-.16-.16-.32-.26-.48-.3-.16-.05-.41-.05-.74,0l-.3.04.48,3.66-1.45.19ZM147.92,253.71l1.08-.14c.66-.09,1.07-.17,1.25-.25.17-.08.3-.22.39-.41.09-.19.11-.43.08-.72-.04-.28-.12-.5-.26-.65-.13-.16-.3-.25-.5-.29-.14-.03-.54,0-1.19.09l-1.14.15.29,2.23Z"/>
        <path class="cls-5" d="M157.42,254.08l-.29-1.47,3.1-.62.69,3.46c-.24.43-.62.83-1.14,1.21-.52.38-1.07.62-1.64.74-.7.14-1.36.09-1.96-.15-.61-.24-1.13-.67-1.58-1.3-.45-.63-.77-1.41-.95-2.34-.19-.96-.19-1.8,0-2.55.18-.74.5-1.33.94-1.77.44-.44,1.02-.72,1.72-.86.85-.17,1.57-.09,2.17.24s1.05.9,1.36,1.71l-1.36.61c-.19-.43-.46-.73-.79-.91-.33-.18-.69-.23-1.09-.15-.61.12-1.06.46-1.35,1.01-.28.55-.33,1.31-.14,2.29.21,1.05.57,1.8,1.09,2.27.44.4.97.54,1.57.42.28-.06.56-.18.83-.37.28-.19.51-.43.7-.7l-.22-1.1-1.65.33Z"/>
        <path class="cls-5" d="M162.69,256.24l-2.13-8.59,1.42-.35,2.13,8.59-1.42.35Z"/>
        <path class="cls-5" d="M171.98,253.66l-1.52.45-1.18-1.74-2.79.82v2.09s-1.5.44-1.5.44l.21-9.29,1.49-.44,5.29,7.67ZM168.41,251.06l-1.89-2.87v3.43s1.89-.56,1.89-.56Z"/>
        <path class="cls-5" d="M172.92,253.29l-.55-1.61,1.31-.45.55,1.6-1.31.45Z"/>
        <path class="cls-5" d="M178.97,247.57h1.52c.16.99.08,1.8-.23,2.42-.31.61-.82,1.06-1.52,1.33-.88.35-1.73.29-2.54-.17-.94-.53-1.67-1.47-2.19-2.8-.55-1.41-.67-2.63-.35-3.67.28-.91.88-1.54,1.81-1.91.76-.3,1.49-.29,2.21.03.51.22.99.66,1.44,1.32l-1.19.92c-.26-.41-.57-.69-.92-.82-.35-.14-.7-.14-1.05,0-.5.2-.82.57-.96,1.13-.14.56-.02,1.34.37,2.34.41,1.04.85,1.71,1.33,2.03.48.32.96.38,1.46.19.36-.14.62-.4.77-.79.15-.38.17-.9.04-1.55Z"/>
        <path class="cls-5" d="M180.83,245.61c-.45-.95-.68-1.8-.69-2.55,0-.75.14-1.38.45-1.9.31-.52.79-.93,1.44-1.23.94-.44,1.87-.45,2.8-.01s1.71,1.32,2.34,2.64c.63,1.34.82,2.53.55,3.58-.23.93-.82,1.61-1.77,2.06-.95.45-1.85.47-2.72.07-.98-.46-1.78-1.34-2.41-2.66ZM182.17,244.91c.44.92.94,1.53,1.5,1.82.57.3,1.11.32,1.63.08.52-.25.85-.68.97-1.3.13-.62-.03-1.4-.48-2.35-.44-.93-.93-1.54-1.47-1.82-.54-.29-1.08-.3-1.62-.05-.54.25-.87.69-1,1.29-.13.61.03,1.38.48,2.32Z"/>
        <path class="cls-5" d="M190.44,245.84l-4.35-7.71,1.91-1.08,4.12,4.62-1.83-5.91,1.92-1.08,4.35,7.71-1.19.67-3.43-6.07,2.17,6.79-1.23.69-4.68-5.37,3.43,6.07-1.19.67Z"/>
      </g>
      <g>
        <path class="cls-5" d="M71.94,25.07l-.74-1.3,2.75-1.55,1.73,3.07c-.09.48-.33.98-.7,1.51s-.82.93-1.33,1.22c-.62.35-1.26.51-1.91.47-.65-.04-1.29-.28-1.91-.74-.62-.45-1.17-1.1-1.64-1.92-.48-.85-.75-1.65-.81-2.42-.06-.76.05-1.42.34-1.97.28-.55.74-1.01,1.37-1.36.75-.43,1.47-.57,2.14-.45.67.13,1.28.53,1.83,1.2l-1.1,1c-.32-.34-.66-.55-1.03-.62-.37-.07-.73,0-1.08.2-.54.31-.87.77-.96,1.38-.1.61.1,1.35.58,2.22.52.93,1.1,1.53,1.74,1.81.55.24,1.09.21,1.62-.09.25-.14.47-.34.68-.61.2-.27.35-.56.45-.88l-.55-.98-1.46.83Z"/>
        <path class="cls-5" d="M77.36,25.81l-3.88-7.96,4.84-2.36.66,1.35-3.53,1.72.86,1.76,3.28-1.6.65,1.34-3.28,1.6,1.05,2.16,3.65-1.78.66,1.35-4.96,2.42Z"/>
        <path class="cls-5" d="M81.4,18.99c-.4-.97-.59-1.84-.57-2.59s.21-1.38.54-1.88c.34-.5.84-.89,1.5-1.16.96-.4,1.89-.36,2.8.12.91.48,1.64,1.4,2.2,2.75.57,1.37.69,2.57.37,3.61-.28.91-.9,1.57-1.86,1.97-.97.4-1.88.38-2.72-.06-.96-.5-1.72-1.43-2.27-2.77ZM82.78,18.36c.39.94.86,1.57,1.41,1.89.55.32,1.09.37,1.62.15.53-.22.88-.64,1.03-1.25.16-.61.03-1.4-.37-2.37-.39-.95-.85-1.58-1.38-1.89-.53-.31-1.07-.35-1.62-.12-.55.23-.91.64-1.06,1.24-.16.6-.04,1.38.36,2.34Z"/>
        <path class="cls-5" d="M90.52,20l-2.88-8.37,2.92-1c.75-.26,1.31-.37,1.68-.33.37.04.72.21,1.06.51.33.3.59.71.77,1.23.23.65.25,1.24.07,1.74-.18.51-.54.91-1.08,1.21.37.11.7.26.98.45.28.19.7.55,1.26,1.09l1.4,1.35-1.65.57-1.63-1.48c-.59-.54-.98-.86-1.16-.98-.19-.12-.36-.19-.53-.2-.17-.01-.41.04-.73.15l-.29.1,1.2,3.49-1.38.48ZM90.24,14.69l1.03-.35c.63-.22,1.02-.38,1.17-.5.15-.11.25-.27.3-.48.05-.2.03-.45-.07-.72-.09-.27-.22-.46-.38-.59-.16-.13-.35-.19-.55-.19-.14,0-.53.11-1.15.32l-1.08.38.73,2.12Z"/>
        <path class="cls-5" d="M99.72,13.65l-.39-1.45,3.05-.83.92,3.4c-.21.44-.56.87-1.05,1.29-.49.41-1.02.7-1.59.85-.69.19-1.35.18-1.97-.02-.62-.2-1.18-.59-1.67-1.19-.49-.6-.86-1.35-1.11-2.27-.25-.94-.31-1.79-.18-2.54.13-.75.4-1.36.81-1.83.41-.46.96-.79,1.66-.98.84-.23,1.56-.19,2.18.09.62.29,1.11.83,1.48,1.61l-1.31.7c-.22-.41-.51-.7-.85-.85-.34-.16-.71-.18-1.1-.08-.6.16-1.03.53-1.27,1.1-.25.57-.24,1.33.02,2.29.28,1.03.69,1.76,1.24,2.18.47.37,1,.47,1.59.31.28-.07.54-.22.81-.43.26-.21.48-.46.65-.75l-.29-1.08-1.62.44Z"/>
        <path class="cls-5" d="M104.83,15.69l-2-8.62,1.42-.33,1.99,8.62-1.42.33Z"/>
        <path class="cls-5" d="M113.96,13.84l-1.56.29-1-1.85-2.86.54-.22,2.08-1.53.29,1.14-9.22,1.53-.29,4.5,8.16ZM110.66,10.9l-1.59-3.04-.36,3.41,1.95-.37Z"/>
        <path class="cls-5" d="M116.04,4.62l2.89-.31c.79-.08,1.35-.07,1.69.04.34.11.63.34.89.68.26.34.41.74.46,1.2.04.42,0,.82-.16,1.18-.15.36-.37.64-.66.84.44.11.81.33,1.09.67.28.34.45.78.51,1.31.07.64-.03,1.2-.29,1.67-.26.48-.6.79-1,.94-.29.1-.96.21-2.02.32l-2.46.26-.94-8.8ZM117.65,5.93l.22,2.04.96-.1c.58-.06.93-.11,1.07-.14.24-.07.43-.19.55-.38.12-.19.17-.42.14-.72-.03-.26-.11-.46-.24-.61-.13-.15-.28-.24-.45-.26-.17-.02-.63,0-1.4.09l-.84.09ZM118.02,9.43l.25,2.35,1.35-.14c.59-.06.97-.13,1.13-.22.16-.08.29-.22.39-.41s.13-.43.1-.71c-.03-.29-.12-.52-.26-.69-.14-.17-.32-.28-.53-.33-.21-.05-.63-.04-1.25.03l-1.18.13Z"/>
        <path class="cls-5" d="M123.72,3.86l1.46-.07.22,4.79c.03.74.07,1.23.12,1.45.08.39.25.68.5.88.25.2.58.29.98.28.34-.02.61-.1.82-.26.21-.16.34-.38.41-.65.07-.27.08-.85.04-1.73l-.23-4.89,1.46-.07.21,4.64c.06,1.19.03,2.05-.07,2.58-.1.54-.37.98-.8,1.32-.43.35-1.01.54-1.74.57-.76.03-1.35-.07-1.79-.33-.44-.25-.76-.62-.98-1.1-.21-.48-.35-1.39-.41-2.71l-.22-4.72Z"/>
        <path class="cls-5" d="M130.98,9.52l1.43-.15c.15,1.13.67,1.71,1.56,1.72.44,0,.79-.11,1.05-.33.26-.23.39-.51.39-.85,0-.2-.04-.37-.13-.51-.09-.14-.22-.26-.4-.35-.18-.09-.62-.25-1.31-.47-.62-.2-1.08-.41-1.36-.63-.29-.23-.51-.52-.68-.88-.17-.36-.25-.75-.24-1.17,0-.48.12-.92.34-1.3.22-.38.53-.67.92-.86.39-.19.87-.28,1.43-.28.85,0,1.52.25,1.99.72.47.47.72,1.13.74,2l-1.47.06c-.06-.48-.19-.81-.4-1s-.51-.29-.91-.29c-.39,0-.7.07-.92.24-.21.16-.32.37-.33.61,0,.24.09.44.28.61.19.17.63.35,1.33.56.73.22,1.26.45,1.59.69.33.24.57.55.74.92.17.37.25.83.24,1.36,0,.77-.25,1.41-.73,1.93s-1.22.77-2.23.76c-1.78-.02-2.76-1.04-2.94-3.07Z"/>
        <path class="cls-5" d="M137.95,12.56l.46-8.84,1.46.07-.46,8.84-1.46-.08Z"/>
        <path class="cls-5" d="M140.74,12.69l.82-8.81,1.42.13,2.41,6.16.55-5.89,1.36.13-.82,8.81-1.47-.14-2.37-6.02-.54,5.75-1.36-.13Z"/>
        <path class="cls-5" d="M147.89,13.4l1.33-8.75,5.33.81-.23,1.48-3.88-.59-.3,1.94,3.61.55-.22,1.48-3.61-.55-.36,2.38,4.01.61-.22,1.48-5.46-.83Z"/>
        <path class="cls-5" d="M154.68,11.54l1.43.13c-.07,1.14.33,1.8,1.2,1.99.43.09.8.05,1.09-.12.29-.18.48-.43.55-.76.04-.2.03-.37-.03-.53-.06-.16-.17-.3-.32-.42-.16-.13-.56-.36-1.2-.72-.57-.31-.98-.61-1.21-.88-.24-.28-.4-.61-.5-1-.09-.39-.1-.78-.01-1.19.1-.47.3-.87.59-1.21.29-.33.65-.56,1.07-.67s.91-.11,1.46,0c.83.18,1.44.54,1.81,1.09.37.55.49,1.25.34,2.1l-1.45-.22c.03-.48-.03-.83-.2-1.06-.17-.23-.45-.38-.83-.47-.39-.08-.7-.06-.94.05-.24.12-.39.3-.44.54-.05.23,0,.45.16.65.16.2.55.47,1.2.81.68.36,1.15.69,1.42.99.27.3.46.65.55,1.05.09.4.08.86-.02,1.38-.16.75-.52,1.34-1.09,1.75-.57.42-1.35.52-2.33.31-1.74-.37-2.5-1.56-2.28-3.58Z"/>
        <path class="cls-5" d="M161.31,12.95l1.43.21c-.14,1.13.22,1.82,1.09,2.05.43.11.79.09,1.1-.06.31-.16.5-.4.59-.73.05-.19.05-.37,0-.53-.05-.16-.15-.31-.3-.44-.15-.13-.54-.39-1.15-.78-.55-.34-.94-.66-1.17-.95-.22-.29-.37-.63-.44-1.02-.07-.39-.05-.79.05-1.19.12-.47.34-.86.66-1.17.31-.32.68-.52,1.1-.61.42-.09.91-.06,1.46.08.82.22,1.41.62,1.75,1.19.34.57.42,1.28.22,2.12l-1.44-.3c.06-.48.01-.83-.14-1.07s-.43-.41-.81-.51c-.38-.1-.7-.1-.95,0-.25.1-.4.27-.47.51-.06.23-.02.45.12.66s.53.5,1.15.87c.66.4,1.11.75,1.37,1.06s.42.67.49,1.07c.07.4.04.86-.1,1.38-.2.74-.59,1.31-1.19,1.69-.59.38-1.37.44-2.35.18-1.72-.46-2.41-1.7-2.08-3.7Z"/>
        <path class="cls-5" d="M175.37,10.95l1.38.48-1.85,5.29c-.3.85-.61,1.46-.92,1.82-.32.36-.68.59-1.1.7-.42.11-.88.07-1.37-.1-.66-.23-1.09-.63-1.31-1.22-.21-.58-.17-1.33.15-2.24l1.37.27c-.16.5-.21.87-.17,1.11.05.33.22.55.52.65.29.1.54.08.75-.08.21-.15.43-.58.68-1.28l1.88-5.4Z"/>
        <path class="cls-5" d="M176.58,16.11c.4-.98.88-1.72,1.43-2.23.55-.51,1.12-.83,1.71-.94.59-.12,1.22-.04,1.88.23.96.4,1.59,1.08,1.9,2.07.3.98.17,2.15-.38,3.51-.56,1.37-1.33,2.31-2.28,2.82-.84.45-1.75.48-2.71.08-.97-.4-1.6-1.05-1.88-1.96-.32-1.04-.21-2.22.35-3.57ZM178,16.63c-.39.94-.5,1.72-.34,2.34s.51,1.04,1.04,1.25c.53.22,1.07.17,1.61-.15.54-.32,1.01-.97,1.41-1.94.39-.95.51-1.72.36-2.32-.15-.59-.51-1.01-1.06-1.23-.55-.23-1.1-.18-1.63.13-.53.31-1,.95-1.4,1.91Z"/>
        <path class="cls-5" d="M186.21,15.3l1.31.64-2.1,4.31c-.33.67-.52,1.11-.59,1.33-.11.38-.11.72.02,1.02.13.3.37.53.73.71.3.15.59.2.85.16.26-.04.48-.17.67-.37.19-.21.47-.71.86-1.5l2.14-4.4,1.31.64-2.03,4.18c-.52,1.07-.95,1.81-1.3,2.23s-.79.68-1.33.78c-.54.1-1.14,0-1.8-.33-.68-.33-1.15-.71-1.42-1.14-.26-.43-.37-.91-.33-1.44.04-.53.35-1.39.93-2.58l2.07-4.25Z"/>
        <path class="cls-5" d="M188.79,26.45l4.34-7.72,2.69,1.51c.69.39,1.14.73,1.36,1.04s.32.68.32,1.13c0,.45-.14.91-.41,1.39-.34.6-.76,1.01-1.25,1.21-.5.21-1.04.21-1.62,0,.16.35.27.69.32,1.03.05.33.06.89.03,1.67l-.08,1.94-1.52-.86.02-2.2c0-.79,0-1.3-.04-1.52-.03-.22-.1-.4-.2-.53-.1-.13-.3-.28-.59-.45l-.26-.15-1.81,3.22-1.27-.71ZM192.57,22.71l.95.53c.58.33.96.51,1.15.55.19.04.37,0,.56-.09.19-.1.35-.28.49-.53.14-.25.2-.47.18-.68-.01-.2-.09-.38-.23-.53-.1-.1-.43-.32-1-.64l-1-.56-1.1,1.96Z"/>
        <path class="cls-5" d="M195.06,30.02l4.79-7.44,1.2.77-.7,6.58,3.2-4.97,1.15.74-4.79,7.44-1.24-.8.67-6.44-3.12,4.86-1.15-.74Z"/>
        <path class="cls-5" d="M206.34,37.79l-1.28-.94.67-1.99-2.35-1.71-1.67,1.26-1.26-.92,7.51-5.48,1.25.92-2.87,8.86ZM206.23,33.37l1.13-3.24-2.73,2.07,1.6,1.17Z"/>
        <path class="cls-5" d="M206.86,38.24l5.56-6.79,1.13.93-4.61,5.63,2.82,2.31-.95,1.16-3.95-3.24Z"/>
      </g>
    </g>
  </g>
</svg>