<?xml version="1.0" encoding="UTF-8"?>
<svg id="Layer_1" data-name="Layer 1" xmlns="http://www.w3.org/2000/svg" xmlns:xlink="http://www.w3.org/1999/xlink" viewBox="0 0 265 265">
  <defs>
    <style>
      .cls-1 {
        fill: url(#New_Gradient_Swatch_copy);
      }

      .cls-2 {
        fill: url(#linear-gradient-2);
      }

      .cls-3, .cls-4 {
        fill: #fff;
      }

      .cls-5 {
        fill: #595a5c;
      }

      .cls-6 {
        fill: url(#radial-gradient-3);
        opacity: .25;
      }

      .cls-7 {
        fill: url(#New_Gradient_Swatch_copy_2);
      }

      .cls-8 {
        fill: url(#radial-gradient);
      }

      .cls-9 {
        filter: url(#drop-shadow-1);
      }

      .cls-10 {
        fill: url(#radial-gradient-2);
      }

      .cls-4 {
        stroke: #58595b;
        stroke-miterlimit: 10;
      }

      .cls-11 {
        fill: #ed1f36;
      }

      .cls-12 {
        fill: url(#linear-gradient);
      }
    </style>
    <radialGradient id="radial-gradient" cx="132.5" cy="132.5" fx="132.5" fy="132.5" r="109.33" gradientUnits="userSpaceOnUse">
      <stop offset=".52" stop-color="#2184b7"/>
      <stop offset="1" stop-color="#223a73"/>
    </radialGradient>
    <radialGradient id="radial-gradient-2" cx="132.5" cy="132.5" fx="132.5" fy="132.5" r="109.04" gradientUnits="userSpaceOnUse">
      <stop offset="0" stop-color="#2b6a9f"/>
      <stop offset="1" stop-color="#1f78aa"/>
    </radialGradient>
    <linearGradient id="New_Gradient_Swatch_copy_2" data-name="New Gradient Swatch copy 2" x1="116.97" y1="41.35" x2="148.03" y2="41.35" gradientUnits="userSpaceOnUse">
      <stop offset="0" stop-color="#b22a30"/>
      <stop offset="1" stop-color="#ec1b34"/>
    </linearGradient>
    <linearGradient id="New_Gradient_Swatch_copy" data-name="New Gradient Swatch copy" x1="132.5" y1="15.98" x2="132.5" y2="249.02" gradientUnits="userSpaceOnUse">
      <stop offset="0" stop-color="#fefefe"/>
      <stop offset="1" stop-color="#929497"/>
    </linearGradient>
    <linearGradient id="linear-gradient" x1="132.51" y1="136.07" x2="132.51" y2="1.83" gradientUnits="userSpaceOnUse">
      <stop offset="0" stop-color="#fefefe"/>
      <stop offset=".72" stop-color="#cacbcd"/>
    </linearGradient>
    <linearGradient id="linear-gradient-2" x1="132.5" y1="263.17" x2="132.5" y2="130.1" gradientUnits="userSpaceOnUse">
      <stop offset="0" stop-color="#f0f0f1"/>
      <stop offset=".7" stop-color="#414142"/>
    </linearGradient>
    <radialGradient id="radial-gradient-3" cx="131.78" cy="132.01" fx="131.78" fy="132.01" r="108.89" gradientUnits="userSpaceOnUse">
      <stop offset=".9" stop-color="#000" stop-opacity="0"/>
      <stop offset="1" stop-color="#000" stop-opacity=".5"/>
    </radialGradient>
    <filter id="drop-shadow-1" x="45.5" y="75.5" width="172" height="120" filterUnits="userSpaceOnUse">
      <feOffset dx="2" dy="2"/>
      <feGaussianBlur result="blur" stdDeviation="2"/>
      <feFlood flood-color="#000" flood-opacity=".75"/>
      <feComposite in2="blur" operator="in"/>
      <feComposite in="SourceGraphic"/>
    </filter>
  </defs>
  <g id="FL_-_2022" data-name="FL - 2022">
    <g id="Circles">
      <circle class="cls-8" cx="132.5" cy="132.5" r="109.33"/>
      <polygon class="cls-10" points="132.5 23.46 136.06 96.33 153.77 25.56 143.05 97.72 174.22 31.76 149.63 100.44 193.08 41.84 155.56 104.4 209.6 55.4 160.6 109.44 223.16 71.92 164.56 115.37 233.24 90.78 167.28 121.95 239.44 111.23 168.67 128.94 241.54 132.5 168.67 136.06 239.44 153.77 167.28 143.05 233.24 174.22 164.56 149.63 223.16 193.08 160.6 155.56 209.6 209.6 155.56 160.6 193.08 223.16 149.63 164.56 174.22 233.24 143.05 167.28 153.77 239.44 136.06 168.67 132.5 241.54 128.94 168.67 111.23 239.44 121.95 167.28 90.78 233.24 115.37 164.56 71.92 223.16 109.44 160.6 55.4 209.6 104.4 155.56 41.84 193.08 100.44 149.63 31.76 174.22 97.72 143.05 25.56 153.77 96.33 136.06 23.46 132.5 96.33 128.94 25.56 111.23 97.72 121.95 31.76 90.78 100.44 115.37 41.84 71.92 104.4 109.44 55.4 55.4 109.44 104.4 71.92 41.84 115.37 100.44 90.78 31.76 121.95 97.72 111.23 25.56 128.94 96.33 132.5 23.46"/>
      <g>
        <path class="cls-4" d="M171.18,210.66c0-3.71-3.01-6.72-6.72-6.72h-55.33c-3.71,0-6.72,3.01-6.72,6.72s3.01,6.72,6.72,6.72h52.03c.79.47,2.32,2.14,1.47,4.9,0,0,2.64-1.7,2.21-4.92,3.53-.2,6.34-3.12,6.34-6.7Z"/>
        <g>
          <path class="cls-5" d="M109.91,206.21l-.25,2.03h1.13l.26-2.03h1.13l-.26,2.03h.85v1.31h-1l-.19,1.42h.85v1.31h-1l-.26,2.03h-1.13l.26-2.03h-1.14l-.25,2.03h-1.13l.26-2.03h-.86v-1.31h1.02l.19-1.42h-.85v-1.31h1l.26-2.03h1.12ZM109.5,209.54l-.18,1.42h1.13l.19-1.42h-1.14Z"/>
          <path class="cls-11" d="M115.05,205.97v6.96h2.98v1.38h-4.66v-8.33h1.68Z"/>
          <path class="cls-11" d="M120.96,214.47c-1.54,0-2.44-.61-2.44-3.3,0-2.51.91-3.3,2.49-3.3,1.7,0,2.46.79,2.46,3.29,0,2.71-1.05,3.32-2.51,3.32ZM120.99,208.96c-.82,0-.86.97-.86,2.21,0,1.37.11,2.21.86,2.21.64,0,.86-.61.86-2.21s-.22-2.21-.86-2.21Z"/>
          <path class="cls-11" d="M125.65,208.03l.9,4.49h.02l.85-4.49h1.61l-1.58,6.28h-1.87l-1.62-6.28h1.68Z"/>
          <path class="cls-11" d="M134.19,211.05v.36h-3.19v.46c0,.63.13,1.52.79,1.51.6-.01.77-.46.85-1.18h1.45c-.06,1.41-.69,2.28-2.28,2.28-2.22,0-2.43-1.58-2.43-3.35s.4-3.26,2.5-3.26c1.74,0,2.3,1.03,2.3,3.19ZM132.65,210.45c-.01-1.21-.32-1.49-.82-1.49-.72,0-.83.83-.83,1.25v.25h1.65Z"/>
          <path class="cls-5" d="M139.74,205.97v1.38h-2.98v1.96h2.8v1.38h-2.8v3.62h-1.68v-8.33h4.66Z"/>
          <path class="cls-5" d="M142.11,205.97v8.33h-1.61v-8.33h1.61Z"/>
          <path class="cls-5" d="M145.47,214.47c-1.54,0-2.44-.61-2.44-3.3,0-2.51.91-3.3,2.49-3.3,1.7,0,2.46.79,2.46,3.29,0,2.71-1.05,3.32-2.51,3.32ZM145.51,208.96c-.82,0-.86.97-.86,2.21,0,1.37.11,2.21.86,2.21.64,0,.86-.61.86-2.21s-.22-2.21-.86-2.21Z"/>
          <path class="cls-5" d="M152.15,207.89v1.54c-.13-.01-.3-.02-.48-.02-.75,0-1.21.43-1.21,1.11v3.79h-1.61v-6.28h1.54v.84h.02c.36-.67.84-1,1.45-1,.09,0,.2.01.29.02Z"/>
          <path class="cls-5" d="M154.4,205.88v1.38h-1.61v-1.38h1.61ZM154.4,208.03v6.28h-1.61v-6.28h1.61Z"/>
          <path class="cls-5" d="M160.3,205.97v8.33h-1.54v-.67h-.02c-.34.56-.76.83-1.42.83-1.48,0-1.93-1.26-1.93-3.3s.43-3.3,1.93-3.3c.61,0,1.02.25,1.35.75h.02v-2.64h1.61ZM157.84,213.23c.64,0,.85-.53.85-2.07s-.2-2.07-.85-2.07-.84.56-.84,2.07.22,2.07.84,2.07Z"/>
          <path class="cls-5" d="M165.85,209.73v3.46c0,.49.05.76.2,1.12h-1.54c-.07-.12-.13-.34-.2-.65h-.02c-.35.58-.71.82-1.59.82-1.27,0-1.53-1.16-1.53-1.81,0-1.12.42-1.63,1.68-1.97l.74-.2c.53-.14.72-.32.72-.76,0-.53-.25-.77-.75-.77-.46,0-.75.27-.75.83v.16h-1.45v-.12c0-1.31.76-1.97,2.21-1.97,1.59,0,2.28.51,2.28,1.87ZM163.31,213.37c.49,0,.99-.33.99-.95v-1.28c-.17.13-.26.19-.55.29l-.35.13c-.5.19-.7.43-.7.93,0,.56.22.88.61.88Z"/>
        </g>
      </g>
      <g>
        <polygon class="cls-7" points="148.03 55.09 148.03 55.09 148.03 55.09 148.03 13.49 116.97 13.49 116.97 55.09 116.97 55.09 132.5 69.2 148.03 55.09 148.03 55.09 148.03 55.09"/>
        <path class="cls-3" d="M135.76,38.53l-.22.03-.32-.44-7.59.21-.46-.69-7.01.36.31,2.29.14-.06.74-.72.15,1.05,1.46-.1-.15-.56-.41-.31.56-.23h.59v.44l-.41.36.9-.13.54.03.41.26.15-.05.26-.28.18-.08s.44.23.46.31-.21.44-.21.44l.49,1.05h1.92l.49-.41.85-.74.72-.26.85.26-.13.54.32.07.72.1s.24.46.24.44.36.26.36.26l.56.31s.09.7.05.8c-.03.1.17.1.17.1l.27-.32.48.32.39.96-.22,1.44s-.09,1.44-.07,1.54c.02.1.58.55.58.55l.19-.12.07-.38.51-.31v1.08l-.39.38-.26.15-.07.58.46.94.44.26.36-.22.72-.19s.43.51.43.56-.34.48-.34.48c0,0-.46.09-.51.12-.05.03-.02.51-.02.51l.21.26.55-.1.53-.5.99,2.02.56.09.89.17v.38l-.31.38-.26.29.09.31h.48v.41s-.21.21-.21.26.21.34.21.34l1.25-.14.72-.7s-.05-.41,0-.46c.05-.05,0-.31,0-.31l-.09-.87.48-.51.48-.43-.07-1.44-.75-2.38-2.6-4.22.09-.24.55.19.03-.29-1.47-1.4s.41-.21.43-.26c.02-.05-1.32-2.6-1.32-2.6l-.07-1.4-.24-.94-1.57-.09-.27,1.23Z"/>
      </g>
      <path class="cls-1" d="M132.5,15.98c-64.35,0-116.52,52.17-116.52,116.52s52.17,116.52,116.52,116.52,116.52-52.17,116.52-116.52S196.85,15.98,132.5,15.98ZM132.5,241.83c-60.38,0-109.33-48.95-109.33-109.33S72.12,23.17,132.5,23.17s109.33,48.95,109.33,109.33-48.95,109.33-109.33,109.33Z"/>
      <g>
        <path class="cls-12" d="M16.65,132.5c0-63.98,51.87-115.85,115.85-115.85s115.85,51.87,115.85,115.85c0,1.2-.02,2.38-.06,3.57l14.85-5.93s0-.23,0-.27C261.74,58.91,203.78,1.83,132.5,1.83S3.39,59.26,1.87,130.1l14.84,5.96c-.04-1.18-.06-2.37-.06-3.56Z"/>
        <path class="cls-2" d="M263.14,130.12l-14.85,5.95c-1.89,62.33-53,112.28-115.79,112.28S18.59,198.4,16.71,136.06l-14.84-5.96c-.02.95-.04,1.44-.04,2.4,0,72.17,58.5,130.67,130.67,130.67s130.67-58.5,130.67-130.67c0-.83,0-1.55-.02-2.38Z"/>
      </g>
    </g>
    <circle class="cls-6" cx="131.78" cy="132.01" r="108.89"/>
    <g id="Best_Of_GA_2022" data-name="Best Of GA 2022" class="cls-9">
      <g>
        <path class="cls-3" d="M91.07,80.48c3.84,0,5.94,1.77,5.94,5.4,0,2.34-1.05,4.08-3.24,4.71v.06c2.52.36,3.9,2.25,3.9,4.98,0,4.05-2.37,6.27-6.54,6.27h-7.44v-21.41h7.38ZM88.01,89.27h.57c2.22,0,4.11-.09,4.11-2.82,0-2.01-.9-2.79-3.06-2.79h-1.62v5.61ZM88.01,98.71h1.71c2.76,0,3.45-1.47,3.45-3.24,0-2.16-1.05-3.21-3.21-3.21h-1.95v6.45Z"/>
        <path class="cls-3" d="M112.33,80.48v3.54h-7.65v5.04h7.2v3.54h-7.2v5.76h7.95v3.54h-12.26v-21.41h11.96Z"/>
        <path class="cls-3" d="M127.51,85.91v.51h-4.14c0-2.16-.75-3.18-2.34-3.18s-2.46.9-2.46,2.49.6,2.22,2.22,2.91l3.3,1.44c2.85,1.23,4.11,2.67,4.11,5.67,0,4.38-2.58,6.57-7.44,6.57-4.47,0-6.81-1.77-6.81-6.45v-.66h4.32v.57c0,2.67,1.05,3.36,2.85,3.36,1.53,0,2.58-.99,2.58-2.64,0-1.32-.3-2.22-1.83-2.82l-2.61-1.05c-2.94-1.17-5.01-2.49-5.01-6.27,0-4.05,2.4-6.3,6.63-6.3s6.63,1.95,6.63,5.85Z"/>
        <path class="cls-3" d="M142.89,80.48v3.54h-4.68v17.87h-4.32v-17.87h-4.68v-3.54h13.67Z"/>
        <path class="cls-3" d="M166.07,91.18c0,6.36-.72,11.12-7.29,11.12s-7.29-4.77-7.29-11.12.69-11.12,7.29-11.12,7.29,4.83,7.29,11.12ZM158.79,99.13c2.7,0,2.97-2.52,2.97-7.95s-.27-7.95-2.97-7.95-2.97,2.61-2.97,7.95.3,7.95,2.97,7.95Z"/>
        <path class="cls-3" d="M180.59,80.48v3.54h-7.65v5.04h7.2v3.54h-7.2v9.29h-4.32v-21.41h11.96Z"/>
      </g>
      <g>
        <path class="cls-3" d="M69.37,109.63v5.6h-12.11v7.98h11.4v5.6h-11.4v14.72h-6.84v-33.9h18.95Z"/>
        <path class="cls-3" d="M79.25,109.63v28.3h12.11v5.6h-18.95v-33.9h6.84Z"/>
        <path class="cls-3" d="M116.76,126.59c0,10.07-1.14,17.62-11.54,17.62s-11.54-7.55-11.54-17.62,1.09-17.62,11.54-17.62,11.54,7.65,11.54,17.62ZM105.22,139.17c4.27,0,4.7-3.99,4.7-12.58s-.43-12.58-4.7-12.58-4.7,4.13-4.7,12.58.47,12.58,4.7,12.58Z"/>
        <path class="cls-3" d="M133.57,109.63c5.46,0,8.88,2.94,8.88,8.74,0,4.84-2.04,7.6-5.65,8.36v.09c4.89.67,5.27,3.42,5.46,10.35.05,1.8-.1,5.27,1.52,6.08v.29h-7.41c-.52-.71-.85-2.28-.9-4.65l-.14-5.46c-.09-2.8-1.47-4.23-3.94-4.23h-3.75v14.34h-6.84v-33.9h12.77ZM130.63,124.45c3.23,0,4.99-1.57,4.99-5.08,0-3.23-1.71-4.7-4.61-4.7h-3.37v9.78h2.99Z"/>
        <path class="cls-3" d="M154.37,109.63v33.9h-6.84v-33.9h6.84Z"/>
        <path class="cls-3" d="M171.23,109.63c10.16,0,10.97,8.5,10.97,16.48,0,10.73-1.95,17.43-11.4,17.43h-11.02v-33.9h11.44ZM169.81,138.5c4.56,0,5.56-2.99,5.56-12.2,0-7.69-.67-11.63-5.84-11.63h-2.9v23.84h3.18Z"/>
        <path class="cls-3" d="M200.15,109.63l8.98,33.9h-7.12l-1.57-7.17h-9.02l-1.57,7.17h-7.12l8.97-33.9h8.45ZM195.88,115.52l-3.28,15.24h6.65l-3.28-15.24h-.09Z"/>
      </g>
      <g>
        <path class="cls-3" d="M105.22,159.51c0,5.23-2.12,8.33-5.69,11.64l-3.98,3.67c-2.22,2.07-3.42,3.73-3.93,5.54h13.82v5.79h-22.56c0-3.05.62-5.79,1.81-8.23,1.24-2.48,3.05-4.86,6.26-7.81l2.79-2.59c3.16-2.9,4.04-4.29,4.04-8.54,0-3.16-1.19-4.6-3.62-4.6-2.85,0-4.14,1.71-4.14,7.14h-7.14v-1.19c0-7.71,4.14-10.81,11.38-10.81s10.97,3.47,10.97,9.99Z"/>
        <path class="cls-3" d="M130.67,167.42c0,12.06-1.55,19.46-11.49,19.46-9.26,0-11.49-5.33-11.49-17.9,0-11.59,1.29-19.46,11.49-19.46,8.95,0,11.49,4.81,11.49,17.9ZM115.15,170.73c0,7.81.36,11.28,4.04,11.28,3.31,0,4.04-3.1,4.04-11.64v-5.02c0-8.64-.83-10.97-4.04-10.97-2.95,0-4.04,2.33-4.04,11.64v4.71Z"/>
        <path class="cls-3" d="M154.89,159.51c0,5.23-2.12,8.33-5.69,11.64l-3.98,3.67c-2.22,2.07-3.42,3.73-3.93,5.54h13.82v5.79h-22.56c0-3.05.62-5.79,1.81-8.23,1.24-2.48,3.05-4.86,6.26-7.81l2.79-2.59c3.16-2.9,4.04-4.29,4.04-8.54,0-3.16-1.19-4.6-3.62-4.6-2.85,0-4.14,1.71-4.14,7.14h-7.14v-1.19c0-7.71,4.14-10.81,11.38-10.81s10.97,3.47,10.97,9.99Z"/>
        <path class="cls-3" d="M179.72,159.51c0,5.23-2.12,8.33-5.69,11.64l-3.98,3.67c-2.22,2.07-3.42,3.73-3.93,5.54h13.82v5.79h-22.56c0-3.05.62-5.79,1.81-8.23,1.24-2.48,3.05-4.86,6.26-7.81l2.79-2.59c3.16-2.9,4.04-4.29,4.04-8.54,0-3.16-1.19-4.6-3.62-4.6-2.85,0-4.14,1.71-4.14,7.14h-7.14v-1.19c0-7.71,4.14-10.81,11.38-10.81s10.97,3.47,10.97,9.99Z"/>
      </g>
    </g>
    <g>
      <g>
        <path class="cls-5" d="M91.55,248.23l.55-1.39,2.94,1.16-1.3,3.28c-.43.23-.97.37-1.61.4s-1.24-.05-1.78-.27c-.67-.26-1.19-.66-1.57-1.19s-.59-1.18-.63-1.95c-.04-.77.12-1.6.47-2.48.36-.91.82-1.62,1.37-2.14.56-.52,1.14-.85,1.75-.98.61-.13,1.25-.06,1.92.21.8.32,1.37.78,1.69,1.38.32.6.4,1.33.22,2.18l-1.47-.23c.07-.46.01-.86-.17-1.19-.18-.33-.46-.57-.83-.72-.58-.23-1.14-.19-1.68.12-.54.31-.99.92-1.36,1.85-.39.99-.5,1.82-.31,2.49.16.58.52.98,1.09,1.21.27.11.57.15.9.14.34-.01.66-.08.97-.21l.41-1.04-1.56-.62Z"/>
        <path class="cls-5" d="M97.61,244.55l1.39.45-1.47,4.57c-.23.71-.36,1.18-.39,1.4-.06.39,0,.73.16,1,.17.28.44.48.82.6.32.1.61.12.86.04.25-.08.45-.23.61-.46s.37-.77.64-1.61l1.5-4.66,1.39.45-1.42,4.43c-.36,1.13-.69,1.93-.97,2.39-.28.47-.69.79-1.21.96-.52.18-1.13.15-1.83-.07-.72-.23-1.24-.54-1.56-.93-.32-.39-.5-.85-.53-1.38-.03-.53.16-1.42.56-2.68l1.44-4.5Z"/>
        <path class="cls-5" d="M102.11,255.2l2.33-8.54,1.41.38-2.33,8.54-1.41-.38Z"/>
        <path class="cls-5" d="M107.04,247.39l2.61.59c.66.15,1.14.33,1.44.56.3.22.55.54.76.95.2.41.32.92.36,1.51s-.04,1.3-.23,2.13c-.17.75-.4,1.38-.69,1.89-.29.51-.61.9-.94,1.17s-.7.44-1.1.52c-.4.08-.89.06-1.47-.07l-2.68-.6,1.95-8.64ZM108.13,249.18l-1.29,5.71,1.07.24c.46.1.8.13,1.03.09.23-.04.42-.13.59-.28.17-.14.34-.4.51-.75.17-.36.33-.84.46-1.46.14-.64.21-1.15.21-1.54,0-.39-.08-.71-.22-.96-.14-.25-.33-.45-.59-.57-.19-.1-.57-.21-1.14-.34l-.65-.15Z"/>
        <path class="cls-5" d="M112.59,257.65l1.41-8.74,5.32.86-.24,1.48-3.87-.63-.31,1.94,3.6.58-.24,1.47-3.6-.58-.38,2.37,4.01.65-.24,1.48-5.45-.88Z"/>
        <path class="cls-5" d="M122.66,252.6l-.16,1.34-.94-.11-.3,2.57c-.06.56-.09.88-.07.97.04.17.14.26.31.28.13.01.32-.02.57-.1l-.03,1.32c-.34.13-.71.17-1.11.13-.35-.04-.62-.16-.82-.35-.19-.19-.31-.45-.34-.78-.03-.24,0-.71.08-1.43l.32-2.78-.64-.07.16-1.34.64.07.15-1.27,1.5-.82-.26,2.25.94.11Z"/>
        <path class="cls-5" d="M123.03,255.79c.05-.63.21-1.19.5-1.69.29-.5.64-.86,1.06-1.09.42-.23.88-.32,1.38-.29.84.06,1.48.44,1.91,1.14.43.7.62,1.49.55,2.37-.05.66-.22,1.25-.51,1.76-.29.51-.65.89-1.08,1.12-.43.24-.88.34-1.37.3-.78-.06-1.4-.4-1.87-1.04-.47-.63-.66-1.5-.58-2.6ZM124.45,255.99c-.05.65.04,1.15.27,1.5.23.35.52.54.88.57.35.03.66-.12.94-.43.27-.32.44-.8.48-1.45.05-.64-.04-1.13-.27-1.48-.23-.35-.52-.54-.87-.57-.35-.03-.66.12-.94.44-.28.32-.44.79-.48,1.44Z"/>
        <path class="cls-5" d="M129.61,259.54l.18-8.85,4.97.1-.03,1.5-3.51-.07-.04,2.09,3.04.06-.03,1.5-3.04-.06-.08,3.76-1.46-.03Z"/>
        <path class="cls-5" d="M136.13,259.62l-.3-8.78,1.46-.05.25,7.28,3.65-.12.05,1.5-5.11.17Z"/>
        <path class="cls-5" d="M141.91,255.04c-.1-1.05-.03-1.93.22-2.64.25-.71.6-1.25,1.07-1.63.47-.38,1.06-.6,1.77-.67,1.03-.1,1.91.22,2.64.94.73.73,1.16,1.82,1.3,3.28.14,1.47-.09,2.66-.71,3.55-.53.79-1.32,1.24-2.36,1.33-1.05.1-1.91-.19-2.58-.85-.77-.76-1.22-1.87-1.36-3.32ZM143.41,254.84c.1,1.01.36,1.76.79,2.23.43.47.94.68,1.51.62.57-.05,1.02-.35,1.35-.89s.44-1.33.35-2.37c-.1-1.02-.35-1.76-.77-2.21s-.92-.65-1.51-.6c-.59.06-1.05.35-1.38.88-.33.53-.44,1.31-.34,2.34Z"/>
        <path class="cls-5" d="M150.84,258.51l-1.42-8.74,3.05-.49c.78-.13,1.35-.14,1.71-.04.36.1.68.33.95.68.28.35.46.8.55,1.34.11.68.04,1.26-.22,1.73-.26.47-.68.81-1.27,1.01.35.17.64.37.89.6.25.23.6.66,1.06,1.29l1.15,1.56-1.73.28-1.36-1.73c-.49-.63-.81-1.01-.98-1.17-.16-.15-.33-.25-.49-.29-.16-.04-.41-.03-.74.02l-.3.05.59,3.65-1.44.23ZM151.46,253.24l1.07-.17c.66-.11,1.07-.2,1.24-.29.17-.09.3-.23.38-.42.08-.19.1-.43.05-.72-.04-.28-.14-.49-.27-.64-.14-.15-.31-.24-.51-.28-.14-.02-.54.02-1.18.13l-1.13.18.36,2.22Z"/>
        <path class="cls-5" d="M158.24,257.23l-1.8-8.67,1.43-.3,1.8,8.67-1.43.3Z"/>
        <path class="cls-5" d="M159.11,248.03l2.59-.66c.65-.17,1.17-.22,1.54-.16.37.06.74.23,1.11.51.37.28.7.67,1,1.18.3.51.56,1.18.77,2,.19.74.27,1.41.24,2-.03.59-.13,1.08-.31,1.46s-.43.71-.75.96c-.32.25-.77.46-1.34.6l-2.67.68-2.18-8.58ZM160.89,249.12l1.44,5.68,1.07-.27c.46-.12.78-.24.96-.38.18-.14.32-.31.4-.52.09-.21.12-.51.12-.9,0-.39-.09-.9-.25-1.51-.16-.63-.33-1.12-.51-1.47-.18-.34-.39-.6-.63-.76-.24-.16-.5-.24-.78-.24-.21,0-.6.07-1.17.22l-.64.16Z"/>
        <path class="cls-5" d="M174.95,252.64l-1.51.49-1.22-1.71-2.76.89.05,2.09-1.48.48-.03-9.29,1.48-.48,5.49,7.53ZM171.31,250.14l-1.96-2.82.08,3.43,1.89-.61Z"/>
        <path class="cls-5" d="M175.86,252.25l-.59-1.59,1.3-.48.59,1.59-1.3.49Z"/>
        <path class="cls-5" d="M181.75,246.38l1.52-.05c.18,1,.13,1.81-.17,2.43-.3.62-.79,1.08-1.48,1.37-.87.37-1.72.33-2.54-.11-.95-.51-1.71-1.42-2.26-2.74-.59-1.39-.74-2.61-.44-3.66.26-.91.84-1.57,1.76-1.96.75-.32,1.48-.33,2.21-.03.51.21,1.01.64,1.48,1.28l-1.17.96c-.27-.4-.59-.67-.94-.8-.35-.13-.7-.12-1.05.03-.49.21-.81.6-.94,1.16-.13.56.02,1.34.44,2.33.44,1.03.9,1.69,1.38,2,.49.3.97.35,1.46.15.36-.15.6-.42.75-.8.14-.39.14-.9,0-1.55Z"/>
        <path class="cls-5" d="M183.57,244.37c-.48-.94-.73-1.79-.76-2.54-.03-.75.11-1.39.4-1.91.3-.53.77-.95,1.41-1.27.93-.47,1.86-.5,2.8-.08.94.41,1.74,1.27,2.4,2.58.67,1.32.88,2.51.64,3.57-.21.93-.78,1.63-1.71,2.1-.94.47-1.84.52-2.71.15-.99-.43-1.82-1.29-2.47-2.59ZM184.9,243.64c.46.91.98,1.5,1.55,1.78.57.28,1.12.29,1.63.03.51-.26.83-.7.94-1.32.11-.62-.07-1.4-.54-2.33-.46-.92-.97-1.51-1.52-1.78-.55-.27-1.09-.27-1.62,0-.53.27-.85.71-.97,1.32-.11.61.07,1.38.54,2.31Z"/>
        <path class="cls-5" d="M193.18,244.35l-4.55-7.59,1.88-1.13,4.24,4.51-1.98-5.86,1.89-1.13,4.55,7.59-1.17.7-3.59-5.98,2.34,6.73-1.21.72-4.82-5.24,3.58,5.98-1.17.7Z"/>
      </g>
      <g>
        <path class="cls-5" d="M89.17,16.96l-.53-1.4,2.96-1.11,1.24,3.3c-.17.46-.48.92-.93,1.38-.45.46-.95.79-1.5,1-.67.25-1.32.31-1.96.17-.64-.14-1.23-.48-1.77-1.03-.55-.54-.99-1.26-1.32-2.15-.34-.91-.48-1.75-.42-2.51.06-.76.27-1.39.64-1.9.36-.5.88-.88,1.56-1.13.81-.3,1.54-.34,2.18-.11.64.23,1.18.72,1.62,1.46l-1.24.82c-.26-.39-.57-.64-.93-.77-.36-.12-.72-.12-1.1.03-.58.22-.97.62-1.16,1.21-.19.59-.11,1.35.24,2.28.38,1,.86,1.68,1.44,2.06.5.32,1.04.38,1.61.16.27-.1.52-.27.76-.5.24-.23.43-.5.58-.8l-.39-1.05-1.57.59Z"/>
        <path class="cls-5" d="M91.81,10.05l1.4-.43,1.4,4.59c.22.71.38,1.17.48,1.38.18.35.41.6.71.73s.63.14,1.02.02c.32-.1.57-.25.73-.46.16-.21.24-.45.24-.73s-.13-.84-.39-1.68l-1.43-4.68,1.4-.43,1.36,4.45c.35,1.14.54,1.97.57,2.52.03.54-.11,1.04-.44,1.48-.33.44-.84.77-1.54.99-.72.22-1.33.26-1.81.13-.49-.14-.89-.41-1.22-.83-.33-.42-.68-1.26-1.07-2.52l-1.38-4.52Z"/>
        <path class="cls-5" d="M101.32,16.48l-2.23-8.57,1.41-.37,2.23,8.57-1.42.37Z"/>
        <path class="cls-5" d="M102.1,7.12l2.61-.57c.66-.14,1.17-.18,1.54-.1.37.07.73.26,1.09.54.36.29.68.7.96,1.22.28.52.51,1.2.69,2.03.16.75.22,1.42.17,2-.05.59-.17,1.07-.36,1.45s-.45.69-.78.93c-.33.24-.79.43-1.37.55l-2.69.58-1.88-8.65ZM103.85,8.28l1.24,5.72,1.07-.23c.46-.1.78-.21.97-.35s.33-.3.42-.5c.09-.2.14-.5.15-.9,0-.4-.06-.9-.19-1.52-.14-.64-.29-1.14-.46-1.49-.17-.35-.37-.61-.6-.78-.23-.17-.49-.26-.77-.27-.21,0-.6.05-1.18.17l-.65.14Z"/>
        <path class="cls-5" d="M111.04,14.29l-1.38-8.74,5.32-.84.23,1.48-3.88.61.31,1.94,3.6-.57.23,1.47-3.6.57.38,2.38,4.01-.63.23,1.48-5.45.86Z"/>
        <path class="cls-5" d="M122,12.85l-.6-7.33-2.15.18-.12-1.49,5.75-.47.12,1.49-2.14.17.6,7.33-1.46.12Z"/>
        <path class="cls-5" d="M125.84,8.15c-.03-1.05.11-1.92.4-2.62.29-.69.69-1.21,1.18-1.56.49-.35,1.1-.53,1.82-.55,1.04-.03,1.89.35,2.57,1.12s1.03,1.9,1.07,3.36c.04,1.48-.28,2.65-.95,3.5-.59.75-1.4,1.14-2.45,1.17-1.05.03-1.89-.32-2.52-1.03-.71-.82-1.09-1.95-1.13-3.4ZM127.35,8.05c.03,1.02.24,1.78.64,2.28.4.5.89.74,1.46.73.58-.02,1.05-.28,1.41-.8.37-.51.54-1.29.51-2.34-.03-1.03-.23-1.78-.61-2.26-.38-.48-.87-.71-1.47-.7-.6.02-1.08.28-1.44.78-.36.5-.53,1.27-.5,2.31Z"/>
        <path class="cls-5" d="M136.79,12.44l.48-8.84,4.97.27-.08,1.5-3.51-.19-.12,2.09,3.04.17-.08,1.5-3.04-.17-.21,3.76-1.46-.08Z"/>
        <path class="cls-5" d="M142.88,12.81l.92-8.73,1.45.15-.77,7.24,3.63.38-.16,1.49-5.08-.54Z"/>
        <path class="cls-5" d="M149.29,9.1c.17-1.04.47-1.87.89-2.49s.9-1.06,1.46-1.3,1.18-.31,1.89-.2c1.03.17,1.79.7,2.31,1.59.52.89.66,2.06.42,3.5-.24,1.46-.77,2.55-1.59,3.26-.72.63-1.59.86-2.62.69-1.04-.17-1.8-.67-2.28-1.48-.55-.93-.7-2.12-.47-3.55ZM150.79,9.28c-.17,1-.1,1.79.2,2.36s.73.89,1.3.99c.57.09,1.08-.08,1.54-.51.46-.44.77-1.17.94-2.2.17-1.01.11-1.79-.18-2.34s-.72-.87-1.31-.96c-.59-.1-1.11.07-1.56.5-.45.43-.76,1.15-.93,2.18Z"/>
        <path class="cls-5" d="M156.53,14.78l1.99-8.63,3.01.69c.77.18,1.3.38,1.59.61.29.23.5.56.63.99.12.43.12.91,0,1.45-.16.68-.44,1.18-.86,1.52s-.94.49-1.56.46c.26.29.45.59.59.9.14.31.3.84.5,1.59l.47,1.88-1.7-.39-.6-2.11c-.22-.76-.37-1.25-.46-1.45-.09-.2-.21-.35-.34-.45-.13-.1-.37-.19-.7-.26l-.29-.07-.83,3.6-1.42-.33ZM159.1,10.13l1.06.24c.65.15,1.07.22,1.25.2.19-.02.36-.1.51-.25.15-.15.26-.36.32-.65.06-.27.06-.51-.01-.7-.07-.19-.19-.34-.37-.45-.12-.07-.5-.18-1.14-.33l-1.12-.26-.5,2.19Z"/>
        <path class="cls-5" d="M163.5,16.46l2.34-8.54,1.41.39-2.34,8.54-1.41-.39Z"/>
        <path class="cls-5" d="M168.87,8.74l2.54.81c.64.21,1.11.43,1.39.68s.51.59.67,1.02c.17.43.24.94.22,1.54-.02.6-.15,1.3-.41,2.11-.23.73-.52,1.34-.86,1.82s-.68.85-1.04,1.08c-.35.23-.73.37-1.14.42-.41.04-.9-.02-1.46-.2l-2.62-.84,2.7-8.43ZM169.81,10.61l-1.79,5.58,1.05.34c.45.14.79.2,1.01.18.23-.02.43-.09.62-.22.18-.13.38-.36.58-.71.2-.34.4-.81.59-1.41.2-.62.31-1.13.34-1.52.03-.39-.01-.71-.13-.98-.12-.27-.29-.47-.53-.62-.18-.11-.55-.26-1.11-.44l-.63-.2Z"/>
        <path class="cls-5" d="M179.12,21.77l-1.48-.57.13-2.1-2.71-1.05-1.28,1.65-1.45-.56,5.83-7.23,1.45.56-.49,9.31ZM177.87,17.53l.25-3.42-2.1,2.71,1.85.72Z"/>
      </g>
    </g>
  </g>
</svg>