<?xml version="1.0" encoding="UTF-8"?>
<svg id="Layer_1" data-name="Layer 1" xmlns="http://www.w3.org/2000/svg" xmlns:xlink="http://www.w3.org/1999/xlink" viewBox="0 0 420 419.76">
  <defs>
    <style>
      .cls-1 {
        fill: url(#New_Gradient_Swatch-4);
      }

      .cls-2 {
        fill: url(#New_Gradient_Swatch-2);
      }

      .cls-3 {
        fill: url(#New_Gradient_Swatch);
      }

      .cls-4 {
        fill: url(#New_Gradient_Swatch-3);
      }
    </style>
    <linearGradient id="New_Gradient_Swatch" data-name="New Gradient Swatch" x1="105.25" y1="209.96" x2="315.09" y2="209.96" gradientUnits="userSpaceOnUse">
      <stop offset=".05" stop-color="#b19673"/>
      <stop offset=".47" stop-color="#d7c098"/>
      <stop offset=".95" stop-color="#b39a77"/>
    </linearGradient>
    <linearGradient id="New_Gradient_Swatch-2" data-name="New Gradient Swatch" x1="28.87" y1="242.84" x2="241.05" y2="242.84" xlink:href="#New_Gradient_Swatch"/>
    <linearGradient id="New_Gradient_Swatch-3" data-name="New Gradient Swatch" x1="178.98" y1="176.71" x2="391.13" y2="176.71" xlink:href="#New_Gradient_Swatch"/>
    <linearGradient id="New_Gradient_Swatch-4" data-name="New Gradient Swatch" x1="176.65" y1="209.89" x2="243.42" y2="209.89" xlink:href="#New_Gradient_Swatch"/>
  </defs>
  <path class="cls-3" d="M198.22,105.81c103.65-9.15,158.28,116.91,79.24,184.33-56.32,48.04-144.78,21.74-167.28-47.95-19.93-61.72,22.7-130.61,88.03-136.38ZM202.69,124.54c-68.44,5.5-103.01,87.31-58.77,140.18,37.42,44.73,108.77,39.87,139.21-9.96,36.75-60.16-10.47-135.85-80.44-130.23Z"/>
  <path class="cls-2" d="M209.12,371.32c-3.11-5.28-15.89-13.67-16.93-19.21-1.59-8.43,4.2-13.89,12.52-11.6l33.91,33.04c3.49,4.95,3.1,8.22-.43,12.96-3.51,4.72-25.79,27.08-30.4,30.31-8.84,6.19-18.31-.97-15.24-10.76.86-2.75,14.63-14.38,13.9-15.1-16.43-1.09-32.21-3.16-48.05-7.8C24.33,343.89-16.93,168.61,88.47,75.65c6.02-5.31,17.45-15.57,23-3.32,4.07,8.99-6.19,13.45-11.39,18.48-24.71,23.91-42.09,52.74-48.86,86.81-19.93,100.27,55.88,193.45,157.89,193.7Z"/>
  <path class="cls-4" d="M213.59,28.83c12.53,1.06,24.5,1.96,36.81,4.75,117.73,26.65,176.7,159.94,117.37,265.53-9.27,16.49-27.99,40.31-43.44,51.19-10.15,7.14-20.62-2.28-15.3-11.7,29.92-24.41,51.85-57.52,59.62-95.69,20.44-100.41-55.38-194.29-157.74-194.43,3.43,5.66,16.23,13.64,17.02,20.02,1.14,9.17-7.14,14.69-14.79,9.4-4.13-2.86-28.79-27.49-31.73-31.66-3.49-4.94-3.11-8.21.43-12.96,3.53-4.73,25.77-27.06,30.4-30.31,10.33-7.25,20.14,3.89,13.86,12.94-.99,1.42-13.15,12.29-12.51,12.92Z"/>
  <path class="cls-1" d="M219.94,161.64c5.86,1.11,21.56,7.16,22.95,13.21,1.27,5.49-.79,11.33-6.72,12.54-6.94,1.42-13.52-6.83-22.22-7.72-12.33-1.26-26.91,8.05-11.37,16.69,6.72,3.73,15.98,5.67,22.97,9.19,27.16,13.67,21.83,43.47-5.58,51.74.64,7.48-.15,19.52-10.26,19.18s-9.83-11.26-9.93-18.45c-6.28-2.52-21.55-7-22.78-14.73-.63-3.98.49-7.89,3.97-10.2,7.72-5.15,14.37,4.3,21.85,5.85,11.5,2.38,30.97-5.82,16.75-14.94-9.65-6.19-22.96-7.43-32.8-15.43-19.5-15.84-8.46-40.48,13.01-46.8.11-7.24.28-18.11,9.93-18.45,9.65-.34,11.05,11.04,10.23,18.32Z"/>
</svg>