<?xml version="1.0" encoding="UTF-8"?>
<svg id="Layer_1" data-name="Layer 1" xmlns="http://www.w3.org/2000/svg" xmlns:xlink="http://www.w3.org/1999/xlink" viewBox="0 0 420 419.76">
  <defs>
    <style>
      .cls-1 {
        fill: url(#New_Gradient_Swatch-4);
      }

      .cls-2 {
        fill: url(#New_Gradient_Swatch-2);
      }

      .cls-3 {
        fill: url(#New_Gradient_Swatch);
      }

      .cls-4 {
        fill: url(#New_Gradient_Swatch-3);
      }
    </style>
    <linearGradient id="New_Gradient_Swatch" data-name="New Gradient Swatch" x1="28.09" y1="209.88" x2="391.91" y2="209.88" gradientUnits="userSpaceOnUse">
      <stop offset=".05" stop-color="#b19673"/>
      <stop offset=".47" stop-color="#d7c098"/>
      <stop offset=".95" stop-color="#b39a77"/>
    </linearGradient>
    <linearGradient id="New_Gradient_Swatch-2" data-name="New Gradient Swatch" x1="59.51" y1="209.83" x2="360.29" y2="209.83" xlink:href="#New_Gradient_Swatch"/>
    <linearGradient id="New_Gradient_Swatch-3" data-name="New Gradient Swatch" x1="140.57" y1="204.04" x2="279.22" y2="204.04" xlink:href="#New_Gradient_Swatch"/>
    <linearGradient id="New_Gradient_Swatch-4" data-name="New Gradient Swatch" x1="190.08" y1="236.39" x2="229.77" y2="236.39" xlink:href="#New_Gradient_Swatch"/>
  </defs>
  <path class="cls-3" d="M205.21.95c2.88-.33,5.73-.45,8.62-.14,45.15,16.5,90.16,34.96,134.31,54.24,30.85,13.48,37.17,16.76,41.22,52.16,13.9,121.59-28.28,248.62-145.02,301.89-29.33,13.38-39.55,13.38-68.88,0C64.73,358.57,23.46,245.67,28.5,129.5c.55-12.65,2.37-37.17,7.35-48.32,6.31-14.14,16.52-17.65,29.53-23.44,38.72-17.25,80.82-34.97,120.31-50.28,6.1-2.36,13.05-5.76,19.53-6.51ZM206.09,15.3c-3.05.44-5.87,1.9-8.73,2.94-45.65,16.49-90.47,40.02-136.22,56.82-13.78,7.01-14.67,18.1-16.33,32.15-14,118.32,28.2,245.63,145.37,292.56,17.08,6.84,22.38,6.83,39.45,0,110.88-44.41,152.21-156.4,147.31-269.36-.62-14.2-1.5-43.39-13.21-52.33-45.41-19.07-90.73-40.39-136.79-58.04-7.3-2.8-12.56-5.91-20.84-4.73Z"/>
  <path class="cls-2" d="M207.88,32.32c4.22-.79,9.57,2.3,13.67,3.87,44.49,17.06,87.86,37.66,131.97,55.68,1.39.94,2.03,2.22,2.51,3.78,2.28,7.51,3.48,25.51,3.85,33.86,4.64,102.85-29.32,206.46-128.72,251.14-20.56,9.24-22.66,9.05-43.13-.29C88.72,335.07,55.05,231.81,59.97,128.65c.4-8.33,1.4-19.54,2.81-27.72,1.95-11.34,5.61-10.16,15.17-14.46,42.72-19.24,87.12-35.07,129.93-54.15ZM342.66,102.28l-133.15-54.87-132.36,54.87c-12.25,97.78,10.46,206.77,102.53,257.71,5.89,3.26,22.42,12.03,28.21,13.12,4.28.8,11.83-3.16,16.1-5.03,103.95-45.61,132.14-161.36,118.68-265.79Z"/>
  <path class="cls-4" d="M203.41,108.69c26.93-3.07,51.78,14.53,57.25,41.02,2.07,10.05,1.01,19.78,1.46,29.96,7.41,5.75,14.1,13.39,15.61,23,2.15,13.65,1.68,50.76.44,65.17-1.31,15.27-12.86,27.65-27.82,30.54-24.81-1.66-56.9,3.78-80.9,0-13.23-2.08-25.3-14.15-27.38-27.38-2.03-12.9-1.85-53.49-.31-66.84,1.17-10.13,8.11-18.5,15.92-24.48-3.92-32.19,10.19-66.93,45.74-70.98ZM247.61,174.88v-18.41c0-15.94-17.59-31.78-32.87-33.57-19.07-2.24-42.55,13.41-42.55,33.57v18.41h75.42ZM172.87,189.48c-8.91,1.45-14.94,7.69-16.77,16.45,1.29,19.5-2.01,41.8-.07,60.96,1.01,9.99,8.45,16.66,18.36,17.56,22.81,2.07,48.72-1.63,71.87-.03,10.87-1.79,16.72-8.34,17.54-19.27,1.09-14.53,1.55-44.29-.04-58.4-1.09-9.68-8.92-16.54-18.42-17.49-22.74-2.28-49.34,1.49-72.48.22Z"/>
  <path class="cls-1" d="M217.27,244.19c-.93,6.23,2.92,23.5-7.68,22.9s-5.96-16.34-7.06-22.9c-24.43-10.8-9.41-46.57,14.89-36.88,16.8,6.69,16.18,29.93-.15,36.88ZM209.59,220.05c-7.82.41-6.79,13.78,3.31,10.35,3.78-1.29,3.49-10.7-3.31-10.35Z"/>
</svg>