<?xml version="1.0" encoding="UTF-8"?>
<svg id="Layer_1" data-name="Layer 1" xmlns="http://www.w3.org/2000/svg" xmlns:xlink="http://www.w3.org/1999/xlink" viewBox="0 0 420 419.76">
  <defs>
    <style>
      .cls-1 {
        fill: url(#New_Gradient_Swatch-4);
      }

      .cls-2 {
        fill: url(#New_Gradient_Swatch-13);
      }

      .cls-3 {
        fill: url(#New_Gradient_Swatch-5);
      }

      .cls-4 {
        fill: url(#New_Gradient_Swatch-2);
      }

      .cls-5 {
        fill: url(#New_Gradient_Swatch-14);
      }

      .cls-6 {
        fill: url(#New_Gradient_Swatch-12);
      }

      .cls-7 {
        fill: url(#New_Gradient_Swatch-6);
      }

      .cls-8 {
        fill: url(#New_Gradient_Swatch-11);
      }

      .cls-9 {
        fill: url(#New_Gradient_Swatch-7);
      }

      .cls-10 {
        fill: url(#New_Gradient_Swatch);
      }

      .cls-11 {
        fill: url(#New_Gradient_Swatch-8);
      }

      .cls-12 {
        fill: url(#New_Gradient_Swatch-3);
      }

      .cls-13 {
        fill: url(#New_Gradient_Swatch-10);
      }

      .cls-14 {
        fill: url(#New_Gradient_Swatch-15);
      }

      .cls-15 {
        fill: url(#New_Gradient_Swatch-9);
      }
    </style>
    <linearGradient id="New_Gradient_Swatch" data-name="New Gradient Swatch" x1=".75" y1="180.56" x2="363.23" y2="180.56" gradientUnits="userSpaceOnUse">
      <stop offset=".05" stop-color="#b19673"/>
      <stop offset=".47" stop-color="#d7c098"/>
      <stop offset=".95" stop-color="#b39a77"/>
    </linearGradient>
    <linearGradient id="New_Gradient_Swatch-2" data-name="New Gradient Swatch" x1="57.82" y1="210.33" x2="129.79" y2="210.33" xlink:href="#New_Gradient_Swatch"/>
    <linearGradient id="New_Gradient_Swatch-3" data-name="New Gradient Swatch" x1="134.99" y1="209.89" x2="219.67" y2="209.89" xlink:href="#New_Gradient_Swatch"/>
    <linearGradient id="New_Gradient_Swatch-4" data-name="New Gradient Swatch" x1="295.18" y1="209.19" x2="362.26" y2="209.19" xlink:href="#New_Gradient_Swatch"/>
    <linearGradient id="New_Gradient_Swatch-5" data-name="New Gradient Swatch" x1="235.81" y1="209.73" x2="275.86" y2="209.73" xlink:href="#New_Gradient_Swatch"/>
    <linearGradient id="New_Gradient_Swatch-6" data-name="New Gradient Swatch" x1="383.78" y1="279.66" x2="409.64" y2="279.66" xlink:href="#New_Gradient_Swatch"/>
    <linearGradient id="New_Gradient_Swatch-7" data-name="New Gradient Swatch" x1="261.28" y1="396.52" x2="298.05" y2="396.52" xlink:href="#New_Gradient_Swatch"/>
    <linearGradient id="New_Gradient_Swatch-8" data-name="New Gradient Swatch" x1="393.5" y1="167.54" x2="415.93" y2="167.54" xlink:href="#New_Gradient_Swatch"/>
    <linearGradient id="New_Gradient_Swatch-9" data-name="New Gradient Swatch" x1="354.2" y1="329.32" x2="384.64" y2="329.32" xlink:href="#New_Gradient_Swatch"/>
    <linearGradient id="New_Gradient_Swatch-10" data-name="New Gradient Swatch" x1="96.67" y1="384.85" x2="132.32" y2="384.85" xlink:href="#New_Gradient_Swatch"/>
    <linearGradient id="New_Gradient_Swatch-11" data-name="New Gradient Swatch" x1="398.72" y1="224.01" x2="419.25" y2="224.01" xlink:href="#New_Gradient_Swatch"/>
    <linearGradient id="New_Gradient_Swatch-12" data-name="New Gradient Swatch" x1="312.56" y1="369.31" x2="346.48" y2="369.31" xlink:href="#New_Gradient_Swatch"/>
    <linearGradient id="New_Gradient_Swatch-13" data-name="New Gradient Swatch" x1="371.38" y1="114.28" x2="398.95" y2="114.28" xlink:href="#New_Gradient_Swatch"/>
    <linearGradient id="New_Gradient_Swatch-14" data-name="New Gradient Swatch" x1="148.85" y1="404.82" x2="186.12" y2="404.82" xlink:href="#New_Gradient_Swatch"/>
    <linearGradient id="New_Gradient_Swatch-15" data-name="New Gradient Swatch" x1="205.26" y1="408.86" x2="242.98" y2="408.86" xlink:href="#New_Gradient_Swatch"/>
  </defs>
  <path class="cls-10" d="M342.77,47.46V14.92c0-.79,2.24-4.99,3.1-5.82,5.65-5.45,14.56-2.13,16.12,5.32,1.75,8.4,1.45,45.52.4,54.88-.64,5.7-3.34,9.55-9.34,10.27-17.08,2.06-38.44-1.41-55.98-.22-7.4-2-10.59-10.8-4.79-16.42.36-.35,2.63-2.09,2.81-2.09h31.65c.54-2.09-.49-1.49-1.13-2.04-41.76-35.82-109.97-46.61-162.38-33.55C40.13,55.9-18.69,198.78,46.98,308.04c8.8,14.65,19.9,26.63,30.81,39.61,2.75,8.66-6.27,16.2-14,11.33-6.59-4.15-19.94-21.71-24.84-28.65C-27.88,235.59-4.6,104.57,89.84,38.35c76.79-53.84,180.13-49.41,252.92,9.11Z"/>
  <path class="cls-4" d="M83.36,242.69h37.89c.79,0,4.99,2.24,5.82,3.1,5.72,5.94,1.84,14.98-6.03,16.3-8.77,1.47-45.07,1.41-54.09.14-14.1-1.99-9.13-19.12-3.2-27.11,9.46-12.74,42.36-28.12,45.75-39.83,4.81-16.61-13.76-23.19-25.88-16.08-7.59,4.45-9.06,17.53-20.53,12.88-8.94-3.62-4.34-14.05-.21-19.36,24.76-31.82,78.73-9.79,64.6,28.94-7.11,19.48-30.32,27.58-44.11,41.02Z"/>
  <path class="cls-12" d="M201.92,231.1v29.86c0,2.71-6.39,6.75-9.38,6.72-3.34-.04-9.34-4.55-9.34-7.61v-28.97h-40.56c-5.77,0-10.46-10.88-5.65-15.45l48.4-60.35c5.36-5.64,14.4-3.5,16.48,4.1l.18,51.53,1.34,1.34c5.36.52,10.53-1.43,14.1,3.73,7.45,10.77-5.78,17.57-15.56,15.12ZM183.2,212.38v-23.18l-18.72,23.18h18.72Z"/>
  <path class="cls-1" d="M303.1,176.72c-10.1-1.8-11.08-17.35.21-19.4,7.56-1.37,41.68-1.26,49.63-.14,4.58.65,8.62,3.91,9.28,8.63.44,3.15-3.42,10.98-4.78,14.45-9.94,25.36-21.64,50.09-31.48,75.51-4.88,10.53-18.83,7.04-18.7-4.37l31.04-74.67c-10.47-1.31-25.3,1.77-35.21,0Z"/>
  <path class="cls-3" d="M265,146.57c6.3-.82,11.18,4.69,10.84,10.85l-21.59,107.75c-3.9,12.14-19.82,10.05-18.36-5.88,3.03-33.09,16.87-70.39,20.82-103.97.81-3.93,4.09-8.19,8.27-8.74Z"/>
  <path class="cls-7" d="M396.92,261.63c7.19-1.86,13.47,3.47,12.65,10.83-.31,2.75-6.79,19.65-8.46,21.88-5.65,7.51-17.99,2.86-17.3-6.53.09-1.21,6.96-20.18,7.8-21.69.93-1.67,3.54-4.04,5.31-4.49Z"/>
  <path class="cls-9" d="M287.29,383.7c9.19-1.08,14.39,10.57,7.81,16.8-1.71,1.62-19.81,8.55-22.4,8.83-12.12,1.33-15.48-13.29-5.71-18.22,1.93-.97,18.81-7.23,20.3-7.41Z"/>
  <path class="cls-11" d="M413.78,183.55c-4.39,4.49-12.64,3.42-15.31-2.36-1.4-3.02-5.08-20.33-4.97-23.64.31-9.9,14.09-12.26,18.08-2.85,2.55,6.01,7.04,23.89,2.2,28.84Z"/>
  <path class="cls-15" d="M372.83,312.39c7.39-1.61,13.45,4.99,11.41,12.34-.73,2.62-11.98,17.78-14.27,19.6-7.52,5.96-18.34-1.2-15.22-10.77.37-1.14,11.05-15.36,12.52-16.89s3.4-3.81,5.56-4.28Z"/>
  <path class="cls-13" d="M102.71,371.25c2.2-.5,4.36-.34,6.53.23,1.69.44,18.38,9.51,19.63,10.68,7.84,7.36,1.3,18.5-9.21,16.33-4.06-.84-21.28-10.92-22.53-14.9-1.43-4.58.51-11.18,5.58-12.34Z"/>
  <path class="cls-8" d="M406.7,205.43c6.66-1.48,12.14,2.64,12.52,9.4.24,4.33-.8,17.49-1.99,21.64-2.58,9.01-16.85,8.26-18.25-.52-1.11-6.97,1.78-15.65,1.04-22.92,1.02-3.02,3.35-6.86,6.67-7.6Z"/>
  <path class="cls-6" d="M335.43,354.29c8.03-1.19,13.57,7.25,9.9,14.42-1.16,2.26-17.02,14.13-19.73,15.03-11.33,3.75-18.19-8.11-8.21-17.11,2.53-2.28,15.54-11.97,18.04-12.34Z"/>
  <path class="cls-2" d="M378.17,96.67c4.38-.99,6.79.31,9.63,3.36,2.19,2.35,9.94,15.77,10.7,18.71,2.84,10.85-8.64,18.24-16.1,9.86-1.35-1.52-10.21-17.74-10.69-19.61-1.28-4.93,1.06-11.1,6.45-12.32Z"/>
  <path class="cls-5" d="M155.3,393.53c3.33-.75,22.94,3.06,26.04,4.78,8.43,4.67,4.95,17.75-4.66,17.9-3.73.06-21.2-4.03-24.11-6.07-6.23-4.37-4.18-15.05,2.73-16.61Z"/>
  <path class="cls-14" d="M226.7,398.95c2.83-.09,5.75-.65,8.6-.2,10.13,1.58,10.38,15.94-.02,18.58-3.72.94-16.49,1.95-20.35,1.8-3.47-.13-8.42-3.27-9.24-6.81-3.11-13.56,12.11-13.08,21.02-13.37Z"/>
</svg>