<?xml version="1.0" encoding="UTF-8"?>
<svg id="Layer_1" data-name="Layer 1" xmlns="http://www.w3.org/2000/svg" xmlns:xlink="http://www.w3.org/1999/xlink" viewBox="0 0 420 419.76">
  <defs>
    <style>
      .cls-1 {
        fill: url(#New_Gradient_Swatch);
      }

      .cls-1, .cls-2 {
        fill-rule: evenodd;
      }

      .cls-2 {
        fill: url(#New_Gradient_Swatch-2);
      }
    </style>
    <linearGradient id="New_Gradient_Swatch" data-name="New Gradient Swatch" x1="0" y1="240.73" x2="381.4" y2="240.73" gradientUnits="userSpaceOnUse">
      <stop offset=".05" stop-color="#b19673"/>
      <stop offset=".47" stop-color="#d7c098"/>
      <stop offset=".95" stop-color="#b39a77"/>
    </linearGradient>
    <linearGradient id="New_Gradient_Swatch-2" data-name="New Gradient Swatch" x1="183.7" y1="209.05" x2="418.5" y2="209.05" xlink:href="#New_Gradient_Swatch"/>
  </defs>
  <path class="cls-1" d="M34.3,220.48c-11.3,0-24.4,5.4-31.5,11l6.5,13.6c5.7-5.2,14.9-9.6,23.2-9.6s12.2,2.6,12.2,7.9-2.9,5.4-8.3,6.1c-20.4,2.6-36.4,8.2-36.4,23.9s8.9,20,22.7,20,18.7-5.5,22.9-12.7v10.7h18.4v-44.9c0-18.5-12.9-26-29.7-26ZM27.4,278.98c-5.2,0-7.8-2.5-7.8-6.7,0-7.8,8.7-10.4,24.6-12.1,0,10.4-7,18.8-16.8,18.8ZM237.5,234.08v-11.6h-18.4v68.9h19.7v-33.2c0-15.8,9.5-20.4,16.2-20.4s6.1.8,8.4,2.5l3.6-18.2c-3-1.3-6.2-1.6-8.8-1.6-10.1,0-16.5,4.5-20.7,13.6h0ZM358.4,220.48c-10.4,0-18.2,6.2-22.3,12.1-3.8-7.7-11.7-12.1-21.3-12.1s-17.6,5.8-21,12.4v-10.4h-19v68.9h19.7v-35.5c0-12.7,6.7-18.8,12.9-18.8s10.8,3.6,10.8,13v41.3h19.8v-35.5c0-12.9,6.5-18.8,13-18.8s10.7,3.8,10.7,12.9v41.4h19.7v-47.6c0-15.5-10.4-23.3-23-23.3h0ZM133.6,217.38v5.1h-29.9v-7c0-9.1,5.2-11.7,9.7-11.7s6,.6,8.8,2.2l6.1-13.9c-3.6-2.1-9.5-4-17.4-4-12.6,0-26.9,7.1-26.9,29.4v5.1h-11.4v15.2h11.4v53.6h19.7v-53.7h29.9v53.7h19.7v-53.7h17.9v-15.2h-17.9v-7c0-9.1,5.2-11.7,9.7-11.7s8.8,2.2,8.8,2.2l6.1-13.9s-6.2-4-17.4-4c-12.5,0-26.9,7-26.9,29.3ZM182.9,222.48h19.7v68.9h-19.7v-68.9Z"/>
  <path class="cls-2" d="M297.7,126.38c-53.2,0-100.6,36.9-114,84.4h19.3c11.2-35.4,49.3-66.4,94.7-66.4s102.8,42,102.8,107.4-1.9,27.9-5.5,39.6h18.7l.2-.6c3.1-12.1,4.6-25.2,4.6-39,0-72.9-53.1-125.4-120.8-125.4"/>
</svg>