<?xml version="1.0" encoding="UTF-8"?>
<svg id="Layer_1" data-name="Layer 1" xmlns="http://www.w3.org/2000/svg" xmlns:xlink="http://www.w3.org/1999/xlink" viewBox="0 0 420 419.76">
  <defs>
    <style>
      .cls-1 {
        fill: url(#New_Gradient_Swatch-4);
      }

      .cls-2 {
        fill: url(#New_Gradient_Swatch-5);
      }

      .cls-3 {
        fill: url(#New_Gradient_Swatch-2);
      }

      .cls-4 {
        fill: url(#New_Gradient_Swatch-6);
      }

      .cls-5 {
        fill: url(#New_Gradient_Swatch-7);
      }

      .cls-6 {
        fill: url(#New_Gradient_Swatch);
      }

      .cls-7 {
        fill: url(#New_Gradient_Swatch-8);
      }

      .cls-8 {
        fill: url(#New_Gradient_Swatch-3);
      }

      .cls-9 {
        fill: url(#New_Gradient_Swatch-9);
      }
    </style>
    <linearGradient id="New_Gradient_Swatch" data-name="New Gradient Swatch" x1="3.17" y1="210.33" x2="335.2" y2="210.33" gradientUnits="userSpaceOnUse">
      <stop offset=".05" stop-color="#b19673"/>
      <stop offset=".47" stop-color="#d7c098"/>
      <stop offset=".95" stop-color="#b39a77"/>
    </linearGradient>
    <linearGradient id="New_Gradient_Swatch-2" data-name="New Gradient Swatch" x1="240.12" y1="254.88" x2="416.32" y2="254.88" xlink:href="#New_Gradient_Swatch"/>
    <linearGradient id="New_Gradient_Swatch-3" data-name="New Gradient Swatch" x1="129.32" y1="68.12" x2="282.66" y2="68.12" xlink:href="#New_Gradient_Swatch"/>
    <linearGradient id="New_Gradient_Swatch-4" data-name="New Gradient Swatch" x1="49.15" y1="241.79" x2="217.94" y2="241.79" xlink:href="#New_Gradient_Swatch"/>
    <linearGradient id="New_Gradient_Swatch-5" data-name="New Gradient Swatch" x1="49.06" y1="198.45" x2="217.95" y2="198.45" xlink:href="#New_Gradient_Swatch"/>
    <linearGradient id="New_Gradient_Swatch-6" data-name="New Gradient Swatch" x1="48.98" y1="284.96" x2="217.9" y2="284.96" xlink:href="#New_Gradient_Swatch"/>
    <linearGradient id="New_Gradient_Swatch-7" data-name="New Gradient Swatch" x1="48.95" y1="156.08" x2="217.91" y2="156.08" xlink:href="#New_Gradient_Swatch"/>
    <linearGradient id="New_Gradient_Swatch-8" data-name="New Gradient Swatch" x1="48.95" y1="347.66" x2="139.78" y2="347.66" xlink:href="#New_Gradient_Swatch"/>
    <linearGradient id="New_Gradient_Swatch-9" data-name="New Gradient Swatch" x1="276.92" y1="226.98" x2="379.51" y2="226.98" xlink:href="#New_Gradient_Swatch"/>
  </defs>
  <path class="cls-6" d="M28.49,419.13c-13.2-3.29-23.45-12.56-25.28-26.52l-.04-301.05c.5-4.71,1.92-9.38,4.74-13.21C29.47,57.07,51.22,30.37,74.16,10.82c5.18-4.42,10.22-7.73,17.1-9l216.55-.28c13.9,2.12,24.79,13.49,26.38,27.47,2.98,26.3-1.78,57.05.24,83.82-.07,7.3-11.08,8.73-12.2,1.56l-.26-84.58c-.14-6.39-8.51-16.12-14.88-16.12H93.34l-1.22,1.22v60.37c0,6.37-12.86,15.91-19.17,15.91H15.43v301.43c0,5.55,9.97,14.52,15.91,14.28h274.1c8.64-.68,15.38-7.72,16.52-16.12.7-5.15-2.05-16.61,6.35-16.42,9.53.21,6.06,19.83,3.81,25.76-2.72,7.16-10.2,14.27-17.29,16.97l-6.52,2.05H28.49ZM24.41,78.95h47.72c1.8,0,7.75-4.18,7.75-6.12V23.47l-55.47,55.47Z"/>
  <path class="cls-3" d="M371.15,304.95c-1.25,17.47,1.56,36.97-.05,54.2-.94,10.06-7.4,17.35-17.91,13.85-5.14-1.71-22.51-14.74-24.9-14.78-13.71,6.14-35.85,29.98-42.84,3.39l-.03-56.67c-8.94-.64-17.36-7.89-19.93-16.37-1.38-4.57-.63-9-3.17-13.14-2.81-4.58-7.86-4.83-11.89-7.69-8.74-6.21-12.26-16.88-9.25-27.1,1.87-6.35,6.47-9.39,4.93-16.72-.56-2.66-3.51-6.39-4.53-9.33-3.52-10.21-.67-20.96,7.96-27.58,4.98-3.82,12.62-4.61,14.36-11.75,1.16-4.79.46-8.26,2.94-13.38,3.83-7.89,12.64-13.41,21.47-13.66,4.72-.13,8.18,2.22,12.86,1.49,5.64-.88,7.67-5.71,11.64-8.76,8.95-6.88,22.57-6.96,31.32.45,3.26,2.76,4.33,6.53,9.17,7.95,5.14,1.5,7.93-.8,12.53-1.07,9.04-.54,19.36,5.14,23.37,13.31,3.64,7.41.74,15.58,8.71,20.66,6.45,4.11,10.13,3.69,14.64,11.47,7.37,12.73,2.28,17.14-1.62,28.23-3.67,10.45,3.8,12.56,4.98,21.44,1.11,8.4-1.68,17.16-8.08,22.78-4.3,3.78-11.58,4.78-14.22,9.43-2.02,3.55-1.65,8.25-2.67,12.01-2.42,8.89-10.45,16.65-19.79,17.33ZM324.4,148.48c-4.74.98-5.89,4.96-8.8,7.52-4.26,3.75-10.97,6.3-16.69,6.22-6.34-.08-10.27-3.77-16.67.39-7.69,5-4.43,16.33-11.12,24.77-5.04,6.35-13.84,7.16-17.03,12.34-5.62,9.14,2.62,13.97,4.09,21.96,2.07,11.26-1.73,12.66-4.91,21.27-5.55,15.02,11.58,15.43,18.19,24.19,6.16,8.16,3.36,19.74,10.78,24.3,5.82,3.58,8.71.9,14.25.46s10.54.59,15.35,3.39c7.07,4.12,7.05,11.21,17.31,10.51,8.52-.59,12.47-12.39,24.53-13.82,7.85-.93,12.86,3.46,19.94-.46,8.18-4.52,4.73-15.39,10.21-23.24,5.22-7.46,17.35-9.47,19.38-16.51,2.72-9.4-6.18-15.06-6-25.51s9.17-14.48,5.77-24.55c-2.27-6.73-13.9-8.39-19.16-15.92-5.81-8.32-1.93-24.51-15.58-25.27-7.07-.39-9.58,3.3-18.96.26-10.98-3.55-12.36-14.86-24.88-12.28ZM297.7,304.1v57.11c8.71-1.5,21.45-15.24,29.8-15.53,7.87-.28,22.28,12.45,29.77,15.95l1.62-.82v-56.7c-10.41-1.27-12.62,9.05-21.47,12.39-6.51,2.45-14.32,2.22-20.57-.94-6.79-3.44-10.49-12.48-19.15-11.45Z"/>
  <path class="cls-8" d="M269.96,56.1h-128.08v21.62l1.22,1.22h13.05c.31,0,2.74,2.77,3.05,3.47,1.92,4.38-1.18,8.1-5.55,8.71-7.72,1.08-20.32.22-23.23-8.47-1.24-3.69-1.43-25.1-.59-29.22.67-3.31,5.5-8.33,8.76-9.18l134.48.17c4.59,1.19,8.42,5.86,9.05,10.53.69,5.06.7,19.32.09,24.42-.84,7-7.77,11.26-14.26,11.84-27.19,2.44-58.06-1.85-85.64-.09-4.17-.79-7.37-3.82-6.02-8.34.22-.73,3.26-3.85,3.52-3.85h88.92l1.22-1.22v-21.62Z"/>
  <path class="cls-1" d="M53.54,235.75l160.92.25c5.64,3.81,4.2,11-2.82,11.83H54.99c-6.78-.18-8.15-10.6-1.44-12.08Z"/>
  <path class="cls-2" d="M50.74,194.2c1.09-1.1,4.21-1.89,5.85-1.9l155.06.02c6.94.82,8.53,7.91,2.82,11.83l-159.49.44c-5.35.03-7.81-6.8-4.24-10.4Z"/>
  <path class="cls-4" d="M52.72,278.98l159.74-.18c8.88,1.03,6.05,13.18-2.43,12.28H57.42c-7.5.04-12.07-7.51-4.69-12.1Z"/>
  <path class="cls-5" d="M52.72,150.09l159.74-.18c9.3,1.08,5.68,13.39-3.25,12.29H58.23c-7.81.22-13.31-6.92-5.51-12.1Z"/>
  <path class="cls-7" d="M50.74,352.01c-3.88-3.91-1.01-9.79,4.24-10.4,24.43-2.82,54.17,2.16,79.16,0,8.15.95,7.08,11.65-.81,12.27-24.71-1.73-52.39,2.24-76.74.02-1.71-.16-4.66-.7-5.85-1.9Z"/>
  <path class="cls-9" d="M320.36,176.25c43.17-4.86,73.66,38.22,52,76.47-21.23,37.49-77.59,32.26-92.41-7.96-10.88-29.52,8.67-64.94,40.41-68.51ZM321.16,188.47c-42.89,5.8-41.96,73.28,2.25,77.28,58.6,5.29,57.26-85.32-2.25-77.28Z"/>
</svg>