<?xml version="1.0" encoding="UTF-8"?>
<svg id="Layer_1" data-name="Layer 1" xmlns="http://www.w3.org/2000/svg" xmlns:xlink="http://www.w3.org/1999/xlink" viewBox="0 0 420 419.76">
  <defs>
    <style>
      .cls-1 {
        fill: url(#New_Gradient_Swatch);
      }
    </style>
    <linearGradient id="New_Gradient_Swatch" data-name="New Gradient Swatch" x1="16.92" y1="210.27" x2="403.07" y2="210.27" gradientUnits="userSpaceOnUse">
      <stop offset=".05" stop-color="#b19673"/>
      <stop offset=".47" stop-color="#d7c098"/>
      <stop offset=".95" stop-color="#b39a77"/>
    </linearGradient>
  </defs>
  <path class="cls-1" d="M152.49,419.13l-7.77-4.88-66.47-66.51c-5.48-7.93,3.15-14.75,9.81-8.18l68.1,67.35c1.89-.26,2.9-1.82,2.9-3.66,1.97-23.39-2.75-51.47-.06-74.29.31-2.62,1.48-4.67,3.86-5.93l187.3-.33,1.8-1.46.44-80.4-1.67-3.23-38.33.02-37.53,37.52c-6.24,6.19-17.27,6.02-22.86-.81-.7-.85-3.25-5.87-3.25-6.54v-30.59h-21.62c-3.29,0-4.64-6.57-2.91-9.44.33-.55,3.36-2.8,3.72-2.8h20.8v-29.37h-77.5v29.37h31.41c4.63,0,6.71,10.95-.02,12.22-11.71-1.22-27.02,1.73-38.27-.03-1.83-.29-5.35-2.74-5.35-4.44v-78.32c0-2.11-5.67-1.06-6.54.8l-122.56,123.02-.59,1.83c11.83,14.43,27.41,26.17,38.96,40.98.93,7.63-4.68,10.33-10.82,5.91-6.77-4.87-30.4-28.95-35.91-35.88-6.2-7.8-6.14-14.3,0-22.05l73.02-73.41h-26.51c-.28,0-4.55-1.76-5.22-2.12-4.09-2.2-6.42-6.1-7.35-10.6,1.65-26.81-2.45-56.73-.11-83.17.44-4.93,2.86-9.05,7.1-11.66,1.03-.63,5.57-2.58,6.39-2.58h179.88V13.27c0-1.03,3.13-6.33,4.09-7.34,5.97-6.23,15.94-5.86,22.03-.02,41.93,42.86,85.86,84.09,126.58,127.95,3.27,7.22,1.34,12.38-3.39,18.11-9.19,11.14-22.66,21.12-32.24,32.21-6.08,4.42-12.21-.22-9.77-7.33l34.55-35.69-.28-1.82L263.84,13.66c-1.89.26-2.9,1.82-2.9,3.66-1.97,23.39,2.75,51.47.06,74.29-.31,2.62-1.48,4.67-3.86,5.93l-187.3.33-1.8,1.46-.44,80.4,1.67,3.23,38.33-.02,37.53-37.52c6.5-6.46,18.43-6.02,23.54,1.77.46.71,2.58,5.22,2.58,5.58v30.59h85.25c.96,0,4.49,3.53,4.49,4.49v78.32c0,2.11,5.67,1.06,6.54-.8l70.97-70.97c5.38-2.04,10.44,2.09,8.6,7.78-1.68,5.18-18.38,16.94-21.66,22.8h26.51c5.25,0,12.23,7.37,12.57,12.72-1.65,26.81,2.45,56.73.11,83.17-.44,4.93-2.86,9.05-7.1,11.66-1.03.63-5.57,2.58-6.39,2.58h-179.88v72.2c0,4.34-7.38,10.61-11.42,11.83h-7.34Z"/>
</svg>