<?xml version="1.0" encoding="UTF-8"?>
<svg id="Layer_1" data-name="Layer 1" xmlns="http://www.w3.org/2000/svg" xmlns:xlink="http://www.w3.org/1999/xlink" viewBox="0 0 420 419.76">
  <defs>
    <style>
      .cls-1 {
        fill: url(#New_Gradient_Swatch-4);
      }

      .cls-2 {
        fill: url(#New_Gradient_Swatch-5);
      }

      .cls-3 {
        fill: url(#New_Gradient_Swatch-2);
      }

      .cls-4 {
        fill: url(#New_Gradient_Swatch-6);
      }

      .cls-5 {
        fill: url(#New_Gradient_Swatch);
      }

      .cls-6 {
        fill: url(#New_Gradient_Swatch-3);
      }
    </style>
    <linearGradient id="New_Gradient_Swatch" data-name="New Gradient Swatch" x1=".75" y1="209.88" x2="419.25" y2="209.88" gradientUnits="userSpaceOnUse">
      <stop offset=".05" stop-color="#b19673"/>
      <stop offset=".47" stop-color="#d7c098"/>
      <stop offset=".95" stop-color="#b39a77"/>
    </linearGradient>
    <linearGradient id="New_Gradient_Swatch-2" data-name="New Gradient Swatch" x1="119.73" y1="178.73" x2="230.49" y2="178.73" xlink:href="#New_Gradient_Swatch"/>
    <linearGradient id="New_Gradient_Swatch-3" data-name="New Gradient Swatch" x1="168.4" y1="265.62" x2="279.47" y2="265.62" xlink:href="#New_Gradient_Swatch"/>
    <linearGradient id="New_Gradient_Swatch-4" data-name="New Gradient Swatch" x1="14.66" y1="237.87" x2="111.74" y2="237.87" xlink:href="#New_Gradient_Swatch"/>
    <linearGradient id="New_Gradient_Swatch-5" data-name="New Gradient Swatch" x1="336.36" y1="300.96" x2="363.06" y2="300.96" xlink:href="#New_Gradient_Swatch"/>
    <linearGradient id="New_Gradient_Swatch-6" data-name="New Gradient Swatch" x1="105.36" y1="300.86" x2="132.78" y2="300.86" xlink:href="#New_Gradient_Swatch"/>
  </defs>
  <path class="cls-5" d="M.75,263.97c2.25-3.12,3.8-4.44,7.77-4.89,18.94-2.15,41.86,1.54,61.23.07,4.75.57,8.51,4.67,6.4,9.51-.3.7-2.75,3.47-3.06,3.47h-30.24l-1.23,1.22v13.05l1.23,1.22h37.19c12.79-37.81,65.14-37.05,78.88,0h135.28v-50.99c0-4.46,11.19-8.38,12.9-.64,1.68,15.45-1.63,33.72.13,48.81.25,2.17,1.88,4.26,3.38,2.32,1.39-1.8,2.83-6.68,4.5-9.23,18.78-28.64,63.4-22.61,73.9,9.72h17.17v-29.37h-11.85c-4.01,0-11.53-6.61-13.51-10.17-2.93-5.26-3.31-19.3-2.38-25.27.29-1.83,2.74-5.35,4.45-5.35h21.66c0-5.97-10.59-14.68-15.94-14.68h-81.33c.52,6.39.64,15.58-8.37,13.66-1.7-.36-4.71-3.65-4.71-5.1v-120.33H41.62v121.14c0,.64-2.14,3.11-2.95,3.58-5,2.86-9.8-.74-10.15-6.01l.03-118.3c.36-7.08,6.23-13.24,13.44-13.5,85.27.59,170.79-1.02,255.91.81,3.33.27,9.36,6.48,9.36,9.42v17.54c16.3.99,34.13-1.33,50.26.01,11.23.94,20.78,6.9,24.84,17.63,2.19,5.8,4.54,20.99-3.05,23.28l-.12.99,10.43,41.08c1.17,2.1,8.32,3.4,11.39,4.95,6.63,3.36,11.31,8.96,14.87,15.34l3.37,10.1v76.68c-5.62,8.64-18.88,3.56-27.79,4.89-2.92,54.96-80.37,54.99-83.38.01l-147.21.47c-3.57,54.67-80.77,54.18-83.28-.48-11.05-1.55-35.79,3.56-44.17-3.64-1.48-1.27-4.88-6.55-4.88-8.18v-16.72c-5.12-.9-21.55,1.53-24.99-.75-1.04-.69-1.7-2.52-2.8-3.32v-4.08ZM371.02,133.45c1.22-6.27-6.78-14.68-12.67-14.68h-51.09v14.68h63.76ZM366.12,147.31h-58.85v42.42h68.66l-9.81-42.42ZM406.17,230.52h-14.71c-1.37,12.8,1.89,16.05,14.71,14.68v-14.68ZM118.27,272.36c-37.14.74-35.78,58.69,2.24,56.92,36.4-1.7,35.13-57.67-2.24-56.92ZM349.5,272.45c-37.37.39-36.76,57.31.69,56.85,37.2-.46,36.51-57.24-.69-56.85Z"/>
  <path class="cls-3" d="M222.03,140.95c6.56-1.45,10.73,4.92,7.14,10.41l-65.72,64.94c-2.45.83-5.06.5-6.99-1.27-9.75-11.71-25.2-22.52-34.35-34.24-5.69-7.3-.4-14.6,7.72-10.96l31.42,30.46,60.78-59.34Z"/>
  <path class="cls-6" d="M174.64,259.27l97.07-.19c8.38.31,11.09,10.7,2.49,13.09l-99.78-.02c-8.2-.94-7.93-11.42.21-12.88Z"/>
  <path class="cls-1" d="M20.13,231.51l84.85-.19c8.73,1.02,8.99,12.13.81,13.09H20.76c-8.25-.95-7.8-10.49-.63-12.9Z"/>
  <path class="cls-2" d="M346.28,287.82c23.65-4.37,20.92,31.14.37,26.17-13.99-3.38-13.34-23.77-.37-26.17Z"/>
  <path class="cls-4" d="M128.78,291.19c12.31,12.28-6.57,32.33-19.36,18.91-12.67-13.3,7.24-30.99,19.36-18.91Z"/>
</svg>