<svg width="18" height="18" viewBox="0 0 18 18" fill="none" xmlns="http://www.w3.org/2000/svg">
<g clip-path="url(#clip0_212_318)">
<path d="M11.056 4.2028C11.7546 4.3391 12.3966 4.68077 12.8999 5.18407C13.4033 5.68738 13.7449 6.32942 13.8812 7.02803M11.056 1.3418C12.5074 1.50304 13.8609 2.15301 14.8942 3.185C15.9275 4.21699 16.5792 5.56964 16.7422 7.02088M16.027 12.7286V14.8743C16.0278 15.0735 15.987 15.2707 15.9072 15.4532C15.8274 15.6357 15.7103 15.7996 15.5635 15.9342C15.4168 16.0689 15.2435 16.1714 15.0548 16.2352C14.8661 16.299 14.6661 16.3227 14.4677 16.3048C12.2668 16.0657 10.1526 15.3136 8.29512 14.109C6.56696 13.0109 5.10177 11.5457 4.00362 9.81751C2.79484 7.95157 2.04258 5.82712 1.80781 3.61629C1.78993 3.4185 1.81344 3.21916 1.87683 3.03095C1.94022 2.84274 2.0421 2.66979 2.17599 2.52312C2.30988 2.37644 2.47285 2.25925 2.65451 2.17901C2.83618 2.09877 3.03256 2.05723 3.23115 2.05705H5.3769C5.72402 2.05363 6.06053 2.17655 6.32372 2.40289C6.58691 2.62924 6.75882 2.94356 6.8074 3.28728C6.89797 3.97396 7.06593 4.6482 7.30808 5.29713C7.40431 5.55313 7.42514 5.83136 7.36809 6.09884C7.31105 6.36632 7.17852 6.61184 6.98622 6.8063L6.07785 7.71467C7.09605 9.50533 8.57869 10.988 10.3693 12.0062L11.2777 11.0978C11.4722 10.9055 11.7177 10.773 11.9852 10.7159C12.2527 10.6589 12.5309 10.6797 12.7869 10.7759C13.4358 11.0181 14.1101 11.186 14.7967 11.2766C15.1442 11.3256 15.4615 11.5006 15.6883 11.7683C15.9152 12.0361 16.0357 12.3778 16.027 12.7286Z" stroke="#1E1E1E" stroke-width="1.6" stroke-linecap="round" stroke-linejoin="round"/>
</g>
<defs>
<clipPath id="clip0_212_318">
<rect width="17.166" height="17.166" fill="white" transform="translate(0.291504 0.626953)"/>
</clipPath>
</defs>
</svg>
