<svg width="45" height="39" viewBox="0 0 45 39" fill="none" xmlns="http://www.w3.org/2000/svg">
<path d="M37.0549 38.5935C35.2736 38.7884 32.701 38.4178 28.7252 36.7343C23.8895 34.6776 20.1073 32.7042 15.0813 28.6801C10.2345 24.7916 7.79914 22.1972 4.2311 17.1077C0.200599 11.3615 0.423119 8.09404 0.913892 6.65427C1.4977 4.93376 2.51665 3.83145 3.86583 2.7004C4.63329 2.06833 5.45736 1.50833 6.32759 1.0275C6.41455 0.978276 6.49532 0.93158 6.56737 0.889532C6.99681 0.636631 7.64757 0.254249 8.5504 0.487935C9.1527 0.641835 9.7178 1.02974 10.6136 1.73977C12.4506 3.19365 15.1147 6.5877 16.1462 8.28483C16.8393 9.42889 17.2977 10.184 17.3963 11.0763C17.5105 12.1212 17.0731 12.9844 16.5303 13.9238C16.4287 14.1003 16.3271 14.2693 16.2287 14.4333C15.6341 15.4218 15.5105 15.7022 15.6624 16.1621C15.9694 17.0861 17.7951 19.7371 20.5612 21.9528C23.3273 24.1684 26.2186 25.2909 27.1907 25.3896C27.6931 25.4408 27.9449 25.2526 28.808 24.4305C28.9318 24.3126 29.0588 24.1907 29.1922 24.0681C30.0858 23.238 30.7982 22.6421 31.8184 22.5305L31.8238 22.5299C32.7117 22.4327 33.514 22.7347 34.8427 23.2321C36.5759 23.881 40.5719 25.7072 42.3988 27.1872C43.2873 27.9063 43.7898 28.3721 44.0711 28.9259C44.4947 29.7596 44.26 30.4751 44.1082 30.9534C44.0827 31.0329 44.0544 31.12 44.0252 31.2165C43.7407 32.1688 43.3691 33.0929 42.9152 33.9771C42.1039 35.5341 41.244 36.7649 39.6868 37.7082C38.8879 38.1988 37.9879 38.5016 37.0549 38.5935Z" fill="black"/>
</svg>
