<svg width="36" height="33" viewBox="0 0 36 33" fill="none" xmlns="http://www.w3.org/2000/svg">
<path d="M29.8254 32.229C28.3981 32.3886 26.3367 32.085 23.151 30.7054C19.2763 29.0199 16.2457 27.4028 12.2185 24.1051C8.33484 20.9185 6.3834 18.7923 3.52441 14.6216C0.29486 9.91266 0.473161 7.235 0.866406 6.05512C1.3342 4.64518 2.15067 3.74185 3.23173 2.81497C3.84668 2.297 4.50699 1.83808 5.20428 1.44404C5.27396 1.40371 5.33868 1.36544 5.39641 1.33098C5.74052 1.12373 6.26195 0.810376 6.98537 1.00188C7.46798 1.128 7.92078 1.44588 8.6386 2.02774C10.1105 3.21918 12.2452 6.00057 13.0717 7.39134C13.6271 8.32889 13.9944 8.94769 14.0734 9.67896C14.1649 10.5352 13.8144 11.2426 13.3795 12.0125C13.298 12.157 13.2167 12.2955 13.1378 12.43C12.6614 13.24 12.5624 13.4698 12.6841 13.8467C12.9301 14.6039 14.3929 16.7764 16.6093 18.5921C18.8258 20.4078 21.1425 21.3276 21.9214 21.4085C22.324 21.4505 22.5258 21.2962 23.2173 20.6226C23.3165 20.526 23.4183 20.426 23.5252 20.3255C24.2412 19.6453 24.812 19.1569 25.6295 19.0655L25.6339 19.065C26.3453 18.9854 26.9881 19.2328 28.0528 19.6404C29.4416 20.1722 32.6435 21.6688 34.1073 22.8816C34.8193 23.4709 35.222 23.8527 35.4473 24.3065C35.7868 24.9897 35.5987 25.576 35.477 25.968C35.4566 26.0331 35.4339 26.1045 35.4106 26.1836C35.1826 26.964 34.8849 27.7213 34.5212 28.4459C33.8711 29.7218 33.182 30.7305 31.9343 31.5034C31.2941 31.9055 30.573 32.1536 29.8254 32.229Z" fill="#FFFEFA"/>
</svg>
