<svg width="28" height="27" viewBox="0 0 28 27" fill="none" xmlns="http://www.w3.org/2000/svg">
<path d="M22.1186 25.5433V25.5434C22.6657 25.5488 23.206 25.4383 23.6982 25.2213L23.7009 25.2201C24.6711 24.7992 25.2575 24.1858 25.8731 23.3278C26.215 22.8447 26.5081 22.3337 26.7491 21.8015L26.7498 21.7999C26.774 21.747 26.7974 21.6981 26.817 21.6572L26.826 21.6385C26.9604 21.355 27.0638 21.1183 26.9352 20.8011L26.9352 20.801C26.8381 20.5612 26.627 20.3134 26.0861 19.8052L26.0859 19.8051C25.5823 19.3315 24.7277 18.7528 23.8386 18.2182C22.9571 17.6882 22.0789 17.2234 21.5527 16.976L22.1186 25.5433ZM22.1186 25.5433H22.1136M22.1186 25.5433H22.1136M22.1136 25.5433C21.0454 25.5433 19.4701 25.1828 17.0257 23.9099C14.0361 22.3474 11.7412 20.9152 8.78006 18.1625C5.92042 15.4988 4.54255 13.7909 2.59641 10.4902L2.59635 10.4901M22.1136 25.5433L2.59635 10.4901M2.59635 10.4901C0.419521 6.80022 0.868739 5.00881 1.18965 4.36929L1.18997 4.36864M2.59635 10.4901L1.18997 4.36864M1.18997 4.36864C1.63453 3.47948 2.28879 2.93542 3.22057 2.35537C3.74224 2.03695 4.29467 1.76372 4.87089 1.53928L4.8709 1.53931M1.18997 4.36864L4.8709 1.53931M4.8709 1.53931L4.87543 1.53749M4.8709 1.53931L4.87543 1.53749M4.87543 1.53749C4.93835 1.51227 4.9966 1.48834 5.0481 1.46694L5.0481 1.46694M4.87543 1.53749L5.0481 1.46694M5.0481 1.46694L5.04983 1.46621M5.0481 1.46694L5.04983 1.46621M5.04983 1.46621C5.34254 1.34331 5.63616 1.22962 6.01658 1.36398L6.01797 1.36447M5.04983 1.46621L6.01797 1.36447M6.01797 1.36447C6.29082 1.45994 6.56333 1.66286 7.10543 2.16185L7.10568 2.16208M6.01797 1.36447L7.10568 2.16208M7.10568 2.16208C7.61478 2.63005 8.24007 3.40949 8.81593 4.2275M7.10568 2.16208L8.81593 4.2275M10.0514 9.31364L10.0518 9.31322C10.4788 8.77055 10.7152 8.39707 10.7154 7.94348L10.0514 9.31364ZM10.0514 9.31364C9.97822 9.4069 9.90526 9.49649 9.83127 9.58733L9.82347 9.59692C9.82337 9.59704 9.82327 9.59716 9.82317 9.59728C9.60273 9.86727 9.42356 10.0928 9.31972 10.2986C9.26211 10.4127 9.2193 10.5354 9.20395 10.6719C9.18865 10.808 9.20366 10.9313 9.22888 11.0416L9.2291 11.0425M10.0514 9.31364L9.2291 11.0425M9.2291 11.0425C9.31858 11.4303 9.64945 12.0757 10.1296 12.7836C10.6229 13.5111 11.3113 14.3594 12.1679 15.1561C13.0247 15.9529 13.9219 16.5781 14.6883 17.0216C15.4397 17.4563 16.1074 17.7406 16.5043 17.8196M9.2291 11.0425L16.5043 17.8196M18.2917 17.0674L18.2896 17.0688C18.2118 17.1222 18.1372 17.1753 18.0604 17.23C18.0468 17.2398 18.0331 17.2495 18.0192 17.2594L18.2917 17.0674ZM18.2917 17.0674C18.9416 16.6167 19.3333 16.3937 19.8359 16.3937M18.2917 17.0674L19.8359 16.3937M16.5043 17.8196C16.5043 17.8196 16.5044 17.8196 16.5045 17.8196L16.602 17.3292C16.9272 17.394 17.1055 17.296 17.7293 16.852C17.7427 16.8425 17.7561 16.8329 17.7696 16.8233C17.8463 16.7687 17.925 16.7126 18.0068 16.6565L16.5043 17.8196ZM8.81593 4.2275C9.38923 5.04188 9.88801 5.8579 10.15 6.38032M8.81593 4.2275L10.15 6.38032M10.15 6.38032C10.5379 7.15687 10.7149 7.53426 10.7154 7.9434L10.15 6.38032ZM19.8359 16.3937H19.8396M19.8359 16.3937H19.8396M19.8396 16.3937C20.2934 16.3937 20.688 16.5696 21.5527 16.976L19.8396 16.3937Z" stroke="black"/>
</svg>
