<?xml version="1.0" encoding="UTF-8"?>
<svg xmlns="http://www.w3.org/2000/svg" version="1.1" xmlns:xlink="http://www.w3.org/1999/xlink" viewBox="0 0 32 32">
  <!-- Generator: Adobe Illustrator 29.0.1, SVG Export Plug-In . SVG Version: 2.1.0 Build 192)  -->
  <defs>
    <style>
      .st0 {
        fill: url(#New_Gradient_Swatch1);
      }

      .st1 {
        fill: url(#New_Gradient_Swatch);
      }
    </style>
    <linearGradient id="New_Gradient_Swatch" data-name="New Gradient Swatch" x1=".3" y1="16" x2="31.8" y2="16" gradientUnits="userSpaceOnUse">
      <stop offset="0" stop-color="#b19673"/>
      <stop offset=".5" stop-color="#d7c098"/>
      <stop offset=".9" stop-color="#b39a77"/>
    </linearGradient>
    <linearGradient id="New_Gradient_Swatch1" data-name="New Gradient Swatch" x1="8" y1="14.9" x2="26.3" y2="14.9" xlink:href="#New_Gradient_Swatch"/>
  </defs>
  <g id="Layer_1" focusable="false">
    <path class="st1" d="M16,3.1c4.2,0,4.7,0,6.4,0,1.5,0,2.4.3,2.9.5.7.3,1.3.6,1.8,1.2s.9,1.1,1.2,1.8c.2.6.5,1.4.5,2.9,0,1.7,0,2.2,0,6.4s0,4.7,0,6.4c0,1.5-.3,2.4-.5,2.9-.3.7-.6,1.3-1.2,1.8s-1.1.9-1.8,1.2c-.6.2-1.4.5-2.9.5-1.7,0-2.2,0-6.4,0s-4.7,0-6.4,0c-1.5,0-2.4-.3-2.9-.5-.7-.3-1.3-.6-1.8-1.2s-.9-1.1-1.2-1.8c-.2-.6-.5-1.4-.5-2.9,0-1.7,0-2.2,0-6.4s0-4.7,0-6.4c0-1.5.3-2.4.5-2.9.3-.7.6-1.3,1.2-1.8s1.1-.9,1.8-1.2c.6-.2,1.4-.5,2.9-.5,1.7,0,2.2,0,6.4,0ZM16,.3c-4.3,0-4.8,0-6.5,0-1.7,0-2.8.3-3.8.7-1,.4-1.9.9-2.8,1.8s-1.4,1.8-1.8,2.8c-.4,1-.7,2.1-.7,3.8,0,1.7,0,2.2,0,6.5s0,4.8,0,6.5c0,1.7.3,2.8.7,3.8.4,1,.9,1.9,1.8,2.8s1.8,1.4,2.8,1.8c1,.4,2.1.7,3.8.7s2.2,0,6.5,0,4.8,0,6.5,0c1.7,0,2.8-.3,3.8-.7,1-.4,1.9-.9,2.8-1.8s1.4-1.8,1.8-2.8c.4-1,.7-2.1.7-3.8s0-2.2,0-6.5,0-4.8,0-6.5c0-1.7-.3-2.8-.7-3.8-.4-1-.9-1.9-1.8-2.8s-1.8-1.4-2.8-1.8c-1-.4-2.1-.7-3.8-.7-1.7,0-2.2,0-6.5,0Z"/>
    <path class="st0" d="M16,7.9c-4.5,0-8,3.7-8,8.2,0,4.4,3.6,7.9,8,8,4.5,0,8.1-3.6,8.1-8.1s-3.6-8.1-8.1-8.1h0ZM16,21.2c-2.9,0-5.2-2.4-5.2-5.2s2.4-5.2,5.2-5.2,5.2,2.4,5.2,5.2-2.4,5.2-5.2,5.2ZM26.3,7.6c0,1-.8,1.9-1.9,1.9-1,0-1.9-.8-1.9-1.9,0-1,.8-1.9,1.9-1.9,1,0,1.9.8,1.9,1.9h0Z"/>
  </g>
</svg>