<?xml version="1.0" encoding="UTF-8"?>
<svg id="Layer_2" data-name="Layer 2" xmlns="http://www.w3.org/2000/svg" xmlns:xlink="http://www.w3.org/1999/xlink" viewBox="0 0 348.2 76.28">
  <defs>
    <style>
      .cls-1 {
        fill: #fff;
      }

      .cls-1, .cls-2 {
        fill-rule: evenodd;
      }

      .cls-3 {
        fill: url(#linear-gradient);
      }

      .cls-4 {
        fill: none;
        stroke: url(#New_Gradient_Swatch);
        stroke-miterlimit: 10;
        stroke-width: 2px;
      }
    </style>
    <linearGradient id="linear-gradient" x1="11.74" y1="11.74" x2="63.62" y2="63.62" gradientUnits="userSpaceOnUse">
      <stop offset=".05" stop-color="#b29673"/>
      <stop offset=".47" stop-color="#d8c099"/>
      <stop offset=".95" stop-color="#b49a76"/>
    </linearGradient>
    <linearGradient id="New_Gradient_Swatch" data-name="New Gradient Swatch" x1="0" y1="37.68" x2="75.36" y2="37.68" gradientUnits="userSpaceOnUse">
      <stop offset=".05" stop-color="#b29673"/>
      <stop offset=".47" stop-color="#d8c099"/>
      <stop offset=".95" stop-color="#b49a76"/>
    </linearGradient>
  </defs>
  <g id="Layer_1-2" data-name="Layer 1">
    <g>
      <g>
        <g>
          <path class="cls-2" d="M135.03,8.06c-.37,1.03-.74,2.05-1.11,3.08-1.88,5.31-3.76,10.63-5.64,15.94-2.13,6.04-4.27,12.08-6.39,18.12-.87,2.46-1.71,4.93-2.58,7.4-.1.29-.13.65-.62.67-.51.02-.58-.34-.7-.65-2.37-6.01-4.72-12.03-7.08-18.04-2.41-6.14-4.81-12.29-7.21-18.43-.71-1.8-1.42-3.61-2.28-5.41-.02.23-.07.47-.07.7.03,10.98.05,21.96.12,32.93,0,1.27.14,2.56.41,3.8.52,2.39,2.27,3.55,4.53,3.99,1.11.22,2.26.27,3.4.39.24.03.54-.05.54.36s-.31.34-.54.34c-5.4,0-10.8,0-16.2,0-.24,0-.54.08-.53-.35,0-.41.31-.31.55-.35,1.18-.19,2.4-.26,3.53-.62,2.12-.68,3.04-2.4,3.25-4.5.15-1.43.19-2.87.2-4.3.02-10.15.01-20.3,0-30.45,0-.79-.03-1.58-.15-2.35-.24-1.6-1.27-2.59-2.76-2.98-1.34-.35-2.74-.49-4.12-.7-.25-.04-.5-.03-.78-.04v-.66h.61c3.71,0,7.41.01,11.12-.01.51,0,.71.19.88.63,1.89,4.87,3.81,9.73,5.71,14.59,2.26,5.76,4.52,11.52,6.78,17.28.87,2.23,1.73,4.47,2.6,6.7.08.21.2.41.37.75.46-1.29.88-2.45,1.29-3.61,2.11-5.94,4.21-11.88,6.32-17.82,2.01-5.68,4.03-11.37,6.04-17.05.51-1.45.5-1.45,2.04-1.45,3.35,0,6.7,0,10.05,0,.16,0,.34-.03.46.04.1.06.21.3.17.37-.08.13-.26.26-.41.27-1.09.13-2.2.18-3.29.34-1.93.29-2.84,1.25-3.02,3.19-.11,1.1-.17,2.2-.17,3.3-.01,10.74-.02,21.48,0,32.23,0,1.37.13,2.75.31,4.11.15,1.15.89,1.91,2,2.24,1.9.56,3.84.63,5.79.42,1.18-.13,2.34-.35,3.38-.94,1.42-.81,2.31-2.1,2.92-3.54,1.27-3.02,2.44-6.09,3.62-9.14.87-2.25,1.68-4.53,2.52-6.79,1.52-4.08,3.05-8.17,4.57-12.25,1.74-4.67,3.48-9.35,5.22-14.02.09-.25.11-.56.56-.54.43.01.46.3.56.56,2.62,6.59,5.23,13.18,7.84,19.77,2.6,6.55,5.2,13.11,7.81,19.65.71,1.79,1.51,3.55,2.82,5.01,1.09,1.22,2.49,1.88,4.08,2.17.44.08.89.14,1.31.21.17.52-.01.67-.49.67-5.81,0-11.63,0-17.44,0-.48,0-.66-.16-.49-.62,1.02-.15,2.03-.28,3.04-.44.33-.05.66-.14.97-.25,1.7-.61,2.39-1.79,1.83-3.52-.79-2.48-1.72-4.93-2.62-7.38-.53-1.46-1.13-2.89-1.67-4.34-.15-.41-.37-.56-.82-.56-5.72.02-11.43.02-17.15,0-.45,0-.66.15-.81.56-1.1,3.09-2.24,6.17-3.31,9.26-.29.85-.47,1.75-.59,2.64-.24,1.82.55,3,2.34,3.38,1.23.26,2.48.37,3.73.54.25.04.64-.06.53.38-.04.14-.36.31-.55.31-11.08.02-22.15.01-33.23,0-.23,0-.54.1-.55-.32,0-.41.28-.34.53-.36,1.04-.09,2.1-.09,3.11-.31,2.17-.46,2.87-1.28,3.07-3.49.09-.96.09-1.93.09-2.89,0-12.38,0-24.76,0-37.13v-.63c-.06-.01-.12-.03-.18-.04ZM178.22,35.37c-3.04-7.77-6.04-15.44-9.11-23.28-2.89,7.85-5.71,15.53-8.56,23.28h17.67Z"/>
          <path class="cls-2" d="M282.16,5.95c.18,0,.38-.02.57-.03,3.71,0,7.41,0,11.12-.01.45,0,.71.15.96.52,6.8,10.31,13.61,20.61,20.42,30.92,1.42,2.15,2.84,4.3,4.27,6.45.09.14.21.27.42.53.02-.34.04-.54.04-.74,0-9.22.02-18.45-.02-27.67,0-1.62-.16-3.27-.47-4.86-.39-2.04-1.84-3.25-3.78-3.71-1.62-.38-3.3-.49-4.95-.74-.17-.03-.42-.2-.45-.34-.09-.35.21-.33.45-.33,5.97,0,11.94,0,17.92,0,.1,0,.19.02.32.03v.56c-1.06.14-2.09.24-3.12.42-3.59.62-4.64,2.61-4.95,5.53-.14,1.33-.15,2.68-.15,4.02,0,12,0,24.01-.02,36.01,0,.27-.09.7-.26.78-.39.19-.65-.12-.88-.47-6.34-9.52-12.7-19.04-19.06-28.56-2.96-4.43-5.91-8.87-8.87-13.3-.1-.14-.21-.28-.4-.54-.02.32-.04.51-.04.7.02,11.02.02,22.04.09,33.05,0,1.42.17,2.89.54,4.26.55,2.06,2.18,3.14,4.17,3.57,1.42.3,2.88.39,4.32.56.19.02.39.03.62.04v.62h-36.96v-.53c1.28-.23,2.54-.38,3.75-.68,1.88-.46,2.66-1.76,2.08-3.6-.69-2.23-1.52-4.41-2.32-6.6-.63-1.71-1.34-3.4-1.98-5.11-.15-.4-.34-.54-.77-.54-5.74.01-11.47.01-17.21,0-.38,0-.61.08-.75.47-1.17,3.35-2.38,6.7-3.54,10.05-.23.68-.37,1.42-.42,2.14-.13,1.73.64,2.79,2.32,3.18,1.05.24,2.13.35,3.2.51.35.05.7.05,1.07.08.17.47.07.67-.44.67-4.87,0-9.74,0-14.61-.02-.16,0-.32-.21-.48-.33.16-.12.3-.32.47-.35,1.09-.23,2.23-.32,3.29-.64,1.85-.57,2.96-2.01,3.69-3.68,1.14-2.61,2.17-5.26,3.21-7.92.9-2.32,1.74-4.67,2.61-7.01,1.61-4.34,3.23-8.69,4.85-13.03,1.22-3.28,2.44-6.55,3.66-9.83.64-1.73,1.29-3.46,1.92-5.16.52-.16.77,0,.96.49,1.72,4.39,3.46,8.77,5.2,13.15,2.15,5.42,4.3,10.84,6.46,16.26,1.45,3.65,2.9,7.3,4.38,10.94.58,1.42,1.3,2.78,2.31,3.95,1.14,1.32,2.61,2.02,4.32,2.32,1.75.31,3.45.1,5.13-.36,2.3-.62,3.53-2.22,3.83-4.5.19-1.46.26-2.94.27-4.42.02-10.31.02-20.62,0-30.92,0-.61-.05-1.22-.17-1.82-.32-1.65-1.42-2.65-2.97-3.02-1.54-.37-3.13-.51-4.71-.72-.56-.08-.57-.03-.47-.68ZM247.3,35.36h17.67c-3.03-7.75-6.04-15.43-9.11-23.27-2.88,7.84-5.71,15.51-8.56,23.27Z"/>
          <path class="cls-2" d="M196.58,53.19c-.16-.5.04-.63.47-.65.75-.03,1.49-.09,2.24-.19,1.83-.24,2.77-1.23,2.92-3.13.08-.96.11-1.93.11-2.89,0-11.23.01-22.47,0-33.7,0-1.19-.12-2.4-.29-3.58-.14-.99-.77-1.71-1.75-1.94-.99-.24-2.01-.34-3.02-.49-.21-.03-.43,0-.65,0-.15-.48-.1-.71.43-.71,5.93.01,11.86,0,17.79,0,.27,0,.58-.01.5.37-.03.14-.3.29-.47.31-1.58.19-3.19.23-4.74.54-1.7.33-2.4,1.25-2.6,2.99-.08.74-.14,1.49-.14,2.24,0,11.71,0,23.41.01,35.12,0,.98.15,1.96.33,2.93.15.81.69,1.41,1.49,1.59.89.21,1.82.38,2.73.39,2.97.03,5.96.09,8.92-.06,2.66-.14,5.14-.96,7.13-2.86,1.27-1.22,2.14-2.71,2.75-4.35,1.05-2.81,1.43-5.75,1.67-8.72.08-1.02.13-2.04.2-3.07,0-.16-.01-.34.06-.46.07-.12.24-.27.36-.27.1,0,.28.21.28.33.02.63-.01,1.26-.02,1.89-.07,5.93-.13,11.86-.2,17.79,0,.17-.02.35-.03.58h-36.47Z"/>
          <path class="cls-2" d="M331.24,6.63c-.15-.5-.06-.71.43-.71,5.38.01,10.76,0,16.14,0,.11,0,.23.03.36.05,0,.19.02.37.03.6-.6.05-1.18.1-1.76.17-.55.07-1.1.13-1.63.26-1.33.33-2.12,1.24-2.27,2.62-.08.74-.15,1.49-.15,2.24,0,11.84,0,23.68,0,35.52,0,.73.06,1.46.15,2.18.19,1.63,1.28,2.62,3.07,2.8.84.08,1.68.16,2.55.24v.61h-16.94c-.13-.44-.04-.63.44-.66,1.04-.07,2.09-.13,3.1-.36,1.6-.36,2.32-1.27,2.43-2.91.07-1.04.12-2.09.12-3.13,0-11.09.01-22.19,0-33.28,0-1.2-.1-2.4-.25-3.59-.14-1.15-.84-1.92-1.96-2.18-1.03-.24-2.09-.33-3.14-.47-.23-.03-.47,0-.73,0Z"/>
        </g>
        <g>
          <g>
            <path class="cls-2" d="M243.5,71.11c-.16.21-.29.41-.44.6-.28.35-.62.64-1.03.85-.38.2-.79.3-1.22.27-.47-.03-.88-.2-1.2-.55-.2-.22-.33-.47-.41-.75-.12-.41-.15-.84-.08-1.26.05-.29.12-.58.23-.86.23-.59.59-1.1,1.06-1.52.27-.24.57-.44.9-.59.45-.21.92-.33,1.41-.33.8,0,1.43.31,1.87.99.17.27.28.56.34.88.09.4.09.81.04,1.22-.04.33-.08.67-.14,1-.04.23-.12.45-.2.68-.07.22-.14.44-.22.65-.16.44-.37.86-.62,1.27-.27.45-.58.87-.95,1.25-.4.41-.85.76-1.37,1.01-.21.1-.45.17-.67.24-.34.1-.69.14-1.04.12-.47-.03-.91-.17-1.25-.51-.35-.35-.48-.77-.41-1.27.06-.41.22-.77.53-1.06.19-.17.41-.28.67-.28.26,0,.49.08.61.34.07.16.07.34.02.51,0,.02-.04.04-.06.05-.29.06-.55.18-.79.36-.25.19-.42.44-.44.76-.01.24.07.46.26.62.22.19.49.27.77.3.26.03.52.02.77-.05.23-.07.45-.17.65-.31.49-.35.85-.82,1.13-1.34.2-.37.38-.76.55-1.15.13-.29.22-.59.32-.88.09-.25.16-.5.24-.75.05-.16.09-.32.14-.51ZM240.32,71.46c0,.18.02.42.1.64.08.2.2.36.41.44.24.1.49.08.73.03.38-.09.71-.29,1-.55.3-.27.54-.58.75-.91.26-.41.42-.85.49-1.32.03-.22.07-.45.1-.67.04-.32.08-.64.04-.97-.02-.13-.05-.27-.1-.39-.16-.39-.47-.59-.88-.64-.44-.05-.79.13-1.11.41-.32.28-.56.62-.75,1-.19.37-.33.75-.46,1.14-.08.25-.13.51-.2.77-.08.31-.13.63-.13,1.01Z"/>
            <path class="cls-2" d="M196.29,66.98c.25,0,.54.03.83.11.42.12.8.34,1.14.61.15.12.3.24.45.35.19.13.4.09.53-.11.14-.21.22-.44.3-.68.03-.08.05-.16.08-.24.02-.06.07-.06.1-.04.01,0,.02.06.01.08-.05.18-.1.37-.15.55-.05.18-.1.37-.15.55-.07.25-.13.49-.2.74-.06.23-.13.46-.19.69-.05.18-.1.35-.15.53-.03.12-.06.25-.1.38,0,.03-.05.04-.08.06-.01-.03-.04-.06-.04-.08.02-.19.06-.38.07-.57.02-.44-.04-.86-.19-1.28-.15-.4-.38-.75-.71-1.02-.25-.2-.53-.33-.84-.4-.34-.08-.7-.12-1.05-.07-.2.03-.4.05-.59.1-.5.13-.92.38-1.18.85-.09.16-.13.33-.16.52-.07.52.13.92.53,1.24.33.27.71.46,1.09.66.54.29,1.09.57,1.62.88.3.17.57.4.78.68.15.2.25.42.3.66.07.36.05.72-.05,1.07-.16.6-.49,1.08-.95,1.48-.35.31-.75.53-1.19.7-.49.19-1,.28-1.52.28-.41,0-.82-.05-1.21-.21-.37-.14-.69-.36-.99-.62-.14-.12-.28-.23-.43-.33-.19-.12-.41-.07-.52.12-.1.18-.19.38-.26.57-.06.14-.09.29-.14.43,0,.02-.06.03-.09.04,0,0-.04-.04-.03-.06.03-.13.06-.26.1-.38.04-.13.08-.27.11-.41.05-.19.11-.38.16-.57.05-.19.1-.37.15-.56.06-.23.13-.47.19-.7.03-.12.07-.25.1-.37.06-.22.12-.45.18-.67,0-.02.06-.04.09-.04.01,0,.04.04.04.07-.02.14-.05.29-.06.43-.01.26-.02.51,0,.77.01.2.05.39.1.58.05.17.12.34.19.5.14.29.34.54.6.74.2.16.43.28.68.37.44.15.89.19,1.34.16.57-.04,1.11-.19,1.59-.53.32-.23.57-.53.69-.92.09-.31.12-.61.03-.92-.07-.26-.22-.48-.42-.67-.27-.26-.59-.47-.92-.64-.49-.26-.99-.49-1.48-.75-.37-.2-.73-.43-1.02-.74-.21-.22-.37-.47-.45-.77-.07-.27-.07-.54-.03-.81.07-.42.25-.78.5-1.11.23-.29.51-.53.83-.72.26-.15.53-.27.82-.36.38-.12.77-.17,1.21-.17Z"/>
            <path class="cls-2" d="M233.5,71.55c-.24-.22-.48-.42-.69-.65-.24-.26-.4-.56-.47-.91-.07-.32-.06-.64.01-.95.16-.68.54-1.2,1.13-1.57.53-.33,1.12-.49,1.74-.5.17,0,.34,0,.51.01.26.01.51.08.76.16.28.09.54.22.76.41.3.24.51.54.57.93.11.69-.13,1.24-.63,1.7-.31.29-.68.49-1.08.63-.21.08-.42.14-.63.22-.02,0-.03.03-.05.04.01.02.03.04.04.05.26.18.53.36.78.55.27.21.5.47.63.8.15.39.19.79.11,1.2-.13.67-.51,1.18-1.01,1.61-.3.26-.64.47-1.01.63-.23.1-.48.17-.72.24-.37.11-.74.14-1.12.12-.59-.03-1.14-.18-1.63-.52-.36-.26-.61-.6-.71-1.03-.08-.36-.05-.71.06-1.06.23-.75.76-1.23,1.42-1.59.3-.16.62-.29.93-.42.1-.04.2-.06.29-.09ZM233.33,76.12c.25-.03.46-.04.68-.08.36-.07.71-.19,1.03-.37.53-.3.95-.71,1.1-1.33.11-.43.03-.82-.25-1.16-.29-.34-.65-.58-1.02-.82-.36-.23-.73-.45-1.1-.67-.04-.02-.11-.03-.14-.01-.22.11-.45.21-.66.35-.4.25-.73.58-.98.98-.19.3-.32.63-.38.98-.06.38-.06.76.07,1.13.16.47.51.75.98.88.23.07.47.08.69.12ZM237.16,68.57c0-.05-.02-.16-.03-.27-.03-.24-.13-.46-.29-.64-.24-.28-.56-.42-.91-.48-.65-.12-1.29-.05-1.88.25-.47.23-.77.59-.85,1.13-.03.25,0,.49.08.72.1.28.29.51.52.71.41.36.87.63,1.33.92.07.04.13.06.2.03.25-.12.52-.23.76-.38.68-.45,1.06-1.09,1.08-1.97Z"/>
            <path class="cls-2" d="M205.62,73.88s.03-.02.04-.04c.28-.74.59-1.46.99-2.14.28-.48.59-.95.97-1.36.22-.23.46-.45.74-.6.25-.14.52-.2.81-.15.27.05.48.21.65.42.21.26.35.56.42.9.06.29.04.56-.04.84-.12.38-.23.77-.37,1.15-.12.35-.28.69-.41,1.04-.13.34-.25.69-.37,1.04-.08.25-.14.5-.13.76.02.3.23.36.46.29.26-.09.45-.28.61-.49.29-.37.52-.78.71-1.22.08-.17.15-.35.23-.52.04.02.07.04.11.05-.18.43-.36.86-.59,1.26-.19.32-.4.63-.7.86-.32.25-.68.35-1.08.24-.33-.09-.56-.29-.7-.61-.13-.29-.12-.6-.07-.9.05-.26.12-.52.2-.77.08-.26.18-.51.28-.76.12-.3.25-.59.37-.89.09-.22.19-.44.27-.66.11-.3.2-.6.29-.9.04-.13.05-.28.04-.42-.01-.25-.13-.45-.4-.54-.14-.04-.28,0-.41.04-.34.12-.6.37-.84.63-.52.58-.91,1.24-1.25,1.93-.18.37-.35.74-.51,1.12-.14.34-.26.68-.37,1.03-.12.4-.21.8-.31,1.21-.03.11-.05.22-.08.33,0,.03-.04.06-.07.06-.29.03-.57.06-.86.09-.12.01-.24.03-.38.04.03-.11.05-.2.07-.29.07-.23.13-.46.2-.69.07-.22.13-.45.2-.67.08-.25.16-.49.23-.74.06-.2.12-.4.19-.59.07-.21.14-.42.2-.62.07-.2.13-.41.19-.62.08-.28.17-.57.25-.85.05-.2.11-.39.15-.6.04-.19.08-.38.04-.58-.04-.18-.21-.26-.38-.23-.31.05-.53.26-.72.49-.3.36-.52.77-.7,1.19-.07.17-.14.33-.21.5,0,.02-.06.05-.07.04-.03-.02-.06-.05-.06-.08,0-.05.03-.1.05-.14.13-.28.24-.55.38-.82.2-.39.44-.76.79-1.05.33-.28.72-.39,1.14-.32.32.06.56.25.72.54.19.34.16.69.07,1.04-.1.37-.24.74-.37,1.1-.15.39-.31.77-.46,1.15-.05.12-.09.25-.13.37,0,.03,0,.06,0,.09-.05.04-.09.18-.06.25.02-.09.04-.17.06-.25Z"/>
            <path class="cls-2" d="M253.08,67.09s-.04.08-.06.1c-.36.42-.73.83-1.09,1.25-.45.53-.9,1.06-1.34,1.59-.54.66-1.04,1.34-1.51,2.04-.35.53-.66,1.07-.91,1.65-.21.49-.37.99-.38,1.53,0,.14.02.29.05.43.02.1.02.18-.06.25-.29.27-.62.37-1,.32-.27-.04-.48-.22-.53-.54-.06-.34.02-.66.16-.97.3-.7.77-1.29,1.26-1.87.83-.98,1.75-1.89,2.63-2.82.58-.61,1.14-1.24,1.7-1.86,0,0,.01-.01.01-.02,0,0,0-.01-.01-.02-.07.04-.13.07-.2.11-.25.14-.52.25-.8.32-.28.07-.56.06-.85.04-.4-.04-.79-.07-1.19-.13-.41-.06-.83-.12-1.25-.13-.24,0-.47-.01-.7.09-.15.06-.26.16-.34.3-.16.28-.3.58-.44.87-.05.11-.09.23-.13.35-.02.06-.05.07-.16.04.06-.16.12-.32.18-.47.1-.26.2-.52.29-.77.13-.35.27-.7.41-1.04.07-.17.13-.35.2-.52.02-.04.05-.09.09-.11.06-.03.09.02.07.07-.09.23-.18.46-.27.69-.08.2-.16.4-.23.6,0,.01,0,.03.02.05.06-.1.13-.21.19-.31.18-.29.38-.56.63-.79.22-.19.47-.33.76-.4.35-.08.7-.07,1.04.02.3.07.56.22.82.4.24.17.49.34.75.47.26.14.55.18.84.15.2-.02.4-.09.54-.24.09-.08.14-.2.21-.3.08-.12.15-.25.23-.38.02-.03.05-.05.07-.05.09,0,.18,0,.3,0Z"/>
            <path class="cls-2" d="M229.17,68.1c-.51.18-1.04.31-1.58.37-.02-.11-.01-.12.08-.13.23-.05.46-.09.68-.16.28-.08.56-.17.83-.28.35-.14.69-.31,1-.54.15-.11.3-.24.45-.35.04-.03.1-.04.15-.06,0,0,.01.02.02.03-.03.11-.06.21-.09.32-.05.18-.1.36-.15.54-.05.17-.1.34-.15.51-.05.18-.1.36-.15.53-.07.23-.13.46-.2.69-.05.17-.09.34-.14.51-.06.23-.13.46-.19.68-.07.23-.13.46-.2.69-.07.23-.13.46-.2.69-.07.23-.13.46-.19.69-.06.22-.12.43-.18.65-.07.24-.14.48-.21.72-.08.27-.16.54-.23.81-.04.15-.07.3-.09.46-.02.2.08.35.27.42.24.1.49.1.74.12.05,0,.1,0,.15,0,.02,0,.04.03.07.04-.02.03-.04.06-.07.08-.01.01-.04,0-.07,0h-4.06c-.02-.11,0-.12.09-.13.27-.03.55-.04.82-.09.38-.07.65-.29.76-.67.11-.35.21-.71.32-1.07.11-.37.22-.74.33-1.11.11-.38.21-.76.32-1.14.11-.38.22-.75.33-1.13.11-.38.21-.75.32-1.13.12-.43.25-.86.37-1.29.03-.09.04-.18.07-.27,0,0-.01-.02-.02-.03Z"/>
            <path class="cls-2" d="M222.16,73.78c-.13.24-.26.47-.4.69-.22.37-.47.71-.78,1.01-.27.28-.58.51-.95.64-.35.13-.71.18-1.09.12-.66-.12-1.07-.51-1.31-1.12-.25-.63-.26-1.29-.18-1.95.05-.4.18-.79.34-1.16.23-.53.55-1,.95-1.41.25-.25.52-.47.83-.64.3-.16.61-.28.95-.34.26-.04.52-.06.78-.03.47.06.88.25,1.12.69.14.25.18.53.14.82-.08.59-.43.99-.89,1.31-.33.23-.7.39-1.08.5-.27.08-.56.14-.84.19-.3.05-.6.07-.89.1-.09,0-.14.03-.16.13-.05.21-.1.42-.14.62-.04.21-.08.43-.11.65-.04.33-.05.65.08.96.11.25.3.42.57.49.52.13.97-.03,1.39-.33.42-.29.75-.69,1.02-1.12.17-.26.32-.54.46-.82.04-.09.08-.1.15-.04,0,0,.02,0,.05.03ZM221.67,70.45c-.02-.1-.03-.21-.05-.31-.04-.15-.12-.28-.27-.34-.3-.13-.59-.08-.86.07-.43.25-.72.64-.94,1.07-.16.3-.29.61-.41.93-.14.37-.25.74-.37,1.11-.02.06,0,.09.07.08.11-.01.22-.03.33-.04.38-.05.73-.18,1.07-.35.37-.2.69-.46.94-.79.31-.42.47-.9.5-1.42Z"/>
            <path class="cls-2" d="M216.44,73.78c-.08.14-.15.29-.23.43-.26.45-.55.88-.92,1.25-.29.3-.63.53-1.02.67-.34.12-.69.17-1.05.13-.63-.07-1.08-.41-1.36-.98-.19-.41-.27-.84-.27-1.28,0-.22,0-.45.02-.67.03-.22.07-.44.14-.66.12-.42.31-.81.55-1.18.34-.53.76-.99,1.29-1.34.28-.19.59-.34.92-.44.4-.12.8-.16,1.21-.11.43.06.8.25,1.03.63.18.3.24.63.18.97-.05.34-.18.65-.46.87-.15.12-.31.18-.5.2-.28.02-.53-.16-.61-.45,0-.02.02-.06.04-.07.3-.21.54-.47.71-.79.12-.21.19-.44.16-.7-.03-.23-.16-.38-.37-.46-.35-.13-.71-.1-1.06.03-.33.12-.58.36-.79.63-.21.26-.37.55-.49.86-.11.28-.23.56-.33.84-.09.26-.16.53-.23.79-.09.33-.18.67-.24,1.01-.06.32-.11.64-.12.97-.01.23.01.48.12.69.1.22.27.37.51.43.28.07.55.04.83-.03.63-.18,1.08-.6,1.47-1.1.28-.36.5-.74.71-1.15.04-.08.05-.08.18,0Z"/>
            <path class="cls-2" d="M203.02,73.81c.12.04.13.04.08.16-.19.48-.4.96-.69,1.39-.2.3-.43.58-.76.76-.3.16-.62.2-.95.08-.41-.16-.61-.47-.69-.89-.07-.33,0-.65.08-.96.06-.22.12-.44.19-.66.06-.18.12-.35.19-.53.08-.22.16-.44.24-.65.06-.16.13-.32.19-.49.08-.22.16-.44.24-.66.06-.17.11-.33.15-.5.07-.25.12-.5.11-.76-.01-.21-.21-.33-.4-.3-.34.05-.57.28-.77.54-.32.4-.55.85-.75,1.32-.04.1-.08.21-.13.31-.01.02-.05.04-.08.05-.01-.03-.05-.07-.04-.1.04-.11.08-.22.13-.33.17-.33.32-.67.51-.99.2-.35.47-.66.83-.86.23-.13.47-.17.73-.16.27.01.51.09.71.26.23.2.34.45.32.74-.01.25-.06.5-.12.74-.06.28-.15.55-.23.82-.07.22-.15.43-.23.65-.09.26-.19.52-.29.77-.08.21-.16.41-.23.61-.07.19-.14.38-.2.58-.06.2-.12.41-.16.62-.03.17-.06.36.02.53.04.08.1.13.2.15.22.03.39-.08.55-.21.27-.22.47-.51.64-.81.17-.31.32-.63.48-.95.04-.09.07-.18.11-.27Z"/>
            <path class="cls-2" d="M201.9,67.68c.02-.36.15-.64.47-.8.31-.15.7-.09.95.2.19.22.25.48.2.76-.08.45-.45.77-.93.7-.29-.04-.53-.23-.63-.55-.03-.1-.04-.21-.07-.31Z"/>
            <path class="cls-1" d="M205.62,73.88c-.02.08-.04.16-.06.25-.03-.07,0-.21.06-.25h0Z"/>
          </g>
          <polygon class="cls-2" points="179.12 72.16 137.37 72.93 179.12 73.7 182.76 72.93 179.12 72.16"/>
          <polygon class="cls-2" points="261.86 72.16 303.61 72.93 261.86 73.7 258.22 72.93 261.86 72.16"/>
        </g>
      </g>
      <g>
        <path class="cls-3" d="M37.68,1C17.42,1,1,17.42,1,37.68s16.42,36.68,36.68,36.68,36.68-16.42,36.68-36.68S57.94,1,37.68,1ZM57.51,20.93c-.11.18-.34.33-.55.35-.32.04-.63.06-.95.09-.46.04-.94.08-1.4.15-1.23.18-1.76.71-1.87,1.9-.08.77-.12,1.53-.12,2.25v.8s0,.35,0,.35c0,1.1,0,1.7,0,3.4v1.62s0,0,0,0v13.14c0,7.15,0,9.83-1.33,12.99-.96,2.27-2.95,4.38-6.48,6.81-.64.44-1.3.89-1.74,1.11-.11.05-.25.12-.46.12-.31,0-.65-.23-.65-.61,0-.43.31-.64.71-.9l.06-.04c.53-.31,1.12-.83,1.47-1.18,2.61-2.64,4.08-4.7,4.08-16.17v-15.28l-.03-.35v-4.46c0-.51,0-.88,0-3.51-.08.22-.17.45-.25.67-1.35,3.67-2.7,7.34-4.05,11.01l-.2.56c-1.46,3.99-2.93,7.97-4.39,11.96-.31.84-.61,1.68-.91,2.52-.31.86-.62,1.73-.94,2.59l-.02.08c-.06.19-.19.59-.73.61h0c-.58,0-.74-.41-.81-.61l-.02-.06c-1.6-3.9-3.19-7.81-4.78-11.71l-5.48-13.49c-.34-.82-.64-1.56-.96-2.27,0,1.96,0,4.58,0,7.33,0,6.08.01,12.98.02,14.31,0,.88.1,1.73.29,2.55.31,1.35,1.28,2.17,2.98,2.49.54.1,1.11.15,1.66.2.25.02.5.04.75.07.02,0,.05,0,.07,0,.52.02.63.33.63.59,0,.36-.23.59-.59.59h-.15s-5.82,0-5.82,0h-5.82s-.14,0-.14,0c-.07,0-.28,0-.43-.16-.11-.11-.16-.26-.16-.44,0-.25.12-.56.61-.58.02,0,.05,0,.07,0,.26-.04.52-.07.79-.11.6-.08,1.16-.15,1.7-.31,1.25-.39,1.93-1.31,2.09-2.81.09-.86.14-1.8.14-2.94,0-1.39,0-10.49,0-17.09v-6.14c-.33-.39-.63-.58-.95-.77l-.16-.1s-.04-.03-.06-.04c-.05-.03-.1-.06-.23-.11-.16-.07-.29-.11-.42-.14-.32-.08-.64-.14-.92-.19l-.16-.03c-.34-.05-.67-.1-1.01-.15-.28-.04-.56-.08-.84-.12-.11-.02-.22-.02-.33-.02-.06,0-.13,0-.2,0l-.33-.02v-1.14h4.62c1.38,0,2.76,0,4.14,0,.61,0,.83.33.96.65,1.12,2.77,2.25,5.54,3.38,8.31l2.52,6.17c1.02,2.51,2.05,5.02,3.07,7.53.35.87.7,1.73,1.05,2.6.24.59.48,1.19.72,1.78l.03-.07c.21-.57.41-1.11.61-1.65l5.3-14.39c1.19-3.23,2.38-6.47,3.57-9.7.42-1.14.55-1.23,1.79-1.23h7.28c.12,0,.27-.02.44.07.15.09.25.27.29.41.04.16,0,.27-.04.34Z"/>
        <circle class="cls-4" cx="37.68" cy="37.68" r="36.68"/>
      </g>
    </g>
  </g>
</svg>