<?xml version="1.0" encoding="UTF-8"?>
<svg xmlns="http://www.w3.org/2000/svg" version="1.1" xmlns:xlink="http://www.w3.org/1999/xlink" viewBox="0 0 21 20">
  <!-- Generator: Adobe Illustrator 29.0.1, SVG Export Plug-In . SVG Version: 2.1.0 Build 192)  -->
  <defs>
    <style>
      .st0 {
        fill: url(#New_Gradient_Swatch);
      }
    </style>
    <linearGradient id="New_Gradient_Swatch" data-name="New Gradient Swatch" x1=".2" y1="10" x2="20.8" y2="10" gradientUnits="userSpaceOnUse">
      <stop offset="0" stop-color="#b19673"/>
      <stop offset=".5" stop-color="#d7c098"/>
      <stop offset=".9" stop-color="#b39a77"/>
    </linearGradient>
  </defs>
  <g id="Layer_1" focusable="false">
    <path class="st0" d="M.2,16c0,.8.3,1.5.8,2.1.5.6,1.2.9,2,.9h14.9c.8,0,1.4-.3,2-.9s.8-1.3.8-2.1V4.1c0-.8-.3-1.5-.8-2.1-.5-.6-1.2-.9-2-.9H3c-.8,0-1.4.3-2,.9-.5.6-.8,1.3-.8,2.1,0,0,0,11.9,0,11.9ZM7.7,13.8v-7.6c0,0,0-.1,0-.2,0,0,0,0,0,0h0s7.2,3.8,7.2,3.8c0,0,0,0,0,.2s0,0,0,.1l-7.2,3.8s0,0,0,0c0,0,0,0,0,0,0,0,0,0,0-.1Z"/>
  </g>
</svg>