<?xml version="1.0" encoding="UTF-8"?>
<svg id="Layer_1" xmlns="http://www.w3.org/2000/svg" version="1.1" xmlns:xlink="http://www.w3.org/1999/xlink" viewBox="0 0 2054 383">
  <!-- Generator: Adobe Illustrator 29.0.1, SVG Export Plug-In . SVG Version: 2.1.0 Build 192)  -->
  <defs>
    <style>
      .st0 {
        fill: #cfa96b;
      }

      .st1 {
        fill: #fff;
      }

      .st1, .st2 {
        fill-rule: evenodd;
      }

      .st3 {
        fill: none;
      }

      .st4 {
        clip-path: url(#clippath-1);
      }

      .st5 {
        fill: #231f20;
      }

      .st6 {
        opacity: .6;
      }

      .st7 {
        clip-path: url(#clippath-2);
      }

      .st8 {
        clip-path: url(#clippath);
      }
    </style>
    <clipPath id="clippath">
      <rect class="st3" width="294" height="339"/>
    </clipPath>
    <clipPath id="clippath-1">
      <rect class="st3" x="802" y="195" width="860" height="49"/>
    </clipPath>
    <clipPath id="clippath-2">
      <rect class="st3" x="410" width="1644" height="140"/>
    </clipPath>
  </defs>
  <g class="st8">
    <path class="st0" d="M293.9,3.6c-.3-1-1-2.4-2.1-3-1.2-.7-2.3-.6-3.2-.6h-53.8c-9.1,0-10.1.7-13.2,9.1-8.8,23.9-17.6,47.8-26.4,71.7l-39.2,106.3c-1.5,4-3,8-4.5,12.2l-.2.6c-1.8-4.4-3.5-8.8-5.3-13.1-2.6-6.4-5.2-12.8-7.7-19.2-7.6-18.6-15.2-37.1-22.7-55.6l-18.6-45.6c-8.4-20.5-16.7-40.9-25-61.4-1-2.5-2.6-4.9-7.1-4.9-10.2,0-20.4.1-30.6.1H0v8.4h2.5c.5.1,1,.1,1.5.1.8,0,1.6,0,2.4.2,2.1.3,4.1.6,6.2.9,2.5.3,5,.7,7.5,1.1l1.2.2c2,.3,4.4.8,6.8,1.4,1,.2,1.9.6,3.1,1.1,1,.3,1.3.6,1.7.8.2,0,.3.2.4.3l1.2.7c2.4,1.5,4.7,2.8,7.1,5.7v171.5c0,8.4-.3,15.3-1,21.7-1.2,11.1-6.2,17.9-15.5,20.8-3.9,1.2-8.1,1.7-12.6,2.3-2,.2-3.9.5-5.8.8h-.5c-3.7.1-4.5,2.4-4.5,4.3,0,1.3.4,2.5,1.1,3.3,1.2,1.2,2.7,1.2,3.2,1.2h88.2c2.6,0,4.3-1.7,4.3-4.3s-.8-4.2-4.7-4.4h-.5c-1.9-.2-3.7-.3-5.6-.5-4.1-.3-8.2-.7-12.3-1.5-12.6-2.4-19.8-8.4-22-18.4-1.3-6.1-2.1-12.4-2.1-18.8,0-9.8-.1-60.7-.2-105.7v-54.1c2.3,5.2,4.6,10.7,7.1,16.8l40.5,99.6c11.7,28.8,23.5,57.7,35.3,86.5l.2.4c.6,1.5,1.7,4.5,6,4.5,4-.1,4.9-3.1,5.4-4.5l.2-.6c2.4-6.4,4.7-12.8,7-19.1,2.2-6.2,4.5-12.4,6.7-18.6,10.8-29.4,21.6-58.9,32.4-88.3l1.5-4.1c10-27.1,19.9-54.2,29.9-81.3.6-1.7,1.2-3.3,1.9-5v58.8l.2,2.6v112.8c0,84.7-10.9,99.9-30.1,119.5-2.6,2.6-7,6.4-10.9,8.7l-.4.3c-2.9,2-5.2,3.5-5.2,6.7s2.5,4.5,4.8,4.5,2.6-.5,3.4-.9c3.3-1.6,8.1-4.9,12.9-8.2,26-18,40.9-33.5,47.9-50.3,9.9-23.3,9.9-43.1,9.9-95.9V40.9c0-5.3.3-10.9.8-16.6.9-8.7,4.8-12.7,13.9-14,3.4-.5,6.9-.8,10.3-1.1,2.4-.2,4.7-.4,7-.7,1.6-.2,3.2-1.2,4-2.6.3-.5.6-1.3.3-2.5h0Z"/>
  </g>
  <g class="st4">
    <g>
      <path class="st2" d="M1351.1,217.3c-.8,1.1-1.5,2.1-2.3,3.1-1.5,1.8-3.2,3.3-5.3,4.3-2,1-4.1,1.6-6.3,1.4-2.4-.2-4.6-1-6.2-2.9-1-1.1-1.7-2.4-2.1-3.9-.6-2.1-.8-4.3-.4-6.5.3-1.5.6-3,1.2-4.4,1.2-3,3.1-5.7,5.5-7.9,1.4-1.2,3-2.3,4.7-3.1,2.3-1.1,4.8-1.7,7.3-1.7,4.1,0,7.4,1.6,9.7,5.1.9,1.4,1.5,2.9,1.8,4.5.5,2.1.5,4.2.2,6.3-.2,1.8-.4,3.5-.7,5.2-.2,1.2-.6,2.3-1,3.5-.4,1.1-.7,2.3-1.1,3.4-.8,2.3-2,4.4-3.2,6.6-1.4,2.3-3,4.5-4.9,6.5-2.1,2.1-4.4,3.9-7.1,5.2-1.1.5-2.3.9-3.5,1.2-1.8.6-3.6.7-5.4.6-2.4-.2-4.7-.9-6.5-2.6-1.8-1.8-2.5-4-2.1-6.6.3-2.1,1.1-4,2.7-5.5,1-.9,2.1-1.4,3.5-1.4,1.3,0,2.5.4,3.2,1.8.4.8.4,1.8,0,2.6,0,.1-.2.2-.3.3-1.5.3-2.9.9-4.1,1.9-1.3,1-2.2,2.3-2.3,3.9,0,1.2.4,2.4,1.3,3.2,1.1,1,2.5,1.4,4,1.6,1.3.2,2.7.1,4-.3,1.2-.3,2.3-.9,3.4-1.6,2.5-1.8,4.4-4.2,5.8-6.9,1-1.9,2-3.9,2.8-5.9.6-1.5,1.1-3,1.7-4.5.5-1.3.9-2.6,1.2-3.9.3-.8.5-1.7.7-2.6h.2ZM1334.6,219.1c0,.9,0,2.2.5,3.3.4,1,1,1.9,2.1,2.3,1.2.5,2.5.4,3.8.2,2-.5,3.7-1.5,5.2-2.8,1.6-1.4,2.8-3,3.9-4.7,1.3-2.1,2.2-4.4,2.5-6.8.2-1.1.4-2.3.5-3.5.3-1.7.4-3.3.2-5-.1-.7-.3-1.4-.5-2-.8-2-2.4-3.1-4.5-3.3-2.3-.3-4.1.7-5.8,2.1-1.7,1.4-2.9,3.2-3.9,5.2-1,1.9-1.8,3.9-2.4,5.9-.4,1.3-.7,2.6-1,4-.4,1.6-.7,3.3-.7,5.2h0Z"/>
      <path class="st2" d="M1106.8,196c1.3,0,2.8.2,4.3.6,2.2.6,4.1,1.8,5.9,3.2.8.6,1.5,1.2,2.3,1.8,1,.7,2.1.5,2.7-.6.7-1.1,1.1-2.3,1.6-3.5.2-.4.3-.8.4-1.2.1-.3.3-.3.5-.2,0,0,.1.3,0,.4-.3.9-.5,1.9-.8,2.8-.3.9-.5,1.9-.8,2.8-.4,1.3-.7,2.5-1,3.8-.3,1.2-.7,2.4-1,3.6-.3.9-.5,1.8-.8,2.7-.2.6-.3,1.3-.5,2,0,.2-.3.2-.4.3,0-.2-.2-.3-.2-.4,0-1,.3-2,.4-3,0-2.3-.2-4.4-1-6.6-.8-2.1-2-3.9-3.7-5.3-1.3-1-2.7-1.7-4.3-2.1-1.8-.4-3.6-.6-5.4-.4-1,.2-2.1.3-3.1.5-2.6.7-4.8,2-6.1,4.4-.5.8-.7,1.7-.8,2.7-.4,2.7.7,4.8,2.7,6.4,1.7,1.4,3.7,2.4,5.6,3.4,2.8,1.5,5.6,2.9,8.4,4.5,1.5.9,2.9,2.1,4,3.5.8,1,1.3,2.2,1.6,3.4.4,1.9.3,3.7-.3,5.5-.8,3.1-2.5,5.6-4.9,7.6-1.8,1.6-3.9,2.7-6.2,3.6-2.5,1-5.2,1.4-7.9,1.4s-4.2-.3-6.3-1.1c-1.9-.7-3.6-1.9-5.1-3.2-.7-.6-1.4-1.2-2.2-1.7-1-.6-2.1-.4-2.7.6-.5.9-.9,1.9-1.3,2.9-.3.7-.5,1.5-.7,2.2,0,.1-.3.2-.5.2,0,0-.2-.2-.2-.3.2-.7.3-1.3.5-2,.2-.7.4-1.4.6-2.1.2-1,.6-2,.8-2.9.3-1,.5-1.9.8-2.9.3-1.2.7-2.4,1-3.6.2-.6.4-1.3.5-1.9.3-1.1.6-2.3.9-3.4,0-.1.3-.2.5-.2s.2.3.2.4c0,.7-.3,1.4-.3,2.2,0,1.3-.1,2.6,0,4,0,1,.3,2,.5,3,.3.9.6,1.8,1,2.6.7,1.5,1.8,2.8,3.1,3.8,1,.8,2.2,1.4,3.5,1.9,2.3.8,4.6,1,6.9.8,2.9-.2,5.7-1,8.2-2.7,1.7-1.2,2.9-2.7,3.5-4.8.5-1.6.6-3.2.2-4.8-.4-1.3-1.1-2.5-2.2-3.5-1.4-1.3-3-2.4-4.8-3.3-2.5-1.3-5.1-2.5-7.6-3.9-1.9-1-3.8-2.2-5.3-3.8-1.1-1.1-1.9-2.5-2.3-4-.4-1.4-.4-2.8-.1-4.2.4-2.2,1.3-4,2.6-5.7,1.2-1.5,2.6-2.7,4.3-3.7,1.3-.8,2.7-1.4,4.2-1.9,2-.6,4-.9,6.3-.9l.2-.3Z"/>
      <path class="st2" d="M1299.3,219.6c-1.2-1.1-2.5-2.2-3.6-3.4-1.2-1.3-2.1-2.9-2.4-4.7-.4-1.7-.3-3.3.1-4.9.8-3.5,2.8-6.2,5.8-8.1,2.7-1.7,5.8-2.5,9-2.6.9,0,1.8,0,2.6,0,1.3.1,2.6.4,3.9.8,1.5.5,2.8,1.2,3.9,2.1,1.5,1.2,2.6,2.8,2.9,4.8.6,3.6-.7,6.4-3.3,8.7-1.6,1.5-3.5,2.5-5.6,3.3-1.1.4-2.2.7-3.3,1.1,0,0-.2.2-.3.2,0,.1.2.2.2.3,1.3.9,2.7,1.9,4,2.8,1.4,1.1,2.6,2.4,3.3,4.1.8,2,1,4.1.6,6.2-.7,3.5-2.6,6.1-5.2,8.3-1.6,1.3-3.3,2.4-5.2,3.3-1.2.5-2.5.9-3.7,1.2-1.9.6-3.8.7-5.8.6-3-.2-5.9-.9-8.4-2.7-1.9-1.3-3.2-3.1-3.7-5.3-.4-1.8-.3-3.7.3-5.5,1.2-3.9,3.9-6.4,7.3-8.2,1.5-.8,3.2-1.5,4.8-2.2.5-.2,1-.3,1.5-.5h0ZM1298.4,243.2c1.3-.2,2.4-.2,3.5-.4,1.9-.4,3.7-1,5.3-1.9,2.7-1.6,4.9-3.7,5.7-6.9.6-2.2.2-4.2-1.3-6-1.5-1.8-3.4-3-5.3-4.2-1.9-1.2-3.8-2.3-5.7-3.5-.2-.1-.5-.2-.7-.1-1.1.6-2.3,1.1-3.4,1.8-2.1,1.3-3.8,3-5.1,5.1-1,1.6-1.7,3.3-2,5.1-.3,2-.3,3.9.3,5.8.8,2.4,2.7,3.9,5.1,4.6,1.2.4,2.4.4,3.6.6h0ZM1318.3,204.2c0-.3,0-.8-.2-1.4-.2-1.2-.7-2.4-1.5-3.4-1.2-1.4-2.9-2.2-4.7-2.5-3.4-.6-6.7-.3-9.7,1.3-2.4,1.2-4,3.1-4.4,5.8-.2,1.3,0,2.5.4,3.7.5,1.4,1.5,2.6,2.7,3.7,2.1,1.9,4.5,3.3,6.9,4.8.4.2.7.3,1,.1,1.3-.6,2.7-1.2,3.9-2,3.5-2.3,5.5-5.6,5.6-10.2h0Z"/>
      <path class="st2" d="M1155,231.6s.2-.1.2-.2c1.4-3.8,3.1-7.5,5.1-11.1,1.4-2.5,3.1-4.9,5-7,1.1-1.2,2.4-2.3,3.8-3.1,1.3-.7,2.7-1,4.2-.8,1.4.3,2.5,1.1,3.4,2.2,1.1,1.3,1.8,2.9,2.2,4.7.3,1.5.2,2.9-.2,4.3-.6,2-1.2,4-1.9,5.9-.6,1.8-1.4,3.6-2.1,5.4-.7,1.8-1.3,3.6-1.9,5.4-.4,1.3-.7,2.6-.7,3.9,0,1.6,1.2,1.9,2.4,1.4,1.3-.5,2.3-1.4,3.2-2.5,1.5-1.9,2.7-4,3.7-6.3.4-.9.8-1.8,1.2-2.7.2.1.4.2.6.3-.9,2.2-1.9,4.4-3,6.5-1,1.7-2.1,3.3-3.6,4.4-1.7,1.3-3.5,1.8-5.6,1.3-1.7-.5-2.9-1.5-3.6-3.2-.7-1.5-.6-3.1-.4-4.7.3-1.3.6-2.7,1-4,.4-1.3.9-2.6,1.5-3.9.6-1.6,1.3-3.1,1.9-4.6.5-1.1,1-2.3,1.4-3.4.6-1.6,1.1-3.1,1.5-4.7.2-.7.3-1.4.2-2.2,0-1.3-.7-2.3-2.1-2.8-.7-.2-1.4,0-2.1.2-1.8.7-3.1,1.9-4.3,3.3-2.7,3-4.7,6.4-6.5,10-.9,1.9-1.8,3.8-2.6,5.8-.7,1.8-1.3,3.5-1.9,5.3-.6,2.1-1.1,4.1-1.6,6.2-.2.6-.3,1.1-.4,1.8,0,.1-.2.3-.4.3-1.5.2-2.9.3-4.4.5-.6,0-1.2.2-2,.2.2-.6.3-1,.4-1.5.4-1.2.7-2.4,1-3.6.4-1.1.7-2.3,1-3.5.4-1.3.8-2.5,1.2-3.8.3-1,.6-2.1,1-3.1.4-1.1.7-2.2,1-3.2.4-1.1.7-2.1,1-3.2.4-1.4.9-2.9,1.3-4.4.3-1,.6-2.1.8-3.1.2-1,.4-2,.2-3-.2-.9-1.1-1.3-2-1.2-1.6.3-2.7,1.3-3.7,2.5-1.6,1.9-2.7,4-3.6,6.2-.4.9-.7,1.7-1.1,2.6,0,.1-.3.3-.4.2-.2-.1-.3-.3-.3-.4,0-.3.2-.5.2-.8.7-1.4,1.3-2.8,2-4.2,1-2,2.3-3.9,4.1-5.4,1.7-1.4,3.7-2,5.9-1.7,1.7.3,2.9,1.3,3.7,2.8,1,1.8.8,3.6.4,5.4-.5,1.9-1.2,3.8-1.9,5.7-.7,2-1.6,4-2.4,5.9-.3.6-.5,1.3-.7,1.9v.5c-.3.2-.5.9-.3,1.3.1-.5.2-.9.3-1.3v.2Z"/>
      <path class="st2" d="M1400.6,196.6s-.2.4-.3.5c-1.9,2.2-3.8,4.3-5.6,6.5-2.3,2.7-4.7,5.5-6.9,8.2-2.8,3.4-5.4,6.9-7.8,10.5-1.8,2.7-3.4,5.5-4.7,8.5-1.1,2.5-1.9,5.1-2,7.9,0,.7.1,1.5.3,2.2.1.5.1.9-.3,1.3-1.4,1.4-3.2,1.9-5.2,1.7-1.4-.2-2.5-1.1-2.7-2.8-.3-1.8,0-3.4.8-5,1.6-3.6,4-6.7,6.5-9.7,4.3-5.1,9.1-9.8,13.6-14.6,3-3.2,5.9-6.4,8.8-9.6,0,0,0,0,0-.1,0,0,0,0,0-.1-.4.2-.7.4-1,.6-1.3.7-2.7,1.3-4.1,1.7s-2.9.3-4.3.2c-2.1-.2-4.1-.4-6.2-.7-2.1-.3-4.3-.6-6.5-.7-1.2,0-2.4,0-3.6.5-.8.3-1.3.8-1.8,1.6-.8,1.4-1.6,3-2.3,4.5-.2.6-.5,1.2-.7,1.8,0,.3-.3.4-.8.2.3-.8.6-1.7.9-2.4.5-1.3,1-2.7,1.5-4,.7-1.8,1.4-3.6,2.1-5.4.4-.9.7-1.8,1-2.7.1-.2.3-.5.5-.6.3-.2.5.1.4.4-.5,1.2-.9,2.4-1.4,3.6-.4,1-.8,2.1-1.2,3.1,0,0,0,.2.1.3.3-.5.7-1.1,1-1.6.9-1.5,2-2.9,3.3-4,1.1-1,2.4-1.7,3.9-2.1,1.8-.4,3.6-.4,5.4.1,1.6.4,2.9,1.2,4.2,2.1,1.2.9,2.5,1.8,3.9,2.4,1.3.7,2.8.9,4.3.8,1-.1,2.1-.5,2.8-1.2.5-.4.7-1,1.1-1.6.4-.6.8-1.3,1.2-2,.1-.1.3-.3.4-.3h1.6-.1Z"/>
      <path class="st2" d="M1276.9,201.8c-2.6.9-5.4,1.6-8.2,1.9,0-.6,0-.6.4-.7,1.2-.3,2.4-.5,3.5-.8,1.5-.4,2.9-.9,4.3-1.4,1.8-.7,3.6-1.6,5.2-2.8.8-.6,1.5-1.2,2.3-1.8.2-.2.5-.2.8-.3,0,0,0,.1.1.1-.2.6-.3,1.1-.5,1.7-.3.9-.5,1.9-.8,2.8-.2.9-.5,1.8-.8,2.6-.3.9-.5,1.8-.8,2.7-.4,1.2-.7,2.4-1,3.6-.3.9-.5,1.8-.7,2.6-.3,1.2-.7,2.4-1,3.5-.4,1.2-.7,2.4-1,3.6-.4,1.2-.7,2.4-1,3.6-.4,1.2-.7,2.4-1,3.6-.3,1.1-.6,2.2-1,3.4-.4,1.2-.7,2.5-1.1,3.7-.4,1.4-.8,2.8-1.2,4.2-.2.8-.4,1.5-.5,2.4-.1,1,.4,1.8,1.4,2.2,1.2.5,2.5.5,3.8.6h.8c0,0,.2.2.4.2-.1.2-.2.3-.4.4-.1,0-.2,0-.4,0h-21c0-.6,0-.6.5-.7,1.4-.2,2.9-.2,4.2-.5,2-.4,3.4-1.5,3.9-3.5.6-1.8,1.1-3.7,1.7-5.5.6-1.9,1.1-3.8,1.7-5.7.6-2,1.1-3.9,1.7-5.9.6-2,1.1-3.9,1.7-5.8.6-2,1.1-3.9,1.7-5.8.6-2.2,1.3-4.4,1.9-6.7.1-.5.3-.9.4-1.4,0,0-.1-.1-.1-.2v.2Z"/>
      <path class="st2" d="M1240.6,231.1c-.7,1.2-1.3,2.4-2.1,3.6-1.1,1.9-2.4,3.7-4,5.2-1.4,1.4-3,2.6-4.9,3.3-1.8.7-3.7.9-5.6.6-3.4-.6-5.5-2.6-6.8-5.8-1.3-3.3-1.4-6.6-.9-10.1.3-2.1.9-4,1.8-6,1.2-2.7,2.8-5.2,4.9-7.3,1.3-1.3,2.7-2.4,4.3-3.3,1.5-.8,3.2-1.4,4.9-1.8,1.3-.3,2.7-.3,4-.2,2.4.3,4.6,1.3,5.8,3.6.7,1.3.9,2.7.7,4.2-.4,3-2.2,5.1-4.6,6.8-1.7,1.2-3.6,2-5.6,2.6-1.4.4-2.9.7-4.3,1-1.5.3-3.1.4-4.6.5-.5,0-.7.2-.8.7-.3,1.1-.5,2.1-.7,3.2-.2,1.1-.4,2.2-.6,3.4-.2,1.7-.3,3.4.4,5,.6,1.3,1.5,2.2,2.9,2.5,2.7.7,5-.2,7.2-1.7,2.2-1.6,3.9-3.5,5.3-5.8.9-1.3,1.6-2.8,2.4-4.2.2-.4.4-.5.8-.2,0,0,.1,0,.3.2h-.1ZM1238.1,213.9c0-.5-.2-1.1-.3-1.6-.2-.8-.6-1.4-1.4-1.8-1.6-.7-3.1-.4-4.4.4-2.2,1.3-3.7,3.3-4.9,5.5-.8,1.6-1.5,3.2-2.1,4.8-.7,1.9-1.3,3.8-1.9,5.7-.1.3,0,.5.4.4.6,0,1.1-.2,1.7-.2,2-.3,3.8-.9,5.5-1.9,1.9-1,3.6-2.4,4.9-4.1,1.6-2.2,2.4-4.7,2.6-7.3h0Z"/>
      <path class="st2" d="M1211,231.1c-.4.7-.8,1.5-1.2,2.2-1.3,2.3-2.8,4.5-4.8,6.5-1.5,1.6-3.3,2.7-5.3,3.5-1.8.6-3.6.9-5.4.7-3.3-.4-5.6-2.1-7-5.1-1-2.1-1.4-4.3-1.4-6.6s0-2.3,0-3.5c.2-1.1.4-2.3.7-3.4.6-2.2,1.6-4.2,2.8-6,1.8-2.7,3.9-5.1,6.7-6.9,1.4-1,3-1.8,4.8-2.3,2.1-.7,4.1-.8,6.3-.6,2.2.3,4.1,1.3,5.3,3.3.9,1.6,1.2,3.3.9,5-.3,1.8-.9,3.4-2.4,4.5-.8.6-1.6.9-2.6,1-1.4.1-2.7-.8-3.2-2.3,0-.1.1-.3.2-.4,1.5-1.1,2.7-2.4,3.7-4,.6-1.1,1-2.3.8-3.6,0-1.2-.8-2-1.9-2.4-1.8-.7-3.7-.5-5.5.2-1.8.6-3,1.9-4.1,3.3-1.1,1.3-1.9,2.8-2.5,4.4-.6,1.4-1.2,2.9-1.7,4.3-.5,1.3-.8,2.7-1.2,4.1-.5,1.7-.9,3.5-1.2,5.2-.3,1.7-.6,3.3-.6,5,0,1.2,0,2.5.6,3.6.5,1.1,1.4,1.9,2.6,2.2,1.4.4,2.8.2,4.3-.2,3.2-.9,5.6-3.1,7.6-5.7,1.4-1.8,2.6-3.8,3.7-5.9.2-.4.3-.4.9,0h0Z"/>
      <path class="st2" d="M1141.6,231.2c.6.2.7.2.4.8-1,2.5-2.1,5-3.6,7.2-1,1.6-2.2,3-3.9,3.9-1.6.8-3.2,1-4.9.4-2.1-.8-3.2-2.4-3.6-4.6-.4-1.7,0-3.4.4-5,.3-1.1.6-2.3,1-3.4.3-.9.6-1.8,1-2.7.4-1.1.8-2.3,1.2-3.4.3-.8.7-1.7,1-2.5.4-1.1.8-2.3,1.2-3.4.3-.8.6-1.7.8-2.6.4-1.3.6-2.6.6-3.9,0-1.1-1.1-1.7-2.1-1.6-1.8.3-2.9,1.4-4,2.8-1.7,2.1-2.8,4.4-3.9,6.8-.2.5-.4,1.1-.7,1.6,0,.1-.3.2-.4.3,0-.2-.3-.4-.2-.5.2-.6.4-1.1.7-1.7.9-1.7,1.7-3.5,2.6-5.1,1-1.8,2.4-3.4,4.3-4.4,1.2-.7,2.4-.9,3.8-.8,1.4,0,2.6.5,3.7,1.3,1.2,1,1.8,2.3,1.7,3.8,0,1.3-.3,2.6-.6,3.8-.3,1.4-.8,2.8-1.2,4.2-.4,1.1-.8,2.2-1.2,3.4-.5,1.3-1,2.7-1.5,4-.4,1-.8,2.1-1.2,3.2-.4,1-.7,2-1,3-.3,1-.6,2.1-.8,3.2-.2.9-.3,1.9.1,2.7.2.5.5.7,1,.8,1.1.2,2-.4,2.8-1.1,1.4-1.2,2.4-2.6,3.3-4.2.9-1.6,1.7-3.3,2.5-4.9.2-.5.4-.9.6-1.4h0Z"/>
      <path class="st2" d="M1135.8,199.6c0-1.9.8-3.3,2.4-4.1,1.6-.8,3.6-.5,4.9,1,1,1.1,1.3,2.5,1,3.9-.4,2.3-2.3,4-4.8,3.6-1.5-.2-2.7-1.2-3.2-2.8-.1-.5-.2-1.1-.4-1.6Z"/>
      <path class="st1" d="M1155,231.6c-.1.4-.2.8-.3,1.3-.2-.4,0-1.1.3-1.3Z"/>
      <path class="st2" d="M1018,222.7l-216,4,216,4,18.8-4-18.8-4Z"/>
      <path class="st2" d="M1446,222.7l216,4-216,4-18.8-4,18.8-4Z"/>
    </g>
  </g>
  <g class="st7">
    <g>
      <path class="st5" d="M553.8,26.7v84.9c0,20.2,0,24.1,19.5,24.7v2h-59.8v-2c19.3-.6,19.3-4.5,19.3-24.7V4.9l-47,133.3h-2.3l-48.4-122.4.2,89.4c0,19.2,0,30.4,25.2,31v2h-49.6v-2c22.2-.6,22-11.8,22-31V23.3c0-11.4-1.2-20.9-22.8-21.3V0h40.7l42.9,109.2L532.4,0h40.9v2c-19.5.6-19.5,4.5-19.5,24.7Z"/>
      <path class="st5" d="M694.5,136.4v1.8h-51v-1.8c17.5-.8,15.6-6.3,10.4-18l-6.7-15.8h-41.5l-3.9,9.9c-7.1,17.4-9.1,23.1,10.4,23.9v1.8h-37v-1.8c14.4-.8,16.9-5.7,24.4-23.9l34.2-82.3h1.8l38.4,88.2c5.5,12.4,9.1,17.2,20.5,18h0ZM646.5,100.9l-20.5-48-19.5,48h40Z"/>
      <path class="st5" d="M699.7,136.3c13-.4,13-3.6,13-14V47.8c0-10.2,0-13.6-13-14v-2h49.8v2c-17.7.4-17.7,3.8-17.7,14v75.6c0,9.9,0,12.8,11.6,12.8h11.6c25.2,0,33.2-15.8,34.7-45.6h1.8l-.6,47.6h-91.1v-2h0Z"/>
      <path class="st5" d="M915.3,136.4v1.8h-51v-1.8c17.5-.8,15.6-6.3,10.4-18l-6.7-15.8h-41.5l-3.9,9.9c-7.1,17.4-9.1,23.1,10.4,23.9v1.8h-37v-1.8c14.4-.8,16.9-5.7,24.4-23.9l34.2-82.3h1.8l38.4,88.2c5.5,12.4,9.1,17.2,20.5,18h0ZM867.3,100.9l-20.5-48-19.5,48h40Z"/>
      <path class="st5" d="M1033.4,31.8v2c-20.3.4-20.3,9.1-20.3,23.7v81.3h-2l-71.8-93v66.7c0,14.8,0,23.3,22.8,23.7v2h-44.3v-2c19.5-.4,19.5-9.1,19.5-23.7v-60.4c0-9.7-1-18-19.9-18.4v-2h34.8l58.8,77.6v-51.9c0-14.6.2-23.3-22.6-23.7v-2h44.9Z"/>
      <path class="st5" d="M1041.1,136.3c13.8-.4,13.8-3.6,13.8-14V47.8c0-10.5,0-13.6-13.8-14v-2h46.4v2c-13.6.4-13.6,3.6-13.6,14v74.4c0,10.5,0,13.6,13.6,14v2h-46.4v-2h0Z"/>
      <path class="st5" d="M1135.3,109.2c0-10.1,5.7-18,14.2-18s9.2,3.9,11.2,7.7c-7.1,7.5-11.4,16-11.4,23.3s.8,5.7,2.9,8.1c3.9,4.8,11.6,7.3,18.9,7.3s25-3,25-34.6V21.1c0-14.4,0-18.6-21.4-19.2V0h60.4v2c-18.1.6-18.1,4.8-18.1,19.2v71.5c0,27.7-13.8,47.4-45.8,47.4s-35.8-13.8-35.8-30.8Z"/>
      <path class="st5" d="M1335.2,93.6l-.8,44.6h-92.5v-2c13-.4,13-3.6,13-14V47.8c0-10.5,0-13.6-13-14v-2h90.9l.6,39.1h-1.8c-1.4-26.1-10.8-37.1-28.5-37.1h-17.5c-11.4,0-11.6,2.4-11.6,12.8v34.6h11.2c21.4,0,24-4.8,25-22.9h2v48h-2c-1-18.6-3.5-23.1-25-23.1h-11.2v40.3c0,10.2,0,12.8,11.6,12.8h14.3c25.4,0,32.3-14.2,33.5-42.7h1.8,0Z"/>
      <path class="st5" d="M1516.6,31.8v2c-14.7.4-17.1,5.5-24.4,23.7l-33.1,82.2h-2l-26.2-65.9-26.4,65.9h-1.8l-37.2-88.1c-5.3-12.4-8.8-17.4-20.1-17.8v-2h48.2v2c-15,.4-13.2,6.3-8.2,17.8l27,63.8,17.5-44.3-7.9-19.6c-5.1-12.6-7.3-17.4-18.9-17.8v-2h49.4v2c-17.5.4-15.2,6.1-10.6,17.8l25,63.6,22.8-57.7c7.1-17.6,8.8-23.3-10.4-23.7v-2h37.2Z"/>
      <path class="st5" d="M1614.4,93.6l-.8,44.6h-92.5v-2c13-.4,13-3.6,13-14V47.8c0-10.5,0-13.6-13-14v-2h90.9l.6,39.1h-1.8c-1.4-26.1-10.8-37.1-28.5-37.1h-17.5c-11.4,0-11.6,2.4-11.6,12.8v34.6h11.2c21.5,0,24-4.8,25-22.9h2v48h-2c-1-18.6-3.5-23.1-25-23.1h-11.2v40.3c0,10.2,0,12.8,11.6,12.8h14.4c25.4,0,32.3-14.2,33.5-42.7h1.8,0Z"/>
      <path class="st5" d="M1633.1,136.3c13-.4,13-3.6,13-14V47.8c0-10.2,0-13.6-13-14v-2h49.8v2c-17.7.4-17.7,3.8-17.7,14v75.6c0,9.9,0,12.8,11.6,12.8h11.6c25.2,0,33.2-15.8,34.7-45.6h1.8l-.6,47.6h-91.1v-2h0Z"/>
      <path class="st5" d="M1831.3,93.6l-.8,44.6h-92.5v-2c13-.4,13-3.6,13-14V47.8c0-10.5,0-13.6-13-14v-2h90.9l.6,39.1h-1.8c-1.4-26.1-10.8-37.1-28.5-37.1h-17.5c-11.4,0-11.6,2.4-11.6,12.8v34.6h11.2c21.4,0,24-4.8,25-22.9h2v48h-2c-1-18.6-3.6-23.1-25-23.1h-11.2v40.3c0,10.2,0,12.8,11.6,12.8h14.3c25.4,0,32.3-14.2,33.5-42.7h1.8,0Z"/>
      <path class="st5" d="M1953.2,109.6v11.8c0,6.5-.6,9.7-2.9,12.6-2.2,2.8-6.9,5.7-14,5.7s-10.8-2.4-13.2-5.3c-2.3-3-2.7-7.1-2.7-12.8v-12.7c0-15.8-8.8-20.9-23.2-20.9h-15.2v34.2c0,10.5,0,13.6,15.7,14v2h-47.8v-2c13-.4,13-3.6,13-14V47.8c0-10.5,0-13.6-13-14v-2h49.4c25.2,0,44.7,6.7,44.7,28s-14,25.9-34.8,27.7v.4c18.1,2.8,30.9,11.4,30.9,24.9v8.7c0,3.3.2,6.1.8,7.7.8,1.8,2.2,3,4.7,3s3.9-1.6,4.8-2.7c.8-1.6,1-4.2,1-7.9v-11.8h2ZM1899.3,86.1c17.3,0,23.8-5.5,23.8-26.2s-6.3-26.1-23.8-26.1h-5.7c-11.6,0-11.6,3-11.6,12.8v39.5h17.3Z"/>
      <path class="st5" d="M1968,94.8h1.8c1.6,18,12.8,42.8,41.9,42.8s19.1-1.4,25.6-7.9c3.3-3.3,4.5-7.9,4.5-12.6,0-12.8-15.7-18.6-35.2-25.1-16.7-5.7-37-11.7-37-31.2s3.8-16.4,10-21.5c7.1-6.1,17.3-8.9,28.5-8.9s19.3,4.2,23.6,6.7c5.9,3.3,8.5,5.5,11,5.5s4.1-1.2,4.5-12.3h1.7l.6,42.2h-1.8c-1.4-16.6-12.6-40.3-39.7-40.3s-15,1.4-19.9,4.9c-3.9,3-5.9,7.3-5.9,12.3,0,12.4,13.6,17,31.5,22.9,20.8,6.9,40.1,13.2,40.1,33.6s-3.9,18.2-11.6,24.1c-7.5,5.7-16.9,9.5-30.7,9.5s-19.9-3.6-25-6.9c-5.1-3-8.7-5.3-11.2-5.3s-4.7,1.8-5.1,12.2h-1.8l-.6-44.8Z"/>
    </g>
  </g>
  <g class="st6">
    <circle cx="1069.8" cy="330.8" r="7.5"/>
    <g>
      <path d="M819.8,328.3v1.9h-5.5v17.9l-6.2-2.3c-.2.2-.6.4-1,.6-3,1.6-6.3,2.4-10,2.4s-9.6-1.6-13.7-4.7c-5.6-4.4-8.4-10.5-8.4-18.4s2.3-12.4,6.9-16.7c4.2-3.9,9.3-5.8,15.1-5.8s6.8.8,9.8,2.3l6.4-1.3.4,14.2h-1.9c-1.2-4.1-2.5-7-4-9-2.3-2.8-5.9-4.2-10.9-4.2s-2.7.1-3.9.4c-7,1.9-10.6,8.6-10.6,20.3,0,13.6,4.9,20.5,14.7,20.6.4,0,.8,0,1.2,0,4.1-.3,7.4-2,9.8-4.9v-11.5h-6.6v-1.9h18.3Z"/>
      <path d="M852,343.2c-2.5,3.8-6.4,5.7-11.7,5.7s-6.3-.9-8.9-2.6c-4.4-2.9-6.5-7.4-6.5-13.5s.7-6.3,2.1-9c2.6-5.1,7-7.6,13.1-7.6s5.9.7,8.3,2.1c3.4,2,5.1,4.6,5.1,7.9s-.7,3.2-2,4.2c-1.7,1.2-5.6,1.8-11.5,1.7h-8.8c0,1.9.3,3.8.7,5.5,1.3,6.1,4.6,9.2,9.7,9.2s.9,0,1.4,0c3.8-.5,6.6-2.6,8.3-6.3l1.8.7c-.3.7-.6,1.4-1,2.1ZM836.6,318.9c-3.4,1.7-5.3,5.4-5.5,11l7.8.2c2.3,0,4,0,5.2-.3,2.3-.5,3.5-2,3.5-4.5s-.2-2.1-.6-3c-1.1-2.9-3.4-4.3-6.8-4.3s-2.5.3-3.6.9Z"/>
      <path d="M883.9,318.8c4.6,3,6.8,7.6,6.8,13.7s-1.4,8.3-4.3,11.4c-3.1,3.3-7,5-11.7,5s-6.4-.9-9.1-2.8c-4.5-3.1-6.8-7.7-6.8-13.9s1.4-8.2,4.3-11.2c3.1-3.2,7-4.8,11.7-4.8s6.2.9,8.9,2.6ZM865.7,338.3c1.3,5.9,4.4,8.8,9.3,8.8s1.8-.1,2.7-.4c4.5-1.4,6.8-6.2,6.8-14.5s0-2.7-.2-3.9c-.9-6.9-4-10.3-9.5-10.3s-2.3.2-3.4.6c-4.2,1.7-6.2,6.3-6.2,13.9s.2,4,.5,5.7Z"/>
      <path d="M913.1,346.4c.7,0,1.1.7,1.1,1.8h-18.1v-1.8c1.7,0,2.9-.1,3.6-.4,1.3-.4,1.9-1.8,1.9-4v-23.1h-5.5v-1.8h10.6l.3,7.3c.6-1.5,1.5-2.8,2.6-4,2.3-2.5,4.9-3.7,7.9-3.7s.9,0,1.4.1c2.3.5,3.4,1.8,3.4,4s0,.6-.1.9c-.4,1.4-1.3,2.1-2.8,2.1s-.6,0-.9-.1c-.7-.2-1.4-1-2.2-2.3-.7-1.2-1.4-1.8-2.3-1.8-.7,0-1.6.6-2.7,1.6-2.7,2.7-4.1,6.3-4.1,10.7v14.6h5.3c.3,0,.5,0,.7,0Z"/>
      <path d="M946.6,317.9c.3-.9.7-1.8,1.2-2.6,1.4-2.1,3.3-3.1,5.6-3.1s1.1,0,1.6.3c1.4.5,2.1,1.6,2.1,3.1-.2,1.3-.9,2.1-2.1,2.3-.4,0-.9-.2-1.5-.7-.8-.7-1.5-1.1-2.2-1.1s-.4,0-.6,0c-1.2.3-2.1,1.2-2.5,2.8,2.8,2.2,4.2,5.1,4.3,8.8,0,2.9-.9,5.4-2.8,7.5-2.6,2.9-6.1,4.4-10.4,4.4h-6.5c-.4,0-.8,0-1.1,0-1.6.3-2.4,1.2-2.4,2.4,0,1.8,1.2,2.8,3.5,2.9l13.4.3c.7,0,1.3,0,2,.1,4.8.6,7.3,3.1,7.3,7.3s-.4,2.7-1.2,3.9c-2.4,3.6-7.3,5.4-14.8,5.4s-5.4-.4-7.4-1.3c-3.2-1.3-4.8-3.3-4.8-6s.8-3.5,2.4-5.2c-2.1-1.3-3.1-3.2-3.2-5.8,0-.6,0-1.3.2-1.9.8-2.7,2.7-4,5.9-4-.3-.2-.7-.4-1-.7-3.6-2.4-5.4-5.5-5.4-9.3s.9-5.3,2.8-7.4c2.6-2.8,6.1-4.3,10.5-4.3s4.9.6,7.1,1.7ZM945.9,359.5c4-1,6-2.5,6-4.7s0-1.1-.2-1.5c-.6-1.6-2.7-2.4-6.4-2.5h-11.3c-.6-.1-1.4-.2-2.4-.4-1.1,1.3-1.7,2.6-1.8,4,0,.7.2,1.4.5,2.1,1.3,2.5,4.3,3.8,9.2,3.8s4.4-.2,6.4-.7ZM939.4,337.9c4.7,0,7.2-3.4,7.3-10.1,0-6.4-2.5-9.7-7.3-9.8-4.8,0-7.2,3.3-7.3,9.8,0,6.6,2.5,10,7.3,10.1Z"/>
      <path d="M975.9,346.4c.7,0,1.1.7,1.1,1.8h-16.9v-1.8c1.7,0,2.9,0,3.6-.3,1.5-.5,2.3-1.9,2.3-4.1v-23.1h-5.9v-1.8h11.4v29.4h3.7c.2,0,.5,0,.7,0ZM972,307.9c-.7,1.6-1.9,2.3-3.6,2.3s-1.1,0-1.6-.3c-1.6-.7-2.4-1.9-2.4-3.7s.1-1.1.4-1.7c.7-1.6,2-2.3,3.7-2.3s1.1.1,1.7.4c1.5.7,2.3,2,2.3,3.7s-.1,1.2-.4,1.7Z"/>
      <path d="M1001.9,342.3c-.4,1-1.1,2-2,2.9-2.4,2.4-5.5,3.7-9,3.7s-2.9-.3-4.2-.8c-3.3-1.4-4.9-3.9-4.9-7.6s.1-2.1.4-3c1.7-4.8,8.2-7.2,19.8-7.2v-4.6c-.1-4.7-2.5-7.3-7.1-7.6-2,0-3.4.6-4.3,1.8-.2.3-.7,1.4-1.4,3.2-.5,1.4-1.4,2.1-2.5,2.1s-.5,0-.7,0c-1.4-.2-2.1-1.1-2.1-2.6s.3-1.7.9-2.5c1.9-2.5,5.5-3.8,11-3.8h1.3c7,.4,10.5,4.1,10.5,11.1v15.5c0,2.4.7,3.7,2,3.8,1.6,0,2.5-1.9,2.9-5.4h1.9c0,.3,0,.6,0,.9-.4,4.6-2.5,6.8-6.2,6.8-3.4,0-5.4-2.3-6-6.6ZM996.6,345.2c2.8-1.4,4.6-3.7,5.4-7.1v-5.9c-3.8,0-6.7.3-8.7.7-3.8.9-5.7,3-5.7,6.2s0,1.6.2,2.3c.7,3,2.5,4.5,5.5,4.5s2.2-.2,3.3-.7Z"/>
    </g>
    <g>
      <path d="M1138.5,348.2v-1.9h5.9v-40.2h-5.9v-1.9h33.8l.4,13.2h-1.5l-1-3.5c0-.2-.1-.4-.2-.7-1.5-4.7-4-7.1-7.6-7.1h-11.7v18.4h15.1v2.1h-15.1v19.8h8.8v1.9h-21Z"/>
      <path d="M1191.6,346.4c.7,0,1.1.7,1.1,1.8h-16.8v-1.8c1.7,0,2.9-.1,3.6-.4,1.3-.4,1.9-1.8,1.9-4v-39.7h-5.5v-1.8h11v45.9h4c.3,0,.5,0,.7,0Z"/>
      <path d="M1222.6,318.8c4.6,3,6.8,7.6,6.8,13.7s-1.4,8.3-4.3,11.4c-3.1,3.3-7,5-11.7,5s-6.4-.9-9.1-2.8c-4.5-3.1-6.8-7.7-6.8-13.9s1.4-8.2,4.3-11.2c3.1-3.2,7-4.8,11.7-4.8s6.2.9,8.9,2.6ZM1204.4,338.3c1.3,5.9,4.4,8.8,9.3,8.8s1.8-.1,2.7-.4c4.5-1.4,6.8-6.2,6.8-14.5s0-2.7-.2-3.9c-.9-6.9-4-10.3-9.5-10.3s-2.3.2-3.4.6c-4.2,1.7-6.2,6.3-6.2,13.9s.2,4,.5,5.7Z"/>
      <path d="M1251.8,346.4c.7,0,1.1.7,1.1,1.8h-18.1v-1.8c1.7,0,2.9-.1,3.6-.4,1.3-.4,1.9-1.8,1.9-4v-23.1h-5.5v-1.8h10.6l.3,7.3c.6-1.5,1.5-2.8,2.6-4,2.3-2.5,4.9-3.7,7.9-3.7s.9,0,1.4.1c2.3.5,3.4,1.8,3.4,4s0,.6-.1.9c-.4,1.4-1.3,2.1-2.8,2.1s-.6,0-.9-.1c-.7-.2-1.4-1-2.2-2.3-.7-1.2-1.4-1.8-2.3-1.8-.7,0-1.6.6-2.7,1.6-2.7,2.7-4.1,6.3-4.1,10.7v14.6h5.3c.3,0,.5,0,.7,0Z"/>
      <path d="M1279.2,346.4c.7,0,1.1.7,1.1,1.8h-16.9v-1.8c1.7,0,2.9,0,3.6-.3,1.5-.5,2.3-1.9,2.3-4.1v-23.1h-5.9v-1.8h11.4v29.4h3.7c.2,0,.5,0,.7,0ZM1275.3,307.9c-.7,1.6-1.9,2.3-3.6,2.3s-1.1,0-1.6-.3c-1.6-.7-2.4-1.9-2.4-3.7s.1-1.1.4-1.7c.7-1.6,2-2.3,3.7-2.3s1.1.1,1.7.4c1.5.7,2.3,2,2.3,3.7s-.1,1.2-.4,1.7Z"/>
      <path d="M1309.9,340.4c-2.4,5.6-6.3,8.4-11.6,8.5-2.6,0-5-.8-7.1-2.3-3.8-2.8-5.7-7.2-5.7-13.3s.8-7,2.5-9.9c2.7-4.8,6.8-7.2,12.2-7.2s7.3,1.3,9.7,4v-17.9h-7v-1.8h12.5v45.9h3.8c.3,0,.5,0,.7,0,.7,0,1.1.7,1.1,1.8h-10.5l-.6-7.8ZM1292.4,338.6c1.2,4.9,3.8,7.3,7.9,7.3s3.8-.7,5.4-2.1c2.9-2.6,4.4-6.9,4.4-12.8s-.4-5.2-1.2-7.3c-1.5-3.8-4.1-5.7-7.6-5.7s-2.7.3-3.9,1c-3.7,2.1-5.6,6.5-5.6,13.4s.2,4.4.7,6.2Z"/>
      <path d="M1345.5,342.3c-.4,1-1.1,2-2,2.9-2.4,2.4-5.5,3.7-9,3.7s-2.9-.3-4.2-.8c-3.3-1.4-4.9-3.9-4.9-7.6s.1-2.1.4-3c1.7-4.8,8.2-7.2,19.8-7.2v-4.6c-.1-4.7-2.5-7.3-7.1-7.6-2,0-3.4.6-4.3,1.8-.2.3-.7,1.4-1.4,3.2-.5,1.4-1.4,2.1-2.5,2.1s-.5,0-.7,0c-1.4-.2-2.1-1.1-2.1-2.6s.3-1.7.9-2.5c1.9-2.5,5.5-3.8,11-3.8h1.3c7,.4,10.5,4.1,10.5,11.1v15.5c0,2.4.7,3.7,2,3.8,1.6,0,2.5-1.9,2.9-5.4h1.9c0,.3,0,.6,0,.9-.4,4.6-2.5,6.8-6.2,6.8-3.4,0-5.4-2.3-6-6.6ZM1340.2,345.2c2.8-1.4,4.6-3.7,5.4-7.1v-5.9c-3.8,0-6.7.3-8.7.7-3.8.9-5.7,3-5.7,6.2s0,1.6.2,2.3c.7,3,2.5,4.5,5.5,4.5s2.2-.2,3.3-.7Z"/>
    </g>
    <circle cx="1423.9" cy="330.8" r="7.5"/>
    <g>
      <path d="M1525.3,348.2v-1.9h7v-40.2h-4c-3.8.3-6.4,2.8-8,7.6l-1.2,4.9h-2.1l.4-14.5h36.3l.4,14.5h-2.1l-1.2-4.9c0,0,0-.2,0-.4-1.3-4.8-4-7.2-7.9-7.2h-4.3v40.2h5c.2,0,.5,0,.7,0,.8.1,1.2.8,1.2,1.8h-20.2Z"/>
      <path d="M1586.7,343.2c-2.5,3.8-6.4,5.7-11.7,5.7s-6.3-.9-8.9-2.6c-4.4-2.9-6.5-7.4-6.5-13.5s.7-6.3,2.1-9c2.6-5.1,7-7.6,13.1-7.6s5.9.7,8.3,2.1c3.4,2,5.1,4.6,5.1,7.9s-.7,3.2-2,4.2c-1.7,1.2-5.6,1.8-11.5,1.7h-8.8c0,1.9.3,3.8.7,5.5,1.3,6.1,4.6,9.2,9.7,9.2s.9,0,1.4,0c3.8-.5,6.6-2.6,8.3-6.3l1.8.7c-.3.7-.6,1.4-1,2.1ZM1571.4,318.9c-3.4,1.7-5.3,5.4-5.5,11l7.8.2c2.3,0,4,0,5.2-.3,2.3-.5,3.5-2,3.5-4.5s-.2-2.1-.6-3c-1.1-2.9-3.4-4.3-6.8-4.3s-2.5.3-3.6.9Z"/>
      <path d="M1590.9,347.2c0-.5.5-.8,1.2-.9,1.5-.2,2.7-.9,3.7-2.2l8.4-11-9.9-14.3h-3.6v-1.8h14.7v1.8h-4.8l7.6,11,7.9-11h-5.1v-1.8h11c0,.4,0,.7,0,1-.1.5-.6.8-1.4.8-1.5.2-2.7,1-3.7,2.3l-7.6,10.5,10.1,14.8h1.4c.3,0,.5,0,.7,0,.7,0,1.1.7,1.1,1.8h-13.7v-1.8h4.5l-8-11.5-8.7,11.5h5.5v1.8h-11.4c0-.3,0-.7,0-1Z"/>
      <path d="M1645.3,342.3c-.4,1-1.1,2-2,2.9-2.4,2.4-5.5,3.7-9,3.7s-2.9-.3-4.2-.8c-3.3-1.4-4.9-3.9-4.9-7.6s.1-2.1.4-3c1.7-4.8,8.2-7.2,19.8-7.2v-4.6c-.1-4.7-2.5-7.3-7.1-7.6-2,0-3.4.6-4.3,1.8-.2.3-.7,1.4-1.4,3.2-.5,1.4-1.4,2.1-2.5,2.1s-.5,0-.7,0c-1.4-.2-2.1-1.1-2.1-2.6s.3-1.7.9-2.5c1.9-2.5,5.5-3.8,11-3.8h1.3c7,.4,10.5,4.1,10.5,11.1v15.5c0,2.4.7,3.7,2,3.8,1.6,0,2.5-1.9,2.9-5.4h1.9c0,.3,0,.6,0,.9-.4,4.6-2.5,6.8-6.2,6.8-3.4,0-5.4-2.3-6-6.6ZM1640,345.2c2.8-1.4,4.6-3.7,5.4-7.1v-5.9c-3.8,0-6.7.3-8.7.7-3.8.9-5.7,3-5.7,6.2s0,1.6.2,2.3c.7,3,2.5,4.5,5.5,4.5s2.2-.2,3.3-.7Z"/>
      <path d="M1672,346.9c3.4,0,5.7-1,6.8-3.1.4-.7.7-1.5.7-2.4,0-2.1-1.5-3.8-4.5-5.3-.6-.3-1.7-.8-3.2-1.5-4-1.7-6.7-3.2-8-4.7-1.4-1.6-2.1-3.5-2.1-5.7,0-3.4,1.9-5.8,5.6-7.1,1.7-.6,3.6-1,5.6-1,3.2,0,6,.7,8.4,2.1,0-1.4.3-2.2,1-2.4.3,0,.6,0,1,0v9.2h-1.9c0-4.5-2.6-6.8-7.5-6.8-3.7,0-5.9,1.1-6.8,3.2-.2.6-.4,1.2-.4,1.8,0,2.1,1.5,3.9,4.6,5.4.7.3,1.8.8,3.2,1.4,4,1.6,6.6,3.2,7.9,4.6,1.4,1.6,2.1,3.4,2.1,5.6,0,4-2.1,6.6-6.3,7.9-1.6.5-3.4.8-5.3.8-3.5,0-6.6-.9-9.2-2.6,0,1.3-.3,2-1,2.2-.3,0-.6,0-1,0v-11.2h2.1c0,6.3,2.8,9.5,8.2,9.5Z"/>
    </g>
  </g>
</svg>