<svg width="2054" height="383" viewBox="0 0 2054 383" fill="none" xmlns="http://www.w3.org/2000/svg">
<g clip-path="url(#clip0_325_240)">
<path d="M293.888 3.58968C293.607 2.58008 292.878 1.23395 291.755 0.616976C290.521 -0.112177 289.454 0.0560887 288.557 0.0560887H234.74C225.593 0.0560887 224.639 0.729153 221.496 9.19854C212.686 33.0923 203.931 56.9861 195.121 80.8799L155.951 187.168C154.492 191.15 152.977 195.133 151.461 199.339L151.237 199.9C149.441 195.525 147.701 191.15 145.906 186.775C143.324 180.381 140.743 173.931 138.161 167.537C130.586 148.972 123.01 130.462 115.434 111.897L96.8028 66.2968C88.4413 45.8245 80.0798 25.4082 71.8305 4.9358C70.8765 2.4679 69.2491 0 64.7597 0C54.5463 0.0560887 44.389 0.112177 34.1756 0.112177H0V8.52548L2.46917 8.63766C2.97423 8.63766 3.42317 8.63766 3.92823 8.63766C4.76999 8.63766 5.55564 8.63766 6.34129 8.80592C8.41764 9.14246 10.4379 9.4229 12.5142 9.70334C14.9834 10.0399 17.5087 10.3764 19.9779 10.769L21.1563 10.9373C23.1766 11.2738 25.5896 11.7225 27.9466 12.3395C28.9006 12.5639 29.8546 12.9004 31.033 13.4052C31.987 13.7417 32.3798 13.9661 32.7166 14.1904C32.8849 14.2465 32.9971 14.3587 33.1655 14.4709L34.4001 15.2C36.757 16.6583 39.0578 18.0045 41.4709 20.865V66.1847C41.4709 114.926 41.4709 182.176 41.4709 192.384C41.4709 200.797 41.1342 207.696 40.4608 214.091C39.2823 225.196 34.2317 231.983 24.9723 234.843C21.0441 236.077 16.8353 236.582 12.402 237.143C10.4379 237.367 8.52987 237.648 6.62187 237.928C6.45352 237.928 6.28517 237.928 6.11682 237.928C2.41306 238.04 1.62741 240.34 1.57129 242.191C1.57129 243.537 1.96412 244.659 2.69364 245.444C3.87211 246.622 5.38729 246.622 5.89235 246.622H6.95858H49.9446H92.9307H94.0531C96.6906 246.622 98.3741 244.939 98.3741 242.303C98.3741 240.396 97.5885 238.096 93.7164 237.928C93.548 237.928 93.3797 237.928 93.2113 237.928C91.3594 237.76 89.5075 237.592 87.6557 237.423C83.5591 237.087 79.4064 236.694 75.3659 235.965C62.7956 233.609 55.6125 227.608 53.3678 217.568C52.021 211.51 51.2915 205.172 51.2354 198.722C51.1792 188.907 51.1231 137.978 51.067 93.0511C51.067 72.747 51.067 53.3964 51.067 38.9255C53.3678 44.1418 55.6686 49.5824 58.1378 55.6961L98.6547 155.31C110.383 184.139 122.168 212.969 133.953 241.798L134.121 242.247C134.682 243.705 135.861 246.734 140.126 246.734C144.166 246.622 145.064 243.649 145.513 242.191L145.681 241.63C148.038 235.236 150.339 228.842 152.64 222.504C154.885 216.278 157.129 210.108 159.374 203.882C170.149 174.436 180.979 144.989 191.81 115.543L193.325 111.448C203.314 84.3574 213.247 57.2105 223.236 30.1196C223.853 28.437 224.47 26.8104 225.088 25.1277C225.088 44.5344 225.088 47.2828 225.088 51.0407V83.9648L225.256 86.5448V199.339C225.256 284.089 214.369 299.233 195.121 318.808C192.539 321.388 188.162 325.202 184.234 327.502L183.785 327.782C180.867 329.745 178.566 331.26 178.566 334.457C178.566 337.261 181.091 338.944 183.392 338.944C184.964 338.944 186.03 338.439 186.815 338.047C190.07 336.42 194.952 333.111 199.666 329.801C225.705 311.797 240.52 296.26 247.535 279.49C257.411 256.157 257.411 236.414 257.411 183.578V86.5448V74.598C257.411 62.0902 257.411 57.6031 257.411 49.4702V46.8901V40.9447C257.411 35.6163 257.692 30.0635 258.253 24.3425C259.151 15.5927 263.023 11.6664 272.114 10.3203C275.537 9.81552 279.017 9.53508 282.44 9.25463C284.797 9.03028 287.098 8.86201 289.454 8.58157C291.026 8.4133 292.653 7.34762 293.495 6.00149C293.776 5.49669 294.112 4.65536 293.832 3.53359L293.888 3.58968Z" fill="#CFA96B"/>
</g>
<g clip-path="url(#clip1_325_240)">
<path fill-rule="evenodd" clip-rule="evenodd" d="M1351.07 217.277C1350.24 218.363 1349.57 219.397 1348.79 220.379C1347.34 222.188 1345.59 223.687 1343.46 224.72C1341.5 225.754 1339.38 226.271 1337.15 226.116C1334.72 225.961 1332.6 225.082 1330.94 223.222C1329.91 222.084 1329.24 220.792 1328.82 219.345C1328.2 217.226 1328.05 215.003 1328.41 212.832C1328.67 211.333 1329.03 209.834 1329.6 208.387C1330.79 205.338 1332.65 202.701 1335.08 200.531C1336.48 199.29 1338.03 198.256 1339.74 197.481C1342.07 196.396 1344.5 195.775 1347.03 195.775C1351.17 195.775 1354.43 197.378 1356.71 200.892C1357.59 202.288 1358.16 203.839 1358.47 205.441C1358.93 207.508 1358.93 209.628 1358.67 211.747C1358.47 213.504 1358.26 215.21 1357.95 216.916C1357.74 218.104 1357.33 219.242 1356.92 220.43C1356.55 221.568 1356.19 222.705 1355.78 223.79C1354.95 226.064 1353.81 228.235 1352.57 230.354C1351.17 232.68 1349.52 234.851 1347.65 236.815C1345.59 238.935 1343.26 240.744 1340.57 242.036C1339.48 242.553 1338.24 242.915 1337.1 243.276C1335.34 243.845 1333.53 244 1331.72 243.897C1329.29 243.742 1327.01 243.018 1325.25 241.261C1323.44 239.451 1322.72 237.281 1323.13 234.696C1323.44 232.577 1324.27 230.716 1325.87 229.217C1326.86 228.339 1328 227.822 1329.34 227.77C1330.69 227.77 1331.88 228.184 1332.5 229.527C1332.86 230.354 1332.86 231.285 1332.6 232.164C1332.6 232.267 1332.39 232.37 1332.29 232.422C1330.79 232.732 1329.44 233.352 1328.2 234.283C1326.91 235.265 1326.03 236.557 1325.93 238.211C1325.87 239.451 1326.29 240.589 1327.27 241.416C1328.41 242.398 1329.81 242.811 1331.25 242.966C1332.6 243.121 1333.94 243.07 1335.24 242.708C1336.43 242.398 1337.57 241.829 1338.6 241.106C1341.14 239.296 1343 236.867 1344.45 234.179C1345.48 232.267 1346.41 230.251 1347.29 228.235C1347.91 226.736 1348.43 225.186 1348.95 223.687C1349.41 222.395 1349.83 221.102 1350.19 219.81C1350.45 218.983 1350.66 218.156 1350.91 217.174L1351.07 217.277ZM1334.62 219.087C1334.62 220.017 1334.72 221.257 1335.13 222.395C1335.55 223.428 1336.17 224.255 1337.26 224.669C1338.5 225.186 1339.79 225.082 1341.03 224.824C1343 224.359 1344.71 223.325 1346.21 221.981C1347.76 220.585 1349 218.983 1350.09 217.277C1351.43 215.158 1352.26 212.884 1352.62 210.455C1352.78 209.318 1352.98 208.129 1353.14 206.992C1353.4 205.338 1353.55 203.684 1353.35 201.978C1353.24 201.306 1353.09 200.582 1352.83 199.962C1352 197.946 1350.4 196.912 1348.28 196.654C1346 196.396 1344.19 197.326 1342.53 198.773C1340.88 200.22 1339.64 201.978 1338.65 203.942C1337.67 205.854 1336.89 207.819 1336.27 209.834C1335.86 211.127 1335.6 212.47 1335.24 213.814C1334.82 215.417 1334.57 217.071 1334.57 219.035L1334.62 219.087Z" fill="black"/>
<path fill-rule="evenodd" clip-rule="evenodd" d="M1106.83 195.982C1108.12 195.93 1109.62 196.137 1111.12 196.551C1113.34 197.171 1115.26 198.308 1117.02 199.704C1117.79 200.324 1118.57 200.944 1119.35 201.513C1120.33 202.236 1121.42 201.978 1122.09 200.944C1122.81 199.859 1123.23 198.67 1123.64 197.481C1123.8 197.068 1123.9 196.654 1124.05 196.241C1124.16 195.93 1124.36 195.93 1124.57 196.034C1124.62 196.034 1124.67 196.344 1124.62 196.447C1124.36 197.378 1124.11 198.36 1123.85 199.29C1123.59 200.22 1123.33 201.203 1123.07 202.133C1122.71 203.425 1122.4 204.666 1122.04 205.958C1121.73 207.147 1121.36 208.335 1121.05 209.524C1120.79 210.455 1120.54 211.333 1120.28 212.264C1120.12 212.884 1119.97 213.556 1119.76 214.228C1119.76 214.383 1119.5 214.435 1119.35 214.538C1119.29 214.383 1119.14 214.228 1119.14 214.124C1119.24 213.142 1119.45 212.16 1119.5 211.127C1119.6 208.852 1119.29 206.681 1118.52 204.562C1117.74 202.495 1116.55 200.686 1114.79 199.29C1113.5 198.256 1112.05 197.584 1110.45 197.223C1108.69 196.809 1106.88 196.602 1105.02 196.861C1103.98 197.016 1102.95 197.119 1101.96 197.378C1099.38 198.05 1097.2 199.342 1095.86 201.771C1095.39 202.598 1095.19 203.477 1095.03 204.459C1094.67 207.147 1095.7 209.214 1097.77 210.868C1099.48 212.264 1101.45 213.246 1103.41 214.28C1106.21 215.778 1109.05 217.226 1111.79 218.828C1113.34 219.707 1114.74 220.896 1115.83 222.343C1116.6 223.377 1117.12 224.514 1117.38 225.754C1117.74 227.615 1117.64 229.476 1117.12 231.285C1116.29 234.386 1114.59 236.867 1112.21 238.935C1110.4 240.537 1108.33 241.674 1106.05 242.553C1103.51 243.535 1100.88 244 1098.19 244C1096.06 244 1093.94 243.742 1091.93 242.915C1090.01 242.191 1088.36 241.054 1086.8 239.71C1086.08 239.09 1085.36 238.521 1084.58 238.004C1083.6 237.384 1082.46 237.642 1081.89 238.624C1081.37 239.555 1080.96 240.537 1080.54 241.571C1080.23 242.294 1080.08 243.07 1079.82 243.793C1079.82 243.897 1079.51 243.948 1079.35 244C1079.35 244 1079.15 243.793 1079.2 243.69C1079.35 243.018 1079.51 242.346 1079.72 241.726C1079.92 241.002 1080.13 240.33 1080.29 239.607C1080.54 238.624 1080.85 237.642 1081.11 236.66C1081.37 235.678 1081.63 234.748 1081.89 233.766C1082.2 232.577 1082.56 231.336 1082.87 230.148C1083.03 229.527 1083.23 228.855 1083.39 228.235C1083.7 227.098 1084.01 225.961 1084.32 224.824C1084.32 224.72 1084.63 224.617 1084.79 224.617C1084.84 224.617 1084.99 224.876 1084.99 224.979C1084.89 225.703 1084.73 226.426 1084.68 227.201C1084.68 228.545 1084.58 229.838 1084.68 231.181C1084.73 232.163 1084.94 233.197 1085.2 234.179C1085.46 235.058 1085.82 235.937 1086.18 236.764C1086.91 238.263 1087.94 239.555 1089.29 240.589C1090.32 241.416 1091.51 242.036 1092.81 242.501C1095.08 243.328 1097.41 243.483 1099.74 243.328C1102.69 243.121 1105.48 242.346 1107.96 240.64C1109.62 239.451 1110.86 237.901 1111.48 235.885C1111.95 234.283 1112.1 232.732 1111.64 231.13C1111.28 229.786 1110.5 228.649 1109.46 227.667C1108.07 226.323 1106.41 225.237 1104.7 224.359C1102.17 223.015 1099.58 221.826 1097.05 220.482C1095.13 219.448 1093.27 218.259 1091.77 216.657C1090.68 215.52 1089.86 214.176 1089.44 212.677C1089.08 211.282 1089.08 209.886 1089.29 208.439C1089.65 206.268 1090.58 204.407 1091.87 202.701C1093.06 201.203 1094.51 199.962 1096.17 198.98C1097.51 198.205 1098.91 197.584 1100.41 197.119C1102.38 196.499 1104.39 196.241 1106.67 196.241L1106.83 195.982Z" fill="black"/>
<path fill-rule="evenodd" clip-rule="evenodd" d="M1299.33 219.552C1298.09 218.415 1296.85 217.329 1295.76 216.192C1294.52 214.848 1293.69 213.297 1293.33 211.488C1292.97 209.834 1293.02 208.18 1293.44 206.63C1294.21 203.115 1296.23 200.427 1299.28 198.515C1302.02 196.809 1305.08 195.982 1308.28 195.93C1309.16 195.93 1310.04 195.93 1310.92 195.982C1312.27 196.085 1313.56 196.396 1314.85 196.809C1316.3 197.274 1317.6 197.998 1318.79 198.928C1320.34 200.169 1321.42 201.719 1321.74 203.735C1322.3 207.302 1321.06 210.145 1318.48 212.47C1316.87 213.969 1314.96 215.003 1312.89 215.727C1311.8 216.14 1310.72 216.45 1309.63 216.864C1309.53 216.864 1309.47 217.019 1309.37 217.071C1309.42 217.174 1309.53 217.277 1309.58 217.329C1310.92 218.26 1312.32 219.19 1313.61 220.172C1315.01 221.257 1316.2 222.601 1316.87 224.307C1317.65 226.323 1317.86 228.39 1317.44 230.51C1316.77 233.973 1314.8 236.609 1312.22 238.831C1310.66 240.175 1308.9 241.261 1306.99 242.088C1305.8 242.604 1304.51 242.966 1303.27 243.328C1301.35 243.897 1299.44 244.052 1297.47 243.948C1294.42 243.793 1291.57 243.07 1289.04 241.261C1287.18 239.917 1285.88 238.159 1285.37 235.937C1284.95 234.128 1285.11 232.267 1285.68 230.458C1286.87 226.581 1289.61 224.1 1293.02 222.239C1294.57 221.412 1296.23 220.741 1297.83 220.069C1298.35 219.862 1298.87 219.758 1299.33 219.603V219.552ZM1298.4 243.173C1299.7 243.018 1300.78 243.018 1301.92 242.76C1303.78 242.398 1305.59 241.777 1307.25 240.847C1309.99 239.245 1312.16 237.177 1312.94 233.973C1313.51 231.75 1313.1 229.734 1311.65 227.977C1310.15 226.219 1308.28 224.979 1306.37 223.738C1304.51 222.55 1302.59 221.412 1300.68 220.275C1300.47 220.172 1300.16 220.12 1299.95 220.172C1298.82 220.741 1297.63 221.309 1296.54 221.981C1294.47 223.273 1292.76 224.979 1291.47 227.046C1290.49 228.597 1289.81 230.303 1289.5 232.112C1289.19 234.076 1289.19 236.04 1289.81 237.953C1290.64 240.382 1292.5 241.829 1294.88 242.553C1296.07 242.915 1297.32 242.966 1298.45 243.173H1298.4ZM1318.27 204.2C1318.27 203.942 1318.17 203.373 1318.11 202.805C1317.96 201.564 1317.44 200.427 1316.61 199.445C1315.37 197.998 1313.72 197.274 1311.91 196.964C1308.54 196.344 1305.23 196.706 1302.18 198.256C1299.75 199.497 1298.2 201.306 1297.78 204.097C1297.63 205.389 1297.78 206.63 1298.2 207.819C1298.71 209.266 1299.7 210.455 1300.89 211.488C1303.01 213.349 1305.39 214.745 1307.77 216.244C1308.13 216.45 1308.44 216.554 1308.8 216.347C1310.15 215.727 1311.49 215.158 1312.73 214.383C1316.25 212.057 1318.22 208.749 1318.37 204.2H1318.27Z" fill="black"/>
<path fill-rule="evenodd" clip-rule="evenodd" d="M1155.04 231.647C1155.04 231.647 1155.2 231.543 1155.25 231.44C1156.7 227.615 1158.3 223.893 1160.37 220.379C1161.82 217.898 1163.42 215.468 1165.39 213.349C1166.53 212.16 1167.77 211.023 1169.22 210.248C1170.51 209.524 1171.91 209.214 1173.41 209.473C1174.81 209.731 1175.89 210.558 1176.77 211.643C1177.86 212.987 1178.58 214.538 1178.95 216.295C1179.26 217.794 1179.15 219.19 1178.74 220.637C1178.17 222.653 1177.55 224.617 1176.82 226.581C1176.2 228.39 1175.38 230.148 1174.7 231.957C1174.03 233.714 1173.41 235.523 1172.79 237.332C1172.37 238.624 1172.06 239.917 1172.12 241.261C1172.22 242.811 1173.31 243.121 1174.5 242.708C1175.84 242.243 1176.82 241.261 1177.65 240.175C1179.15 238.263 1180.34 236.143 1181.33 233.869C1181.74 232.991 1182.1 232.06 1182.52 231.181C1182.72 231.285 1182.88 231.337 1183.08 231.44C1182.15 233.662 1181.22 235.885 1180.03 237.953C1179.05 239.607 1177.96 241.209 1176.41 242.398C1174.75 243.69 1172.89 244.207 1170.77 243.69C1169.06 243.225 1167.87 242.191 1167.15 240.537C1166.48 239.038 1166.53 237.436 1166.79 235.885C1167.05 234.541 1167.41 233.197 1167.82 231.905C1168.24 230.561 1168.75 229.269 1169.27 227.977C1169.89 226.426 1170.56 224.927 1171.18 223.377C1171.65 222.239 1172.17 221.102 1172.58 219.965C1173.15 218.415 1173.67 216.864 1174.08 215.313C1174.29 214.641 1174.34 213.866 1174.29 213.142C1174.24 211.85 1173.62 210.816 1172.22 210.351C1171.5 210.145 1170.77 210.351 1170.1 210.558C1168.34 211.23 1166.99 212.47 1165.75 213.814C1163.06 216.812 1161.04 220.224 1159.29 223.79C1158.35 225.703 1157.48 227.615 1156.65 229.579C1155.92 231.337 1155.3 233.094 1154.73 234.903C1154.11 236.97 1153.65 239.038 1153.13 241.105C1152.97 241.674 1152.87 242.243 1152.72 242.863C1152.72 242.966 1152.51 243.173 1152.35 243.173C1150.85 243.328 1149.4 243.483 1147.9 243.638C1147.28 243.69 1146.66 243.793 1145.94 243.845C1146.09 243.276 1146.2 242.811 1146.3 242.346C1146.66 241.157 1146.97 239.968 1147.33 238.78C1147.7 237.642 1148.01 236.454 1148.37 235.316C1148.78 234.024 1149.15 232.784 1149.56 231.492C1149.87 230.458 1150.18 229.424 1150.54 228.442C1150.9 227.357 1151.27 226.271 1151.58 225.237C1151.94 224.152 1152.25 223.118 1152.56 222.033C1152.97 220.585 1153.44 219.087 1153.85 217.639C1154.11 216.605 1154.42 215.572 1154.63 214.538C1154.84 213.556 1155.04 212.574 1154.84 211.54C1154.63 210.61 1153.75 210.196 1152.87 210.351C1151.27 210.61 1150.13 211.695 1149.15 212.884C1147.59 214.745 1146.46 216.864 1145.52 219.035C1145.16 219.914 1144.8 220.741 1144.44 221.619C1144.44 221.723 1144.13 221.878 1144.08 221.826C1143.92 221.723 1143.77 221.568 1143.77 221.412C1143.77 221.154 1143.92 220.896 1144.02 220.637C1144.7 219.242 1145.32 217.794 1145.99 216.399C1147.02 214.383 1148.27 212.47 1150.08 210.972C1151.78 209.524 1153.8 208.956 1155.97 209.318C1157.63 209.628 1158.87 210.61 1159.7 212.109C1160.68 213.866 1160.53 215.675 1160.06 217.484C1159.54 219.397 1158.82 221.309 1158.15 223.17C1157.42 225.186 1156.54 227.15 1155.77 229.114C1155.51 229.734 1155.3 230.406 1155.1 231.026C1155.1 231.181 1155.1 231.337 1155.1 231.492C1154.84 231.698 1154.63 232.422 1154.78 232.784C1154.89 232.319 1154.99 231.905 1155.1 231.492L1155.04 231.647Z" fill="black"/>
<path fill-rule="evenodd" clip-rule="evenodd" d="M1400.63 196.551C1400.63 196.551 1400.43 196.964 1400.32 197.068C1398.46 199.238 1396.54 201.358 1394.68 203.528C1392.35 206.268 1390.03 209.007 1387.75 211.747C1384.96 215.107 1382.37 218.621 1379.94 222.291C1378.13 225.031 1376.52 227.822 1375.23 230.82C1374.14 233.352 1373.32 235.937 1373.26 238.728C1373.26 239.451 1373.37 240.227 1373.52 240.95C1373.63 241.467 1373.63 241.881 1373.21 242.243C1371.76 243.638 1370 244.155 1368.04 243.897C1366.64 243.69 1365.56 242.76 1365.3 241.105C1364.99 239.348 1365.4 237.694 1366.12 236.092C1367.68 232.474 1370.11 229.424 1372.64 226.426C1376.94 221.361 1381.7 216.657 1386.25 211.85C1389.25 208.697 1392.15 205.441 1395.04 202.236C1395.04 202.236 1395.04 202.185 1395.1 202.133C1395.1 202.133 1395.1 202.081 1395.04 202.03C1394.68 202.236 1394.37 202.391 1394.01 202.598C1392.72 203.322 1391.32 203.89 1389.87 204.252C1388.42 204.614 1386.97 204.562 1385.53 204.459C1383.46 204.252 1381.44 204.097 1379.37 203.787C1377.25 203.477 1375.07 203.167 1372.9 203.115C1371.66 203.115 1370.47 203.063 1369.28 203.58C1368.5 203.89 1367.94 204.407 1367.52 205.131C1366.69 206.578 1365.97 208.129 1365.24 209.628C1364.99 210.196 1364.78 210.816 1364.52 211.437C1364.42 211.747 1364.26 211.799 1363.74 211.643C1364.06 210.816 1364.37 209.989 1364.68 209.214C1365.19 207.87 1365.66 206.526 1366.23 205.234C1366.95 203.425 1367.62 201.616 1368.35 199.859C1368.71 198.98 1369.02 198.05 1369.38 197.171C1369.49 196.964 1369.64 196.706 1369.85 196.602C1370.16 196.447 1370.32 196.706 1370.21 196.964C1369.75 198.153 1369.28 199.342 1368.81 200.531C1368.4 201.564 1367.99 202.598 1367.62 203.632C1367.62 203.684 1367.62 203.787 1367.73 203.89C1368.04 203.373 1368.4 202.805 1368.71 202.288C1369.64 200.789 1370.68 199.393 1371.97 198.256C1373.11 197.274 1374.4 196.551 1375.9 196.189C1377.71 195.775 1379.52 195.827 1381.28 196.292C1382.84 196.654 1384.18 197.481 1385.53 198.36C1386.77 199.238 1388.06 200.117 1389.41 200.789C1390.75 201.513 1392.25 201.719 1393.75 201.564C1394.79 201.461 1395.82 201.099 1396.54 200.324C1397.01 199.91 1397.27 199.29 1397.63 198.722C1398.05 198.101 1398.41 197.429 1398.82 196.757C1398.92 196.654 1399.08 196.499 1399.18 196.499C1399.65 196.499 1400.11 196.499 1400.74 196.499L1400.63 196.551Z" fill="black"/>
<path fill-rule="evenodd" clip-rule="evenodd" d="M1276.93 201.771C1274.29 202.701 1271.55 203.373 1268.76 203.684C1268.66 203.115 1268.71 203.063 1269.17 203.012C1270.36 202.753 1271.55 202.546 1272.69 202.185C1274.14 201.771 1275.59 201.306 1276.98 200.737C1278.8 200.014 1280.55 199.135 1282.16 197.946C1282.93 197.378 1283.71 196.706 1284.49 196.137C1284.69 195.982 1285 195.93 1285.26 195.827C1285.26 195.827 1285.31 195.93 1285.37 195.93C1285.21 196.499 1285.06 197.016 1284.9 197.584C1284.64 198.515 1284.38 199.445 1284.12 200.376C1283.87 201.254 1283.61 202.133 1283.35 203.012C1283.09 203.942 1282.83 204.821 1282.57 205.751C1282.21 206.94 1281.85 208.129 1281.54 209.318C1281.28 210.196 1281.02 211.075 1280.81 211.954C1280.5 213.142 1280.14 214.331 1279.83 215.468C1279.47 216.657 1279.16 217.846 1278.8 219.035C1278.43 220.224 1278.07 221.412 1277.76 222.601C1277.4 223.79 1277.09 224.979 1276.78 226.168C1276.47 227.305 1276.16 228.39 1275.79 229.527C1275.43 230.768 1275.07 232.008 1274.71 233.249C1274.29 234.645 1273.88 236.04 1273.52 237.436C1273.31 238.211 1273.16 238.986 1273.05 239.813C1272.95 240.847 1273.47 241.571 1274.45 241.984C1275.69 242.501 1276.98 242.501 1278.28 242.604C1278.54 242.604 1278.8 242.604 1279.11 242.604C1279.21 242.604 1279.31 242.76 1279.47 242.811C1279.36 242.966 1279.26 243.121 1279.11 243.225C1279 243.276 1278.9 243.225 1278.74 243.225H1257.74C1257.64 242.656 1257.74 242.604 1258.2 242.553C1259.6 242.398 1261.05 242.346 1262.45 242.088C1264.41 241.726 1265.81 240.589 1266.38 238.624C1266.95 236.815 1267.47 234.955 1268.03 233.094C1268.6 231.181 1269.17 229.269 1269.74 227.357C1270.31 225.392 1270.83 223.428 1271.4 221.464C1271.97 219.5 1272.54 217.588 1273.1 215.623C1273.67 213.659 1274.19 211.747 1274.76 209.783C1275.38 207.56 1276.05 205.338 1276.67 203.115C1276.78 202.65 1276.93 202.185 1277.04 201.719C1277.04 201.719 1276.93 201.616 1276.93 201.564V201.771Z" fill="black"/>
<path fill-rule="evenodd" clip-rule="evenodd" d="M1240.61 231.13C1239.89 232.37 1239.27 233.559 1238.54 234.696C1237.41 236.609 1236.11 238.366 1234.51 239.917C1233.11 241.364 1231.51 242.553 1229.59 243.225C1227.78 243.897 1225.92 244.155 1223.96 243.793C1220.54 243.225 1218.42 241.157 1217.18 238.004C1215.88 234.748 1215.83 231.388 1216.3 227.925C1216.56 225.858 1217.23 223.893 1218.06 221.929C1219.25 219.19 1220.9 216.761 1222.97 214.641C1224.27 213.349 1225.66 212.212 1227.27 211.333C1228.82 210.506 1230.42 209.886 1232.18 209.576C1233.53 209.318 1234.87 209.266 1236.22 209.421C1238.65 209.731 1240.77 210.713 1242.01 212.987C1242.74 214.28 1242.94 215.727 1242.74 217.226C1242.32 220.275 1240.51 222.343 1238.13 223.997C1236.42 225.186 1234.51 226.013 1232.54 226.581C1231.15 226.995 1229.65 227.305 1228.2 227.563C1226.65 227.822 1225.09 227.925 1223.59 228.08C1223.13 228.08 1222.87 228.235 1222.77 228.752C1222.51 229.838 1222.25 230.871 1222.04 231.957C1221.83 233.042 1221.63 234.179 1221.47 235.316C1221.26 237.022 1221.21 238.676 1221.89 240.278C1222.45 241.571 1223.44 242.449 1224.83 242.811C1227.52 243.483 1229.85 242.656 1232.03 241.106C1234.2 239.555 1235.91 237.591 1237.3 235.316C1238.18 233.973 1238.91 232.525 1239.68 231.078C1239.89 230.665 1240.1 230.561 1240.46 230.871C1240.46 230.871 1240.56 230.923 1240.72 231.026L1240.61 231.13ZM1238.13 213.866C1238.03 213.349 1237.98 212.781 1237.87 212.264C1237.66 211.488 1237.25 210.868 1236.48 210.506C1234.92 209.834 1233.42 210.093 1232.03 210.92C1229.8 212.212 1228.3 214.228 1227.16 216.45C1226.33 218.001 1225.66 219.603 1225.04 221.257C1224.32 223.17 1223.75 225.082 1223.13 226.995C1223.02 227.305 1223.13 227.46 1223.49 227.408C1224.06 227.357 1224.63 227.253 1225.2 227.201C1227.16 226.943 1228.97 226.271 1230.73 225.341C1232.65 224.359 1234.3 222.963 1235.6 221.257C1237.2 219.087 1238.03 216.606 1238.18 213.918L1238.13 213.866Z" fill="black"/>
<path fill-rule="evenodd" clip-rule="evenodd" d="M1211.02 231.13C1210.61 231.853 1210.25 232.629 1209.83 233.352C1208.49 235.678 1206.99 237.901 1205.07 239.813C1203.57 241.364 1201.81 242.553 1199.79 243.276C1198.04 243.897 1196.23 244.155 1194.36 243.948C1191.1 243.587 1188.72 241.829 1187.33 238.883C1186.34 236.764 1185.93 234.541 1185.93 232.267C1185.93 231.13 1185.93 229.941 1186.03 228.804C1186.19 227.667 1186.4 226.53 1186.76 225.392C1187.38 223.222 1188.36 221.206 1189.6 219.345C1191.36 216.605 1193.53 214.228 1196.28 212.419C1197.73 211.437 1199.33 210.661 1201.04 210.145C1203.11 209.473 1205.18 209.318 1207.3 209.576C1209.52 209.886 1211.44 210.868 1212.63 212.832C1213.56 214.383 1213.87 216.089 1213.56 217.846C1213.3 219.603 1212.63 221.206 1211.18 222.343C1210.4 222.963 1209.57 223.273 1208.59 223.325C1207.19 223.428 1205.85 222.498 1205.43 220.999C1205.43 220.896 1205.54 220.689 1205.64 220.637C1207.19 219.552 1208.38 218.208 1209.31 216.605C1209.94 215.468 1210.3 214.331 1210.14 212.987C1210.04 211.799 1209.31 211.023 1208.23 210.61C1206.42 209.938 1204.55 210.093 1202.74 210.765C1200.98 211.385 1199.74 212.626 1198.66 214.021C1197.57 215.365 1196.74 216.864 1196.12 218.466C1195.55 219.914 1194.93 221.361 1194.41 222.808C1193.95 224.152 1193.59 225.547 1193.22 226.891C1192.76 228.597 1192.29 230.354 1191.98 232.112C1191.67 233.766 1191.41 235.42 1191.36 237.126C1191.31 238.314 1191.41 239.607 1191.98 240.692C1192.5 241.829 1193.38 242.604 1194.62 242.915C1196.07 243.276 1197.47 243.121 1198.92 242.759C1202.17 241.829 1204.5 239.658 1206.52 237.074C1207.97 235.265 1209.11 233.249 1210.19 231.13C1210.4 230.716 1210.45 230.716 1211.12 231.13H1211.02Z" fill="black"/>
<path fill-rule="evenodd" clip-rule="evenodd" d="M1141.64 231.233C1142.26 231.44 1142.32 231.44 1142.06 232.06C1141.07 234.541 1139.99 237.022 1138.49 239.245C1137.45 240.847 1136.26 242.294 1134.56 243.173C1133 244 1131.35 244.207 1129.64 243.587C1127.52 242.76 1126.49 241.157 1126.07 238.986C1125.71 237.281 1126.07 235.627 1126.49 233.973C1126.8 232.835 1127.11 231.698 1127.47 230.561C1127.78 229.631 1128.09 228.752 1128.45 227.822C1128.87 226.685 1129.28 225.547 1129.69 224.462C1130 223.635 1130.37 222.808 1130.68 221.929C1131.09 220.792 1131.5 219.655 1131.92 218.518C1132.23 217.691 1132.49 216.812 1132.69 215.934C1133.06 214.641 1133.31 213.349 1133.26 212.005C1133.21 210.92 1132.18 210.3 1131.19 210.455C1129.43 210.713 1128.24 211.902 1127.21 213.246C1125.55 215.313 1124.36 217.639 1123.33 220.069C1123.12 220.585 1122.92 221.154 1122.66 221.671C1122.61 221.774 1122.4 221.878 1122.24 221.929C1122.19 221.774 1121.98 221.568 1122.04 221.412C1122.24 220.844 1122.45 220.275 1122.71 219.707C1123.59 218.001 1124.36 216.244 1125.35 214.59C1126.38 212.781 1127.78 211.178 1129.64 210.145C1130.83 209.473 1132.07 209.266 1133.42 209.318C1134.81 209.369 1136.06 209.783 1137.09 210.661C1138.28 211.643 1138.85 212.987 1138.75 214.486C1138.69 215.778 1138.44 217.071 1138.18 218.311C1137.87 219.758 1137.4 221.154 1136.99 222.55C1136.63 223.687 1136.21 224.772 1135.8 225.909C1135.33 227.253 1134.81 228.597 1134.3 229.889C1133.88 230.923 1133.47 232.008 1133.11 233.042C1132.75 234.024 1132.38 235.006 1132.07 236.04C1131.76 237.074 1131.45 238.159 1131.24 239.245C1131.09 240.123 1130.93 241.106 1131.35 241.984C1131.56 242.449 1131.87 242.656 1132.38 242.76C1133.52 242.915 1134.4 242.346 1135.23 241.674C1136.63 240.485 1137.66 239.038 1138.54 237.487C1139.42 235.885 1140.2 234.231 1141.02 232.577C1141.23 232.112 1141.39 231.647 1141.59 231.181L1141.64 231.233Z" fill="black"/>
<path fill-rule="evenodd" clip-rule="evenodd" d="M1135.85 199.6C1135.95 197.739 1136.63 196.292 1138.28 195.465C1139.88 194.69 1141.9 195 1143.2 196.499C1144.18 197.636 1144.49 198.98 1144.23 200.427C1143.82 202.753 1141.9 204.407 1139.42 204.045C1137.97 203.839 1136.68 202.857 1136.21 201.203C1136.06 200.686 1136 200.117 1135.85 199.6Z" fill="black"/>
<path fill-rule="evenodd" clip-rule="evenodd" d="M1155.04 231.647C1154.94 232.06 1154.89 232.474 1154.73 232.939C1154.58 232.577 1154.73 231.853 1155.04 231.647Z" fill="white"/>
<path fill-rule="evenodd" clip-rule="evenodd" d="M1018 222.705L802 226.685L1018 230.665L1036.83 226.685L1018 222.705Z" fill="black"/>
<path fill-rule="evenodd" clip-rule="evenodd" d="M1446 222.705L1662 226.685L1446 230.665L1427.22 226.685L1446 222.705Z" fill="black"/>
</g>
<g clip-path="url(#clip2_325_240)">
<path d="M553.822 26.6707V111.571C553.822 131.724 553.822 135.669 573.306 136.27V138.242H513.487V136.27C532.757 135.669 532.757 131.724 532.757 111.571V4.93109L485.714 138.199H483.364L434.996 15.7795L435.209 105.225C435.209 124.392 435.209 135.626 460.376 136.227V138.199H410.769V136.227C432.988 135.626 432.817 124.392 432.817 105.225V23.2833C432.817 11.8346 431.663 2.35835 410 1.97243V0H450.72L493.619 109.213L532.373 0H573.306V1.97243C553.822 2.57274 553.822 6.51761 553.822 26.6707Z" fill="#231F20"/>
<path d="M694.525 136.441V138.199H643.551V136.441C661.069 135.669 659.104 130.138 653.977 118.475L647.268 102.695H605.737L601.806 112.557C594.713 129.923 592.747 135.669 612.231 136.441V138.199H575.229V136.441C589.586 135.669 592.149 130.695 599.627 112.557L633.852 30.2297H635.646L674.016 118.475C679.528 130.91 683.074 135.669 694.483 136.441H694.525ZM646.499 100.894L626.033 52.9127L606.549 100.894H646.499Z" fill="#231F20"/>
<path d="M699.653 136.27C712.642 135.884 712.642 132.711 712.642 122.248V47.7672C712.642 37.5191 712.642 34.1317 699.653 33.7458V31.7733H749.431V33.7458C731.742 34.1317 731.742 37.5191 731.742 47.7672V123.406C731.742 133.268 731.741 136.227 743.363 136.227H754.985C780.152 136.227 788.228 120.447 789.638 90.6034H791.39L790.792 138.199H699.696V136.227L699.653 136.27Z" fill="#231F20"/>
<path d="M915.3 136.441V138.199H864.326V136.441C881.844 135.669 879.879 130.138 874.751 118.475L868.043 102.695H826.512L822.581 112.557C815.488 129.923 813.522 135.669 833.006 136.441V138.199H796.004V136.441C810.36 135.669 812.924 130.695 820.402 112.557L854.627 30.2297H856.421L894.791 118.475C900.303 130.91 903.849 135.669 915.258 136.441H915.3ZM867.274 100.894L846.807 52.9127L827.323 100.894H867.274Z" fill="#231F20"/>
<path d="M1033.36 31.7733V33.7458C1013.1 34.1317 1013.1 42.8361 1013.1 57.4579V138.799H1011.14L939.313 45.7948V112.515C939.313 127.308 939.313 135.798 962.13 136.227V138.199H917.864V136.227C937.348 135.841 937.348 127.136 937.348 112.515V52.098C937.348 42.4073 936.365 34.1317 917.479 33.7458V31.7733H952.303L1011.14 109.384V57.4579C1011.14 42.8361 1011.35 34.1746 988.493 33.7458V31.7733H1033.36Z" fill="#231F20"/>
<path d="M1041.05 136.27C1054.81 135.884 1054.81 132.711 1054.81 122.248V47.7672C1054.81 37.3047 1054.81 34.1317 1041.05 33.7458V31.7733H1087.49V33.7458C1073.91 34.1317 1073.91 37.3047 1073.91 47.7672V122.205C1073.91 132.668 1073.91 135.841 1087.49 136.227V138.199H1041.05V136.227V136.27Z" fill="#231F20"/>
<path d="M1135.31 109.213C1135.31 99.1363 1140.99 91.2466 1149.49 91.2466C1155 91.2466 1158.72 95.1914 1160.69 98.9648C1153.59 106.469 1149.28 114.959 1149.28 122.248C1149.28 125.207 1150.05 127.994 1152.23 130.352C1156.16 135.112 1163.85 137.642 1171.11 137.642C1181.32 137.642 1196.11 134.683 1196.11 103.081V21.1394C1196.11 6.73201 1196.11 2.57274 1174.66 1.97243V0H1235.08V1.97243C1216.96 2.57274 1216.96 6.73201 1216.96 21.1394V92.6187C1216.96 120.276 1203.2 140 1171.11 140C1148.68 140 1135.31 126.193 1135.31 109.213Z" fill="#231F20"/>
<path d="M1335.19 93.6049L1334.42 138.242H1241.96V136.27C1254.94 135.884 1254.94 132.711 1254.94 122.248V47.7672C1254.94 37.3047 1254.94 34.1317 1241.96 33.7458V31.7733H1332.88L1333.48 70.879H1331.73C1330.36 44.8086 1320.92 33.7458 1303.18 33.7458H1285.67C1274.26 33.7458 1274.04 36.1041 1274.04 46.5666V81.1271H1285.24C1306.69 81.1271 1309.25 76.3675 1310.23 58.2297H1312.2V106.211H1310.23C1309.25 87.6447 1306.69 83.0995 1285.24 83.0995H1274.04V123.363C1274.04 133.611 1274.04 136.184 1285.67 136.184H1300.02C1325.4 136.184 1332.28 121.948 1333.48 93.5191H1335.23L1335.19 93.6049Z" fill="#231F20"/>
<path d="M1516.61 31.7733V33.7458C1501.87 34.1317 1499.48 39.2772 1492.21 57.4579L1459.14 139.614H1457.18L1431.03 73.6662L1404.66 139.614H1402.87L1365.7 51.5406C1360.4 39.1057 1356.85 34.1746 1345.61 33.7887V31.8162H1393.81V33.7887C1378.86 34.1746 1380.65 40.0919 1385.56 51.5406L1412.53 115.302L1430.04 71.0505L1422.18 51.4977C1417.05 38.8484 1414.92 34.1317 1403.3 33.7458V31.7733H1452.69V33.7458C1435.17 34.1317 1437.52 39.8775 1442.05 51.4977L1467.05 115.087L1489.86 57.415C1496.96 39.8346 1498.71 34.1317 1479.44 33.7029V31.7305H1516.61V31.7733Z" fill="#231F20"/>
<path d="M1614.41 93.6049L1613.65 138.242H1521.18V136.27C1534.17 135.884 1534.17 132.711 1534.17 122.248V47.7672C1534.17 37.3047 1534.17 34.1317 1521.18 33.7458V31.7733H1612.11L1612.71 70.879H1610.95C1609.59 44.8086 1600.14 33.7458 1582.41 33.7458H1564.89C1553.48 33.7458 1553.27 36.1041 1553.27 46.5666V81.1271H1564.47C1585.92 81.1271 1588.48 76.3675 1589.46 58.2297H1591.43V106.211H1589.46C1588.48 87.6447 1585.92 83.0995 1564.47 83.0995H1553.27V123.363C1553.27 133.611 1553.27 136.184 1564.89 136.184H1579.25C1604.63 136.184 1611.51 121.948 1612.71 93.5191H1614.46L1614.41 93.6049Z" fill="#231F20"/>
<path d="M1633.13 136.27C1646.12 135.884 1646.12 132.711 1646.12 122.248V47.7672C1646.12 37.5191 1646.12 34.1317 1633.13 33.7458V31.7733H1682.91V33.7458C1665.22 34.1317 1665.22 37.5191 1665.22 47.7672V123.406C1665.22 133.268 1665.22 136.227 1676.84 136.227H1688.46C1713.63 136.227 1721.7 120.447 1723.11 90.6034H1724.87L1724.27 138.199H1633.17V136.227L1633.13 136.27Z" fill="#231F20"/>
<path d="M1831.26 93.6049L1830.49 138.242H1738.03V136.27C1751.02 135.884 1751.02 132.711 1751.02 122.248V47.7672C1751.02 37.3047 1751.02 34.1317 1738.03 33.7458V31.7733H1828.95L1829.55 70.879H1827.8C1826.43 44.8086 1816.99 33.7458 1799.26 33.7458H1781.74C1770.33 33.7458 1770.12 36.1041 1770.12 46.5666V81.1271H1781.31C1802.76 81.1271 1805.32 76.3675 1806.31 58.2297H1808.27V106.211H1806.31C1805.32 87.6447 1802.76 83.0995 1781.31 83.0995H1770.12V123.363C1770.12 133.611 1770.12 136.184 1781.74 136.184H1796.09C1821.47 136.184 1828.35 121.948 1829.55 93.5191H1831.3L1831.26 93.6049Z" fill="#231F20"/>
<path d="M1953.25 109.599V121.433C1953.25 127.951 1952.65 131.124 1950.3 134.083C1948.12 136.87 1943.42 139.828 1936.33 139.828C1929.23 139.828 1925.52 137.47 1923.12 134.511C1920.77 131.553 1920.39 127.394 1920.39 121.691V109.041C1920.39 93.2619 1911.55 88.1164 1897.19 88.1164H1882.02V122.291C1882.02 132.753 1882.02 135.926 1897.74 136.312V138.285H1849.93V136.312C1862.92 135.926 1862.92 132.753 1862.92 122.291V47.7672C1862.92 37.3047 1862.92 34.1317 1849.93 33.7458V31.7733H1899.33C1924.49 31.7733 1943.98 38.5054 1943.98 59.8162C1943.98 77.7825 1930 85.6723 1909.15 87.4732V87.8591C1927.27 90.6462 1940.04 99.3078 1940.04 112.729V121.433C1940.04 124.778 1940.26 127.565 1940.81 129.152C1941.58 130.91 1942.99 132.11 1945.51 132.11C1948.25 132.11 1949.45 130.524 1950.26 129.366C1951.03 127.779 1951.24 125.207 1951.24 121.476V109.642H1953.21L1953.25 109.599ZM1899.33 86.1011C1916.63 86.1011 1923.12 80.5697 1923.12 59.8591C1923.12 39.1485 1916.84 33.7887 1899.33 33.7887H1893.6C1881.98 33.7887 1881.98 36.7473 1881.98 46.6095V86.1011H1899.28H1899.33Z" fill="#231F20"/>
<path d="M1968.03 94.7626H1969.78C1971.36 112.729 1982.56 137.599 2011.7 137.599C2020.37 137.599 2030.8 136.227 2037.29 129.709C2040.63 126.364 2041.82 121.819 2041.82 117.06C2041.82 104.239 2026.1 98.4931 2006.61 91.9755C1989.91 86.2297 1969.61 80.3124 1969.61 60.7596C1969.61 51.4977 1973.37 44.3798 1979.65 39.2343C1986.75 33.1026 1996.96 30.3583 2008.2 30.3583C2019.43 30.3583 2027.47 34.5176 2031.82 37.0903C2037.72 40.4349 2040.28 42.6217 2042.85 42.6217C2045.41 42.6217 2046.99 41.4211 2047.38 30.3583H2049.13L2049.73 72.5942H2047.93C2046.57 56 2035.33 32.3308 2008.2 32.3308C2000.72 32.3308 1993.24 33.7029 1988.33 37.2619C1984.4 40.2205 1982.43 44.5513 1982.43 49.5253C1982.43 61.9602 1996.02 66.5053 2013.92 72.4227C2034.77 79.3262 2054.04 85.6723 2054.04 105.997C2054.04 116.073 2050.11 124.178 2042.42 130.095C2034.94 135.841 2025.5 139.571 2011.74 139.571C1999.95 139.571 1991.87 136.012 1986.75 132.668C1981.62 129.709 1978.07 127.351 1975.55 127.351C1972.82 127.351 1970.81 129.109 1970.42 139.571H1968.63L1968.03 94.7626Z" fill="#231F20"/>
</g>
<path d="M799.956 338.151H818.779V340.056H813.433V358L806.694 355.876C806.499 355.974 806.279 356.096 806.035 356.242C803.008 357.902 799.614 358.732 795.854 358.732C790.776 358.732 786.235 357.219 782.231 354.191C776.567 349.895 773.735 343.742 773.735 335.734C773.735 328.898 775.981 323.381 780.474 319.182C784.673 315.275 789.775 313.322 795.781 313.322C799.346 313.322 802.666 314.079 805.742 315.593L812.261 314.201L812.554 328.703H810.576C809.551 324.846 808.33 321.94 806.914 319.987C804.668 316.96 801.055 315.446 796.074 315.446C795.098 315.446 794.146 315.52 793.218 315.666C785.649 317.082 781.865 323.869 781.865 336.027C781.865 337.248 781.914 338.444 782.012 339.616C782.744 350.896 787.456 356.535 796.147 356.535C800.151 356.34 803.594 354.875 806.475 352.141V340.056H799.956V338.151ZM839.141 327.824C837.969 327.824 836.87 328.093 835.845 328.63C832.524 330.339 830.767 334.074 830.571 339.836L837.749 340.056C839.897 340.104 841.582 339.982 842.803 339.689C844.951 339.152 846.025 337.688 846.025 335.295C846.025 334.27 845.879 333.293 845.586 332.365C844.609 329.338 842.461 327.824 839.141 327.824ZM852.104 350.896C851.812 351.53 851.494 352.165 851.152 352.8C848.662 356.755 844.683 358.732 839.214 358.732C835.942 358.732 833.013 357.927 830.425 356.315C825.884 353.386 823.613 348.796 823.613 342.546C823.613 338.981 824.395 335.832 825.957 333.098C828.74 328.361 833.086 325.993 838.994 325.993C842.119 325.993 844.902 326.652 847.344 327.971C850.859 329.973 852.617 332.707 852.617 336.174C852.617 337.834 852.056 339.152 850.933 340.129C849.224 341.496 845.244 342.131 838.994 342.033L830.571 341.887C830.62 343.693 830.767 345.354 831.011 346.867C832.183 353.41 835.356 356.682 840.532 356.682C841.265 356.682 842.021 356.608 842.803 356.462C846.221 355.729 848.711 353.654 850.273 350.236L852.104 350.896ZM864.702 342.326C864.751 351.945 867.827 356.804 873.931 356.901C879.839 356.853 882.817 351.896 882.866 342.033C882.817 332.658 879.79 327.922 873.784 327.824C867.778 327.873 864.751 332.707 864.702 342.326ZM874.004 325.993C877.471 325.993 880.571 326.921 883.306 328.776C887.7 331.804 889.897 336.296 889.897 342.253C889.897 346.745 888.481 350.529 885.649 353.605C882.524 357.023 878.545 358.732 873.711 358.732C870.195 358.732 867.021 357.707 864.189 355.656C859.893 352.531 857.744 347.99 857.744 342.033C857.744 337.688 859.111 334.025 861.846 331.047C865.02 327.678 869.072 325.993 874.004 325.993ZM911.65 356.169C911.943 356.169 912.188 356.193 912.383 356.242C913.115 356.34 913.481 356.926 913.481 358H894.878V356.169C896.343 356.169 897.417 356.071 898.101 355.876C899.419 355.437 900.078 354.094 900.078 351.848V328.63H894.878V326.799H905.938L906.23 333.83C906.816 332.463 907.598 331.242 908.574 330.168C910.918 327.629 913.604 326.359 916.631 326.359C917.168 326.359 917.681 326.408 918.169 326.506C920.415 326.994 921.538 328.361 921.538 330.607C921.538 330.949 921.489 331.315 921.392 331.706C920.903 333.22 919.854 333.977 918.242 333.977C917.9 333.977 917.559 333.928 917.217 333.83C916.436 333.586 915.654 332.78 914.873 331.413C914.189 330.192 913.481 329.582 912.749 329.582C912.163 329.582 911.455 329.924 910.625 330.607C908.135 332.707 906.719 335.856 906.377 340.056V356.169H911.65ZM932.012 337.712C932.012 338.151 932.012 338.591 932.012 339.03C932.305 344.89 934.6 347.819 938.896 347.819C942.998 347.526 945.269 344.157 945.708 337.712C945.708 336.833 945.684 336.027 945.635 335.295C945.146 330.314 942.9 327.824 938.896 327.824C938.555 327.824 938.213 327.849 937.871 327.897C933.965 328.337 932.012 331.608 932.012 337.712ZM938.97 325.993C941.704 325.993 944.194 326.604 946.44 327.824C946.685 326.945 947.075 326.115 947.612 325.334C949.028 323.137 950.884 322.038 953.179 322.038C953.765 322.038 954.326 322.136 954.863 322.331C956.426 322.917 957.207 324.016 957.207 325.627C957.207 325.773 957.183 325.969 957.134 326.213C956.89 327.434 956.157 328.044 954.937 328.044C954.448 328.044 953.936 327.8 953.398 327.312C952.568 326.53 951.812 326.14 951.128 326.14C949.81 326.286 948.784 327.214 948.052 328.923C950.786 331.071 952.178 333.977 952.227 337.639C952.227 340.471 951.323 342.961 949.517 345.109C946.88 348.137 943.315 349.65 938.823 349.65H938.604L932.085 349.577C931.694 349.577 931.328 349.626 930.986 349.724C929.521 350.017 928.789 350.773 928.789 351.994C928.838 353.703 929.912 354.631 932.012 354.777L945.708 355.07C946.392 355.07 947.051 355.119 947.686 355.217C952.617 355.852 955.083 358.342 955.083 362.688C955.083 364.055 954.692 365.349 953.911 366.569C951.519 370.183 946.562 371.989 939.043 371.989C936.064 371.989 933.525 371.55 931.426 370.671C928.203 369.353 926.592 367.351 926.592 364.665C926.592 363.005 927.373 361.32 928.936 359.611C926.934 358.342 925.908 356.413 925.859 353.825C925.859 353.093 925.957 352.385 926.152 351.701C927.031 349.064 928.984 347.746 932.012 347.746C931.621 347.502 931.206 347.233 930.767 346.94C927.251 344.45 925.493 341.374 925.493 337.712C925.493 334.978 926.348 332.585 928.057 330.534C930.645 327.507 934.282 325.993 938.97 325.993ZM939.043 370.085C941.387 370.085 943.535 369.865 945.488 369.426C949.541 368.449 951.567 366.862 951.567 364.665C951.567 364.128 951.47 363.615 951.274 363.127C950.688 361.76 948.687 361.052 945.269 361.003L933.257 360.856C932.427 360.856 931.572 360.734 930.693 360.49C929.668 361.76 929.131 363.029 929.082 364.299C929.082 364.982 929.253 365.666 929.595 366.35C930.913 368.84 934.062 370.085 939.043 370.085ZM974.858 356.169C975.151 356.169 975.396 356.193 975.591 356.242C976.323 356.34 976.689 356.926 976.689 358H959.624V356.169C961.089 356.169 962.188 356.071 962.92 355.876C964.434 355.437 965.19 354.094 965.19 351.848V328.63H959.624V326.799H971.416V356.169H974.858ZM972.222 316.325C972.222 316.96 972.075 317.595 971.782 318.229C971.001 319.841 969.731 320.646 967.974 320.646C967.339 320.646 966.729 320.524 966.143 320.28C964.482 319.499 963.652 318.181 963.652 316.325C963.652 315.69 963.799 315.056 964.092 314.421C964.873 312.81 966.167 312.004 967.974 312.004C968.608 312.004 969.243 312.15 969.878 312.443C971.44 313.273 972.222 314.567 972.222 316.325ZM1007.3 358.732C1003.79 358.684 1001.71 356.462 1001.08 352.067C1000.64 353.142 999.98 354.143 999.102 355.07C996.758 357.512 993.804 358.732 990.239 358.732C988.774 358.732 987.407 358.488 986.138 358C982.769 356.682 981.084 354.094 981.084 350.236C981.084 349.602 981.133 349.016 981.23 348.479C982.256 342.912 988.848 340.104 1001.01 340.056V335.441C1000.96 330.461 998.76 327.922 994.414 327.824C992.559 327.824 991.167 328.459 990.239 329.729C990.093 329.973 989.678 331.047 988.994 332.951C988.408 334.514 987.456 335.295 986.138 335.295C985.845 335.295 985.527 335.271 985.186 335.222C983.721 334.88 982.988 333.928 982.988 332.365C982.988 331.535 983.281 330.705 983.867 329.875C985.723 327.287 989.482 325.993 995.146 325.993C1003.11 326.042 1007.13 329.777 1007.23 337.199V352.653C1007.28 355.046 1007.92 356.291 1009.14 356.389C1010.65 356.34 1011.58 354.558 1011.92 351.042L1013.82 351.115C1013.77 351.945 1013.7 352.727 1013.6 353.459C1012.92 356.975 1010.82 358.732 1007.3 358.732ZM992.949 355.729C993.828 355.729 994.756 355.534 995.732 355.144C998.418 353.874 1000.18 351.555 1001.01 348.186V342.106C997.588 342.155 994.927 342.399 993.022 342.839C989.409 343.718 987.603 345.793 987.603 349.064C987.603 349.602 987.627 350.114 987.676 350.603C988.115 354.021 989.873 355.729 992.949 355.729Z" fill="black" fill-opacity="0.6"/>
<path d="M1166.32 358H1144.64V356.096H1150.5V315.959H1144.64V314.055H1178.99L1179.35 327.458H1177.74L1176.57 323.649C1176.57 323.552 1176.55 323.454 1176.5 323.356C1174.98 318.425 1172.35 315.959 1168.59 315.959H1157.53V334.27H1172.47V336.394H1157.53V356.096H1166.32V358ZM1197.88 356.169C1198.13 356.169 1198.37 356.193 1198.62 356.242C1199.3 356.34 1199.64 356.926 1199.64 358H1182.14V356.169C1183.75 356.169 1184.94 356.047 1185.73 355.803C1187.04 355.363 1187.7 354.045 1187.7 351.848V312.224H1182.14V310.393H1193.93V356.169H1197.88ZM1211.29 342.326C1211.34 351.945 1214.41 356.804 1220.52 356.901C1226.42 356.853 1229.4 351.896 1229.45 342.033C1229.4 332.658 1226.38 327.922 1220.37 327.824C1214.36 327.873 1211.34 332.707 1211.29 342.326ZM1220.59 325.993C1224.06 325.993 1227.16 326.921 1229.89 328.776C1234.29 331.804 1236.48 336.296 1236.48 342.253C1236.48 346.745 1235.07 350.529 1232.23 353.605C1229.11 357.023 1225.13 358.732 1220.3 358.732C1216.78 358.732 1213.61 357.707 1210.77 355.656C1206.48 352.531 1204.33 347.99 1204.33 342.033C1204.33 337.688 1205.7 334.025 1208.43 331.047C1211.6 327.678 1215.66 325.993 1220.59 325.993ZM1258.24 356.169C1258.53 356.169 1258.77 356.193 1258.97 356.242C1259.7 356.34 1260.07 356.926 1260.07 358H1241.46V356.169C1242.93 356.169 1244 356.071 1244.69 355.876C1246 355.437 1246.66 354.094 1246.66 351.848V328.63H1241.46V326.799H1252.52L1252.82 333.83C1253.4 332.463 1254.18 331.242 1255.16 330.168C1257.5 327.629 1260.19 326.359 1263.22 326.359C1263.75 326.359 1264.27 326.408 1264.75 326.506C1267 326.994 1268.12 328.361 1268.12 330.607C1268.12 330.949 1268.07 331.315 1267.98 331.706C1267.49 333.22 1266.44 333.977 1264.83 333.977C1264.49 333.977 1264.14 333.928 1263.8 333.83C1263.02 333.586 1262.24 332.78 1261.46 331.413C1260.77 330.192 1260.07 329.582 1259.33 329.582C1258.75 329.582 1258.04 329.924 1257.21 330.607C1254.72 332.707 1253.3 335.856 1252.96 340.056V356.169H1258.24ZM1285.85 356.169C1286.14 356.169 1286.38 356.193 1286.58 356.242C1287.31 356.34 1287.68 356.926 1287.68 358H1270.61V356.169C1272.08 356.169 1273.18 356.071 1273.91 355.876C1275.42 355.437 1276.18 354.094 1276.18 351.848V328.63H1270.61V326.799H1282.41V356.169H1285.85ZM1283.21 316.325C1283.21 316.96 1283.06 317.595 1282.77 318.229C1281.99 319.841 1280.72 320.646 1278.96 320.646C1278.33 320.646 1277.72 320.524 1277.13 320.28C1275.47 319.499 1274.64 318.181 1274.64 316.325C1274.64 315.69 1274.79 315.056 1275.08 314.421C1275.86 312.81 1277.16 312.004 1278.96 312.004C1279.6 312.004 1280.23 312.15 1280.87 312.443C1282.43 313.273 1283.21 314.567 1283.21 316.325ZM1317.56 358L1316.9 350.383C1314.66 355.852 1310.85 358.635 1305.48 358.732C1302.84 358.732 1300.45 357.951 1298.3 356.389C1294.44 353.557 1292.51 349.138 1292.51 343.132C1292.51 339.226 1293.44 335.734 1295.3 332.658C1298.08 328.215 1302.06 325.993 1307.23 325.993C1311.14 325.993 1314.31 327.238 1316.76 329.729V312.224H1309.87V310.393H1323.05L1323.13 356.169H1326.79C1327.08 356.169 1327.35 356.193 1327.6 356.242C1328.23 356.389 1328.55 356.975 1328.55 358H1317.56ZM1299.47 342.253C1299.47 344.597 1299.71 346.696 1300.2 348.552C1301.42 353.337 1303.91 355.729 1307.67 355.729C1309.48 355.729 1311.09 355.144 1312.51 353.972C1315.49 351.384 1316.98 347.014 1316.98 340.861C1316.98 338.127 1316.61 335.734 1315.88 333.684C1314.46 329.826 1312.02 327.897 1308.55 327.897C1307.14 327.897 1305.87 328.239 1304.74 328.923C1301.23 330.974 1299.47 335.417 1299.47 342.253ZM1358.8 358.732C1355.28 358.684 1353.21 356.462 1352.57 352.067C1352.13 353.142 1351.47 354.143 1350.59 355.07C1348.25 357.512 1345.3 358.732 1341.73 358.732C1340.27 358.732 1338.9 358.488 1337.63 358C1334.26 356.682 1332.58 354.094 1332.58 350.236C1332.58 349.602 1332.62 349.016 1332.72 348.479C1333.75 342.912 1340.34 340.104 1352.5 340.056V335.441C1352.45 330.461 1350.25 327.922 1345.91 327.824C1344.05 327.824 1342.66 328.459 1341.73 329.729C1341.58 329.973 1341.17 331.047 1340.49 332.951C1339.9 334.514 1338.95 335.295 1337.63 335.295C1337.34 335.295 1337.02 335.271 1336.68 335.222C1335.21 334.88 1334.48 333.928 1334.48 332.365C1334.48 331.535 1334.77 330.705 1335.36 329.875C1337.21 327.287 1340.97 325.993 1346.64 325.993C1354.6 326.042 1358.63 329.777 1358.72 337.199V352.653C1358.77 355.046 1359.41 356.291 1360.63 356.389C1362.14 356.34 1363.07 354.558 1363.41 351.042L1365.32 351.115C1365.27 351.945 1365.19 352.727 1365.1 353.459C1364.41 356.975 1362.31 358.732 1358.8 358.732ZM1344.44 355.729C1345.32 355.729 1346.25 355.534 1347.22 355.144C1349.91 353.874 1351.67 351.555 1352.5 348.186V342.106C1349.08 342.155 1346.42 342.399 1344.51 342.839C1340.9 343.718 1339.09 345.793 1339.09 349.064C1339.09 349.602 1339.12 350.114 1339.17 350.603C1339.61 354.021 1341.37 355.729 1344.44 355.729Z" fill="black" fill-opacity="0.6"/>
<path d="M1495.64 314.055H1516.29C1521.37 314.055 1525.81 315.251 1529.62 317.644C1535.77 321.55 1538.85 327.678 1538.85 336.027C1538.85 342.473 1536.77 347.722 1532.62 351.774C1528.33 355.925 1522.83 358 1516.14 358H1495.64V356.096H1501.5V315.959H1495.64V314.055ZM1516.14 315.959H1508.53V356.096H1516.29C1526.06 356.047 1530.96 349.26 1531.01 335.734C1531.01 332.072 1530.65 328.898 1529.91 326.213C1528.01 319.377 1523.42 315.959 1516.14 315.959ZM1571.15 358.732C1567.63 358.684 1565.56 356.462 1564.92 352.067C1564.48 353.142 1563.83 354.143 1562.95 355.07C1560.6 357.512 1557.65 358.732 1554.08 358.732C1552.62 358.732 1551.25 358.488 1549.98 358C1546.61 356.682 1544.93 354.094 1544.93 350.236C1544.93 349.602 1544.98 349.016 1545.08 348.479C1546.1 342.912 1552.69 340.104 1564.85 340.056V335.441C1564.8 330.461 1562.6 327.922 1558.26 327.824C1556.4 327.824 1555.01 328.459 1554.08 329.729C1553.94 329.973 1553.52 331.047 1552.84 332.951C1552.25 334.514 1551.3 335.295 1549.98 335.295C1549.69 335.295 1549.37 335.271 1549.03 335.222C1547.57 334.88 1546.83 333.928 1546.83 332.365C1546.83 331.535 1547.13 330.705 1547.71 329.875C1549.57 327.287 1553.33 325.993 1558.99 325.993C1566.95 326.042 1570.98 329.777 1571.08 337.199V352.653C1571.12 355.046 1571.76 356.291 1572.98 356.389C1574.49 356.34 1575.42 354.558 1575.76 351.042L1577.67 351.115C1577.62 351.945 1577.55 352.727 1577.45 353.459C1576.76 356.975 1574.67 358.732 1571.15 358.732ZM1556.79 355.729C1557.67 355.729 1558.6 355.534 1559.58 355.144C1562.26 353.874 1564.02 351.555 1564.85 348.186V342.106C1561.43 342.155 1558.77 342.399 1556.87 342.839C1553.25 343.718 1551.45 345.793 1551.45 349.064C1551.45 349.602 1551.47 350.114 1551.52 350.603C1551.96 354.021 1553.72 355.729 1556.79 355.729ZM1595.91 356.169C1596.15 356.169 1596.39 356.193 1596.64 356.242C1597.32 356.34 1597.66 356.926 1597.66 358H1580.16V356.169C1581.77 356.169 1582.97 356.047 1583.75 355.803C1585.07 355.363 1585.72 354.045 1585.72 351.848V312.224H1580.16V310.393H1591.95V356.169H1595.91ZM1617.44 356.169C1617.68 356.169 1617.93 356.193 1618.17 356.242C1618.85 356.34 1619.2 356.926 1619.2 358H1601.69V356.169C1603.3 356.169 1604.5 356.047 1605.28 355.803C1606.6 355.363 1607.26 354.045 1607.26 351.848V312.224H1601.69V310.393H1613.48V356.169H1617.44ZM1649.67 358.732C1646.15 358.684 1644.07 356.462 1643.44 352.067C1643 353.142 1642.34 354.143 1641.46 355.07C1639.12 357.512 1636.16 358.732 1632.6 358.732C1631.13 358.732 1629.77 358.488 1628.5 358C1625.13 356.682 1623.44 354.094 1623.44 350.236C1623.44 349.602 1623.49 349.016 1623.59 348.479C1624.62 342.912 1631.21 340.104 1643.37 340.056V335.441C1643.32 330.461 1641.12 327.922 1636.77 327.824C1634.92 327.824 1633.53 328.459 1632.6 329.729C1632.45 329.973 1632.04 331.047 1631.35 332.951C1630.77 334.514 1629.82 335.295 1628.5 335.295C1628.21 335.295 1627.89 335.271 1627.55 335.222C1626.08 334.88 1625.35 333.928 1625.35 332.365C1625.35 331.535 1625.64 330.705 1626.23 329.875C1628.08 327.287 1631.84 325.993 1637.51 325.993C1645.47 326.042 1649.49 329.777 1649.59 337.199V352.653C1649.64 355.046 1650.28 356.291 1651.5 356.389C1653.01 356.34 1653.94 354.558 1654.28 351.042L1656.18 351.115C1656.13 351.945 1656.06 352.727 1655.96 353.459C1655.28 356.975 1653.18 358.732 1649.67 358.732ZM1635.31 355.729C1636.19 355.729 1637.12 355.534 1638.09 355.144C1640.78 353.874 1642.54 351.555 1643.37 348.186V342.106C1639.95 342.155 1637.29 342.399 1635.38 342.839C1631.77 343.718 1629.96 345.793 1629.96 349.064C1629.96 349.602 1629.99 350.114 1630.04 350.603C1630.48 354.021 1632.23 355.729 1635.31 355.729ZM1670.54 356.755C1673.91 356.755 1676.11 355.705 1677.13 353.605C1677.47 352.922 1677.64 352.214 1677.64 351.481C1677.64 349.333 1676.13 347.502 1673.1 345.988C1672.47 345.646 1671.42 345.158 1669.95 344.523C1666.05 342.863 1663.43 341.301 1662.12 339.836C1660.75 338.273 1660.07 336.442 1660.07 334.343C1660.07 330.876 1661.97 328.41 1665.78 326.945C1667.58 326.311 1669.54 325.993 1671.64 325.993C1674.96 325.993 1677.77 326.677 1680.06 328.044C1680.06 326.628 1680.4 325.822 1681.09 325.627C1681.33 325.578 1681.65 325.554 1682.04 325.554V334.709H1680.06C1679.96 330.217 1677.47 327.946 1672.59 327.897C1669.07 327.897 1666.88 328.972 1666 331.12C1665.8 331.706 1665.71 332.292 1665.71 332.878C1665.71 334.978 1667.19 336.76 1670.17 338.225C1670.86 338.566 1671.91 339.03 1673.32 339.616C1677.28 341.228 1679.91 342.741 1681.23 344.157C1682.65 345.769 1683.36 347.673 1683.36 349.87C1683.36 353.923 1681.23 356.608 1676.98 357.927C1675.32 358.464 1673.52 358.732 1671.56 358.732C1667.9 358.684 1664.73 357.829 1662.04 356.169C1662.04 357.438 1661.73 358.171 1661.09 358.366C1660.8 358.415 1660.46 358.439 1660.07 358.439V347.307H1662.19C1662.29 353.557 1665.07 356.706 1670.54 356.755Z" fill="black" fill-opacity="0.6"/>
<circle cx="1429.5" cy="339.5" r="7.5" fill="black" fill-opacity="0.6"/>
<circle cx="1078.5" cy="339.5" r="7.5" fill="black" fill-opacity="0.6"/>
<defs>
<clipPath id="clip0_325_240">
<rect width="294" height="339" fill="white"/>
</clipPath>
<clipPath id="clip1_325_240">
<rect width="860" height="49" fill="white" transform="translate(802 195)"/>
</clipPath>
<clipPath id="clip2_325_240">
<rect width="1644" height="140" fill="white" transform="translate(410)"/>
</clipPath>
</defs>
</svg>
