<svg width="112" height="130" viewBox="0 0 112 130" fill="none" xmlns="http://www.w3.org/2000/svg">
<g clip-path="url(#clip0_7_406)">
<path d="M111.652 0.0874072C111.419 -0.0582674 111.013 0.0291373 110.694 0.0291373C103.813 0.0291373 96.9041 0.0291373 90.0238 0.0291373C86.8595 0.0291373 86.8885 0.0291372 85.8434 2.91349C81.7211 14.2178 77.5697 25.4931 73.4184 36.7683C69.9056 46.3245 66.3929 55.8808 62.8802 65.437C62.0674 67.6804 61.2255 69.9238 60.4126 72.1672C59.5708 74.4689 58.6998 76.7705 57.7709 79.3344C57.4225 78.6643 57.1902 78.2564 57.0161 77.8485C55.2162 73.42 53.4453 68.9623 51.6744 64.5338C47.2037 53.4917 42.704 42.4496 38.2042 31.4074C38.0301 30.9996 37.8849 30.6208 37.7107 30.2129C33.7916 20.5401 29.8434 10.8965 25.9533 1.22367C25.5759 0.378756 25.1695 2.40654e-06 24.1244 2.40654e-06C16.4894 0.0582722 8.85433 2.40654e-06 1.24832 2.40654e-06H0V1.31107C0.580612 1.31107 1.10316 1.31107 1.59668 1.39848C3.36755 1.66069 5.13841 1.89377 6.88025 2.15599C6.88025 2.15599 7.05443 2.15599 7.34474 2.24339C8.24469 2.38907 9.14463 2.56387 10.0446 2.79695C10.5091 2.91349 10.9445 3.05917 11.351 3.23398C11.6703 3.35052 11.9316 3.46706 12.1348 3.5836C12.2799 3.671 12.3961 3.75841 12.5412 3.81668C13.6444 4.48678 14.8056 5.12775 16.0539 6.70103C16.0539 17.6849 16.0539 68.1757 16.0539 73.857C16.0539 76.7122 15.9668 79.5675 15.6475 82.3936C15.212 86.5598 13.325 89.9686 8.94142 91.338C6.61897 92.0663 4.12234 92.1829 1.68377 92.5908C1.19025 92.6782 0.580612 92.4742 0.551581 93.29C0.551581 94.1349 1.16122 93.9892 1.65474 93.9892C12.7735 93.9892 23.8631 93.9892 34.9819 93.9892C35.4754 93.9892 36.085 94.164 36.085 93.3191C36.085 92.5034 35.4754 92.649 34.9819 92.5908C32.6594 92.3286 30.2789 92.2411 27.9855 91.8041C23.3406 90.9301 19.7408 88.6284 18.6667 83.8794C18.1151 81.403 17.8248 78.8391 17.8248 76.3335C17.7957 70.3026 17.7667 24.9104 17.7377 9.52712C17.8538 9.7602 17.9699 9.99328 18.0861 10.2555C18.1151 10.3429 18.1441 10.4012 18.1731 10.4594C19.7408 13.7225 21.0762 16.9565 22.4116 20.2196C27.3468 32.4272 32.311 44.6347 37.2462 56.8422C37.5365 57.5706 37.8269 58.2698 38.1172 58.9982C42.675 70.2152 47.2328 81.4612 51.7906 92.6782C52.0518 93.29 52.197 94.0184 53.2421 93.9601C54.2582 93.931 54.2872 93.2317 54.5194 92.649C56.2903 87.7544 58.0612 82.8306 59.832 77.9359C64.0124 66.4567 68.2219 55.0067 72.4023 43.5276C72.6055 42.974 72.7797 42.4496 72.9829 41.9251C76.8439 31.3783 80.705 20.8023 84.5951 10.2555C85.3499 8.21605 86.1047 6.1766 86.8595 4.13716C86.9756 4.13716 87.1208 4.19543 87.2369 4.22457V5.47737C87.2369 25.4348 87.2369 11.6248 87.2369 31.5823H87.295V76.5083C87.295 108.819 83.4339 115.462 75.3053 123.736C74.1731 124.872 72.4313 126.358 70.9507 127.232C69.8186 127.99 69.2089 128.368 69.2089 129.097C69.2089 129.592 69.7024 129.854 70.0798 129.854C70.4572 129.854 70.6895 129.738 70.9507 129.592C72.1991 128.951 74.2022 127.582 75.8279 126.446C85.9305 119.424 91.4173 113.539 94.0591 107.275C97.804 98.3886 97.804 90.6096 97.804 70.3317V31.524C97.804 30.0672 97.804 28.8727 97.804 27.8821C97.804 23.0166 97.804 21.2685 97.804 18.0928C97.804 17.1605 97.804 16.0825 97.804 14.7714C97.804 12.5863 97.9202 10.372 98.1524 8.21605C98.5298 4.3411 100.388 2.44734 104.365 1.86464C106.6 1.54415 108.865 1.42761 111.129 1.19453C111.448 1.1654 111.797 0.903185 111.971 0.640971C112.058 0.495296 111.826 0.0291373 111.623 -0.0874023L111.652 0.0874072Z" fill="url(#paint0_linear_7_406)"/>
</g>
<defs>
<linearGradient id="paint0_linear_7_406" x1="4.64489" y1="97.8059" x2="107.199" y2="-4.41022" gradientUnits="userSpaceOnUse">
<stop offset="0.05" stop-color="#B29673"/>
<stop offset="0.47" stop-color="#D8C099"/>
<stop offset="0.95" stop-color="#B49A76"/>
</linearGradient>
<clipPath id="clip0_7_406">
<rect width="112" height="130" fill="white"/>
</clipPath>
</defs>
</svg>
