<svg width="41" height="42" viewBox="0 0 41 42" fill="none" xmlns="http://www.w3.org/2000/svg">
<path d="M2.55981 11.8784L20.2176 22.0971L37.7554 11.9384M20.2176 40.2149V22.0771" stroke="#FFD7C4" stroke-width="1.5" stroke-linecap="round" stroke-linejoin="round"/>
<path d="M16.0781 1.95988L5.39945 7.89914C2.97975 9.23897 1 12.5986 1 15.3582V26.6568C1 29.4164 2.97975 32.776 5.39945 34.1159L16.0781 40.0551C18.3578 41.315 22.0974 41.315 24.3771 40.0551L35.0557 34.1159C37.4754 32.776 39.4552 29.4164 39.4552 26.6568V15.3582C39.4552 12.5986 37.4754 9.23897 35.0557 7.89914L24.3771 1.95988C22.0774 0.68004 18.3578 0.68004 16.0781 1.95988Z" stroke="#FFD7C4" stroke-width="1.5" stroke-linecap="round" stroke-linejoin="round"/>
<path d="M30.2164 23.4774V16.1583L11.2388 5.19971" stroke="#FFD7C4" stroke-width="1.5" stroke-linecap="round" stroke-linejoin="round"/>
</svg>
